<?xml version="1.0" encoding="UTF-8"?>
<svg id="katman_2" data-name="katman 2" xmlns="http://www.w3.org/2000/svg" viewBox="0 0 128 128">
  <defs>
    <style>
      .cls-1 {
        fill: #dc322e;
      }

      .cls-2 {
        fill: #1d1d1d;
      }
    </style>
  </defs>
  <path class="cls-2" d="M16.55,92.93c-2.04-1.3-2.45-6.86-1.15-8.51,1.88-2.38,4.61-5.35,7.13-6.94,2.1-1.26,7.45-.15,10.04-.25l10.09-9.7-15.51-16.02c-1.48-1.53-1.47-6.58-.04-8.03l12.79-12.88c1.4-1.41,4.98-.31,6.32,1.02l16.57,16.53c2.65-4.22,5.44-5.26,10.31-5.43l9.4-9c.72-.69,3.6-1.55,4.44-2.02l14.15-13.92c1.54-1.51,7.05-1.1,8.71.43,1.5,1.39,1.91,6.59.43,8.14l-14.1,14.77c-1.86,1.95-3.44,7.31-6.06,8.44-5.85,2.52-3.42,7.5-5.84,10.83-3.68,5.07-8.91,9.99-13.35,14.44l-19.97,19.98v11.09s-6.69,6.43-6.69,6.43c-1.51,1.45-6.84,1.44-8.36-.26-3.37-3.76-.92-9.73,3.61-13.13-4.34.9-7.3,1.49-9.33-.56-2.75-2.77-2.51-6.2-1.59-9.33-2.86,3.98-7.96,6.42-11.98,3.86ZM38.94,94.28c1.53-.62,3.78,3.68,3.37,5.22-1.49,5.61-6.83,6.1-4.44,10,.61,1,3.7.85,4.53.01l5.48-5.6c.23-3.15-.12-6.51-.71-9.98l21.27-21.64,13.34-13.61.52-6.5,8.75-8.77c.4-.66,1.26-3.17,1.55-3.95l14.75-14.91c.85-.86.74-3.75-.2-4.23-.75-.38-3.39-.39-4.03.24l-14.55,14.43-3.96,1.28-9.62,9.43-5.68.6-35.34,34.43c-7.58-.97-9.69-2.54-15.71,5.76-.68.93.08,4.21,1.24,4.24,4.93.16,4.46-5.1,8.95-4.98,2.03.05,4.38,1.35,5.83,2.87l-3.03,4.07c-.72.96,1.28,3.83,2.5,3.89s3.16-1.49,5.2-2.31ZM44.92,64.68l14.68-14.9-17.22-16.81-14.14,14.66,16.68,17.05Z"/>
  <path class="cls-1" d="M38.94,94.28c-2.04.83-3.98,2.37-5.2,2.31s-3.22-2.92-2.5-3.89l3.03-4.07c-1.44-1.52-3.79-2.82-5.83-2.87-4.49-.12-4.02,5.13-8.95,4.98-1.16-.04-1.92-3.31-1.24-4.24,6.02-8.3,8.13-6.73,15.71-5.76l35.34-34.43,5.68-.6,9.62-9.43,3.96-1.28,14.55-14.43c.64-.63,3.28-.63,4.03-.24.94.48,1.05,3.37.2,4.23l-14.75,14.91c-.3.79-1.15,3.29-1.55,3.95l-8.75,8.77-.52,6.5-13.34,13.61-21.27,21.64c.59,3.47.94,6.83.71,9.98l-5.48,5.6c-.82.84-3.91.99-4.53-.01-2.39-3.9,2.94-4.39,4.44-10,.41-1.54-1.83-5.85-3.37-5.22ZM46.61,82.6c2.2-.48,4.63-1.61,6.47-3.48l16-16.16c.82-.82,1.21-3.55.68-4.48s-3.87-.86-4.65-.09l-19.94,19.9c.26,1.57.65,3.87.54,3.26-3.55-.08-4.01.21-6.1,1.91-1.23,1,.77,4.1,2.2,5,.81.51,3.2-.73,3.68-1.58s.82-2.65,1.11-4.28Z"/>
  <polygon class="cls-1" points="44.92 64.68 28.24 47.63 42.38 32.97 59.6 49.78 44.92 64.68"/>
  <path class="cls-2" d="M46.61,82.6c-.3,1.63-.64,3.43-1.11,4.28s-2.87,2.09-3.68,1.58c-1.43-.9-3.43-4-2.2-5,2.09-1.69,2.55-1.98,6.1-1.91.11.61-.29-1.69-.54-3.26l19.94-19.9c.77-.77,4.12-.84,4.65.09s.14,3.65-.68,4.48l-16,16.16c-1.85,1.86-4.28,2.99-6.47,3.48Z"/>
</svg>