<?xml version="1.0" encoding="UTF-8"?>
<svg id="katman_1" data-name="katman 1" xmlns="http://www.w3.org/2000/svg" viewBox="0 0 128 128">
  <defs>
    <style>
      .cls-1 {
        fill: #dc322e;
      }

      .cls-2 {
        fill: #1d1d1d;
      }
    </style>
  </defs>
  <path class="cls-2" d="M89.3,74.41c-.4-1.36-.69-.39-2.2-1.9l-6.89-6.92-12.9-12.94c-1.93-1.94-1.01-2.83-1.91-3.77-.73-.76-1.44-1.41-2.26-2.08-4.51-3.71-9.14-8.78-11.3-14.28-.97-2.48-1.48-5.65.21-7.92,2.05-2.74,5.68-2.45,8.57-1.36,2.17.82,4.09,1.95,5.99,3.3,3.13,2.21,5.82,4.85,8.3,7.76.81.96,1.58,1.83,2.43,2.73.9.96,2.21.3,3.44,1.54l19.83,19.91c.72.72,1.21,1.49,1.53,2.45,1.53.4,2.76,1.41,3.18,3.01.34,1.29.26,2.95-.77,3.97l-8.36,8.33c-1.05,1.05-2.63,1.25-4.09.87-1.18-.31-2.4-1.34-2.81-2.71ZM64.86,43.93l7.53-7.49c-2.21-2.66-4.65-5.01-7.4-7.04-1.81-1.29-3.62-2.38-5.67-3.18-.98-.3-1.92-.56-2.93-.5-1.24.06-2.11.9-2.16,2.18-.05,1.42.37,2.78.95,4.1,1.07,2.4,2.51,4.5,4.2,6.52,1.66,1.99,3.5,3.75,5.48,5.42ZM94.08,73.75l7.7-7.68c.4-.4.58-.82.37-1.34-.17-.43-.7-.68-1.22-.65-2.29.13-1.56-2.18-2.4-3.01l-12.78-12.85-6.56-6.62c-.46-.47-.88-.77-1.58-.8-.63-.03-1.29-.26-1.75-.71l-2.34-2.3-7.34,7.29c.85.82,1.64,1.55,2.35,2.45.34.43.49,1.13.57,1.65.11.68.39,1.01.86,1.47l19.15,19.25c.53.53,1.06.84,1.81.92s1.29.58,1.37,1.31l.12,1.04c.04.36.34.73.65.82.27.08.75.07,1.03-.21Z"/>
  <path class="cls-2" d="M82.17,90.19c-1.23,1.22-2.86,1.55-4.46,1-1.4-.48-2.45-1.7-2.82-3.25-.58-.27-1.25-.45-1.7-.9l-8.72-8.7-11.41-11.44c-1.82-1.83-1.11-3.01-1.79-3.68-1.07-1.06-2.1-1.99-3.23-2.98-2.44-2.13-4.68-4.37-6.65-6.95-2.3-3.02-4.8-7.31-4.64-11.2.06-1.58.64-3.06,1.83-4.09,2.35-2.04,5.86-1.43,8.51-.3,5.5,2.35,10.54,7.09,14.31,11.66.55.67,1.07,1.24,1.66,1.85.7.72,2.39.49,3.27,1.37l9.38,9.37,10.84,10.89c.63.63,1.03,1.36,1.37,2.17,1.3.32,2.34,1.1,2.93,2.28.95,1.88.45,3.83-1,5.27l-7.67,7.61ZM50.54,58.06l7.5-7.49c-2.57-3.09-5.49-5.77-8.79-7.98-1.33-.87-2.63-1.57-4.11-2.1-.99-.4-2.01-.61-3.08-.53s-1.83.82-2,1.88.06,2.05.36,3.05c.61,1.76,1.46,3.29,2.5,4.86,2.11,3.15,4.72,5.9,7.62,8.32ZM79.97,87.77l7.7-7.67c.27-.27.42-.64.34-1.02-.05-.23-.29-.56-.59-.7-.77-.35-2.24.25-2.52-1.53-.09-.57-.25-1.24-.69-1.69l-11.65-11.71-7.88-7.88c-1.19-1.19-1.79.03-3.66-1.82l-1.86-1.85-7.3,7.26,1.79,1.77c.64.63,1.06,1.44,1.15,2.34.07.71.41,1.13.89,1.61l5.86,5.88,13.07,13.1c.66.66,1.32,1.03,2.23,1.19,1.63.29,1.05,1.96,1.58,2.75.35.52,1.08.43,1.54-.03Z"/>
  <path class="cls-2" d="M61.99,104.42c-.73-.65-1.03-1.46-1.33-2.25-.72-.35-1.51-.74-2.15-1.38l-17.98-17.83-2.36-2.31c-.93-.91-.8-2.7-1.2-3.12-.88-.91-1.72-1.68-2.68-2.49-2.98-2.52-5.66-5.26-7.94-8.45-2.11-2.96-4.17-6.98-3.82-10.68.23-2.46,1.93-4.42,4.37-4.85,3.04-.54,6.26.86,8.86,2.43,3.8,2.3,7.08,5.22,9.97,8.58.99,1.16,1.9,2.25,2.96,3.33.74.76,2.32.46,3.21,1.35l20.31,20.26c.65.65,1.1,1.36,1.43,2.17,1.47.4,2.73,1.46,3.15,2.78.5,1.56.23,3.23-.91,4.37l-8.04,8.02c-1.63,1.63-4.14,1.59-5.83.08ZM36.15,72.3l7.58-7.52c-2.45-2.94-5.21-5.48-8.33-7.63-1.41-.94-2.79-1.72-4.34-2.36-1.02-.34-2.04-.67-3.11-.62-1.17.05-2.04.79-2.19,1.94-.12.9.04,1.78.27,2.67.44,1.48,1.08,2.78,1.86,4.14,2.22,3.56,4.96,6.68,8.26,9.39ZM65.66,101.9l7.82-7.83c.25-.25.31-.73.23-.98-.43-1.41-2.6.12-3.04-2.01-.11-.54-.26-1.24-.68-1.67l-7.33-7.3-12.36-12.35c-.86-.86-2.14-.45-3.12-1.33-.82-.74-1.53-1.5-2.33-2.32l-7.37,7.33,2.06,2.01c1.01.99.81,2.69,1.23,3.11l7.69,7.63,3.05,3.06,8.92,8.87c.56.55,1.27.89,2.01,1,2.07.3.89,2.44,1.95,2.96.35.17.9.17,1.26-.19Z"/>
  <path class="cls-1" d="M94.08,73.75c-.28.28-.76.29-1.03.21-.31-.09-.61-.46-.65-.82l-.12-1.04c-.08-.73-.65-1.23-1.37-1.31s-1.28-.39-1.81-.92l-19.15-19.25c-.46-.47-.75-.79-.86-1.47-.08-.52-.23-1.22-.57-1.65-.71-.9-1.49-1.63-2.35-2.45l7.34-7.29,2.34,2.3c.46.45,1.12.68,1.75.71.7.03,1.12.34,1.58.8l6.56,6.62,12.78,12.85c.83.84.11,3.14,2.4,3.01.51-.03,1.05.22,1.22.65.2.52.03.94-.37,1.34l-7.7,7.68Z"/>
  <path class="cls-1" d="M64.86,43.93c-1.98-1.66-3.82-3.42-5.48-5.42-1.69-2.02-3.13-4.11-4.2-6.52-.58-1.32-1-2.68-.95-4.1.05-1.27.91-2.11,2.16-2.18,1.01-.05,1.95.2,2.93.5,2.05.8,3.87,1.89,5.67,3.18,2.75,2.03,5.19,4.38,7.4,7.04l-7.53,7.49Z"/>
  <path class="cls-1" d="M79.97,87.77c-.46.46-1.2.55-1.54.03-.53-.79.04-2.47-1.58-2.75-.91-.16-1.57-.53-2.23-1.19l-13.07-13.1-5.86-5.88c-.48-.48-.81-.89-.89-1.61-.09-.89-.51-1.71-1.15-2.34l-1.79-1.77,7.3-7.26,1.86,1.85c1.87,1.85,2.47.63,3.66,1.82l7.88,7.88,11.65,11.71c.44.44.6,1.12.69,1.69.28,1.78,1.75,1.18,2.52,1.53.3.13.54.47.59.7.08.38-.07.75-.34,1.02l-7.7,7.67Z"/>
  <path class="cls-1" d="M50.54,58.06c-2.91-2.41-5.51-5.17-7.62-8.32-1.04-1.57-1.89-3.1-2.5-4.86-.3-1-.52-2.03-.36-3.05s.95-1.8,2-1.88,2.09.13,3.08.53c1.48.54,2.78,1.23,4.11,2.1,3.31,2.21,6.23,4.89,8.79,7.98l-7.5,7.49Z"/>
  <path class="cls-1" d="M65.66,101.9c-.36.36-.91.37-1.26.19-1.06-.53.11-2.66-1.95-2.96-.74-.11-1.45-.45-2.01-1l-8.92-8.87-3.05-3.06-7.69-7.63c-.42-.42-.22-2.13-1.23-3.11l-2.06-2.01,7.37-7.33c.8.82,1.51,1.58,2.33,2.32.97.88,2.26.47,3.12,1.33l12.36,12.35,7.33,7.3c.42.42.57,1.13.68,1.67.44,2.13,2.61.6,3.04,2.01.08.25.01.73-.23.98l-7.82,7.83Z"/>
  <path class="cls-1" d="M36.15,72.3c-3.3-2.71-6.04-5.83-8.26-9.39-.78-1.35-1.42-2.66-1.86-4.14-.23-.88-.39-1.77-.27-2.67.15-1.15,1.02-1.89,2.19-1.94,1.07-.05,2.08.28,3.11.62,1.55.65,2.93,1.42,4.34,2.36,3.11,2.15,5.88,4.69,8.33,7.63l-7.58,7.52Z"/>
</svg>