<?xml version="1.0" encoding="UTF-8"?>
<svg id="katman_1" data-name="katman 1" xmlns="http://www.w3.org/2000/svg" viewBox="0 0 128 128">
  <defs>
    <style>
      .cls-1 {
        fill: #dc322e;
      }

      .cls-2 {
        fill: #1d1d1d;
      }
    </style>
  </defs>
  <path class="cls-2" d="M79.61,112.06l-10.25-10.35-1.23-1.17c-1.42,1.83-2.59,3.4-5.07,3.4-1.43,0-2.78.03-4.22-.04-.85-.05-1.82-.48-2.48-1.06-1.69-1.48-3.23-2.98-4.82-4.56-.55-.55-.89-1.23-.89-2.01l-.02-4.05c0-.65.17-1.21.46-1.75,2.9-5.53.24-12.17-5.62-14.26-2.58-.92-5.36-.72-7.85.5-.4.2-.97.36-1.41.38-1.62.06-3.17.08-4.76.01-.91-.04-1.63-.59-2.2-1.21l-4.43-4.69c-.63-.66-.86-1.65-.86-2.54v-4.18c0-.99.38-1.89,1.07-2.6l2.23-2.33-11.32-11.21c-.36-.35-.5-.83-.5-1.31v-4.95c0-.52.21-.98.59-1.36l8.86-8.82,6.2-6.19c.22-.22.69-.38.98-.38l4.64-.02c.47,0,.92.11,1.27.46l6.75,6.66,1.43,1.56c.53-.56,1.09-1.17,1.7-1.59l4-.05,1.72-.46,5.09-.06c.53.04.99.2,1.35.55l4.57,4.53,5.74-5.7,6.03-5.95c.38-.87,0-2.1.78-2.86l6.54-6.49c.28-.28.73-.51,1.12-.51h5.01c.23,0,.7.2.87.37l5.52,5.57c.27.27.46.79.46,1.17v4.85c0,.48-.23.9-.56,1.24l-6.76,6.66c-.73.72-2.19.27-2.79.73l-10.33,10.34,5.22,5.22,10.14-10.14c.65-.45.23-2.32.9-2.99l6.55-6.49c.29-.28.72-.87,1.14-.87l5.38-.02c.29,0,.75.19.96.4l5.52,5.56c.26.26.56.78.56,1.14v5.36c-.01.46-.5.87-.82,1.19l-6.45,6.32c-.33.33-.83.5-1.27.55l-1.53.17-11.6,11.57c.17.26.34.45.54.65l3.87,3.81c.44.44.78.98.77,1.62l-.02,4.36c0,.65-.36,1.28-.44,1.9-.17,1.24-.04,2.5-.07,3.78-.02.64-.45,1.17-.85,1.62l-.58.64,7.91,8.01c.3.31.55.64.55,1.1v5.37c0,.26-.19.67-.4.87l-15.18,15c-.31.31-.76.54-1.17.54l-5.11.02c-.41,0-.81-.18-1.15-.53ZM74.02,41.37l10.8-10.88c.66.18,1.03,1.19,1.91.33l5.23-5.17c.31-.31.44-.92.12-1.25l-4.12-4.22c-.2-.2-.48-.41-.74-.41-.23,0-.51.21-.72.41l-5.18,5.11c-.68.67.41,1.19.48,1.74l-15.38,15.09,3.36,3.44,4.23-4.2ZM34.28,29.2l-15.09,15.51,18.52,18.03,15.09-15.51-18.52-18.03ZM98.27,48.73l2.42-2.51.85.63c.14.11.6.18.74.05l5.45-5.35c.24-.24.47-.54.47-.84s-.22-.62-.45-.86l-4.06-4.15c-.27-.28-.78-.54-1.12-.2l-5.84,5.85c-.38.38.2,1.03.61,1.46l-10.91,10.9-4.31,4.28,3.49,3.47,12.66-12.74ZM60.36,99.15c1.25.58,2.9-.07,3.19-1.42l.75-3.55-3.21-3.12c-.82-.8.42-2.07,1.17-2.78l18.74-17.95c.44.1.62.32.9.6l4.88,5,2.84,2.85c.52-.43.98-.81,1.33-1.37.37-.59-.99-1.54-.72-2.21.54-1.34.96-2.53,1.3-3.96l-11.9-11.84c-.68-.68-1.22-1.22-1.89-1.96.29-.49.53-.77,1.03-1.25l-7.11-7.09-.87.78c-.14.13-.48.18-.68-.02l-13.23-13.3c-.43-.27-1.13-.12-1.54.04l-2.66,1.02c-.54.21-1.59-.85-2.24-.86-.51.44-.94.89-1.35,1.44l7.9,7.71c.27.26.48.49.58.87l-3.88,4.07-13.56,14.02c-.51.53-2.44,2.67-2.91,2.38-.11-.07-.28-.23-.41-.37l-3.28-3.33-4.03.91c-.95.99-1.46,2.27-.53,3.52,1.12,1.5,2.38,2.77,3.71,4.09.49.49,1.13.81,1.82.43,5.08-2.77,11.22-2.66,16.09.54,6.53,4.29,8.78,13.15,4.9,20.07-.38.67-.52,1.28.1,1.94,1.09,1.14,3.28,3.42,4.75,4.1ZM92.51,99.47l5.12-5.07c.57-.56.56-1.42,0-1.95l-9.29-9.46-7.72-7.88-15.59,14.91,3.28,3.37,14.18,14.29c.33.34,1.11.56,1.46.21l8.56-8.43Z"/>
  <path class="cls-1" d="M60.36,99.15c-1.47-.68-3.66-2.95-4.75-4.1-.62-.66-.48-1.27-.1-1.94,3.88-6.92,1.63-15.79-4.9-20.07-4.88-3.2-11.01-3.32-16.09-.54-.69.38-1.33.06-1.82-.43-1.33-1.32-2.59-2.59-3.71-4.09-.93-1.24-.42-2.53.53-3.52l4.03-.91,3.28,3.33c.14.14.3.3.41.37.47.3,2.4-1.85,2.91-2.38l13.56-14.02,3.88-4.07c-.11-.37-.32-.61-.58-.87l-7.9-7.71c.41-.56.84-1,1.35-1.44.64,0,1.7,1.07,2.24.86l2.66-1.02c.4-.15,1.1-.31,1.54-.04l13.23,13.3c.2.2.54.15.68.02l.87-.78,7.11,7.09c-.5.49-.74.76-1.03,1.25.67.74,1.21,1.28,1.89,1.96l11.9,11.84c-.33,1.43-.76,2.62-1.3,3.96-.27.68,1.08,1.62.72,2.21s-.82.94-1.33,1.37l-2.84-2.85-4.88-5c-.27-.28-.46-.51-.9-.6l-18.74,17.95c-.75.72-1.99,1.98-1.17,2.78l3.21,3.12-.75,3.55c-.29,1.35-1.94,2-3.19,1.42Z"/>
  <path class="cls-1" d="M92.51,99.47l-8.56,8.43c-.35.35-1.13.12-1.46-.21l-14.18-14.29-3.28-3.37,15.59-14.91,7.72,7.88,9.29,9.46c.57.53.58,1.39,0,1.95l-5.12,5.07ZM80.54,78.02l-12.43,12.11,3.2,3.28,12.43-12.11-3.2-3.28ZM85.45,82.98l-12.35,12.1,3.25,3.32,12.35-12.1-3.25-3.32Z"/>
  <path class="cls-1" d="M34.28,29.2l18.52,18.03-15.09,15.51-18.52-18.03,15.09-15.51ZM41.29,39.01l-12.17,12.18,3.25,3.24,12.17-12.18-3.25-3.24ZM34.3,56.37l3.08,3.09,12.24-12.42-3.17-3.06-1.79,1.74-10.04,9.98c-.16.16-.46.53-.32.67Z"/>
  <path class="cls-1" d="M98.27,48.73l-12.66,12.74-3.49-3.47,4.31-4.28,10.91-10.9c-.41-.42-.99-1.07-.61-1.46l5.84-5.85c.34-.34.85-.08,1.12.2l4.06,4.15c.23.24.44.55.45.86s-.22.6-.47.84l-5.45,5.35c-.13.13-.59.05-.74-.05l-.85-.63-2.42,2.51Z"/>
  <path class="cls-1" d="M74.02,41.37l-4.23,4.2-3.36-3.44,15.38-15.09c-.07-.55-1.17-1.06-.48-1.74l5.18-5.11c.2-.2.49-.41.72-.41.25,0,.54.21.74.41l4.12,4.22c.32.33.19.94-.12,1.25l-5.23,5.17c-.88.87-1.25-.14-1.91-.33l-10.8,10.88Z"/>
  <rect class="cls-2" x="72.26" y="88.37" width="17.29" height="4.64" transform="translate(-40.35 82.53) rotate(-44.41)"/>
  <rect class="cls-2" x="67.24" y="83.42" width="17.36" height="4.58" transform="translate(-38.27 77.27) rotate(-44.24)"/>
  <path class="cls-2" d="M34.3,56.37c-.14-.14.16-.52.32-.67l10.04-9.98,1.79-1.74,3.17,3.06-12.24,12.42-3.08-3.09Z"/>
  <rect class="cls-2" x="28.22" y="44.43" width="17.22" height="4.59" transform="translate(-22.25 39.76) rotate(-45.03)"/>
</svg>