<?xml version="1.0" encoding="UTF-8" standalone="no"?>
<svg
   id="katman_2"
   data-name="katman 2"
   viewBox="0 0 128 128"
   version="1.1"
   sodipodi:docname="deployable_hab_activated.svg"
   inkscape:version="1.4.2 (f4327f4, 2025-05-13)"
   xmlns:inkscape="http://www.inkscape.org/namespaces/inkscape"
   xmlns:sodipodi="http://sodipodi.sourceforge.net/DTD/sodipodi-0.dtd"
   xmlns="http://www.w3.org/2000/svg"
   xmlns:svg="http://www.w3.org/2000/svg">
  <sodipodi:namedview
     id="namedview5"
     pagecolor="#ffffff"
     bordercolor="#000000"
     borderopacity="0.25"
     inkscape:showpageshadow="2"
     inkscape:pageopacity="0.0"
     inkscape:pagecheckerboard="0"
     inkscape:deskcolor="#d1d1d1"
     inkscape:zoom="3.1523438"
     inkscape:cx="19.98513"
     inkscape:cy="98.022305"
     inkscape:window-width="1278"
     inkscape:window-height="1000"
     inkscape:window-x="-7"
     inkscape:window-y="0"
     inkscape:window-maximized="0"
     inkscape:current-layer="katman_2" />
  <defs
     id="defs1">
    <style
       id="style1">
      .cls-1 {
        fill: #575750;
      }

      .cls-2 {
        fill: #f9ce0a;
      }
    </style>
  </defs>
  <path
     class="cls-2"
     d="M43.47,128H0v-44.37l7.36.04.02,36.98h35.6c.34.01.47.2.5.48v6.87Z"
     id="path1" />
  <path
     class="cls-2"
     d="M11.37,7.15h-4.07c0,1-.08,1.27-.08,2.11,0,.49,0,.75,0,1.52,0,.3-.05,2.08-.06,2.6-.02.84.03,6.25.03,6.57,0,.78-.03.93-.03,1.44v15.83c0,.82.04,1.25.04,2.4,0,.55-.02,1.86-.02,3.48l-7.17.02V0h43.26s.02,6.75.02,6.75c-.05.31-.26.36-.55.42l-11.48-.07c-2.06-.01-8.84.15-10.01.04h-9.88"
     id="path2" />
  <path
     class="cls-2"
     d="M120.97,120.79c-.08-.25-.11-2.17-.11-2.96v-32.57c-.02-.34.11-.51.4-.54h6.74s0,43.27,0,43.27h-43.15v-6.99c.01-.16.38-.27.55-.27h32.55s3.02.06,3.02.06Z"
     id="path3" />
  <polygon
     class="cls-2"
     points="120.78 43.35 120.76 7.28 83.89 7.25 83.82 2.96 83.79 0 127.99 0 128 43.34 120.78 43.35"
     id="polygon3" />
  <circle
     class="cls-1"
     cx="62.95"
     cy="21.71"
     r=".22"
     id="circle3" />
  <g
     id="g5"
     transform="translate(1.7919287,-1.0491107)">
    <path
       class="cls-1"
       d="M 99.47,83.32 H 30 c 0,0 -0.07,-6.54 -0.07,-6.54 L 44.12,55.39 43.91,45.44 h 41.65 c 0,0 -0.2,10.02 -0.2,10.02 l 14.2,21.32 z M 47.46,48.94 v 5.35 c 0,0 34.55,0 34.55,0 v -5.35 c 0,0 -34.55,0 -34.55,0 z m 22.48,30.58 c 0.08,0.23 0.15,0.29 0.23,0.32 0.06,0.02 0.11,-0.09 0.24,-0.09 h 22.8 c 0.46,0.01 0.74,0.06 1.2,0.04 l 1.63,-0.08 c -0.13,-0.52 0.22,-1.41 -0.1,-1.9 L 94.15,75.11 91.4,70.99 89.05,67.45 83.5,59.13 c -0.34,-0.51 -0.68,-0.97 -1,-1.49 l -0.55,-0.88 h -34.5 c 0,0 -2.02,3.2 -2.02,3.2 L 44.01,62.02 43,63.64 c -1.12,1.8 -2.32,3.49 -3.51,5.24 l -0.91,1.34 -1.25,1.88 -1.79,2.7 -2,3.01 c -0.29,0.52 0,1.34 -0.03,1.94 h 26.02 c 0,0 0,-15.57 0,-15.57 l 10.43,0.02 v 15.33 z"
       id="path4"
       style="fill:#1d1d1d" />
    <path
       class="cls-2"
       d="M 69.94,79.52 V 64.19 c 0,0 -10.42,-0.02 -10.42,-0.02 v 15.58 c 0,0 -26.01,0 -26.01,0 0.04,-0.6 -0.26,-1.42 0.03,-1.94 l 2,-3.01 1.79,-2.7 1.25,-1.88 0.91,-1.34 c 1.2,-1.75 2.39,-3.45 3.51,-5.24 l 1.01,-1.62 1.42,-2.06 2.02,-3.19 h 34.5 c 0,0 0.55,0.88 0.55,0.88 0.33,0.52 0.66,0.98 1,1.49 l 5.55,8.32 2.35,3.54 2.75,4.12 1.79,2.7 c 0.32,0.49 -0.03,1.38 0.1,1.9 l -1.63,0.08 c -0.45,0.02 -0.74,-0.02 -1.2,-0.02 h -22.8 c -0.12,-0.01 -0.18,0.1 -0.24,0.08 -0.09,-0.03 -0.16,-0.08 -0.23,-0.32 z"
       id="path5"
       style="fill:#14c4ff" />
    <rect
       class="cls-2"
       x="62.060001"
       y="34.34"
       width="5.3499999"
       height="34.549999"
       transform="rotate(-89.98,64.740309,51.617713)"
       id="rect5"
       style="fill:#14c4ff" />
  </g>
  <path
     style="fill:#dc322e;stroke-width:0.448623"
     d="m 66.510161,55.406401 c -5.792747,0.09372 -11.677594,-0.178603 -17.413929,0.139318 -4.700123,7.431542 -10.098389,14.511196 -14.181565,22.289201 0.801145,1.65833 3.529566,0.60757 4.990054,1.01027 7.102655,0.0669 14.205834,0.0231 21.308711,0.0359 0.763755,-4.90941 0.261293,-10.360661 0.540625,-15.477486 3.242586,0 6.485171,0 9.727757,0 0.08049,5.060733 0.160793,10.121466 0.240959,15.182206 4.999349,0.68242 10.516629,0.10908 15.718447,0.29144 3.427398,-0.29318 7.177746,0.51845 10.440123,-0.65157 0.317405,-1.79188 -1.712232,-3.41539 -2.350003,-5.04002 -3.847982,-5.98372 -7.718319,-12.060154 -11.857848,-17.783666 -5.721111,0.0015 -11.442221,0.0029 -17.163331,0.0044 z"
     id="path6" />
  <path
     style="fill:#dc322e;stroke-width:0.448623"
     d="m 48.821977,48.075096 c 0.04671,2.518933 -0.946415,6.479324 2.991403,5.234518 10.617409,0 21.234817,0 31.852225,0 0.347743,-1.965408 1.44385,-6.735308 -2.243114,-5.534184 -10.766949,0 -21.533899,0 -32.300848,0 z"
     id="path7" />
  <path
     style="fill:#dc322e;fill-opacity:1;stroke-width:0.224311"
     d="m -0.23526415,-0.0740403 c -0.15125628,13.4352993 -0.0215094,26.9181263 -0.06484,40.3716793 0.32522771,0.955346 -0.76218765,3.321175 0.76746412,3.219407 C 2.7785862,43.278881 5.1378568,43.361948 7.4110397,43.141398 7.5979499,31.274823 7.5085849,19.361042 7.5893498,7.476318 19.453468,7.4020747 31.317586,7.3278902 43.181705,7.2537591 43.8822,6.3385567 43.32526,4.7177405 43.54183,3.5381627 c -0.190633,-1.175737 0.472026,-2.81964911 -0.237893,-3.72611116 -14.434646,0 -28.869291,0 -43.303937,0 l -0.20189223,0.09775044 z"
     id="path8" />
  <path
     style="fill:#dc322e;fill-opacity:1;stroke-width:0.224311"
     d="m -0.23526415,83.594129 c -0.15127912,13.386665 -0.0215556,26.820861 -0.06484,40.225791 0.0788669,1.45229 -0.15611468,2.97657 0.11390816,4.38502 13.42595199,0.15126 26.89943499,0.0215 40.34363999,0.0648 1.151992,-0.21769 2.798476,0.42884 3.670471,-0.30536 -0.119332,-2.4235 0.06681,-4.92279 -0.241835,-7.29932 -11.941022,-0.17974 -23.925851,-0.0965 -35.8836981,-0.17524 0,-12.23652 0,-24.473025 0,-36.709535 C 6.7316661,83.08127 5.0506712,83.679179 3.8132946,83.48022 2.479971,83.559214 1.051163,83.323912 -0.23526415,83.594129 Z"
     id="path9" />
  <path
     style="fill:#dc322e;fill-opacity:1;stroke-width:0.224311"
     d="m 83.657216,-0.0740403 c -0.07609,2.5027283 -0.172419,5.1219002 0.04907,7.5994264 12.277237,0.1512325 24.601984,0.021554 36.897474,0.06484 0,11.9380129 0,23.8760259 0,35.8140389 0.9333,0.698241 2.57694,0.101772 3.77694,0.300104 1.19573,-0.202724 2.84989,0.405079 3.77693,-0.300104 0,-14.430703 0,-28.861406 0,-43.29210938 -0.97072,-0.69905455 -2.65171,-0.10114535 -3.88909,-0.30010418 -13.45869,0 -26.917371,0 -40.376058,0 l -0.201892,0.09775044 z"
     id="path10" />
  <path
     style="fill:#dc322e;fill-opacity:1;stroke-width:0.224311"
     d="m 124.43152,84.427849 c -1.17247,0.22602 -2.81227,-0.35509 -3.7156,0.361001 -0.0379,11.900336 -0.0759,23.80067 -0.11391,35.70101 -11.90033,0.038 -23.800669,0.076 -35.701004,0.1139 -0.703261,0.95084 -0.14369,2.61092 -0.361002,3.82776 0.178945,1.21907 -0.453798,2.88605 0.238331,3.83826 14.35973,0 28.719455,0 43.079185,0 0.69906,-0.97071 0.10115,-2.65171 0.30011,-3.88908 0,-13.23832 0,-26.47664 0,-39.714959 -0.81526,-0.693134 -2.62061,-0.05717 -3.72611,-0.237892 z"
     id="path11" />
</svg>
