<?xml version="1.0" encoding="UTF-8"?>
<svg id="katman_1" data-name="katman 1" xmlns="http://www.w3.org/2000/svg" viewBox="0 0 128 128">
  <defs>
    <style>
      .cls-1 {
        fill: #30a64a;
      }

      .cls-2 {
        fill: #1d1d1d;
      }
    </style>
  </defs>
  <path class="cls-2" d="M87.33,109.96h-46.68c-.62-2.31-.77-4.47-1.73-4.52l-5.81-.31-.19-29.38,4.84-1.36.19-11.64-4.97-.96.03-30.64c8.32-1.82,1.48-2.31,13.29-6.98l.89-5.17h33.6s.88,5.15.88,5.15c11.21,4.39,5.88,5.93,13.23,6.62l.14,31.02-4.99.96.15,11.67,4.87,1.32-.18,29.39-5.77.33c-.97.06-1.16,2.19-1.8,4.51ZM83.55,105.02c.88-2.58,1.23-4.44,2.19-4.59l4.25-.67v-19.46s-4.87-.96-4.87-.96l-.02-21.39,4.87-1.19.04-20.85-4.52-1.13c-.9-8.21-7.46-2.5-10.06-10.65h-22.87c-2.71,8.11-8.68,2.4-10.1,10.6l-4.5,1.22.09,20.74,4.85,1.38-.05,21.43-4.92,1.02.11,19.22,4.8,1.03c.79.17.87,2.11,1.35,4.17l39.35.09Z"/>
  <path class="cls-1" d="M83.55,105.02l-39.35-.09c-.48-2.07-.56-4-1.35-4.17l-4.8-1.03-.11-19.22,4.92-1.02.05-21.43-4.85-1.38-.09-20.74,4.5-1.22c1.41-8.2,7.39-2.5,10.1-10.61h22.87c2.6,8.15,9.15,2.44,10.06,10.65l4.52,1.13-.04,20.85-4.87,1.19.02,21.39,4.88.96v19.46s-4.26.67-4.26.67c-.96.15-1.31,2.01-2.19,4.59ZM61.92,93.64l16.89.39c.66-3.19.22-6.13-1.79-8.31l-.02-42.48c2.2-2.02,2.89-6.31,1.27-8.24l-16.51.07c-2.75,1.75.71,6.13.87,8.51.4,5.78.39,13.38.45,20.38l-10.08.07v20.85s10.42.42,10.42.42c-2.41,1.75-3.7,8.28-1.48,8.33ZM60.04,57.36l-.08-9.46-16.68.18c1.13,2.79,2.96,6.71,4.58,8.98l12.18.31Z"/>
  <path class="cls-2" d="M61.92,93.64c-2.21-.05-.93-6.58,1.48-8.33l-10.41-.42v-20.85s10.08-.07,10.08-.07c-.06-7-.05-14.6-.45-20.38-.16-2.38-3.62-6.76-.87-8.51l16.51-.07c1.63,1.93.93,6.22-1.27,8.24l.02,42.48c2,2.18,2.44,5.12,1.79,8.31l-16.89-.39Z"/>
  <path class="cls-2" d="M60.04,57.36l-12.18-.31c-1.62-2.27-3.45-6.19-4.58-8.98l16.68-.18.08,9.46Z"/>
</svg>