<?xml version="1.0" encoding="UTF-8"?>
<svg id="katman_1" data-name="katman 1" xmlns="http://www.w3.org/2000/svg" viewBox="0 0 128 128">
  <defs>
    <style>
      .cls-1 {
        fill: #30a64a;
      }

      .cls-2 {
        fill: #1d1d1d;
      }
    </style>
  </defs>
  <path class="cls-2" d="M97.99,115.87c-7.36.62-7.9,7.22-11.9,7.2l-46.36-.21c-2.65-3.58-5.29-6.56-9.72-7.03l-.02-55.68c1.45-.49,3.35-.58,3.44-1.34l.43-3.84c.1-.88.19-3.45-.51-3.75l-3.34-1.45-.03-29.85c1.21-.69,3.43-.95,3.54-1.9l.59-5.34,15.74-.13,5.3-7.52h17.69s5.27,7.55,5.27,7.55l15.83.08.34,4.93c.07.98,1.45,1.33,3.67,2.12l.05,30.1-3.36,1.45c-.62.27-.72,6.82-.05,7.55.52.57,1.74.82,3.39,1.42v55.64ZM83.67,118c5.65,0,3.31-5.52,9.32-7.39l-.12-19.44c-2.56-.63-3.67-1.49-3.86-3.3-.16-1.49,1.73-2.54,3.92-3.41l.06-19.01c-.92-.79-3.43-1.93-3.52-2.86l-.33-3.82c-1.17-.43-4.27-2.12-3.73-3.35.47-1.06,2.26-2.84,3.34-3.92.69-.68-.07-3.95.72-4.5s2.02-1.25,3.52-2.14v-20.39c-2.08-.62-3.96-1.52-3.91-2.58l.19-4.23-14.17-.4-4.64-7.13-12.86-.08-4.69,7.21-13.91.37-.4,5.35c-.07.98-2.62,1.1-3.67,1.72l.18,20.48c2.05.9,3.54,1.42,3.68,2.41,1.38,9.95,2.4,1.7,3.89,7.92.28,1.18-2.3,2.54-3.81,3.24l-.02,3.93c0,.91-1.79,1.54-3.77,2.24l-.03,19.57c2.2.88,3.89,1.82,4.04,2.99.22,1.76-1.43,2.99-3.97,3.57l-.09,19.61c6.6,2.15,3.11,7.35,9.83,7.35l38.82-.04Z"/>
  <path class="cls-1" d="M83.67,118l-38.82.04c-6.72,0-3.22-5.19-9.83-7.35l.09-19.61c2.54-.58,4.19-1.81,3.97-3.57-.15-1.16-1.84-2.11-4.04-2.99l.03-19.57c1.98-.7,3.77-1.33,3.77-2.24l.02-3.93c1.52-.7,4.1-2.06,3.81-3.24-1.49-6.22-2.5,2.02-3.89-7.92-.14-.99-1.62-1.51-3.68-2.41l-.18-20.48c1.05-.62,3.6-.74,3.67-1.72l.4-5.35,13.91-.37,4.69-7.21,12.86.08,4.64,7.13,14.17.4-.19,4.23c-.05,1.05,1.83,1.96,3.9,2.58v20.39c-1.49.89-2.71,1.58-3.51,2.14s-.04,3.82-.72,4.5c-1.08,1.08-2.87,2.87-3.34,3.92-.55,1.22,2.56,2.92,3.73,3.35l.33,3.82c.08.94,2.6,2.07,3.52,2.86l-.06,19.01c-2.19.87-4.08,1.92-3.92,3.41.19,1.8,1.3,2.66,3.86,3.3l.12,19.44c-6.01,1.87-3.66,7.38-9.32,7.39ZM74.29,35.31c1.02,1.39,5.87,1.12,6.77.12l-13.48-18.93c-1.26-1.11-5.97-1.04-7.49-.11l-13.11,19.06c1.03.85,5.5,1.26,6.43-.02l10.42-14.35,10.45,14.24ZM62.25,56.01l-.46-10.41-18.23.19,5.4,10.22h13.28ZM79.08,55.9l5.32-10.15-18.4-.05-.05,10.35,13.13-.15ZM85.27,68.84c0-1.17-1.68-3.03-2.7-2.77-.76.2-1.62,1.81-1.63,2.78l-.15,13.88c-.01,1.16-4.37.68-4.2-.43.76-4.93-1.64-10.02-6.57-10.37-4.09-.29-8.99-.37-12.8.19-5.3.79-6.43,6.52-5.86,11.02l-4.24.09-.12-15.03c0-.65-1.03-1.88-1.52-2.2s-2.66.94-2.66,1.68l.04,30.43c0,.88,3.47,1.67,3.62,1.01l.67-3.11c.22-1,3.98-1.09,4.04-.08l.25,10.77,25.08.11.06-9.04c0-1.08,1.11-2.89,2.04-2.95,4.36-.27-.05,3.51,4.89,4.8.69.18,1.68-1.77,1.68-2.62l.06-28.16Z"/>
  <path class="cls-2" d="M85.27,68.84l-.06,28.16c0,.85-.99,2.8-1.68,2.62-4.94-1.29-.53-5.07-4.89-4.8-.93.06-2.03,1.87-2.04,2.95l-.06,9.04-25.08-.11-.25-10.77c-.05-1.01-3.82-.92-4.04.08l-.67,3.11c-.14.66-3.61-.12-3.62-1.01l-.04-30.43c0-.74,2.16-2.01,2.66-1.68s1.52,1.55,1.52,2.2l.12,15.03,4.24-.09c-.57-4.5.56-10.23,5.86-11.02,3.81-.57,8.71-.48,12.8-.19,4.93.35,7.33,5.44,6.57,10.37-.17,1.1,4.18,1.58,4.2.43l.15-13.88c.01-.97.88-2.58,1.63-2.78,1.02-.26,2.7,1.6,2.7,2.77ZM72.51,102.41l-.1-23.44c-.02-4.55-14.14-3.42-16.86-1.52l-.03,25.12,16.98-.16Z"/>
  <path class="cls-2" d="M74.29,35.31l-10.45-14.24-10.42,14.35c-.93,1.28-5.4.88-6.43.02l13.11-19.06c1.51-.93,6.22-1,7.49.11l13.48,18.93c-.9,1-5.75,1.27-6.77-.12Z"/>
  <polygon class="cls-2" points="62.25 56.01 48.97 56.02 43.57 45.8 61.8 45.61 62.25 56.01"/>
  <polygon class="cls-2" points="79.08 55.9 65.95 56.05 66 45.7 84.4 45.75 79.08 55.9"/>
  <path class="cls-1" d="M72.51,102.41l-16.98.16.03-25.12c2.72-1.9,16.84-3.04,16.86,1.52l.1,23.44ZM69.46,89.57c0-3.01-2.44-5.44-5.44-5.44s-5.44,2.44-5.44,5.44,2.44,5.44,5.44,5.44,5.44-2.44,5.44-5.44Z"/>
  <circle class="cls-2" cx="64.02" cy="89.57" r="5.44"/>
</svg>