<?xml version="1.0" encoding="UTF-8"?>
<svg id="katman_1" data-name="katman 1" xmlns="http://www.w3.org/2000/svg" viewBox="0 0 128 128">
  <defs>
    <style>
      .cls-1 {
        fill: #30a64a;
      }

      .cls-2 {
        fill: #1d1d1d;
      }
    </style>
  </defs>
  <path class="cls-2" d="M76.4,106.21c-5.17-1.57-20.25-1.21-25.76-.11-3.82.76-6.58,4.26-10.56,2.58-3.21-1.36-7.06-4.51-7.06-8.85v-48.85c.01-13.56,10.3-21.16,20.36-28.8,5.83-4.43,14.43-4.41,20.25,0,10.15,7.68,20.36,14.92,20.36,28.82v48.85c0,3.91-3.49,7.29-6.31,8.57-4.1,1.86-6.72-.81-11.27-2.2ZM67.2,99.53c2.1,2.1,6.48,1.46,8.07-1.06,5.51-8.73,1.48,5.63,9.31,5.48,2.02-.04,4.44-2.37,4.44-4.87l-.04-48.16c0-5.59-2.54-11.58-6.63-15.14l-9.17-7.98c-4.62-4.02-11.78-5.67-17.05-1.57-7.82,6.08-18.04,13.28-18.05,23.69l-.09,49.17c0,3.01,2.75,5.12,5.48,4.82,5.49-.6,3.51-9.39,6.01-7.6,4.67,3.33,2.3,4.83,7.02,4.59s5.98-6.09,7.93-4.15l2.78,2.78Z"/>
  <path class="cls-1" d="M67.2,99.53l-2.78-2.78c-1.95-1.95-3.37,3.92-7.93,4.15s-2.35-1.25-7.02-4.59c-2.51-1.79-.53,7-6.01,7.6-2.73.3-5.49-1.81-5.48-4.82l.09-49.17c.02-10.41,10.24-17.61,18.05-23.69,5.28-4.1,12.44-2.45,17.05,1.57l9.17,7.98c4.09,3.56,6.63,9.55,6.63,15.14l.04,48.16c0,2.49-2.42,4.83-4.44,4.87-7.84.15-3.8-14.21-9.31-5.48-1.59,2.52-5.97,3.16-8.07,1.06ZM66.49,42.03l-.38-11.01c-.04-1.15-4.25-1.19-4.27-.08l-.17,11.51c-4.33,2.08-6.47,5.84-5.43,9.7s4.42,6.27,8.22,6.08,6.77-2.99,7.52-6.79-1.97-6.61-5.49-9.4ZM76.55,60.13l-.26,7.17-25.66-.04-.57-10.12c-.81-.54-4.44-.24-4.44,1.08l.02,30.12,35.7.03.08-29.47c0-1.15-2.06-2.63-3.03-2.49s-1.8,2.29-1.85,3.71Z"/>
  <path class="cls-2" d="M76.55,60.13c.05-1.42.89-3.57,1.85-3.71s3.03,1.34,3.03,2.49l-.08,29.47-35.7-.03-.02-30.12c0-1.33,3.63-1.62,4.44-1.08l.57,10.12,25.66.04.26-7.17ZM76.63,83.49l-.15-11.39-26.15.06.24,11.44,26.05-.11Z"/>
  <path class="cls-2" d="M66.49,42.03c3.51,2.8,6.22,5.66,5.49,9.4s-3.86,6.6-7.52,6.79-7.2-2.33-8.22-6.08,1.1-7.62,5.43-9.7l.17-11.51c.02-1.11,4.23-1.07,4.27.08l.38,11.01Z"/>
  <polygon class="cls-1" points="76.63 83.49 50.58 83.6 50.34 72.16 76.49 72.1 76.63 83.49"/>
</svg>