<?xml version="1.0" encoding="UTF-8"?>
<svg id="katman_2" data-name="katman 2" xmlns="http://www.w3.org/2000/svg" viewBox="0 0 128 128">
  <defs>
    <style>
      .cls-1 {
        fill: #04a0d8;
      }

      .cls-2 {
        fill: #1d1d1d;
      }
    </style>
  </defs>
  <path class="cls-2" d="M95.03,65.19l-10.77,2.82,18.48,19.26c3.34,3.48-.22,9.64-2.67,12.2s-8.64,6.25-12.39,2.89c-8.06-7.21-15.56-15.04-23.27-23.01l-16.98,18.09c-2.94,3.13-6.09,5.05-9.93,5.12-4.34.08-8.37-.94-10.88-5.51-1.82-3.33-2.32-11.11,1.17-13.98l24.61-20.22c-4.15-4.08-8.02-9.45-12.69-12.2-5.25-3.09-8.87-5.04-11.9-10.83-.9-1.73-2.32-4.43-2.6-6.35s2.31-4.82,3.69-6.33c3.72-4.09,7.56-1.71,11.27.29,5.6,3.01,7.71,6.73,10.86,11.82,2.96,4.79,8.06,8.33,11.85,12.87,5.36-10.38,3.14-23.72,13.96-25.7,5.71-1.04,19.93-1.42,21.15,3.36.39,1.52-.02,4.55-.16,6.71l4.34,2.16c4.38,2.18-3.77,14.44-7.3,17.65.52,1.92,1.69,7.26.14,8.91ZM56.35,60.75c2.02-1.39,3.72-2.99,4.87-4.69l-13.59-13.79c-1.37-1.39-2.59-5.51-3.66-7.11l-10.13-6.61c-1.65,1.39-3.69,3.46-4.89,5.07l6.53,9.93c1.41.99,5.34,2.03,6.56,3.22l14.31,13.98ZM92.04,61.94l-2.24-7.53c5.05-3.73,8.1-7.78,9.59-13.22l-12.69,5c-2.09-1.24-3.95-6.78-2.62-8.92l10.38-5.2c-6.2-4.3-14.35-3.84-20.96.55l-3.31,10.41c-1.78,5.6-3.26,13.18-7.98,17.04l-30.31,24.8c-3.71,3.03-3.71,8.32-.73,11.44s8.03,3.57,11.43.1l27.22-27.82c5.47-5.59,15.38-4.06,22.23-6.66ZM90.49,99.84c5.05-.59,10.07-5.19,9.3-9.89l-21.14-21.42c-4.98.11-9.63,3.7-11.8,7.89l23.64,23.42Z"/>
  <path class="cls-1" d="M92.04,61.94c-6.84,2.6-16.75,1.07-22.23,6.66l-27.22,27.82c-3.4,3.47-8.58,2.89-11.43-.1s-2.98-8.41.73-11.44l30.31-24.8c4.72-3.86,6.2-11.44,7.98-17.04l3.31-10.41c6.61-4.38,14.76-4.85,20.96-.55l-10.38,5.2c-1.34,2.13.53,7.67,2.62,8.92l12.69-5c-1.49,5.44-4.54,9.49-9.59,13.22l2.24,7.53ZM41.41,90.72c0-2.38-1.93-4.3-4.3-4.3s-4.3,1.93-4.3,4.3,1.93,4.3,4.3,4.3,4.3-1.93,4.3-4.3Z"/>
  <path class="cls-1" d="M90.49,99.84l-23.64-23.42c2.17-4.19,6.82-7.78,11.8-7.89l21.14,21.42c.77,4.7-4.25,9.3-9.3,9.89Z"/>
  <path class="cls-1" d="M56.35,60.75l-14.31-13.98c-1.22-1.19-5.15-2.23-6.56-3.22l-6.53-9.93c1.21-1.61,3.24-3.68,4.89-5.07l10.13,6.61c1.07,1.61,2.28,5.72,3.66,7.11l13.59,13.79c-1.16,1.7-2.86,3.3-4.87,4.69Z"/>
  <circle class="cls-2" cx="37.11" cy="90.72" r="4.3"/>
</svg>