<?xml version="1.0" encoding="UTF-8"?>
<svg id="katman_2" data-name="katman 2" xmlns="http://www.w3.org/2000/svg" viewBox="0 0 128 128">
  <defs>
    <style>
      .cls-1 {
        fill: #04a0d8;
      }

      .cls-2 {
        fill: #1d1d1d;
      }
    </style>
  </defs>
  <path class="cls-2" d="M30.96,88.83l-5.89-.03c-.43,0-1.05-.45-1.34-.74l-2.86-2.84c-.53-.53-.83-1.2-.83-1.97v-5.13c0-.8.36-1.46.93-2.03l7.23-7.2c.42-.42,1.05-.68,1.61-.68h6.09c.14-1.17.7-2,1.48-2.77l2.81-2.78-15.77-15.78c-.65-.65-1.02-1.38-1.01-2.29v-4.43c.01-.87.32-1.71.95-2.34l14.19-14.16c.59-.59,1.34-.93,2.17-.94l3.56-.02c.91,0,1.69.42,2.33,1.05l9.87,9.81,6.44,6.35,4.27-4.2c.78-.76,1.69-1.26,2.85-1.13l3.84-.06,1.59-1.57c.97-.96,2.04-1.59,3.46-1.57l10.32-10.27c.69-.69,1.45-1.17,2.48-1.17h5.36c1.1,0,1.86.47,2.59,1.21l7.54,7.56c.54.54.73,1.47.73,2.21v4.87c0,1.04-.35,1.85-1.08,2.57l-10.66,10.57c.02,1.14-.19,2.22-.97,3.01l-2.03,2.07-.04,4.4c0,.68-.42,1.38-.93,1.89l-30.2,30.18c-.73.73-1.48,1.12-2.48,1.35v6.26c0,.79-.33,1.39-.89,1.95l-7.13,7.16c-.51.51-1.17.78-1.89.79l-4.86.05c-.8,0-1.54-.2-2.1-.76l-2.91-2.88c-.56-.55-.84-1.18-.84-1.98v-4.87c0-.64.16-1.34.62-1.8l4.27-4.32-7.3-7.29-3.89,3.9c-.44.44-1.02.69-1.69.77ZM102.89,31.71l-6.61-6.67h-3.67s-10.91,10.81-10.91,10.81l10.18,10.19,9.76-9.75c1.79-1.79,1.15-.93,1.24-4.58ZM45.99,59.33l13.55-13.49c.57-.56.55-1.34-.03-1.92l-16.18-16.12-1.61-.04-13.26,13.22.05,2.7,15.67,15.69c.57.57,1.22.54,1.81-.05ZM49.09,93.24c-.07.45-.68.93-.96,1.21l-4.13,4.13.03,2.74,1.59,1.66h2.91s5.99-6.02,5.99-6.02v-8.86s-2.09-2.93-2.09-2.93c-.74-.58.91-2.19,1.44-2.82l3.62,4.22c.12.14.48.3.65.29s.44-.16.62-.34l29.36-29.34.05-5.45,2.7-2.71c.16-.16.23-.56.03-.75l-11.72-11.75-2.66,2.63c-.22.22-.58.45-.9.45l-5.18.03-28.97,28.96c-.27.27-.49.61-.47.9.01.22.25.6.45.77l3.93,3.46-2,1.62c-.14.12-.59.06-.73-.06l-2.45-2.03h-9.13s-5.97,5.93-5.97,5.93v2.96s1.65,1.65,1.65,1.65h2.83s5.24-5.18,5.24-5.18l4.35-.07c.77-.01,1.86,2.83,2.64,3.6l7.33,7.24c.04,1.34.15,2.52-.07,3.85Z"/>
  <path class="cls-1" d="M49.09,93.24c.22-1.33.11-2.51.07-3.85l-7.33-7.24c-.78-.77-1.87-3.62-2.64-3.6l-4.35.07-5.24,5.17h-2.83s-1.66-1.65-1.66-1.65v-2.96s5.97-5.93,5.97-5.93h9.13s2.45,2.03,2.45,2.03c.15.12.59.17.73.06l2-1.62-3.93-3.46c-.2-.17-.44-.55-.45-.77-.02-.29.2-.63.47-.9l28.97-28.96,5.18-.03c.32,0,.68-.23.9-.45l2.66-2.63,11.72,11.75c.19.19.13.59-.03.75l-2.7,2.71-.05,5.45-29.36,29.34c-.18.18-.46.34-.62.34s-.52-.15-.65-.29l-3.62-4.22c-.53.64-2.18,2.24-1.44,2.82l2.09,2.93v8.86s-5.99,6.03-5.99,6.03h-2.91s-1.59-1.67-1.59-1.67l-.03-2.74,4.13-4.13c.28-.28.89-.76.96-1.21ZM75.7,61.1c.3-.3.53-.69.53-1.1l-.03-4.48c0-.41-.2-.79-.48-1.07l-2.74-2.69c-.21-.21-.64-.4-.95-.4h-4.1c-.27,0-.72.14-.9.32l-2.12,2.18c-.28.28.11.93.36,1.17l7.41,7.46c.32.33.91.68,1.33.28l1.69-1.66ZM58.51,78.31l12.61-12.61c.4-.4.44-1.05.04-1.45l-5.37-5.41-2.55-2.5c-.21-.2-.61-.11-.89.07l-13.17,13.23c-.28.28-.02,1,.23,1.25l7.47,7.51c.48.49,1.1.44,1.62-.08Z"/>
  <path class="cls-1" d="M45.99,59.33c-.59.58-1.24.62-1.81.05l-15.67-15.69-.05-2.7,13.26-13.22,1.61.04,16.18,16.12c.58.58.6,1.35.03,1.92l-13.55,13.49Z"/>
  <path class="cls-1" d="M102.89,31.71c-.09,3.64.56,2.78-1.24,4.58l-9.76,9.75-10.18-10.19,10.91-10.8h3.67s6.61,6.66,6.61,6.66Z"/>
  <path class="cls-2" d="M58.51,78.31c-.52.52-1.14.57-1.62.08l-7.47-7.51c-.25-.25-.51-.97-.23-1.25l13.17-13.23c.28-.18.68-.27.89-.07l2.55,2.5,5.37,5.41c.4.4.36,1.05-.04,1.45l-12.61,12.61Z"/>
  <path class="cls-2" d="M75.7,61.1l-1.69,1.66c-.41.41-1,.05-1.33-.28l-7.41-7.46c-.25-.25-.63-.89-.36-1.17l2.12-2.18c.18-.18.63-.33.9-.33h4.1c.31,0,.73.19.95.4l2.74,2.69c.28.28.48.66.48,1.07l.03,4.48c0,.41-.22.8-.53,1.1Z"/>
</svg>