<?xml version="1.0" encoding="UTF-8" standalone="no"?>
<svg
   id="katman_2"
   data-name="katman 2"
   viewBox="0 0 128 128"
   version="1.1"
   sodipodi:docname="deployable_hab_activated.svg"
   inkscape:version="1.4.2 (f4327f4, 2025-05-13)"
   xmlns:inkscape="http://www.inkscape.org/namespaces/inkscape"
   xmlns:sodipodi="http://sodipodi.sourceforge.net/DTD/sodipodi-0.dtd"
   xmlns="http://www.w3.org/2000/svg"
   xmlns:svg="http://www.w3.org/2000/svg">
  <sodipodi:namedview
     id="namedview5"
     pagecolor="#ffffff"
     bordercolor="#000000"
     borderopacity="0.25"
     inkscape:showpageshadow="2"
     inkscape:pageopacity="0.0"
     inkscape:pagecheckerboard="0"
     inkscape:deskcolor="#d1d1d1"
     inkscape:zoom="4.4580874"
     inkscape:cx="57.423729"
     inkscape:cy="90.397511"
     inkscape:window-width="1278"
     inkscape:window-height="1000"
     inkscape:window-x="1266"
     inkscape:window-y="0"
     inkscape:window-maximized="0"
     inkscape:current-layer="katman_2" />
  <defs
     id="defs1">
    <style
       id="style1">
      .cls-1 {
        fill: #575750;
      }

      .cls-2 {
        fill: #f9ce0a;
      }
    </style>
  </defs>
  <path
     class="cls-2"
     d="M43.47,128H0v-44.37l7.36.04.02,36.98h35.6c.34.01.47.2.5.48v6.87Z"
     id="path1" />
  <path
     class="cls-2"
     d="M11.37,7.15h-4.07c0,1-.08,1.27-.08,2.11,0,.49,0,.75,0,1.52,0,.3-.05,2.08-.06,2.6-.02.84.03,6.25.03,6.57,0,.78-.03.93-.03,1.44v15.83c0,.82.04,1.25.04,2.4,0,.55-.02,1.86-.02,3.48l-7.17.02V0h43.26s.02,6.75.02,6.75c-.05.31-.26.36-.55.42l-11.48-.07c-2.06-.01-8.84.15-10.01.04h-9.88"
     id="path2" />
  <path
     class="cls-2"
     d="M120.97,120.79c-.08-.25-.11-2.17-.11-2.96v-32.57c-.02-.34.11-.51.4-.54h6.74s0,43.27,0,43.27h-43.15v-6.99c.01-.16.38-.27.55-.27h32.55s3.02.06,3.02.06Z"
     id="path3" />
  <polygon
     class="cls-2"
     points="120.78 43.35 120.76 7.28 83.89 7.25 83.82 2.96 83.79 0 127.99 0 128 43.34 120.78 43.35"
     id="polygon3" />
  <g
     id="g5">
    <path
       class="cls-1"
       d="M99.47,83.32H30s-.07-6.54-.07-6.54l14.19-21.39-.21-9.95h41.65s-.2,10.02-.2,10.02l14.2,21.32-.09,6.54ZM47.46,48.94v5.35s34.55,0,34.55,0v-5.35s-34.55,0-34.55,0ZM69.94,79.52c.08.23.15.29.23.32.06.02.11-.09.24-.09h22.8c.46.01.74.06,1.2.04l1.63-.08c-.13-.52.22-1.41-.1-1.9l-1.79-2.7-2.75-4.12-2.35-3.54-5.55-8.32c-.34-.51-.68-.97-1-1.49l-.55-.88h-34.5s-2.02,3.2-2.02,3.2l-1.42,2.06-1.01,1.62c-1.12,1.8-2.32,3.49-3.51,5.24l-.91,1.34-1.25,1.88-1.79,2.7-2,3.01c-.29.52,0,1.34-.03,1.94h26.02s0-15.57,0-15.57l10.43.02v15.33Z"
       id="path4" />
    <path
       class="cls-2"
       d="M69.94,79.52v-15.33s-10.42-.02-10.42-.02v15.58s-26.01,0-26.01,0c.04-.6-.26-1.42.03-1.94l2-3.01,1.79-2.7,1.25-1.88.91-1.34c1.2-1.75,2.39-3.45,3.51-5.24l1.01-1.62,1.42-2.06,2.02-3.19h34.5s.55.88.55.88c.33.52.66.98,1,1.49l5.55,8.32,2.35,3.54,2.75,4.12,1.79,2.7c.32.49-.03,1.38.1,1.9l-1.63.08c-.45.02-.74-.02-1.2-.02h-22.8c-.12-.01-.18.1-.24.08-.09-.03-.16-.08-.23-.32Z"
       id="path5" />
    <rect
       class="cls-2"
       x="62.06"
       y="34.34"
       width="5.35"
       height="34.55"
       transform="translate(13.1 116.34) rotate(-89.98)"
       id="rect5" />
  </g>
  <path
     style="fill:#04a0d8;fill-opacity:1;stroke-width:0.158612"
     d="m -0.14807931,-0.116171 c -0.16954141,3.8457625 -0.0238698,7.7480898 -0.0724907,11.615551 0,10.521272 0,21.042545 0,31.563817 0.57801172,0.671396 1.83641411,0.121273 2.67905821,0.299875 1.6278902,-0.06952 3.3170434,0.141208 4.9064437,-0.104398 0.1715701,-3.898492 0.028481,-7.853628 0.079337,-11.773851 0.017732,-7.993437 -0.025264,-15.988015 0.1118025,-23.9804859 9.4681736,-0.2507084 18.9442006,-0.087074 28.4154266,-0.13998 2.404486,-0.05032 4.847325,0.098926 7.228625,-0.075014 0.568865,-0.7164596 0.183238,-1.8017881 0.320012,-2.6468401 -0.06065,-1.5905634 0.135043,-3.2382409 -0.10285,-4.79058241 -3.845762,-0.16954141 -7.748089,-0.0238698 -11.615551,-0.0724907 -10.574144,0 -21.148285,0 -31.72242843,0 l -0.1441453,0.0661812 z"
     id="path6" />
  <path
     style="fill:#04a0d8;fill-opacity:1;stroke-width:0.158612"
     d="m 83.599133,-0.116171 c -0.135871,2.2728024 -0.100458,4.6066227 0.03222,6.8962206 -0.0095,1.2371881 1.527982,0.5702801 2.296778,0.736679 11.518381,0 23.036759,0 34.555139,0 0,11.9545644 0,23.9091284 0,35.8636924 0.57801,0.671396 1.83642,0.121274 2.67906,0.299876 1.65444,-0.069 3.3696,0.139781 4.98575,-0.104399 0.16954,-3.845762 0.0239,-7.748089 0.0725,-11.615551 0,-10.627014 0,-21.254027 0,-31.88104093 -0.57801,-0.67139638 -1.83641,-0.12127329 -2.67906,-0.29987608 -13.905,0 -27.809992,0 -41.71499,0 l -0.144145,0.0661812 z"
     id="path8" />
  <path
     style="fill:#04a0d8;fill-opacity:1;stroke-width:0.158612"
     d="m 120.71437,84.582714 c -0.16954,3.845762 -0.0239,7.74809 -0.0725,11.615551 0,8.095005 0,16.190005 0,24.285005 -11.90169,0 -23.803384,0 -35.705077,0 -0.671396,0.57801 -0.121273,1.83642 -0.299876,2.67906 0.069,1.65444 -0.139781,3.3696 0.104399,4.98575 3.845762,0.16954 7.74809,0.0239 11.615551,0.0725 10.521273,0 21.042543,0 31.563813,0 0.6714,-0.57801 0.12128,-1.83641 0.29988,-2.67906 0,-13.58777 0,-27.175545 0,-40.763319 -0.57801,-0.671397 -1.83641,-0.121273 -2.67906,-0.299876 -1.59944,0.06762 -3.26665,-0.136512 -4.82714,0.104399 z"
     id="path9" />
  <path
     style="fill:#04a0d8;fill-opacity:1;stroke-width:0.158612"
     d="m -0.14807931,83.472429 c -0.16954141,3.845762 -0.0238698,7.74809 -0.0724907,11.615551 0,10.94424 0,21.88848 0,32.83271 0.57801172,0.6714 1.83641411,0.12128 2.67905821,0.29988 13.6406448,0 27.2812888,0 40.9219328,0 0.671396,-0.57801 0.121274,-1.83641 0.299876,-2.67906 -0.08981,-1.62088 0.186851,-3.3074 -0.199193,-4.89064 -0.5835,-0.55543 -1.590354,-0.11262 -2.322779,-0.27199 -11.160753,-0.0883 -22.322005,-0.0424 -33.4829842,-0.0542 0,-12.21892 0,-24.437836 0,-36.656754 C 7.0973291,82.996529 5.8389267,83.546653 4.9962825,83.36805 3.2910229,83.43589 1.5182695,83.231238 -0.14807931,83.472449 Z"
     id="path10" />
  <path
     style="fill:#04a0d8;fill-opacity:1;stroke-width:0.158612"
     d="m 47.260533,56.543371 c -4.564041,7.223361 -9.51935,14.200198 -14.069703,21.426888 -0.05051,0.653148 -0.170781,1.642483 0.391574,2.032219 8.658819,10e-7 17.317637,0 25.976456,0 0.671396,-0.578012 0.121273,-1.836413 0.299875,-2.679058 0,-4.288929 2e-6,-8.57786 0,-12.866791 3.263632,0.02626 6.527263,0.05248 9.790893,0.07869 0.08256,5.019564 -0.06506,10.04906 0.187113,15.062577 0.123002,0.89734 1.279564,0.31564 1.869241,0.458944 8.110886,-0.08903 16.22247,-0.04216 24.333671,-0.05436 0.563008,-0.463922 0.317424,-1.666814 0.16174,-2.336456 -4.692764,-7.04287 -9.385567,-14.085716 -14.078406,-21.128537 -1.656031,-0.308659 -3.455059,-0.04665 -5.166667,-0.13352 -9.814126,0 -19.628253,0 -29.442379,0 l -0.138972,0.07645 z"
     id="path11" />
  <path
     style="fill:#04a0d8;fill-opacity:1;stroke-width:0.158612"
     d="m 47.276952,48.736369 c -0.170392,1.836523 -0.02325,3.730026 -0.07249,5.58829 0.578012,0.671397 1.836414,0.121273 2.679058,0.299876 10.679884,0 21.359769,0 32.039653,0 0.671396,-0.578011 0.121274,-1.836414 0.299876,-2.679058 -0.0652,-1.073693 0.133224,-2.205014 -0.104399,-3.241016 -3.845762,-0.169541 -7.748089,-0.02387 -11.615551,-0.07249 -7.666254,0 -15.332507,0 -22.998761,0 l -0.144145,0.06618 z"
     id="path12" />
  <path
     style="fill:#1d1d1d;fill-opacity:1;stroke-width:0.224311"
     d="m 43.685529,45.236871 c -0.151356,3.389528 0.351791,6.923547 0.100671,10.268179 -4.658992,7.076885 -9.439511,14.096455 -14.022876,21.209026 0.07472,2.275404 -0.156966,4.620905 0.108213,6.852889 13.380992,0.151148 26.809421,0.02183 40.208703,0.06484 9.751998,0 19.503996,0 29.255994,0 0.703176,-0.912777 0.169887,-2.531848 0.39106,-3.712888 -0.0092,-1.55378 0.464866,-3.264873 -0.837424,-4.455132 -4.443625,-6.715142 -8.887407,-13.430178 -13.331266,-20.145165 0.01514,-3.36713 0.342292,-6.796781 0.166044,-10.125559 -11.535613,-0.163553 -23.124854,-0.02336 -34.68109,-0.0701 -2.440433,0.07639 -4.962692,-0.152498 -7.358029,0.113908 z m 21.030513,3.62666 c 5.729531,0.09303 11.505333,-0.187299 17.204073,0.228693 0.11653,1.653237 0.18615,3.402156 -0.03505,5.012397 -6.339145,0.396362 -12.792578,0.130611 -19.176437,0.213333 -5.065755,-0.03026 -10.182676,0.02575 -15.217254,-0.140607 -0.0718,-1.759851 -0.212568,-3.569668 0.120918,-5.313816 5.701249,0 11.402498,0 17.103748,0 z m 24.214243,18.341842 c 2.388845,3.790508 5.187698,7.345452 7.134593,11.391692 0.594367,1.161769 -0.925215,0.832175 -1.572806,0.920026 -8.073375,0.200748 -16.180204,0.352753 -24.249734,0.08587 -0.419411,-5.081542 -0.179521,-10.292228 -0.588378,-15.352628 -3.291873,-0.07457 -6.687888,-0.152106 -9.959001,0.03685 -0.263596,5.025262 -0.109837,10.189179 -0.213872,15.267583 -8.630004,0 -17.260008,0 -25.890011,0 -0.387449,-2.061344 1.49197,-3.592316 2.321258,-5.281426 3.818881,-5.833253 7.693024,-11.630548 11.537422,-17.447194 11.495231,-0.03797 22.990463,-0.07594 34.485693,-0.113908 2.331612,3.497711 4.663224,6.995421 6.994836,10.493132 z"
     id="path13" />
</svg>
