<?xml version="1.0" encoding="UTF-8"?>
<svg id="katman_2" data-name="katman 2" xmlns="http://www.w3.org/2000/svg" viewBox="0 0 128 128">
  <defs>
    <style>
      .cls-1 {
        fill: #04a0d8;
      }

      .cls-2 {
        fill: #1d1d1d;
      }
    </style>
  </defs>
  <path class="cls-2" d="M57.51,99.15c-.35.71-.61,1.43-1.14,1.97l-4.58,4.67-7.09,7.13c-1.75,1.76-4.71,1.3-6.39-.33l-1.57-1.53-21.65-21.71c-1.64-1.65-1.52-4.64.04-6.22l11.53-11.69c.53-.53,1.23-.81,1.86-1.16-2.39-5.16-1.23-11.36,2.48-15.54,2.68-3.02,6.26-4.87,10.32-5.06,5.23-.2,9.98,2.63,11.87,7.6l5.18-5.15c1.65-1.64,4.64-2.27,6.44-.49l9.95,9.83c2.13,2.04,1.95,5.11-.05,7.15l-5.41,5.55c3.62.92,6.36,3.47,7.7,6.89,3.3,8.37-1.91,17.33-10.45,19.31-3.08.69-6.13.32-9.04-1.23ZM38.47,71.83l10.95-10.84c.65-1.81-.52-4.12-1.9-5.31-2.25-1.96-5.27-2.59-8.18-1.81-5.3,1.42-8.81,6.61-8.11,12.07.36,2.86,2.36,5.82,5.39,6.18.49.06,1.42.14,1.86-.29ZM42.77,95.93l7.1-7.28,11.63-11.95,10.65-10.97c.48-.49.38-1.2-.17-1.58l-9.48-9.46c-.34-.34-.82-.41-1.2-.03l-20.62,20.42-9.5,9.44c-.39.38-.29,1.04.08,1.41l10.03,9.98c.43.43.97.41,1.48.01ZM53.49,98.58c.35-.38.36-.82.04-1.13l-3.49-3.43-4.21,4.33c-2.08,2.14-5.24,2.34-7.4.19l-9.8-9.74c-2.07-2.05-2.03-5.2.04-7.24l4.57-4.52-3.13-3.13c-.3.05-.59.19-.86.37l-11.2,11.32c-.39.4-.3.99.05,1.34l7.11,7.08,5.01,4.97,5.48,5.47,5.38,5.41c.48.48,1.02.27,1.43-.15l10.98-11.16ZM63.64,96.84c4.56-.12,8.43-3.11,9.93-7.28s-.06-9.83-4.56-11.33c-1.25-.42-3.05-.53-4.05.49l-8.76,8.98c-.57.58-.66,1.61-.64,2.39.07,4.04,4.37,6.85,8.08,6.75Z"/>
  <path class="cls-2" d="M85.21,56.05c-1.81,1.72-4.73,2.12-6.65.31-2.23-2.1-4.32-4.21-6.45-6.43-1.6-1.67-1.55-4.39-.11-6.14.61-.74,1.27-1.31,1.94-1.98-1.69-4.46-.39-9.44,2.93-12.75l6.76-6.73c2.86-2.88,7.48-3.84,11.28-2.66l4.39-4.41c1.74-1.74,4.54-1.72,6.41-.13l7.27,7.23c1.36,1.73,1.59,4.34.11,6.08s-2.98,3.06-4.5,4.61c1.56,4.79.54,9.52-3.03,13.04l-6.02,6.02c-3.55,3.55-8.28,4.65-12.97,2.64l-1.36,1.3ZM106.8,29.42l3.17-3.19c.46-.46.3-1.12-.1-1.52l-6.56-6.55c-.45-.47-1.06-.42-1.5.02l-3.18,3.15c.93.69,1.79,1.29,2.6,2.05,1.51,1.44,2.93,2.88,4.34,4.41.46.5.78,1.04,1.24,1.63ZM88.19,51.25c3.13,1.28,6.33.46,8.65-1.85l5.95-5.94c2.23-2.22,3.19-5.3,2.36-8.37-.58-2.16-1.69-4.09-3.27-5.67l-3.27-3.27c-.89-.89-1.94-1.5-3.05-2.06-3.51-1.77-6.95-1.36-9.73,1.43l-6.48,6.5c-.95.96-1.56,2.21-1.96,3.49-.67,2.18-.29,4.46.83,6.41.51.9.97,1.82,1.68,2.57,1.35,1.43,2.69,2.76,4.12,4.12,1.2,1.15,2.61,2,4.18,2.64ZM82.3,53.49l.7-.71c-1.15-.91-2.12-1.81-3.13-2.83l-2.6-2.63c-.56-.57-.95-1.19-1.48-1.88-.61.42-1.47,1.34-.75,2.05l6.08,6.05c.28.27.93.19,1.17-.05Z"/>
  <path class="cls-1" d="M42.77,95.93c-.5.4-1.05.42-1.48-.01l-10.03-9.98c-.37-.37-.47-1.02-.08-1.41l9.5-9.44,20.62-20.42c.38-.38.86-.31,1.2.03l9.48,9.46c.54.39.64,1.09.17,1.58l-10.65,10.97-11.63,11.95-7.1,7.28Z"/>
  <path class="cls-1" d="M53.49,98.58l-10.98,11.16c-.41.42-.95.63-1.43.15l-5.38-5.41-5.48-5.47-5.01-4.97-7.11-7.08c-.36-.36-.45-.95-.05-1.34l11.2-11.32c.27-.18.56-.32.86-.37l3.13,3.13-4.57,4.52c-2.07,2.05-2.11,5.19-.04,7.24l9.8,9.74c2.16,2.14,5.31,1.95,7.4-.19l4.21-4.33,3.49,3.43c.32.31.3.75-.04,1.13Z"/>
  <path class="cls-1" d="M63.64,96.84c-3.71.1-8.01-2.72-8.08-6.75-.01-.78.08-1.81.64-2.39l8.76-8.98c1-1.02,2.8-.91,4.05-.49,4.5,1.5,6.08,7.09,4.56,11.33s-5.37,7.16-9.93,7.28ZM64.2,93.82c1.72.03,3.17-.76,4.41-1.85,1.51-1.31,2.6-3.03,2.72-5.05.06-1.05-.35-2.04-1.03-2.68-.74-.72-1.79-.99-2.85-.85-3,.38-6.06,3.4-6.54,6.49-.32,2.08,1.09,3.91,3.28,3.94Z"/>
  <path class="cls-1" d="M38.47,71.83c-.44.44-1.37.35-1.86.29-3.03-.36-5.02-3.32-5.39-6.18-.69-5.46,2.81-10.65,8.11-12.07,2.92-.78,5.93-.16,8.18,1.81,1.37,1.2,2.55,3.51,1.9,5.31l-10.95,10.84ZM40.94,65.7c1.9-1.45,3.5-3.31,3.55-5.74.05-2.17-1.66-3.7-3.8-3.45-3.13.36-6.16,3.49-6.59,6.57-.26,1.87.91,3.5,2.77,3.77,1.46.21,2.85-.22,4.07-1.15Z"/>
  <path class="cls-1" d="M88.19,51.25c-1.56-.64-2.97-1.5-4.18-2.64-1.43-1.36-2.77-2.69-4.12-4.12-.71-.75-1.17-1.67-1.68-2.57-1.12-1.95-1.5-4.23-.83-6.41.4-1.28,1.01-2.54,1.96-3.49l6.48-6.5c2.79-2.79,6.23-3.2,9.73-1.43,1.11.56,2.17,1.17,3.05,2.06l3.27,3.27c1.58,1.58,2.69,3.51,3.27,5.67.83,3.07-.13,6.15-2.36,8.37l-5.95,5.94c-2.31,2.31-5.51,3.14-8.65,1.85Z"/>
  <path class="cls-1" d="M106.8,29.42c-.46-.59-.78-1.13-1.24-1.63-1.41-1.53-2.83-2.97-4.34-4.41-.81-.77-1.67-1.36-2.6-2.05l3.18-3.15c.44-.44,1.05-.49,1.5-.02l6.56,6.55c.41.41.56,1.06.1,1.52l-3.17,3.19Z"/>
  <path class="cls-1" d="M82.3,53.49c-.24.24-.9.32-1.17.05l-6.08-6.05c-.72-.71.14-1.63.75-2.05.53.7.91,1.31,1.48,1.88l2.6,2.63c1.01,1.02,1.98,1.92,3.13,2.83l-.7.71Z"/>
  <path class="cls-2" d="M64.2,93.82c-2.2-.03-3.61-1.87-3.28-3.94.48-3.08,3.54-6.1,6.54-6.49,1.06-.14,2.1.14,2.85.85.68.65,1.09,1.63,1.03,2.68-.12,2.02-1.21,3.73-2.72,5.05-1.25,1.08-2.7,1.88-4.41,1.85ZM64.96,89.8c1.03-.5,1.84-1.29,2.36-2.45-.92.56-1.88,1.31-2.36,2.45Z"/>
  <path class="cls-2" d="M40.94,65.7c-1.22.92-2.61,1.35-4.07,1.15-1.86-.26-3.02-1.9-2.77-3.77.42-3.08,3.46-6.22,6.59-6.57,2.14-.24,3.85,1.28,3.8,3.45-.05,2.43-1.65,4.29-3.55,5.74ZM38.17,62.92c1.06-.6,1.9-1.42,2.36-2.48-1.08.59-1.97,1.41-2.36,2.48Z"/>
  <path class="cls-1" d="M64.96,89.8c.48-1.14,1.44-1.89,2.36-2.45-.52,1.16-1.33,1.95-2.36,2.45Z"/>
  <path class="cls-1" d="M38.17,62.92c.39-1.07,1.29-1.89,2.36-2.48-.46,1.06-1.3,1.88-2.36,2.48Z"/>
</svg>