<?xml version="1.0" encoding="UTF-8"?>
<svg id="katman_2" data-name="katman 2" xmlns="http://www.w3.org/2000/svg" viewBox="0 0 128 128">
  <defs>
    <style>
      .cls-1 {
        fill: #1d1d1d;
      }

      .cls-2 {
        fill: #14c4ff;
      }
    </style>
  </defs>
  <path class="cls-1" d="M108.74,54.7l-17.2,17.19v26.8s-2.45,2.41-2.45,2.41h-20.28s-2.43-2.42-2.43-2.42v-17.25s-4.78.02-4.78.02v17.24s-2.35,2.4-2.35,2.4h-20.34s-2.42-2.4-2.42-2.4v-26.81s-17.22-17.2-17.22-17.2v-25.34s2.47-2.46,2.47-2.46h22.5s2.42,2.34,2.42,2.34v7.5s3.66-.02,3.66-.02l.02-7.44,2.43-2.38h22.53s2.37,2.35,2.37,2.35v7.48s3.71,0,3.71,0v-7.42s2.42-2.41,2.42-2.41h22.48s2.47,2.45,2.47,2.45v25.35ZM104.45,51.87v-18.87c0-.92-.71-1.8-1.7-1.8l-15.41-.02c-.84.04-1.78.65-1.78,1.55l-.03,8.22h-12.06s0-7.83,0-7.83c0-1.06-.58-1.85-1.71-1.94h-15.41c-.95.04-1.8.7-1.81,1.67l-.02,8.09h-12.02s-.02-8.03-.02-8.03c-.08-1.01-.8-1.71-1.85-1.74h-15.29c-1.02.04-1.67.7-1.81,1.71v19.03s17.19,17.24,17.19,17.24v25.92c.09,1,.78,1.61,1.74,1.73h13.24c1.08-.18,1.76-.88,1.69-1.98v-17.63s13.16-.01,13.16-.01v17.65c-.03,1.09.73,1.85,1.8,1.96h13.14c1.05-.14,1.78-.8,1.78-1.88v-25.81s11.84-11.9,11.84-11.9l5.31-5.36Z"/>
  <path class="cls-2" d="M104.45,51.87l-5.31,5.36-11.85,11.9v25.81c0,1.08-.73,1.74-1.78,1.88h-13.14c-1.07-.12-1.83-.87-1.79-1.96v-17.65s-13.17.01-13.17.01v17.63c.07,1.1-.62,1.8-1.69,1.97h-13.24c-.96-.11-1.65-.72-1.74-1.72v-25.92s-17.18-17.24-17.18-17.24v-19.03c.14-1.01.79-1.67,1.81-1.71h15.29c1.05.03,1.76.73,1.85,1.74l.02,8.04h12.02s.02-8.1.02-8.1c0-.97.86-1.63,1.81-1.68h15.41c1.13.1,1.71.89,1.71,1.95v7.84s12.07,0,12.07,0l.03-8.22c0-.91.94-1.51,1.78-1.55l15.41.02c1,0,1.7.88,1.7,1.8v18.87ZM84.91,56.95l6.86-6.89h-55.53s6.86,6.89,6.86,6.89h41.81Z"/>
  <polygon class="cls-1" points="84.91 56.95 43.09 56.95 36.23 50.06 91.76 50.06 84.91 56.95"/>
</svg>