<?xml version="1.0" encoding="UTF-8" standalone="no"?>
<svg
   id="katman_2"
   data-name="katman 2"
   viewBox="0 0 128 128"
   version="1.1"
   sodipodi:docname="deployable_fob.svg"
   inkscape:version="1.4.2 (f4327f4, 2025-05-13)"
   xmlns:inkscape="http://www.inkscape.org/namespaces/inkscape"
   xmlns:sodipodi="http://sodipodi.sourceforge.net/DTD/sodipodi-0.dtd"
   xmlns="http://www.w3.org/2000/svg"
   xmlns:svg="http://www.w3.org/2000/svg">
  <sodipodi:namedview
     id="namedview2"
     borderopacity="0.25"
     inkscape:showpageshadow="2"
     inkscape:pageopacity="0.0"
     inkscape:pagecheckerboard="0"
     inkscape:deskcolor="#d1d1d1"
     inkscape:zoom="2.2290436"
     inkscape:cx="45.983846"
     inkscape:cy="97.351167"
     inkscape:window-width="1279"
     inkscape:window-height="1000"
     inkscape:window-x="1272"
     inkscape:window-y="0"
     inkscape:window-maximized="0"
     inkscape:current-layer="katman_2" />
  <defs
     id="defs1">
    <style
       id="style1">
      .cls-1 {
        fill: #1d1d1d;
      }

      .cls-2 {
        fill: #14c4ff;
      }
    </style>
  </defs>
  <path
     class="cls-1"
     d="M108.74,54.7l-17.2,17.19v26.8s-2.45,2.41-2.45,2.41h-20.28s-2.43-2.42-2.43-2.42v-17.25s-4.78.02-4.78.02v17.24s-2.35,2.4-2.35,2.4h-20.34s-2.42-2.4-2.42-2.4v-26.81s-17.22-17.2-17.22-17.2v-25.34s2.47-2.46,2.47-2.46h22.5s2.42,2.34,2.42,2.34v7.5s3.66-.02,3.66-.02l.02-7.44,2.43-2.38h22.53s2.37,2.35,2.37,2.35v7.48s3.71,0,3.71,0v-7.42s2.42-2.41,2.42-2.41h22.48s2.47,2.45,2.47,2.45v25.35ZM104.45,51.87v-18.87c0-.92-.71-1.8-1.7-1.8l-15.41-.02c-.84.04-1.78.65-1.78,1.55l-.03,8.22h-12.06s0-7.83,0-7.83c0-1.06-.58-1.85-1.71-1.94h-15.41c-.95.04-1.8.7-1.81,1.67l-.02,8.09h-12.02s-.02-8.03-.02-8.03c-.08-1.01-.8-1.71-1.85-1.74h-15.29c-1.02.04-1.67.7-1.81,1.71v19.03s17.19,17.24,17.19,17.24v25.92c.09,1,.78,1.61,1.74,1.73h13.24c1.08-.18,1.76-.88,1.69-1.98v-17.63s13.16-.01,13.16-.01v17.65c-.03,1.09.73,1.85,1.8,1.96h13.14c1.05-.14,1.78-.8,1.78-1.88v-25.81s11.84-11.9,11.84-11.9l5.31-5.36Z"
     id="path1" />
  <path
     class="cls-2"
     d="M104.45,51.87l-5.31,5.36-11.85,11.9v25.81c0,1.08-.73,1.74-1.78,1.88h-13.14c-1.07-.12-1.83-.87-1.79-1.96v-17.65s-13.17.01-13.17.01v17.63c.07,1.1-.62,1.8-1.69,1.97h-13.24c-.96-.11-1.65-.72-1.74-1.72v-25.92s-17.18-17.24-17.18-17.24v-19.03c.14-1.01.79-1.67,1.81-1.71h15.29c1.05.03,1.76.73,1.85,1.74l.02,8.04h12.02s.02-8.1.02-8.1c0-.97.86-1.63,1.81-1.68h15.41c1.13.1,1.71.89,1.71,1.95v7.84s12.07,0,12.07,0l.03-8.22c0-.91.94-1.51,1.78-1.55l15.41.02c1,0,1.7.88,1.7,1.8v18.87ZM84.91,56.95l6.86-6.89h-55.53s6.86,6.89,6.86,6.89h41.81Z"
     id="path2" />
  <polygon
     class="cls-1"
     points="84.91 56.95 43.09 56.95 36.23 50.06 91.76 50.06 84.91 56.95"
     id="polygon2" />
  <path
     style="fill:#04a0d8;stroke-width:0.448623"
     d="m 30.819166,30.885758 c -2.229527,0.375874 -5.326732,-0.689343 -7.035143,1.152225 -1.107003,6.009227 -0.246067,12.261928 -0.530987,18.356737 -0.419542,3.066517 3.326006,4.384839 4.848432,6.622258 4.066388,4.062227 8.132821,8.124409 12.199237,12.186607 0.218765,8.908869 -0.471354,17.913399 0.509958,26.769291 1.487964,1.815191 4.483129,0.533574 6.478699,0.931938 3.285916,-0.244594 6.904014,0.290824 9.985411,-0.443885 0.147309,-6.332703 0.294521,-12.665414 0.441613,-18.998125 4.140415,0 8.280831,0 12.421245,0 0.327862,6.237459 -0.340725,12.639106 0.784215,18.786958 3.497966,1.196841 7.478445,0.608027 11.159248,0.722911 1.554222,-0.344 3.926724,0.409027 5.030605,-0.948972 0.890885,-8.891002 0.233805,-17.890188 0.44512,-26.820116 5.657246,-5.735086 11.514714,-11.336445 17.047671,-17.154568 -0.2558,-6.772084 0.52369,-13.674258 -0.50821,-20.377292 -2.13546,-1.267652 -5.072333,-0.477916 -7.480253,-0.785971 -3.493099,0.306905 -7.372934,-0.656535 -10.644283,0.771951 -1.556919,2.685603 -0.438062,6.142687 -0.80875,9.091623 -3.83783,0 -7.675655,0 -11.513485,0 -0.335067,-3.023009 0.658278,-6.526604 -0.722005,-9.321192 -5.09911,-1.009007 -10.453574,-0.44789 -15.643969,-0.416203 -2.007166,-0.29314 -3.258048,1.464467 -3.021195,3.318233 -0.09865,2.138151 -0.03623,4.279615 -0.05432,6.419162 -3.837829,0 -7.675657,0 -11.513486,0 -0.335066,-3.023009 0.658278,-6.526604 -0.722002,-9.321192 -3.580867,-0.913962 -7.483484,-0.381425 -11.153361,-0.542378 z m 33.109596,19.43536 c 9.098924,0 18.197849,0 27.296773,0 -2.382604,2.065018 -4.382538,5.050582 -6.988701,6.578634 -13.688256,0 -27.376511,0 -41.064767,0 -2.180194,-2.192711 -4.360273,-4.385538 -6.54008,-6.578634 9.098925,0 18.19785,0 27.296775,0 z"
     id="path3" />
</svg>
