<?xml version="1.0" encoding="UTF-8" standalone="no"?>
<svg
   id="katman_1"
   data-name="katman 1"
   viewBox="0 0 128 128"
   version="1.1"
   sodipodi:docname="T_strategic_uav_color.svg"
   inkscape:version="1.4.2 (f4327f4, 2025-05-13)"
   xmlns:inkscape="http://www.inkscape.org/namespaces/inkscape"
   xmlns:sodipodi="http://sodipodi.sourceforge.net/DTD/sodipodi-0.dtd"
   xmlns="http://www.w3.org/2000/svg"
   xmlns:svg="http://www.w3.org/2000/svg">
  <sodipodi:namedview
     id="namedview2"
     bordercolor="#000000"
     borderopacity="0.25"
     inkscape:showpageshadow="2"
     inkscape:pageopacity="0.0"
     inkscape:pagecheckerboard="0"
     inkscape:deskcolor="#d1d1d1"
     inkscape:zoom="4.4580873"
     inkscape:cx="66.171876"
     inkscape:cy="57.872353"
     inkscape:window-width="1278"
     inkscape:window-height="1000"
     inkscape:window-x="1273"
     inkscape:window-y="0"
     inkscape:window-maximized="0"
     inkscape:current-layer="katman_1" />
  <defs
     id="defs1">
    <style
       id="style1">
      .cls-1 {
        fill: #1d1d1d;
      }

      .cls-2 {
        fill: #fec600;
      }
    </style>
  </defs>
  <path
     class="cls-1"
     d="M71.29,74.25l-6.28,2.69-12.2,5.14-12.92,5.21c-2.8,1.13-5.5,2.12-8.37,3.03s-5.85.86-8.57-.38c-1.64-.75-2.72-2.39-2.57-4.18s1.29-3.1,2.73-3.91l4.81-2.72,16.6-9.8-6.44-.56-17.53-1.04c-.89.89-1.76,2.12-3.02,2.13h-4.66c-.93,0-1.36-.49-1.95-1.09-1.23-1.25-2.17-2.79-1.92-4.64-.64-.37-1.14-.75-1.68-1.2l-1.95-1.66c-.92-.79-1.44-1.76-1.67-2.94-.19-.96-.3-1.93.07-2.9.45-1.18,1.12-2.39,2.15-3.17,3.16-2.4,6.59-4.28,10.41-5.42,4.31-1.28,8.81-1.24,13.18-.15,5.42,1.36,10.6,3.06,15.93,4.73l8.55,2.68,11.41,2.37,2.09-1.37,34.44-21.58,11.34-7.03c3.37-2.09,9.6.22,10.9,3.42.59,1.46.24,3.44-1.09,4.49l-27.87,21.95-6.61,5.22c3.11.77,6.08,1.14,9.2,1.08,4.28-.09,5.59,1.87,7.62,2.19,1.19.18,2.32-.03,3.39.57s1.83,1.56,2.48,2.59l3.83,2.1c2.31,1.26,2.54,4.56,1.48,6.83l5.13,3.79c1.24.92,2.24,2.07,2.52,3.62.21,1.17-.06,2.36-.88,3.18-.76.76-1.83,1.2-3.04,1.13-3.05-.16-6.01-.58-8.99-1.21-.62-.13-1.18-.48-1.64-.86l-1.92-1.61c-.45,3.13.81,3.81-2.05,5.71l-5.29-.14-4.41,8.93c-1.14,2.3-3.6,3.27-6.08,2.71l-6.35-1.44c-2.43-.55-3.51-3.58-2.48-5.73l3.74-7.29,4.7-9.29-18.28-4.16ZM84.09,96.54c-.31.6.37,1.09.74,1.15,2.02.36,3.86.79,5.85,1.28.68.17,1.75.06,2.13-.62.87-1.54,1.59-3.04,2.37-4.63l3.56-7.34c.64.33,1.29,1.07,2.01,1.18,1.3.21,2.59.2,3.99.25l.2-3.89.19-5.31c.05-.09.08-.15.09-.16,0,0,.18.08.23.12l5.65,4.83c.71.61,1.16,1.08,2.08,1.25,1.24.22,7.08,1.28,7.79.66.81-.71-2.29-2.74-2.65-3.01-2.57-1.96-5.12-3.83-7.84-5.58.98-.29,1.85-.38,2.74-.9.8-.47,1.1-2.4.19-2.9l-3.68-2.04c-.54-.3-.96-.52-1.25-1.12-1.27-2.62-2.95-1.25-4.61-1.86-1.45-.53-2.73-1.46-4.23-1.82-1.71-.41-3.51-.23-5.26-.49-2.03-.1-3.94-.44-5.92-.9l-7.09-1.65,19.06-14.96,15.06-11.86,5.29-4.19c.19-.15.43-.44.44-.62s-.2-.56-.37-.71c-1.17-1.05-2.67-1.62-4.25-1.81-.69-.08-1.29.15-1.87.51l-16.4,10.24-15.37,9.63-16.9,10.6-13.06-2.6-19.3-6.07-6.18-1.62c-6.86-1.8-14.12,1.11-19.53,5.26-1.63,1.25-1.12,3.43-.31,4.09l2.57,2.11c.59.49,1.38.79,2.04,1.2-.09,1.05-.31,2.04.09,3.06.21.54.93,1.4,1.53,1.54.76.17,1.87.21,2.55-.02,1.2-.41,1.87-1.57,2.37-2.65,1.53.51,3.02.77,4.63.82l4.55.14,16.21,1.29,8.86.92c-2.39,1.87-4.68,3.46-7.17,4.99-5.73,3.52-11.42,6.88-17.28,10.13-1.54.85-2.93,1.68-4.41,2.6-.36.22-.55.75-.52,1.14.02.32.34.66.71.82,1.72.75,3.56.87,5.38.37s3.65-1.17,5.54-1.86l21.09-8.53,14.53-6.15,23.48,5.36-3.8,7.44-6.57,12.9Z"
     id="path1" />
  <path
     class="cls-2"
     d="M84.09,96.54l6.57-12.9,3.8-7.44-23.48-5.36-14.53,6.15-21.09,8.53c-1.88.7-3.63,1.34-5.54,1.86s-3.65.38-5.38-.37c-.37-.16-.69-.5-.71-.82-.02-.38.17-.91.52-1.14,1.48-.92,2.87-1.75,4.41-2.6,5.86-3.25,11.56-6.6,17.28-10.13,2.49-1.53,4.78-3.12,7.17-4.99l-8.86-.92-16.21-1.29-4.55-.14c-1.61-.05-3.1-.31-4.63-.82-.5,1.08-1.17,2.24-2.37,2.65-.69.23-1.8.2-2.55.02-.6-.14-1.32-1-1.53-1.54-.4-1.02-.18-2.01-.09-3.06-.67-.41-1.45-.71-2.04-1.2l-2.57-2.11c-.81-.67-1.33-2.84.31-4.09,5.41-4.15,12.67-7.05,19.53-5.26l6.18,1.62,19.3,6.07,13.06,2.6,16.9-10.6,15.37-9.63,16.4-10.24c.58-.36,1.17-.59,1.87-.51,1.58.19,3.08.76,4.25,1.81.17.15.38.53.37.71s-.25.47-.44.62l-5.29,4.19-15.06,11.86-19.06,14.96,7.09,1.65c1.98.46,3.89.8,5.92.9,1.75.26,3.55.07,5.26.49,1.49.36,2.78,1.29,4.23,1.82,1.66.61,3.34-.77,4.61,1.86.29.6.71.82,1.25,1.12l3.68,2.04c.91.51.61,2.43-.19,2.9-.88.52-1.76.61-2.74.9,2.72,1.74,5.27,3.62,7.84,5.58.36.27,3.46,2.3,2.65,3.01-.71.62-6.55-.44-7.79-.66-.92-.16-1.37-.64-2.08-1.25l-5.65-4.83c-.05-.04-.23-.13-.23-.12-.01.01-.04.06-.09.16l-.19,5.31-.2,3.89c-1.39-.05-2.68-.04-3.99-.25-.72-.12-1.36-.85-2.01-1.18l-3.56,7.34c-.77,1.59-1.5,3.09-2.37,4.63-.38.68-1.45.79-2.13.62-1.99-.49-3.83-.92-5.85-1.28-.37-.07-1.05-.55-.74-1.15Z"
     id="path2" />
  <path
     style="fill:#04a0d8;stroke-width:0.158612"
     d="m 116.19981,28.671004 c -1.64879,0.127949 -2.86557,1.467398 -4.29089,2.170694 C 96.594033,40.388053 81.314744,49.991723 66.017968,59.567224 61.50318,58.613616 56.932773,57.877265 52.453555,56.784543 44.090863,54.21831 35.804603,51.363201 27.312984,49.243303 21.4908,47.937846 15.385961,49.686655 10.4557,52.850991 c -1.425835,1.031212 -3.5675059,1.87815 -3.7413258,3.892194 -0.2230416,1.456432 0.8882862,2.569065 1.9761484,3.335902 1.0445272,0.826366 2.0809934,1.692893 3.2905804,2.271285 -0.0679,1.438417 -0.206118,3.121036 0.987299,4.180916 1.124273,0.942071 2.865165,0.827878 4.143432,0.282839 0.919584,-0.479732 1.40512,-1.44066 1.869269,-2.318464 3.582406,1.010832 7.384182,0.716449 11.061465,1.104713 7.438362,0.552904 14.879693,1.107562 22.292624,1.944544 -5.787954,4.464075 -12.264056,7.917394 -18.527096,11.644126 -3.184624,1.88928 -6.489893,3.593696 -9.584738,5.62508 -0.794999,0.468001 -1.103708,1.720764 -0.181227,2.233272 1.655103,1.08093 3.761171,0.845198 5.628253,0.670694 4.706884,-1.348774 9.176774,-3.406148 13.743481,-5.154434 9.250471,-3.709093 18.452345,-7.537533 27.625478,-11.433857 7.636055,1.793798 15.317608,3.412855 22.917905,5.335502 -3.252541,6.670814 -6.840107,13.179724 -9.934014,19.926271 -0.462257,0.712625 0.187996,1.45331 0.920694,1.530049 2.186741,0.516991 4.375186,1.163553 6.612454,1.387547 1.662909,-0.181327 2.094138,-2.126428 2.840458,-3.316915 1.539176,-3.020657 2.938698,-6.209269 4.511463,-9.154275 0.876819,0.61253 1.834157,1.133124 2.942997,1.092007 0.98826,0.02565 2.01697,0.276873 2.99071,0.09139 0.42044,-0.867808 0.1661,-1.979619 0.32047,-2.9326 0.13379,-1.968517 0.0907,-4.21275 0.36509,-6.010089 2.43445,1.793694 4.54793,4.032127 7.08922,5.665737 2.65898,0.64246 5.44057,1.011046 8.17627,0.798637 0.88342,-0.07638 0.59654,-1.099815 0.079,-1.458178 -2.59243,-2.417982 -5.58081,-4.382406 -8.45502,-6.44878 -0.24554,-0.266677 -1.24754,-0.67763 -0.98922,-0.877119 1.24448,-0.246438 2.79965,-0.8653 2.81196,-2.373606 0.2296,-1.042706 -0.62811,-1.754224 -1.46952,-2.140903 -1.24482,-0.894047 -2.87982,-1.305336 -3.89108,-2.491996 -0.53571,-0.931685 -1.29171,-1.939062 -2.49473,-1.879802 -1.42998,-0.0348 -2.84702,-0.261086 -4.11153,-1.01487 -2.02589,-1.1623 -4.383564,-1.382029 -6.659537,-1.460037 -4.574952,-0.235114 -9.007652,-1.474998 -13.461897,-2.491326 4.385576,-3.690078 9.008319,-7.106611 13.485914,-10.69427 8.32963,-6.580502 16.73036,-13.073657 24.99581,-19.733859 0.56165,-0.349675 1.2102,-1.075405 0.64653,-1.717472 -1.24872,-1.377931 -3.24083,-2.103656 -5.07993,-2.089839 z"
     id="path3" />
</svg>
