<?xml version="1.0" encoding="UTF-8"?>
<svg id="katman_1" data-name="katman 1" xmlns="http://www.w3.org/2000/svg" viewBox="0 0 128 128">
  <defs>
    <style>
      .cls-1 {
        fill: #ffa500;
      }

      .cls-2 {
        fill: #1d1d1d;
      }
    </style>
  </defs>
  <path class="cls-2" d="M60.59,96.82l-.03-13.07-7.3,7.19h-4.33c-.73-.64-1.39-1.31-2.09-2.02l-10.37-10.38v-3.84c.06-.36.22-.74.5-1.01l6.66-6.56-11.76-.07c-.79,0-1.63-1.12-1.69-1.77-.06-.76-.04-1.27-.05-2.11h-7.12s-.03,3.58-.03,3.58l-11.16,10.89c-1.23.03-2.32.16-3.53,0-.69-.09-1.63-1.05-1.64-1.8-.02-2.97-.12-5.8.08-8.72.08-1.28,1.6-1.98,2.72-2.05v-4.9c-1.41-.11-2.36-1.16-2.36-2.54v-4.51c0-1.44.92-2.61,2.46-2.61h49.73s.8.81.8.81l.29-1.22,3.54-3.58,3.89-3.86c.17-.17.61-.39.85-.39h3.72s7.7-7.81,7.7-7.81l10.12-10.37-2.77-2.75c-.23-.23-.67-.72-.67-1.05l-.04-3.26c0-.45.15-.89.49-1.22l9.45-9.17c.34-.33.76-.43,1.22-.44l8.95-.08c.41,0,.87.29,1.16.57l6.2,6.06,6.61,6.52c.23.22.57.75.57,1.07l.04,9.47c0,.51-.23.99-.59,1.35l-8.61,8.78c-.44.45-.93.79-1.57.78l-2.83-.03c-.39,0-.89-.19-1.18-.48l-2.87-2.89-6.42,6.42-8.51,8.52-2.63,2.65v1.18s-.02,2.58-.02,2.58l-6.53,6.5-3.43,3.35.86.81v49.54c-2.28,3.34-3.12,2.34-7.16,2.36-1.21-.86-1.61-1.45-1.48-3.03h-6.96c-.13,2.28.37,2.18-1.71,3.68l-8.12-.02c-.62-.28-1.41-.96-1.69-1.55l-.03-4.62,11.34-11.26h3.2s-.05-1.99-.05-1.99c-.02-.73-.01-1.46,0-2.2l.04-1.76c-2.24-.16-2.35.62-3.85-1.67ZM104.16,33.21l4.39,4.2c.4.25.93.29,1.35.12l8.41-8.53v-7.56s-12.37-12.13-12.37-12.13l-7.31.02-8.77,8.61v1.22s3.47,3.43,3.47,3.43l.26.86,9.9,9.43.68.33ZM51.67,87.82l10.74-10.62c.26-.25.53-.4.85-.55l10.31-10.12,1.11-1.25,8.39-8.3.03-3.13c0-.22.11-.68.26-.83l3.27-3.27,14.72-14.71-1.55-1.52-7.34-6.98-17.97,18.4c-.3.31-.64.41-1.03.41h-3.63s-1.39,1.43-1.39,1.43l-5.24,5.28-.11.78-15.16,14.98-1.04.86-7.25,7.17c-.39.38-.13,1,.2,1.33l10.59,10.6c.25.25.96.33,1.25.04ZM20.21,64.92v-4.63s12.79.01,12.79.01l.03,3.95,14.34-.02,2.23-2.22,8.69-8.62H9.95s0,3.87,0,3.87l2.33.03v10.68s-2.84.05-2.84.05v6.72c.43.22.79.03,1.08-.26l4.76-4.69,4.94-4.87ZM52.76,119.03h5.85s.02-3.67.02-3.67l12.61-.03v3.16s2.57-.02,2.57-.02c.2,0,.43-.35.43-.61v-47.84s-6.76,6.58-6.76,6.58l-4.12,4.11.04,14.91,3.81.04v11.59s-4.36.07-4.36.07l-10.17,10.15c-.04.53,0,1.05.08,1.58Z"/>
  <path class="cls-1" d="M51.67,87.82c-.3.29-1,.21-1.25-.04l-10.59-10.6c-.33-.33-.59-.95-.2-1.33l7.25-7.17,1.04-.86,15.16-14.98.11-.78,5.24-5.28,1.39-1.44h3.63c.39,0,.73-.1,1.03-.4l17.97-18.4,7.34,6.98,1.55,1.52-14.72,14.71-3.27,3.27c-.15.15-.26.61-.26.83l-.03,3.13-8.39,8.3-1.11,1.25-10.31,10.12c-.32.15-.6.3-.85.55l-10.74,10.62ZM55.12,67.65l-8.88,8.8,4.82,4.86,8.88-8.8-4.82-4.86Z"/>
  <path class="cls-1" d="M52.76,119.03c-.09-.53-.12-1.06-.08-1.58l10.17-10.15,4.37-.07v-11.59s-3.83-.04-3.83-.04l-.04-14.91,4.12-4.11,6.75-6.58v47.84c0,.26-.22.61-.42.61l-2.56.02v-3.16s-12.62.03-12.62.03l-.02,3.67h-5.85Z"/>
  <path class="cls-1" d="M20.21,64.92l-4.94,4.87-4.76,4.69c-.29.29-.65.48-1.07.26v-6.72s2.84-.05,2.84-.05v-10.68s-2.33-.03-2.33-.03v-3.87s48.34,0,48.34,0l-8.69,8.62-2.23,2.22-14.34.02-.03-3.95h-12.79s0,4.61,0,4.61Z"/>
  <path class="cls-1" d="M104.16,33.21l-.68-.33-9.9-9.43-.26-.86-3.47-3.43v-1.22s8.78-8.61,8.78-8.61l7.31-.02,12.36,12.13v7.56s-8.39,8.53-8.39,8.53c-.42.18-.95.13-1.35-.12l-4.39-4.2ZM101.11,12.58l-4.71,5,14.66,13.81,4.71-5-14.66-13.81Z"/>
  <path class="cls-2" d="M55.12,67.65l4.82,4.86-8.88,8.8-4.82-4.86,8.88-8.8ZM55.04,71.74l-4.69,4.7.77.77,4.69-4.7-.77-.77Z"/>
  <path class="cls-2" d="M101.11,12.58l14.66,13.81-4.71,5-14.66-13.81,4.71-5ZM101.29,16.87l-.58.62,10.26,9.66.58-.62-10.26-9.66Z"/>
  <rect class="cls-1" x="49.76" y="73.92" width="6.64" height="1.1" transform="translate(-37.12 59.41) rotate(-45.04)"/>
  <rect class="cls-1" x="105.71" y="14.96" width=".85" height="14.09" transform="translate(17.34 84.18) rotate(-46.72)"/>
</svg>