<?xml version="1.0" encoding="UTF-8"?>
<svg id="katman_2" data-name="katman 2" xmlns="http://www.w3.org/2000/svg" viewBox="0 0 128 128">
  <defs>
    <style>
      .cls-1 {
        fill: #ffa500;
      }

      .cls-2 {
        fill: #1d1d1d;
      }
    </style>
  </defs>
  <path class="cls-2" d="M84.75,89.14c-6.06.4-9.65.39-14.94-.07l-.31-17.81-10.94-.12-.41,17.83c-5.36.65-9.78.71-14.99-.04l.03-47.72,14.92-.17.43,16.41,10.96-.16.22-15.92c4.96-.47,9.43-.5,15.11-.08l-.08,47.86ZM81.76,85.93l-.03-41.71-8.8.04-.04,16.15-17.73-.03-.16-16.22-8.77.04.02,41.8,8.77.18.19-18.17h17.58s.19,18.21.19,18.21l8.79-.3Z"/>
  <path class="cls-2" d="M82.22,35.83c-11.15-7.89-25.17-7.92-36.39-.02-3.66,2.58-8.04,2.24-10.59-2.02-2.37-1.14-4.55-5.78-2.23-7.95,15.75-14.71,46.46-14.53,61.97.02,2.61,2.45-.37,6.26-2.02,8.13-3.19,3.6-6.77,4.65-10.73,1.84ZM86.97,34.21l5.47-5.8c-16.79-13.56-40.2-13.59-57.01.08l5.71,5.68c14.21-10.36,31.42-10.44,45.82.05Z"/>
  <path class="cls-2" d="M95.52,102.09c-16.73,14.79-47.04,14.64-62.55.06-2.55-2.4.51-6.32,2.03-8.11,3.47-4.06,7.29-4.36,11.43-1.49,11.01,7.61,24.86,7.35,35.71-.36,4-2.84,7.64-1.73,10.78,1.73,2.03,2.24,3.48,4.52,2.6,8.16ZM92.39,99.59c-1.79-2.43-3.83-4.53-6.07-5.43-13.91,10.1-31.38,9.91-45.06-.3-2.28,1.97-4.02,3.74-5.68,5.77,17,13.6,40.26,13.48,56.8-.04Z"/>
  <path class="cls-2" d="M36.03,45.67c-14.62,21.18,2.02,36.95,1.68,41.83-.25,3.6-8.21,11.51-11.55,7.8-14.69-16.31-14.38-46.99-.04-62.52,2.46-2.67,6.27.34,8.11,2.01,3.6,3.26,4.56,6.88,1.8,10.88ZM34.33,86.82c-10.62-14.68-9.94-31.69.01-45.83l-5.59-5.76c-13.54,16.92-13.55,40.59-.01,57.47,2.17-1.96,3.88-3.72,5.59-5.88Z"/>
  <path class="cls-2" d="M94.25,93.27c-4.54-2.93-4.84-7.24-2.29-10.92,14.56-21.08-1.86-36.79-1.68-41.86.12-3.51,8.11-11.47,11.54-7.76,14.49,15.65,14.65,46.4.03,62.57-1.88,2.08-6.38.25-7.6-2.02ZM93.53,87.07l5.7,5.66c13.48-16.82,13.56-40.14.16-57.37-2.04,1.67-3.85,3.45-5.77,5.67,10.32,14.21,10.33,31.69-.08,46.05Z"/>
  <polygon class="cls-1" points="81.76 85.93 72.97 86.23 72.78 68.03 55.2 68.03 55.01 86.19 46.24 86.01 46.22 44.21 55 44.17 55.16 60.39 72.89 60.42 72.93 44.27 81.73 44.22 81.76 85.93"/>
  <path class="cls-1" d="M86.97,34.21c-14.4-10.49-31.62-10.41-45.82-.05l-5.71-5.68c16.81-13.67,40.22-13.64,57.01-.08l-5.47,5.8Z"/>
  <path class="cls-1" d="M92.39,99.59c-16.54,13.52-39.8,13.64-56.8.04,1.66-2.03,3.4-3.8,5.68-5.77,13.68,10.21,31.15,10.4,45.06.3,2.24.9,4.28,3,6.07,5.43Z"/>
  <path class="cls-1" d="M34.33,86.82c-1.71,2.16-3.41,3.91-5.59,5.88-13.54-16.87-13.53-40.54.01-57.47l5.59,5.76c-9.95,14.14-10.63,31.15-.01,45.83Z"/>
  <path class="cls-1" d="M93.53,87.07c10.42-14.36,10.4-31.83.08-46.05,1.93-2.22,3.74-4,5.77-5.67,13.4,17.23,13.32,40.55-.16,57.37l-5.7-5.66Z"/>
</svg>