<?xml version="1.0" encoding="UTF-8" standalone="no"?>
<svg
   id="katman_2"
   data-name="katman 2"
   viewBox="0 0 128 128"
   version="1.1"
   sodipodi:docname="deployable_hab_activated.svg"
   inkscape:version="1.4.2 (f4327f4, 2025-05-13)"
   xmlns:inkscape="http://www.inkscape.org/namespaces/inkscape"
   xmlns:sodipodi="http://sodipodi.sourceforge.net/DTD/sodipodi-0.dtd"
   xmlns="http://www.w3.org/2000/svg"
   xmlns:svg="http://www.w3.org/2000/svg">
  <sodipodi:namedview
     id="namedview5"
     pagecolor="#ffffff"
     bordercolor="#000000"
     borderopacity="0.25"
     inkscape:showpageshadow="2"
     inkscape:pageopacity="0.0"
     inkscape:pagecheckerboard="0"
     inkscape:deskcolor="#d1d1d1"
     inkscape:zoom="3.1523438"
     inkscape:cx="33.149938"
     inkscape:cy="76.768278"
     inkscape:window-width="1278"
     inkscape:window-height="1000"
     inkscape:window-x="-7"
     inkscape:window-y="0"
     inkscape:window-maximized="0"
     inkscape:current-layer="katman_2" />
  <defs
     id="defs1">
    <style
       id="style1">
      .cls-1 {
        fill: #575750;
      }

      .cls-2 {
        fill: #f9ce0a;
      }
    </style>
  </defs>
  <path
     class="cls-2"
     d="M43.47,128H0v-44.37l7.36.04.02,36.98h35.6c.34.01.47.2.5.48v6.87Z"
     id="path1" />
  <path
     class="cls-2"
     d="M11.37,7.15h-4.07c0,1-.08,1.27-.08,2.11,0,.49,0,.75,0,1.52,0,.3-.05,2.08-.06,2.6-.02.84.03,6.25.03,6.57,0,.78-.03.93-.03,1.44v15.83c0,.82.04,1.25.04,2.4,0,.55-.02,1.86-.02,3.48l-7.17.02V0h43.26s.02,6.75.02,6.75c-.05.31-.26.36-.55.42l-11.48-.07c-2.06-.01-8.84.15-10.01.04h-9.88"
     id="path2" />
  <path
     class="cls-2"
     d="M120.97,120.79c-.08-.25-.11-2.17-.11-2.96v-32.57c-.02-.34.11-.51.4-.54h6.74s0,43.27,0,43.27h-43.15v-6.99c.01-.16.38-.27.55-.27h32.55s3.02.06,3.02.06Z"
     id="path3" />
  <polygon
     class="cls-2"
     points="120.78 43.35 120.76 7.28 83.89 7.25 83.82 2.96 83.79 0 127.99 0 128 43.34 120.78 43.35"
     id="polygon3" />
  <circle
     class="cls-1"
     cx="62.95"
     cy="21.71"
     r=".22"
     id="circle3" />
  <g
     id="g5"
     transform="translate(-0.41327138,-1.8600743)">
    <path
       class="cls-1"
       d="M 99.47,83.32 H 30 c 0,0 -0.07,-6.54 -0.07,-6.54 L 44.12,55.39 43.91,45.44 h 41.65 c 0,0 -0.2,10.02 -0.2,10.02 l 14.2,21.32 z M 47.46,48.94 v 5.35 c 0,0 34.55,0 34.55,0 v -5.35 c 0,0 -34.55,0 -34.55,0 z m 22.48,30.58 c 0.08,0.23 0.15,0.29 0.23,0.32 0.06,0.02 0.11,-0.09 0.24,-0.09 h 22.8 c 0.46,0.01 0.74,0.06 1.2,0.04 l 1.63,-0.08 c -0.13,-0.52 0.22,-1.41 -0.1,-1.9 L 94.15,75.11 91.4,70.99 89.05,67.45 83.5,59.13 c -0.34,-0.51 -0.68,-0.97 -1,-1.49 l -0.55,-0.88 h -34.5 c 0,0 -2.02,3.2 -2.02,3.2 L 44.01,62.02 43,63.64 c -1.12,1.8 -2.32,3.49 -3.51,5.24 l -0.91,1.34 -1.25,1.88 -1.79,2.7 -2,3.01 c -0.29,0.52 0,1.34 -0.03,1.94 h 26.02 c 0,0 0,-15.57 0,-15.57 l 10.43,0.02 v 15.33 z"
       id="path4"
       style="fill:#1d1d1d" />
    <path
       class="cls-2"
       d="M 69.94,79.52 V 64.19 c 0,0 -10.42,-0.02 -10.42,-0.02 v 15.58 c 0,0 -26.01,0 -26.01,0 0.04,-0.6 -0.26,-1.42 0.03,-1.94 l 2,-3.01 1.79,-2.7 1.25,-1.88 0.91,-1.34 c 1.2,-1.75 2.39,-3.45 3.51,-5.24 l 1.01,-1.62 1.42,-2.06 2.02,-3.19 h 34.5 c 0,0 0.55,0.88 0.55,0.88 0.33,0.52 0.66,0.98 1,1.49 l 5.55,8.32 2.35,3.54 2.75,4.12 1.79,2.7 c 0.32,0.49 -0.03,1.38 0.1,1.9 l -1.63,0.08 c -0.45,0.02 -0.74,-0.02 -1.2,-0.02 h -22.8 c -0.12,-0.01 -0.18,0.1 -0.24,0.08 -0.09,-0.03 -0.16,-0.08 -0.23,-0.32 z"
       id="path5"
       style="fill:#14c4ff" />
    <rect
       class="cls-2"
       x="62.060001"
       y="34.34"
       width="5.3499999"
       height="34.549999"
       transform="rotate(-89.98,64.740309,51.617713)"
       id="rect5"
       style="fill:#14c4ff" />
  </g>
  <path
     style="fill:#ffa500;stroke-width:0.448623"
     d="m 64.304962,54.595437 c -5.792747,0.09372 -11.677594,-0.178603 -17.413929,0.139318 -4.700123,7.431542 -10.098389,14.511196 -14.181565,22.289198 0.801145,1.658332 3.529566,0.607568 4.990054,1.010277 7.102655,0.0669 14.205834,0.02314 21.308711,0.03592 0.763755,-4.909414 0.261293,-10.360665 0.540625,-15.47749 3.242586,0 6.485171,0 9.727757,0 0.08049,5.060733 0.160793,10.121467 0.240959,15.182205 4.999349,0.682424 10.516629,0.109083 15.718447,0.291439 3.427398,-0.293175 7.177746,0.518455 10.440123,-0.651564 0.317405,-1.791881 -1.712232,-3.41539 -2.350003,-5.040024 -3.847982,-5.98372 -7.718319,-12.060154 -11.857848,-17.783666 -5.721111,0.0015 -11.442221,0.0029 -17.163331,0.0044 z"
     id="path6" />
  <path
     style="fill:#ffa500;stroke-width:0.448623"
     d="m 46.616778,47.264132 c 0.04671,2.518933 -0.946415,6.479324 2.991403,5.234518 10.617409,0 21.234817,0 31.852225,0 0.347743,-1.965408 1.44385,-6.735308 -2.243114,-5.534184 -10.766949,0 -21.533899,0 -32.300848,0 z"
     id="path7" />
  <path
     style="fill:#ffa500;fill-opacity:1;stroke-width:0.317224"
     d="m -0.14126394,0.15861214 c 0,14.27509286 0,28.55018586 0,42.82527886 1.85764694,0.70689 4.26157314,0.09495 6.32713754,0.299875 2.383617,0.211877 0.7926956,-3.264387 1.2515488,-4.741015 0,-10.367204 0,-20.734407 0,-31.1016111 C 19.339529,7.3869672 31.241635,7.3328596 43.143743,7.2788102 43.881401,5.3480659 43.35012,2.8633075 43.607925,0.72281308 43.248526,-1.1202013 40.07175,0.30914129 38.564436,-0.14126394 c -12.801941,0 -25.603882,0 -38.40582386,0 L -0.06569931,0.0830475 Z"
     id="path8" />
  <path
     style="fill:#ffa500;fill-opacity:1;stroke-width:0.317224"
     d="m 83.605948,0.15861214 c 0.1931,2.38768956 -0.390637,5.09715606 0.299876,7.27881026 12.166047,3e-7 24.332096,0 36.498146,0 0,11.9545646 0,23.9091286 0,35.8636926 1.91042,0.707119 4.36778,0.0938 6.48574,0.299876 2.51112,0.456977 1.00591,-2.985427 1.41017,-4.423792 0,-13.006195 0,-26.012391 0,-39.01858686 -1.85765,-0.70688927 -4.26158,-0.09494406 -6.32714,-0.29987608 -12.68897,0 -25.377945,0 -38.066916,0 L 83.681513,0.0830475 Z"
     id="path9" />
  <path
     style="fill:#ffa500;fill-opacity:1;stroke-width:0.317224"
     d="m 120.72119,84.857497 c 0,11.847583 0,23.695163 0,35.542753 -11.90211,0.0542 -23.804213,0.10828 -35.70632,0.16233 -0.737664,1.98415 -0.202611,4.52227 -0.460324,6.71533 0.0024,2.0801 3.324345,0.55768 4.723025,1.02197 12.907479,0 25.814949,0 38.722429,0 0.70689,-1.85765 0.095,-4.26158 0.29988,-6.32714 0,-12.37175 0,-24.743496 0,-37.115243 -1.85765,-0.706889 -4.26158,-0.09494 -6.32714,-0.299876 -0.4418,0.07691 -0.99276,-0.221456 -1.25155,0.299876 z"
     id="path10" />
  <path
     style="fill:#ffa500;fill-opacity:1;stroke-width:0.317224"
     d="m -0.14126394,83.567534 c 0,14.810822 0,29.621646 0,44.432466 1.85764694,0.70689 4.26157314,0.095 6.32713754,0.29988 12.3717474,0 24.7434944,0 37.1152414,0 0.707119,-1.91042 0.0938,-4.36779 0.299876,-6.48575 0.456977,-2.51112 -2.985427,-1.00591 -4.423792,-1.41016 -10.472945,0 -20.94589,0 -31.4188348,0 C 7.7042102,108.18463 7.6501016,95.965304 7.5960345,83.745973 5.6118775,83.008308 3.0737638,83.543362 0.88070592,83.285648 0.47572867,83.305595 0.09178504,83.108634 -0.14126394,83.567534 Z"
     id="path11" />
</svg>
