<?xml version="1.0" encoding="UTF-8"?>
<svg id="katman_2" data-name="katman 2" xmlns="http://www.w3.org/2000/svg" viewBox="0 0 128 128">
  <defs>
    <style>
      .cls-1 {
        fill: #ffa500;
      }

      .cls-2 {
        fill: #1d1d1d;
      }
    </style>
  </defs>
  <path class="cls-2" d="M60.82,100.96l-30.59.08c-1.24-7.89,1.02-14.3,7.92-19.43l-9.15-.66-.03-45.96c0-2.22,1.45-5.43,3.04-6.55,1.71-1.2,4.75-1.44,7.15-.97l57.75.03.13,44.71h-43.84s-.26,9.94-.26,9.94c6.43,3.97,8.96,10.22,7.88,18.81ZM55.89,95.9c.07-6.48-3.74-8.37-7.81-10.99l-.12-13.86-8.97-.1.02-36.1c0-.97-1.59-2.88-2.51-2.87s-2.51,1.91-2.51,2.84v41.16s9.11.03,9.11.03l-.39,9.44c-5.19,1.93-7.96,5.76-7.26,10.57l20.43-.12ZM92,32h-49v35.06h49v-35.06Z"/>
  <rect class="cls-1" x="43" y="32" width="49" height="35.06"/>
  <path class="cls-1" d="M55.89,95.9l-20.43.12c-.7-4.8,2.07-8.63,7.26-10.57l.39-9.44-9.1-.03v-41.16c-.01-.93,1.57-2.83,2.5-2.84s2.52,1.89,2.51,2.87l-.02,36.1,8.97.1.12,13.86c4.07,2.63,7.88,4.51,7.81,10.99Z"/>
</svg>