<svg xmlns="http://www.w3.org/2000/svg" viewBox="0 0 512 512" width="512" height="512">
  <path d="M237.00,482.00 C235.22,480.22 235.00,478.67 235.00,467.62 C235.00,458.90 234.63,454.96 233.75,454.29 C233.06,453.76 225.30,451.43 216.50,449.11 C207.70,446.79 199.24,444.40 197.70,443.80 C194.09,442.40 192.40,438.99 191.53,431.31 L190.82,425.12 L186.16,424.01 C180.87,422.75 180.68,422.74 176.28,423.59 C173.57,424.12 172.57,423.73 169.91,421.06 C166.99,418.14 166.80,417.55 167.41,413.20 C168.29,407.00 168.30,386.74 167.44,380.80 C166.80,376.46 166.99,375.86 169.80,373.05 C173.23,369.62 177.23,369.07 180.78,371.56 C183.44,373.42 183.38,374.78 181.50,355.14 C179.28,331.99 178.05,322.99 176.44,318.22 C174.03,311.06 174.49,309.39 180.58,303.00 C185.82,297.51 186.04,297.09 184.14,296.08 C183.04,295.48 179.17,295.00 175.56,295.00 C169.66,295.00 168.67,294.70 165.94,292.09 L162.90,289.19 L160.50,291.59 C158.41,293.68 157.15,294.00 151.08,294.00 C144.62,294.00 143.82,293.76 140.96,290.96 L137.86,287.93 L134.56,289.96 C129.72,292.95 126.38,292.58 122.40,288.60 C118.57,284.77 118.18,282.09 120.57,276.11 C121.82,272.99 121.92,271.39 121.08,268.34 C119.70,263.37 119.71,256.14 121.10,252.13 C121.98,249.62 121.88,248.15 120.60,244.97 C118.18,238.91 118.56,236.24 122.40,232.40 C126.38,228.42 129.72,228.05 134.56,231.04 C137.56,232.89 137.97,232.93 139.18,231.46 C143.59,226.10 143.81,226.00 151.00,226.00 C156.67,226.00 158.38,226.38 160.00,228.00 C161.10,229.10 162.00,230.40 162.00,230.89 C162.00,232.93 165.02,232.70 168.09,230.43 C171.95,227.58 174.18,227.40 177.92,229.61 C180.44,231.10 180.91,231.10 183.78,229.61 C185.50,228.73 187.68,228.00 188.64,228.00 C189.75,228.00 186.89,224.45 180.69,218.14 C175.36,212.72 171.01,207.65 171.02,206.89 C171.05,204.72 173.58,191.40 175.84,181.49 C178.27,170.85 181.90,150.64 181.47,150.17 C181.31,149.99 180.26,150.32 179.15,150.92 C175.58,152.83 172.01,152.16 168.82,148.97 C166.11,146.27 165.86,145.50 166.42,141.72 C167.20,136.37 167.19,114.85 166.40,109.28 C165.86,105.51 166.12,104.72 168.82,102.03 C172.13,98.72 173.73,98.41 178.57,100.16 C181.38,101.18 182.12,101.05 184.52,99.16 C186.03,97.97 188.54,97.00 190.10,97.00 C193.29,97.00 193.52,96.43 196.62,80.52 C198.87,68.94 200.06,67.72 210.80,65.97 C216.93,64.98 219.02,64.24 219.09,63.07 C219.14,62.21 219.17,53.92 219.14,44.65 C219.10,28.17 219.15,27.76 221.51,25.40 C223.87,23.04 227.22,22.38 230.52,23.64 C233.50,24.79 236.00,32.50 236.00,40.58 C236.00,47.65 236.08,47.92 237.75,46.24 C238.71,45.27 240.04,43.26 240.70,41.79 C242.42,37.98 249.77,36.00 262.23,36.00 C273.30,36.00 277.57,37.44 278.59,41.51 C279.59,45.47 281.00,43.33 281.00,37.87 C281.00,32.10 284.82,24.50 288.57,22.78 C291.64,21.39 295.68,22.53 297.11,25.21 C297.82,26.53 298.48,34.60 298.78,45.67 C299.33,65.85 298.70,64.22 306.50,65.46 C313.70,66.61 317.00,68.10 318.41,70.83 C319.17,72.30 320.82,78.45 322.08,84.50 L324.38,95.50 L329.06,97.85 C332.82,99.74 334.16,99.98 335.81,99.10 C339.32,97.22 342.07,97.87 345.60,101.40 C349.33,105.13 349.69,107.06 347.62,112.13 C346.78,114.19 346.56,116.28 347.05,117.50 C348.04,119.95 348.06,127.60 347.08,131.00 C346.66,132.46 346.91,134.84 347.68,136.72 C348.41,138.49 349.00,141.11 349.00,142.54 C349.00,146.21 343.98,151.00 340.14,151.00 C337.23,151.00 337.14,151.12 337.68,154.75 C338.33,159.23 343.70,184.24 344.92,188.50 C345.39,190.15 346.35,194.74 347.04,198.70 C348.52,207.15 348.71,206.72 338.00,218.87 C334.15,223.23 331.00,227.01 331.00,227.28 C331.00,228.37 337.51,228.63 340.12,227.65 C342.39,226.79 343.71,227.00 347.31,228.80 C352.13,231.20 354.00,231.54 354.00,230.00 C354.00,229.45 354.90,228.10 356.00,227.00 C357.62,225.38 359.33,225.00 365.06,225.00 C371.72,225.00 372.28,225.18 375.03,228.20 L377.95,231.39 L381.86,229.20 C387.22,226.18 389.63,226.43 393.60,230.40 C397.46,234.26 397.92,237.55 395.44,243.49 C394.23,246.38 394.12,247.90 394.94,250.26 C396.23,253.95 396.32,263.38 395.12,267.59 C394.51,269.72 394.66,271.67 395.62,273.94 C398.02,279.67 397.42,283.78 393.60,287.60 C389.69,291.51 386.45,291.93 382.73,289.00 C379.40,286.38 378.87,286.45 375.16,290.00 C372.30,292.73 371.42,293.00 365.26,292.98 C361.54,292.98 357.85,292.56 357.06,292.06 C356.13,291.47 354.92,291.65 353.59,292.57 C352.35,293.44 349.01,294.01 345.03,294.03 C338.59,294.06 333.56,295.99 335.99,297.49 C336.59,297.87 338.87,300.43 341.05,303.18 C344.32,307.32 345.00,308.95 345.00,312.66 C345.00,315.12 344.55,317.97 344.01,318.99 C342.56,321.69 341.15,332.43 340.00,349.50 C339.44,357.75 338.75,365.65 338.46,367.05 C337.96,369.46 338.13,369.58 341.43,369.20 C344.33,368.86 345.49,369.34 348.07,371.92 C350.89,374.74 351.14,375.47 350.58,379.28 C349.82,384.43 349.85,405.72 350.63,412.23 C351.14,416.49 350.91,417.24 348.28,419.87 C345.68,422.47 344.70,422.79 339.34,422.74 C336.03,422.71 332.85,422.98 332.26,423.34 C331.68,423.70 330.88,427.23 330.48,431.19 C329.42,441.71 328.48,442.40 306.75,448.43 L289.00,453.35 L289.00,466.68 C289.00,478.67 288.80,480.20 287.00,482.00 C285.00,484.00 281.60,484.55 278.54,483.38 C275.34,482.15 274.00,477.47 274.00,467.54 L274.00,457.98 L270.06,458.61 C266.62,459.16 265.80,458.88 263.56,456.47 L261.00,453.71 L258.44,456.47 C256.30,458.78 255.30,459.15 252.44,458.68 L249.00,458.13 L249.00,469.06 C249.00,481.38 247.77,484.00 242.00,484.00 C240.33,484.00 238.11,483.11 237.00,482.00 Z M246.00,61.50 C246.00,59.58 245.55,58.00 245.00,58.00 C244.45,58.00 244.00,59.58 244.00,61.50 C244.00,63.42 244.45,65.00 245.00,65.00 C245.55,65.00 246.00,63.42 246.00,61.50 Z M236.71,54.75 C236.47,53.51 236.27,54.52 236.27,57.00 C236.27,59.48 236.47,60.49 236.71,59.25 C236.94,58.01 236.94,55.99 236.71,54.75 Z M245.61,54.10 C245.55,52.50 245.17,51.40 244.77,51.65 C243.88,52.19 244.16,57.00 245.07,57.00 C245.43,57.00 245.67,55.69 245.61,54.10 Z" fill="#ffffff" fill-rule="evenodd"/>
  <path d="M237.00,482.00 C235.22,480.22 235.00,478.67 235.00,467.62 C235.00,458.90 234.63,454.96 233.75,454.29 C233.06,453.76 225.30,451.43 216.50,449.11 C207.70,446.79 199.24,444.40 197.70,443.80 C194.09,442.40 192.40,438.99 191.53,431.31 L190.82,425.12 L186.16,424.01 C180.87,422.75 180.68,422.74 176.28,423.59 C173.57,424.12 172.57,423.73 169.91,421.06 C166.99,418.14 166.80,417.55 167.41,413.20 C168.29,407.00 168.30,386.74 167.44,380.80 C166.80,376.46 166.99,375.86 169.80,373.05 C173.23,369.62 177.23,369.07 180.78,371.56 C183.44,373.42 183.38,374.78 181.50,355.14 C179.28,331.99 178.05,322.99 176.44,318.22 C174.03,311.06 174.49,309.39 180.58,303.00 C185.82,297.51 186.04,297.09 184.14,296.08 C183.04,295.48 179.17,295.00 175.56,295.00 C169.66,295.00 168.67,294.70 165.94,292.09 L162.90,289.19 L160.50,291.59 C158.41,293.68 157.15,294.00 151.08,294.00 C144.62,294.00 143.82,293.76 140.96,290.96 L137.86,287.93 L134.56,289.96 C129.72,292.95 126.38,292.58 122.40,288.60 C118.57,284.77 118.18,282.09 120.57,276.11 C121.82,272.99 121.92,271.39 121.08,268.34 C119.70,263.37 119.71,256.14 121.10,252.13 C121.98,249.62 121.88,248.15 120.60,244.97 C118.18,238.91 118.56,236.24 122.40,232.40 C126.38,228.42 129.72,228.05 134.56,231.04 C137.56,232.89 137.97,232.93 139.18,231.46 C143.59,226.10 143.81,226.00 151.00,226.00 C156.67,226.00 158.38,226.38 160.00,228.00 C161.10,229.10 162.00,230.40 162.00,230.89 C162.00,232.93 165.02,232.70 168.09,230.43 C171.95,227.58 174.18,227.40 177.92,229.61 C180.44,231.10 180.91,231.10 183.78,229.61 C185.50,228.73 187.68,228.00 188.64,228.00 C189.75,228.00 186.89,224.45 180.69,218.14 C175.36,212.72 171.01,207.65 171.02,206.89 C171.05,204.72 173.58,191.40 175.84,181.49 C178.27,170.85 181.90,150.64 181.47,150.17 C181.31,149.99 180.26,150.32 179.15,150.92 C175.58,152.83 172.01,152.16 168.82,148.97 C166.11,146.27 165.86,145.50 166.42,141.72 C167.20,136.37 167.19,114.85 166.40,109.28 C165.86,105.51 166.12,104.72 168.82,102.03 C172.13,98.72 173.73,98.41 178.57,100.16 C181.38,101.18 182.12,101.05 184.52,99.16 C186.03,97.97 188.54,97.00 190.10,97.00 C193.29,97.00 193.52,96.43 196.62,80.52 C198.87,68.94 200.06,67.72 210.80,65.97 C216.93,64.98 219.02,64.24 219.09,63.07 C219.14,62.21 219.17,53.92 219.14,44.65 C219.10,28.17 219.15,27.76 221.51,25.40 C223.87,23.04 227.22,22.38 230.52,23.64 C233.50,24.79 236.00,32.50 236.00,40.58 C236.00,47.65 236.08,47.92 237.75,46.24 C238.71,45.27 240.04,43.26 240.70,41.79 C242.42,37.98 249.77,36.00 262.23,36.00 C273.30,36.00 277.57,37.44 278.59,41.51 C279.59,45.47 281.00,43.33 281.00,37.87 C281.00,32.10 284.82,24.50 288.57,22.78 C291.64,21.39 295.68,22.53 297.11,25.21 C297.82,26.53 298.48,34.60 298.78,45.67 C299.33,65.85 298.70,64.22 306.50,65.46 C313.70,66.61 317.00,68.10 318.41,70.83 C319.17,72.30 320.82,78.45 322.08,84.50 L324.38,95.50 L329.06,97.85 C332.82,99.74 334.16,99.98 335.81,99.10 C339.32,97.22 342.07,97.87 345.60,101.40 C349.33,105.13 349.69,107.06 347.62,112.13 C346.78,114.19 346.56,116.28 347.05,117.50 C348.04,119.95 348.06,127.60 347.08,131.00 C346.66,132.46 346.91,134.84 347.68,136.72 C348.41,138.49 349.00,141.11 349.00,142.54 C349.00,146.21 343.98,151.00 340.14,151.00 C337.23,151.00 337.14,151.12 337.68,154.75 C338.33,159.23 343.70,184.24 344.92,188.50 C345.39,190.15 346.35,194.74 347.04,198.70 C348.52,207.15 348.71,206.72 338.00,218.87 C334.15,223.23 331.00,227.01 331.00,227.28 C331.00,228.37 337.51,228.63 340.12,227.65 C342.39,226.79 343.71,227.00 347.31,228.80 C352.13,231.20 354.00,231.54 354.00,230.00 C354.00,229.45 354.90,228.10 356.00,227.00 C357.62,225.38 359.33,225.00 365.06,225.00 C371.72,225.00 372.28,225.18 375.03,228.20 L377.95,231.39 L381.86,229.20 C387.22,226.18 389.63,226.43 393.60,230.40 C397.46,234.26 397.92,237.55 395.44,243.49 C394.23,246.38 394.12,247.90 394.94,250.26 C396.23,253.95 396.32,263.38 395.12,267.59 C394.51,269.72 394.66,271.67 395.62,273.94 C398.02,279.67 397.42,283.78 393.60,287.60 C389.69,291.51 386.45,291.93 382.73,289.00 C379.40,286.38 378.87,286.45 375.16,290.00 C372.30,292.73 371.42,293.00 365.26,292.98 C361.54,292.98 357.85,292.56 357.06,292.06 C356.13,291.47 354.92,291.65 353.59,292.57 C352.35,293.44 349.01,294.01 345.03,294.03 C338.59,294.06 333.56,295.99 335.99,297.49 C336.59,297.87 338.87,300.43 341.05,303.18 C344.32,307.32 345.00,308.95 345.00,312.66 C345.00,315.12 344.55,317.97 344.01,318.99 C342.56,321.69 341.15,332.43 340.00,349.50 C339.44,357.75 338.75,365.65 338.46,367.05 C337.96,369.46 338.13,369.58 341.43,369.20 C344.33,368.86 345.49,369.34 348.07,371.92 C350.89,374.74 351.14,375.47 350.58,379.28 C349.82,384.43 349.85,405.72 350.63,412.23 C351.14,416.49 350.91,417.24 348.28,419.87 C345.68,422.47 344.70,422.79 339.34,422.74 C336.03,422.71 332.85,422.98 332.26,423.34 C331.68,423.70 330.88,427.23 330.48,431.19 C329.42,441.71 328.48,442.40 306.75,448.43 L289.00,453.35 L289.00,466.68 C289.00,478.67 288.80,480.20 287.00,482.00 C285.00,484.00 281.60,484.55 278.54,483.38 C275.34,482.15 274.00,477.47 274.00,467.54 L274.00,457.98 L270.06,458.61 C266.62,459.16 265.80,458.88 263.56,456.47 L261.00,453.71 L258.44,456.47 C256.30,458.78 255.30,459.15 252.44,458.68 L249.00,458.13 L249.00,469.06 C249.00,481.38 247.77,484.00 242.00,484.00 C240.33,484.00 238.11,483.11 237.00,482.00 Z M243.00,464.00 C243.00,456.30 243.38,450.00 243.84,450.00 C244.30,450.00 246.76,450.62 249.29,451.39 L253.91,452.78 L255.37,448.64 C256.18,446.36 256.88,445.29 256.92,446.25 C256.96,447.21 257.65,448.00 258.45,448.00 C259.25,448.00 260.36,447.21 260.92,446.25 C261.89,444.58 261.94,444.58 261.97,446.25 C261.99,447.21 262.64,448.00 263.43,448.00 C264.21,448.00 265.03,447.21 265.25,446.25 C265.50,445.13 266.11,445.99 266.94,448.62 L268.24,452.73 L272.78,451.37 C280.33,449.09 280.00,448.60 280.00,462.42 C280.00,474.85 280.43,478.00 282.12,478.00 C282.62,478.00 282.97,471.54 282.91,463.44 C282.85,455.43 282.95,448.74 283.15,448.57 C283.34,448.41 292.05,445.89 302.50,442.99 C312.95,440.08 322.03,437.29 322.67,436.79 C323.31,436.30 324.15,432.55 324.54,428.46 C325.34,419.84 327.15,417.00 331.83,417.00 C333.92,417.00 335.28,416.34 336.02,414.97 C337.10,412.94 337.11,412.94 339.90,414.93 C342.01,416.43 342.97,416.63 343.84,415.76 C345.36,414.24 345.30,412.49 343.61,409.20 C342.51,407.06 342.45,405.42 343.31,401.27 C344.12,397.33 344.08,394.83 343.14,391.17 C342.07,386.98 342.13,385.72 343.59,382.08 C345.15,378.18 345.15,377.72 343.65,376.23 C342.16,374.73 341.79,374.78 338.91,376.91 C336.26,378.87 335.40,379.05 333.28,378.08 C331.10,377.09 330.86,376.48 331.33,373.22 C331.63,371.18 332.38,363.65 333.00,356.50 C334.90,334.55 337.05,317.55 338.05,316.55 C340.44,314.16 338.85,310.34 332.43,303.00 C325.86,295.50 324.87,293.90 323.63,288.75 C322.75,285.13 325.41,284.98 328.18,288.50 C330.42,291.35 332.21,291.66 334.00,289.50 C334.90,288.42 337.28,288.00 342.56,288.00 C348.81,288.00 349.95,287.73 350.46,286.13 C350.78,285.10 351.93,283.47 353.00,282.50 C354.82,280.85 355.11,280.84 357.47,282.39 C358.86,283.30 360.00,284.71 360.00,285.52 C360.00,287.92 369.63,287.56 370.94,285.12 C371.49,284.08 373.76,282.34 375.99,281.24 L380.03,279.24 L383.92,282.05 C387.61,284.73 387.89,284.78 389.40,283.11 C391.42,280.88 391.40,280.14 389.20,274.83 C387.66,271.13 387.58,269.99 388.64,267.00 C390.24,262.51 390.20,255.46 388.56,251.00 C387.43,247.94 387.52,246.82 389.25,242.14 C391.20,236.85 391.20,236.75 389.30,234.86 C387.41,232.96 387.33,232.98 383.44,235.83 L379.50,238.72 L374.75,236.34 C372.14,235.04 370.00,233.30 370.00,232.48 C370.00,231.37 368.76,231.00 365.07,231.00 C360.97,231.00 360.02,231.35 359.48,233.06 C358.51,236.11 352.45,238.76 349.96,237.21 C348.90,236.54 347.49,236.00 346.84,236.00 C346.19,236.00 344.90,235.31 343.97,234.47 C342.46,233.11 342.16,233.11 341.02,234.47 C339.62,236.16 334.00,236.58 334.00,235.00 C334.00,233.22 329.16,233.94 327.77,235.92 C326.99,237.03 324.95,237.98 322.96,238.17 C320.16,238.44 319.23,239.12 318.07,241.75 C316.32,245.72 314.22,245.95 313.50,242.25 C313.21,240.74 312.51,237.53 311.95,235.12 C311.39,232.70 311.17,230.50 311.45,230.22 C311.73,229.94 314.44,230.41 317.47,231.28 C320.50,232.14 323.17,232.54 323.40,232.16 C323.63,231.79 324.15,229.70 324.56,227.51 C325.13,224.50 327.33,221.24 333.66,214.06 C339.46,207.48 341.83,204.05 341.45,202.84 C341.14,201.88 340.51,198.93 340.05,196.29 C339.00,190.34 332.62,161.15 330.11,150.85 L328.25,143.21 L330.80,142.05 C332.95,141.06 333.79,141.20 336.13,142.94 C339.43,145.38 340.36,145.48 341.95,143.56 C342.89,142.43 342.75,141.20 341.29,137.81 C339.61,133.91 339.57,133.09 340.85,129.13 C342.01,125.53 342.05,123.86 341.03,119.61 C339.98,115.26 340.03,113.87 341.29,110.84 C342.65,107.60 342.64,107.07 341.24,105.66 C339.81,104.24 339.41,104.28 336.84,106.11 C334.24,107.97 333.84,108.00 331.79,106.56 C330.56,105.70 328.80,105.00 327.88,105.00 C326.97,105.00 325.95,104.33 325.64,103.50 C325.31,102.65 323.82,102.00 322.20,102.00 L319.33,102.00 L316.54,88.61 C315.01,81.24 313.43,74.70 313.04,74.07 C312.65,73.44 308.32,72.20 303.42,71.31 C298.51,70.41 294.17,69.19 293.77,68.59 C293.36,67.99 292.98,60.98 292.92,53.00 C292.78,36.24 291.81,26.50 290.54,29.33 C290.09,30.34 289.92,38.22 290.16,46.83 C290.40,55.45 290.30,64.08 289.93,66.00 C289.56,67.92 289.20,61.51 289.13,51.75 C289.05,40.67 288.62,34.00 288.00,34.00 C286.91,34.00 286.67,39.38 286.98,56.75 C287.11,64.02 286.82,68.00 286.14,68.00 C285.57,68.00 282.83,67.51 280.05,66.92 L275.00,65.83 L275.00,58.86 C275.00,51.19 273.27,42.71 271.88,43.57 C271.40,43.87 271.00,43.73 271.00,43.25 C271.00,41.90 255.79,41.77 250.62,43.07 C246.46,44.12 246.00,44.53 246.00,47.12 C246.00,49.20 245.51,50.00 244.25,50.00 C242.70,50.00 242.54,50.91 242.82,57.86 C243.18,66.72 243.37,66.48 235.01,67.59 L230.00,68.26 L230.00,51.13 C230.00,40.38 229.63,34.00 229.00,34.00 C228.45,34.00 228.00,32.84 228.00,31.42 C228.00,29.84 227.53,28.99 226.79,29.24 C225.90,29.53 225.56,34.75 225.50,48.81 C225.45,60.06 225.01,68.39 224.42,68.98 C223.88,69.52 219.17,70.77 213.97,71.75 L204.50,73.53 L201.03,90.01 C199.12,99.08 197.40,105.71 197.21,104.75 C196.77,102.60 189.55,102.26 188.30,104.33 C187.86,105.06 185.97,106.41 184.11,107.33 C180.88,108.91 180.56,108.89 177.48,106.99 C174.64,105.23 174.10,105.17 173.01,106.48 C172.02,107.68 172.08,108.74 173.30,111.78 C174.52,114.84 174.61,116.51 173.74,120.30 C172.95,123.75 172.97,126.36 173.82,130.02 C174.78,134.22 174.71,135.69 173.35,139.09 C171.85,142.84 171.85,143.28 173.35,144.77 C174.84,146.27 175.21,146.22 178.11,144.07 C181.14,141.84 181.38,141.81 184.66,143.37 C188.85,145.37 189.58,147.10 188.20,151.83 C187.61,153.85 186.84,157.53 186.49,160.00 C186.15,162.47 184.50,170.80 182.84,178.50 C181.17,186.20 179.27,195.52 178.60,199.21 L177.39,205.93 L186.64,215.13 C194.16,222.63 196.00,225.06 196.53,228.17 C196.88,230.27 197.62,232.27 198.17,232.60 C198.71,232.94 201.16,232.66 203.61,231.97 C206.05,231.28 208.28,230.95 208.56,231.23 C208.84,231.50 208.53,234.94 207.89,238.87 C206.60,246.64 205.05,247.94 202.98,242.96 C201.56,239.51 199.29,238.00 195.57,238.00 C194.15,238.00 193.00,237.57 193.00,237.04 C193.00,236.50 192.07,235.57 190.93,234.96 C189.33,234.11 188.33,234.21 186.47,235.43 C183.47,237.40 176.64,237.48 175.06,235.57 C174.05,234.35 173.24,234.58 169.67,237.09 L165.47,240.05 L161.29,238.28 C158.62,237.14 156.89,235.68 156.53,234.25 C156.04,232.30 155.31,232.00 151.09,232.00 C146.88,232.00 146.14,232.30 145.64,234.25 C145.26,235.69 143.54,237.13 140.84,238.26 C136.63,240.01 136.61,240.01 132.68,237.41 C128.80,234.84 128.73,234.83 126.82,236.73 C124.92,238.64 124.92,238.72 126.92,243.79 C128.78,248.52 128.82,249.25 127.47,253.09 C125.63,258.31 125.62,261.42 127.44,267.46 C128.76,271.86 128.72,272.64 126.89,277.29 C124.90,282.33 124.90,282.34 126.89,284.33 C128.88,286.32 128.89,286.32 132.47,283.59 L136.06,280.86 L140.50,282.55 C142.94,283.49 145.21,285.09 145.54,286.13 C146.41,288.86 155.96,288.88 156.67,286.15 C156.94,285.13 158.75,283.54 160.69,282.61 L164.23,280.92 L167.96,284.96 C171.65,288.95 171.78,289.00 178.79,289.00 C182.69,289.00 186.16,289.45 186.50,290.00 C187.57,291.74 191.93,291.09 193.23,289.00 C193.92,287.90 195.33,287.00 196.37,287.00 C198.03,287.00 198.17,287.51 197.59,291.25 C197.02,294.83 195.67,296.75 188.98,303.50 C182.21,310.33 181.14,311.86 181.67,314.00 C182.01,315.38 182.61,316.95 183.01,317.50 C183.80,318.59 185.08,328.65 187.66,354.00 C190.04,377.41 190.13,376.13 185.90,378.41 L182.30,380.35 L179.07,378.05 C176.15,375.97 175.68,375.90 174.29,377.28 C172.91,378.66 172.91,379.29 174.24,383.20 C175.44,386.70 175.52,388.64 174.67,392.81 C173.88,396.65 173.91,399.20 174.76,402.40 C175.73,406.03 175.66,407.46 174.32,410.86 C173.01,414.19 172.95,415.24 173.98,416.48 C175.11,417.84 175.61,417.79 178.48,416.01 C181.60,414.08 181.76,414.08 183.36,415.84 C184.27,416.85 185.57,417.72 186.25,417.78 C196.31,418.69 196.35,418.73 197.55,429.63 C197.93,433.00 198.54,436.26 198.92,436.88 C199.31,437.49 208.48,440.40 219.31,443.34 C230.15,446.27 239.34,449.01 239.75,449.42 C240.16,449.83 240.66,456.43 240.85,464.08 C241.04,471.74 241.60,478.00 242.10,478.00 C242.59,478.00 243.00,471.70 243.00,464.00 Z M219.64,249.25 C218.51,241.73 217.24,234.43 216.53,231.39 C215.90,228.69 216.11,228.20 218.11,227.68 C219.38,227.35 220.62,227.29 220.87,227.54 C221.13,227.79 221.54,230.48 221.79,233.50 L222.25,239.00 L226.12,239.00 C229.98,239.00 230.00,239.02 230.00,243.00 C230.00,245.78 229.57,247.00 228.59,247.00 C227.81,247.00 226.04,248.35 224.65,250.00 C221.34,253.94 220.33,253.78 219.64,249.25 Z M294.75,248.71 C292.80,246.45 292.00,244.44 292.00,241.76 C292.00,238.06 292.06,238.00 295.88,238.00 L299.77,238.00 L300.46,232.50 C300.93,228.72 301.59,227.00 302.57,227.00 C304.35,227.00 304.35,228.28 302.59,234.09 C301.82,236.61 300.87,241.67 300.48,245.34 C300.06,249.28 299.30,251.98 298.63,251.94 C298.01,251.91 296.26,250.45 294.75,248.71 Z M236.71,54.75 C236.47,53.51 236.27,54.52 236.27,57.00 C236.27,59.48 236.47,60.49 236.71,59.25 C236.94,58.01 236.94,55.99 236.71,54.75 Z" fill="#111111" fill-rule="evenodd"/>
</svg>
