<?xml version="1.0" encoding="UTF-8"?>
<svg id="katman_1" data-name="katman 1" xmlns="http://www.w3.org/2000/svg" viewBox="0 0 128 128">
  <defs>
    <style>
      .cls-1 {
        fill: #ffffff;
      }

      .cls-2 {
        fill: #1d1d1d;
      }
    </style>
  </defs>
  <path class="cls-2" d="M87.34,109.97h-46.69c-.62-2.34-.78-4.48-1.74-4.54l-5.8-.3-.19-29.39,4.84-1.36.2-11.64-4.97-.98.03-30.67c8.16-1.84,2.01-2.33,13.29-6.98l.89-5.12h33.6s.88,5.15.88,5.15c10.53,4.06,6.31,6.07,13.23,6.62l.13,31-5,.99.2,11.63,4.84,1.37-.18,29.4-5.78.3c-1.01.05-1.14,2.19-1.77,4.52ZM83.56,105c.85-2.44,1.22-4.44,2.22-4.59l4.22-.63v-19.49s-4.97-.97-4.97-.97l.13-21.65,4.93-1.2-.18-20.81c-2.16-.41-3.62-.66-4.46-1.2-.67-.43-.89-3.31-1.6-3.59-2.7-1.07-7.42-3.67-8.87-6.79l-22.37-.03c-2.77,8.23-8.98,2.44-10.19,10.7l-4.44,1.03.03,21.16,4.85.51v22.07s-4.88.73-4.88.73l.05,19.52,4.85,1.06c.76.17.83,2.03,1.27,4.12l39.4.06Z"/>
  <path class="cls-1" d="M83.56,105l-39.4-.06c-.44-2.09-.51-3.95-1.27-4.12l-4.85-1.06-.05-19.52,4.89-.73v-22.07s-4.86-.51-4.86-.51l-.03-21.16,4.44-1.03c1.21-8.26,7.41-2.47,10.19-10.7l22.37.03c1.45,3.12,6.17,5.72,8.87,6.79.71.28.93,3.16,1.6,3.59.84.54,2.3.78,4.46,1.2l.18,20.81-4.93,1.2-.13,21.65,4.97.97v19.49s-4.23.63-4.23.63c-1,.15-1.37,2.16-2.22,4.59ZM80.31,57.15c1.79-3.43,3.03-6.07,4.25-9.2l-41.43.05,4.46,9.1,32.73.05ZM67.44,69.12c-1.89-2.44-4.27-5.08-7.77-3.92,1.16,2.67,3.08,5.25,4.76,6.86l3.01-2.94ZM82.25,82.86l-11.59-11.57c-.75-.74-3.82-.34-4.33.47-.41.65-.21,2.75.37,3.31l11.93,11.8,3.62-4.02ZM60.29,75.95c-1.85-2.3-3.95-4.33-7.74-4.02,1.62,3.48,3.12,5.39,5.32,7.4l2.42-3.38ZM71.57,93.91l3.56-3.75c-1.91-2.18-13.96-16.92-15.77-11.39-.25.76,0,3,.67,3.66l11.54,11.47ZM53.44,83.05c-2.06-2.39-4.07-4.29-7.87-4.26,1.31,2.95,2.72,4.97,4.77,7.42l3.1-3.17ZM66.16,94.71l-9.11-9.01c-.94-.93-4.09-.97-4.68.02-.49.83-.02,3.17.76,3.93l10.21,10.09c.8.8,3.89-.6,4.22-1.57.28-.81-.52-2.6-1.4-3.46Z"/>
  <path class="cls-2" d="M80.31,57.15l-32.73-.05-4.46-9.1,41.43-.05c-1.22,3.13-2.46,5.77-4.25,9.2Z"/>
  <path class="cls-2" d="M82.25,82.86l-3.62,4.02-11.93-11.8c-.57-.56-.78-2.67-.37-3.31.51-.81,3.59-1.22,4.33-.47l11.59,11.57Z"/>
  <path class="cls-2" d="M71.57,93.91l-11.54-11.47c-.66-.66-.92-2.9-.67-3.66,1.81-5.53,13.86,9.21,15.77,11.39l-3.56,3.75Z"/>
  <path class="cls-2" d="M66.16,94.71c.88.87,1.67,2.65,1.4,3.46-.33.97-3.41,2.37-4.22,1.57l-10.21-10.09c-.78-.77-1.25-3.11-.76-3.93.59-.99,3.73-.95,4.68-.02l9.11,9.01Z"/>
  <path class="cls-2" d="M67.44,69.12l-3.01,2.94c-1.68-1.61-3.6-4.19-4.76-6.86,3.5-1.16,5.87,1.47,7.77,3.92Z"/>
  <path class="cls-2" d="M60.29,75.95l-2.42,3.38c-2.2-2.01-3.7-3.91-5.32-7.4,3.79-.32,5.89,1.72,7.74,4.02Z"/>
  <path class="cls-2" d="M53.44,83.05l-3.1,3.17c-2.05-2.45-3.46-4.48-4.77-7.42,3.8-.03,5.81,1.86,7.87,4.26Z"/>
</svg>