<?xml version="1.0" encoding="UTF-8" standalone="no"?>
<!-- Created with Inkscape (http://www.inkscape.org/) -->

<svg
   width="640mm"
   height="640mm"
   viewBox="0 0 640 640"
   version="1.1"
   id="svg1"
   xml:space="preserve"
   inkscape:version="1.4.2 (f4327f4, 2025-05-13)"
   sodipodi:docname="T_map_truck_artillery.svg"
   xmlns:inkscape="http://www.inkscape.org/namespaces/inkscape"
   xmlns:sodipodi="http://sodipodi.sourceforge.net/DTD/sodipodi-0.dtd"
   xmlns="http://www.w3.org/2000/svg"
   xmlns:svg="http://www.w3.org/2000/svg"><sodipodi:namedview
     id="namedview1"
     pagecolor="#ffffff"
     bordercolor="#000000"
     borderopacity="0.25"
     inkscape:showpageshadow="2"
     inkscape:pageopacity="0.0"
     inkscape:pagecheckerboard="true"
     inkscape:deskcolor="#d1d1d1"
     inkscape:document-units="mm"
     inkscape:zoom="0.089864794"
     inkscape:cx="689.92536"
     inkscape:cy="1313.0837"
     inkscape:window-width="1278"
     inkscape:window-height="1000"
     inkscape:window-x="1273"
     inkscape:window-y="0"
     inkscape:window-maximized="0"
     inkscape:current-layer="layer1" /><defs
     id="defs1" /><g
     inkscape:label="Calque 1"
     inkscape:groupmode="layer"
     id="layer1"><path
       style="fill:#000000"
       d="m 217.16937,539.12581 c -2.58837,-10.21849 -6.20879,-12.44992 -20.19963,-12.44992 h -17.04603 v -74.69947 -74.69947 h 12.56492 c 12.11387,0 12.56492,-1.16199 12.56492,-32.36977 0,-31.20778 -0.45105,-32.36977 -12.56492,-32.36977 H 179.92371 V 235.34796 158.1585 h 12.56492 c 7.42332,0 12.56492,-2.85486 12.56492,-6.97665 0,-3.83716 10.16911,-11.12036 22.59802,-16.18489 19.03803,-7.75761 22.60098,-11.36566 22.61686,-22.90313 l 0.0188,-13.694904 h 85.44146 85.44146 l 0.0188,13.694904 c 0.0159,11.53747 3.57882,15.14552 22.61685,22.90313 12.42891,5.06453 22.59802,12.34773 22.59802,16.18489 0,4.12179 5.1416,6.97665 12.56492,6.97665 h 12.56492 v 77.18946 77.18945 h -12.56492 c -12.11387,0 -12.56492,1.16199 -12.56492,32.36977 0,31.20778 0.45105,32.36977 12.56492,32.36977 h 12.56492 v 74.69947 74.69947 h -17.04603 c -13.99083,0 -17.61126,2.23143 -20.19963,12.44992 l -3.15359,12.44991 H 335.72872 220.32297 Z m 222.0408,-24.89983 c 2.26412,-8.93841 6.54386,-12.44991 15.17366,-12.44991 11.86915,0 12.02006,-0.62087 12.02006,-49.45329 0,-47.4934 -0.44816,-49.51635 -11.30843,-51.04463 -10.82193,-1.5229 -11.36979,-3.89444 -12.73495,-55.12598 l -1.42653,-53.53462 h 12.73495 12.73496 v -57.26959 -57.2696 h -12.56492 c -9.17127,0 -12.56492,-2.66273 -12.56492,-9.85871 0,-6.48814 -6.87328,-13.33311 -20.10387,-20.02108 -11.05713,-5.58929 -20.10387,-13.47828 -20.10387,-17.53108 0,-6.12712 -11.00924,-7.36874 -65.33759,-7.36874 -54.32835,0 -65.33758,1.24162 -65.33758,7.36874 0,4.0528 -9.04675,11.94179 -20.10388,17.53108 -13.23058,6.68797 -20.10387,13.53294 -20.10387,20.02108 0,7.19598 -3.39364,9.85871 -12.56492,9.85871 h -12.56492 v 57.2696 57.26959 h 12.73496 12.73496 l -1.42653,53.53462 c -1.36516,51.23154 -1.91303,53.60308 -12.73496,55.12598 -10.86026,1.52828 -11.30843,3.55123 -11.30843,51.04463 0,48.83242 0.15091,49.45329 12.02007,49.45329 8.6298,0 12.90953,3.5115 15.17366,12.44991 l 3.15359,12.44991 H 335.72872 436.05657 Z M 257.82622,491.81614 c 8.25298,-9.03597 15.47981,-9.95993 77.9025,-9.95993 62.42269,0 69.64953,0.92396 77.90251,9.95993 9.06359,9.92348 8.77852,9.95993 -77.90251,9.95993 -86.68103,0 -86.96609,-0.0365 -77.9025,-9.95993 z m 53.32588,-41.80933 c -34.03249,-18.6901 -32.59241,-61.83025 2.75376,-82.49412 15.82769,-9.25309 16.79689,-11.40981 16.79689,-37.37745 0,-15.15677 2.26169,-27.55776 5.02597,-27.55776 2.76428,0 5.02597,12.40099 5.02597,27.55776 0,25.96764 0.9692,28.12436 16.79689,37.37745 16.20868,9.47582 28.43682,27.59392 28.43682,42.13403 0,34.51274 -43.12949,57.77298 -74.8363,40.36009 z m 49.70646,-17.95025 c 20.84881,-20.65797 5.1957,-54.77961 -25.12984,-54.77961 -18.37265,0 -35.18177,15.46561 -35.18177,32.36977 0,16.90416 16.80912,32.36977 35.18177,32.36977 8.37662,0 19.54543,-4.42663 25.12984,-9.95993 z M 245.36344,267.91612 c -5.58474,-10.84681 -10.15408,-20.93124 -10.15408,-22.40984 0,-1.47861 45.23371,-2.68838 100.51936,-2.68838 55.28565,0 100.51936,1.20977 100.51936,2.68838 0,1.4786 -4.56933,11.56303 -10.15408,22.40984 l -10.15408,19.72147 h -80.2112 -80.21119 z"
       id="path1" /><path
       style="fill:#1d1d1d;fill-opacity:1;stroke-width:5.56391"
       d="m 945.56113,375.56421 c 0.22981,38.9446 7.79085,93.45236 -36.37191,112.87573 -42.91501,25.63455 -99.33138,38.13607 -130.54552,79.00323 -4.67202,35.91495 -54.43246,29.6926 -80.38334,30.37332 -32.03379,0.84411 -5.61915,59.72532 -14.20319,83.763 0.1885,164.62004 -0.37679,329.53611 0.28254,493.97121 25.70164,6.88 63.94913,-4.6894 82.86103,18.3871 16.39074,68.3382 13.46603,141.6909 2.93409,210.8093 -11.96343,35.1877 -59.71838,17.0953 -86.07766,22.3969 0.20353,187.3775 -0.40554,375.0917 0.30427,562.2596 37.73067,3.9618 81.329,-8.0455 116.14671,10.2367 22.60963,21.9558 25.75504,55.8259 34.50279,84.3498 286.17056,-1.852 572.53586,4.1523 858.58146,-4.2816 24.2303,1.2267 14.8648,-35.3198 25.1246,-49.2493 7.9121,-44.1231 60.5873,-42.1679 94.8473,-41.0556 44.0284,12.3855 52.8755,-10.9546 45.0873,-50.3795 -0.2037,-170.6858 0.406,-341.7084 -0.3043,-512.1844 -26.4728,-6.1384 -67.3911,12.7223 -86.0124,-13.7142 -17.6423,-67.1931 -14.3989,-139.4375 -5.5639,-207.9513 3.8341,-34.5599 51.1431,-22.6603 73.8715,-28.3328 38.0286,3.2001 8.9762,-55.8687 18.0091,-79.468 -0.203,-166.47687 0.4058,-333.29004 -0.3043,-499.55691 -31.9543,-2.91113 -89.8384,13.33567 -99.9657,-31.18834 -37.4246,-48.91089 -108.3919,-55.40335 -152.1709,-97.08596 -22.1682,-26.03696 -11.8355,-63.56138 -14.9312,-94.28226 -215.1973,0.2027 -430.7312,-0.4055 -645.71837,0.30428 z m 397.30917,92.26099 c 55.2173,4.25303 115.0239,-7.49449 167.3738,13.07303 28.8418,62.15264 104.5207,78.33034 147.2699,127.92656 17.4252,16.69422 3.9158,52.03477 33.9159,57.55173 23.3457,6.83676 48.0852,3.53736 72.0266,4.37942 0,146.31355 0,292.62712 0,438.94066 -31.4826,0.213 -63.3127,-0.4129 -94.5865,0.3043 1.9653,126.2895 2.2281,253.7097 19.0281,378.8678 8.8418,35.5438 65.9378,20.3071 69.4077,60.5293 12.9512,108.9983 1.2802,219.6823 3.3687,329.2924 -18.3201,25.137 -50.3011,16.3041 -74.5477,27.6457 -26.4182,19.4836 -26.6235,56.9293 -36.8174,85.2409 -250.4654,-0.9094 -501.1889,6.0423 -751.49796,-1.4562 -21.92411,-0.2821 -12.8641,-34.6725 -22.85334,-47.7605 -4.99004,-29.2562 -32.53795,-47.1338 -61.22479,-43.3703 -23.5414,-3.4958 -46.44439,-21.5769 -37.263,-48.1409 3.01031,-104.9635 -6.50697,-211.301 6.61801,-315.4696 16.11602,-27.8614 70.33428,-13.4062 69.45112,-53.9982 15.18578,-123.1461 12.51326,-248.055 16.69174,-371.6847 -29.77774,-3.9245 -75.06037,7.6559 -95.54283,-5.5639 0,-144.45894 0,-288.91785 0,-433.37676 28.28519,-4.67787 77.77228,12.22664 92.99995,-22.10353 -0.64943,-52.38527 57.95232,-75.17035 94.68459,-99.55488 27.66148,-15.48379 51.31321,-37.7859 64.41941,-66.46058 44.4272,-22.34613 98.4837,-10.34537 146.7264,-14.71084 56.7832,-0.28846 113.5679,-0.21356 170.3516,-0.10091 z"
       id="path2"
       transform="scale(0.26458333)" /><path
       style="fill:#1d1d1d;fill-opacity:1;stroke-width:5.56391"
       d="m 1144.6993,921.69716 c -85.0688,0.95168 -170.9307,-1.09779 -255.3424,7.60691 25.18751,51.02045 50.02611,102.35253 75.42799,153.18153 202.81231,-0.1162 405.76031,0.2317 608.48791,-0.1739 23.1223,-51.618 55.4601,-101.13272 70.9943,-155.24624 -166.2142,-7.34078 -333.136,-4.5941 -499.5678,-5.3683 z"
       id="path3"
       transform="scale(0.26458333)" /><path
       style="fill:#1d1d1d;fill-opacity:1;stroke-width:5.56391"
       d="m 1267.7574,1148.7092 c -17.7654,17.46 -8.4216,50.8146 -14.1271,73.2763 -7.5261,51.3114 8.4783,123.9072 -44.9895,155.2571 -67.6945,37.409 -131.1762,105.0005 -121.7432,188.1299 4.6596,111.1462 136.8119,184.6088 237.2922,144.9225 78.9417,-22.9941 148.611,-102.0921 128.5243,-188.0863 -16.0645,-74.5509 -84.8519,-118.6124 -141.9124,-160.7667 -35.0175,-43.1126 -19.4401,-105.0842 -28.2506,-156.1758 -5.0788,-14.4045 3.1099,-49.9951 -14.7937,-56.557 z m 0.2608,276.457 c 85.9364,-5.4829 167.157,97.0044 119.1895,175.861 -41.0194,82.3899 -168.7894,94.2605 -223.3281,19.9736 -47.4845,-51.8248 -29.1486,-138.8313 30.2755,-173.1334 21.8454,-14.3438 47.7139,-22.4717 73.8631,-22.7012 z"
       id="path4"
       transform="scale(0.26458333)" /><path
       style="fill:#1d1d1d;fill-opacity:1;stroke-width:5.56391"
       d="m 1184.7334,1823.1708 c -64.1842,4.1541 -134.615,-5.0374 -193.68292,24.9507 -8.74743,7.7881 -37.7183,25.9885 -20.69081,37.9041 68.89163,13.0815 140.79203,3.1153 210.75503,6.705 128.9379,-2.2523 258.713,4.6228 387.1375,-6.7158 11.822,-15.5195 -15.8271,-32.4598 -26.4503,-41.0665 -45.5431,-27.2914 -102.9657,-13.0383 -153.2902,-19.8106 -67.9082,-1.8184 -135.8474,-2.5455 -203.7783,-1.9669 z"
       id="path5"
       transform="scale(0.26458333)" /><path
       style="fill:#ffffff;fill-opacity:1;stroke-width:11.1278"
       d="m 1036.6702,478.30101 c -45.15672,75.70054 -145.78162,98.35661 -177.76269,183.6961 -26.10026,29.2284 -99.60725,-17.41799 -80.2638,44.61999 0.188,129.46181 -0.37603,259.21893 0.28254,388.496 85.07027,-13.777 111.92033,25.2971 91.96006,106.9475 -10.32592,100.071 11.53558,209.2161 -25.3887,304.2822 -22.99442,13.9685 -57.83848,17.8443 -57.83428,54.3569 -9.64917,104.1235 -20.90557,214.9139 6.15074,316.8388 17.72341,33.5212 73.00169,7.5131 82.19813,52.379 0.76848,71.7273 60.83006,59.0191 116.777,56.7041 217.0403,-0.1452 434.2781,0.29 651.1953,-0.2173 0.5947,-66.2381 58.6702,-96.4292 114.5167,-110.8871 -8.141,-112.1552 16.9401,-231.0546 -16.757,-339.5943 -16.4099,-24.6677 -61.5174,-14.8199 -60.8118,-54.7264 -18.4934,-125.2865 -11.0202,-252.9704 -16.6918,-379.2589 76.5245,10.0773 116.7773,-14.087 94.2606,-96.1514 -0.2021,-110.91065 0.4046,-222.15624 -0.3043,-332.85687 -39.1327,5.62436 -89.8172,3.73162 -98.39,-44.35917 -40.9353,-62.58771 -122.0743,-83.81751 -159.5713,-150.37782 -154.5139,0.0726 -309.0907,-0.14477 -463.5654,0.10867 z m 429.5516,439.96216 c 55.9385,9.16216 132.0587,-15.6206 178.0235,23.66837 -2.2351,54.33546 -52.3871,97.72076 -69.8315,148.29136 -203.2826,-3.8876 -409.033,16.3804 -610.96556,-5.6291 -31.32286,-44.6512 -62.25808,-102.81374 -70.65735,-155.24626 189.32591,-21.09163 382.71051,-6.40472 573.43091,-11.08437 z m -197.7146,217.81853 c 34.954,63.1718 13.0746,150.8307 37.2087,216.2103 80.8433,49.7183 176.8256,130.0221 147.4437,237.3139 -35.4243,142.3611 -253.5365,185.3155 -338.1599,62.2246 -80.3774,-90.6017 -7.9739,-218.7963 78.9598,-274.2184 78.5122,-42.9773 38.6779,-149.5895 64.2241,-220.2093 2.655,-6.5231 2.7275,-18.3035 10.3236,-21.3211 z m 67.7885,683.7964 c 76.9189,8.6244 185.1509,-19.9755 237.7921,53.3787 -18.3794,28.5525 -73.7105,9.3603 -103.1009,17.9271 -167.6461,-1.9195 -338.2825,17.0451 -504.27855,-6.7557 -23.52009,-27.8911 34.98595,-52.4909 58.05165,-53.4223 102.9477,-15.3036 207.7924,-9.9861 311.5357,-11.1278 z"
       id="path6"
       transform="scale(0.26458333)" /><path
       style="fill:#ffffff;fill-opacity:1;stroke-width:11.1278"
       d="m 1262.2913,1432.5775 c -96.5155,-3.6962 -162.7059,138.2821 -76.982,196.7365 71.8021,77.6689 223.3531,13.8084 206.2126,-93.6085 -9.8173,-60.0664 -67.5144,-108.7958 -129.2306,-103.128 z"
       id="path7"
       transform="scale(0.26458333)" /></g></svg>
