<?xml version="1.0" encoding="UTF-8"?>
<svg id="katman_1" data-name="katman 1" xmlns="http://www.w3.org/2000/svg" viewBox="0 0 128 128">
  <defs>
    <style>
      .cls-1 {
        fill: #ffffff;
      }

      .cls-2 {
        fill: #1d1d1d;
      }
    </style>
  </defs>
  <path class="cls-2" d="M87.66,122.99h-47.26s-6.68-6.66-6.68-6.66l-3.81-.05v-56.75s3.88-.06,3.88-.06v-8.71s-3.88-.02-3.88-.02v-31.76s3.87-.03,3.87-.03l.03-6.47h16.21s5.15-7.46,5.15-7.46h17.62s5.19,7.45,5.19,7.45h16.23s.02,6.47.02,6.47l3.87.03v31.76s-3.87.04-3.87.04v8.7s3.87.05,3.87.05v56.76s-3.78.05-3.78.05l-6.66,6.66ZM89.22,111.44h3.86s-.02-7.93-.02-7.93v-5.63s0-7.12,0-7.12l-3.87-.04v-5.58s3.88-.04,3.88-.04v-14.66s0-5.92,0-5.92h-3.86s-.01-6.58-.01-6.58l-3.72-.05v-5.69s3.72-.01,3.72-.01v-6.39s3.9,0,3.9,0v-8.65s-.01-13.1-.01-13.1h-3.87s-.02-6.51-.02-6.51h-13.88s-5.17-7.48-5.17-7.48h-12.3s-5.17,7.48-5.17,7.48h-13.84s-.02,6.48-.02,6.48l-3.88.03v21.72s3.88.02,3.88.02v6.37s3.75.02,3.75.02v5.71s-3.74.02-3.74.02v6.57s-3.89.05-3.89.05v20.56s3.87.01,3.87.01v5.61s-3.88.04-3.88.04v20.65s3.88.04,3.88.04v2.95s3.71,3.65,3.71,3.65h42.98s3.68-3.65,3.68-3.65l.03-2.97Z"/>
  <path class="cls-1" d="M89.22,111.44l-.03,2.97-3.68,3.65h-42.98s-3.7-3.65-3.7-3.65v-2.95s-3.88-.04-3.88-.04v-20.65s3.88-.04,3.88-.04v-5.61s-3.87-.01-3.87-.01v-20.56s3.88-.05,3.88-.05v-6.57s3.74-.02,3.74-.02v-5.71s-3.73-.02-3.73-.02v-6.37s-3.89-.02-3.89-.02v-21.72s3.88-.03,3.88-.03l.02-6.48h13.84s5.17-7.47,5.17-7.47h12.3s5.17,7.47,5.17,7.47h13.88s.02,6.49.02,6.49h3.87s0,13.11,0,13.11v8.65s-3.88,0-3.88,0v6.39s-3.73.01-3.73.01v5.69s3.72.05,3.72.05v6.59s3.87,0,3.87,0v5.92s0,14.66,0,14.66l-3.88.04v5.58s3.88.04,3.88.04v7.12s0,5.63,0,5.63l.02,7.92h-3.86ZM74.84,36.25l6.74-.02-3.54-5.11-10.74-15.35h-6.6s-14.28,20.44-14.28,20.44l6.72.05,10.85-15.47,10.85,15.47ZM62.11,55.97v-10.17s-18.66.01-18.66.01l5.63,10.17,13.03-.02ZM78.96,55.96l5.6-10.15h-18.66s0,10.17,0,10.17l13.06-.02ZM67.97,73.46c-2.39-2.34-4.04-4.15-7.17-5.15-.25-.08-.81.02-.91.21-.58,1.18,1.61,4.46,2.61,5.49l2.4,2.48,3.06-3.04ZM78.59,90.95l3.86-3.8c-.1-.53-.62-.73-1.12-.59-.2-.19-.27-.57-.24-.98l-9.76-9.75c-1.82-.63-1.42-.62-2.81-1.75l-3.02,2.99c.42.45.93.83,1.15,1.31l.66,1.47,9.2,9.29c.84.85,1.24.14,1.45.64.05.11.04.42.01.56-.05.22.44.79.62.6ZM60.92,80.47c-1.31-1.39-2.47-2.49-3.85-3.52-.76-.46-3.51-2.15-4.17-1.4-.61.7,1.03,3.41,1.57,4.15,1,1.38,2.17,2.53,3.43,3.79l3.02-3.02ZM71.6,98.03l3.87-3.86c-.07-.22-.28-.58-.44-.59h-.64c-.26-.02-.28-.68-.31-.99l-9.76-9.77c-.47-.22-1.1-.26-1.45-.56l-1.41-1.22-2.98,2.99c2.12,1.88.68,1.7,2.56,3.59l8.83,8.88c.13.13.6.08.76.09.83.06-.21,1.04.96,1.41ZM53.9,87.47c-2.27-2.31-3.7-3.77-6.54-4.95-.41-.17-.98-.25-1.41-.1-.23.08-.28.71-.21.96.83,2.96,2.94,5.02,5.15,7.11l3.02-3.02ZM64.53,105.07l3.93-3.89c-.15-.58-.65-.57-1.12-.53-.25-.09-.33-.68-.29-1.05l-9.84-9.76c-1-.44-2-.76-2.72-1.8l-3.06,3.05c1.04.62,1.15,1.59,1.69,2.45.76,1.21,1.94,2.15,2.95,3.16l2.87,2.89,3.73,3.77c.54.55.87.1,1.23.44.26.25-.24.99.62,1.27Z"/>
  <polygon class="cls-2" points="74.84 36.25 63.99 20.79 53.14 36.26 46.42 36.22 60.7 15.78 67.3 15.77 78.04 31.12 81.58 36.23 74.84 36.25"/>
  <polygon class="cls-2" points="78.96 55.96 65.9 55.98 65.9 45.8 84.56 45.81 78.96 55.96"/>
  <polygon class="cls-2" points="62.11 55.97 49.09 55.98 43.46 45.81 62.1 45.8 62.11 55.97"/>
  <path class="cls-2" d="M71.6,98.03c-1.17-.37-.13-1.36-.96-1.41-.16-.01-.63.04-.76-.09l-8.83-8.88c-1.88-1.89-.44-1.72-2.56-3.59l2.98-2.99,1.41,1.22c.35.3.98.34,1.45.56l9.76,9.77c.03.31.06.97.31.98h.64c.16.02.36.38.44.6l-3.87,3.86Z"/>
  <path class="cls-2" d="M64.53,105.07c-.85-.27-.36-1.02-.62-1.27-.36-.34-.69.11-1.23-.44l-3.73-3.77-2.87-2.89c-1.01-1.02-2.19-1.96-2.95-3.16-.54-.86-.64-1.83-1.69-2.45l3.06-3.05c.71,1.04,1.72,1.36,2.72,1.8l9.84,9.76c-.04.38.03.96.29,1.05.47-.04.97-.05,1.12.53l-3.93,3.89Z"/>
  <path class="cls-2" d="M78.59,90.95c-.19.18-.68-.38-.62-.6.03-.14.03-.45-.01-.56-.21-.5-.61.21-1.45-.64l-9.2-9.29-.66-1.47c-.21-.48-.72-.86-1.15-1.31l3.02-2.99c1.39,1.13,1,1.12,2.81,1.75l9.76,9.75c-.03.41.04.78.24.98.49-.14,1.01.06,1.12.59l-3.86,3.8Z"/>
  <path class="cls-2" d="M53.9,87.47l-3.02,3.02c-2.21-2.08-4.32-4.15-5.15-7.11-.07-.25-.02-.88.21-.96.43-.16,1-.07,1.41.1,2.85,1.18,4.28,2.64,6.54,4.95Z"/>
  <path class="cls-2" d="M67.97,73.46l-3.06,3.04-2.4-2.48c-1-1.03-3.19-4.31-2.61-5.49.09-.19.66-.29.91-.21,3.13.99,4.78,2.81,7.17,5.15Z"/>
  <path class="cls-2" d="M60.92,80.47l-3.02,3.02c-1.27-1.26-2.43-2.41-3.43-3.79-.54-.74-2.18-3.45-1.57-4.15.66-.75,3.41.95,4.17,1.4,1.37,1.03,2.54,2.13,3.85,3.52Z"/>
</svg>