<?xml version="1.0" encoding="UTF-8"?>
<svg id="katman_1" data-name="katman 1" xmlns="http://www.w3.org/2000/svg" viewBox="0 0 128 128">
  <defs>
    <style>
      .cls-1 {
        fill: #ffffff;
      }

      .cls-2 {
        fill: #1d1d1d;
      }
    </style>
  </defs>
  <path class="cls-2" d="M74.99,89.13c-1.33,6.43-5.17,9.15-11,9.12-5.6-.03-10.53-2.54-10.66-8.77l-5.66-5.64-.11-16.8c0-1.19,1.01-4,1.33-4.97-3.4.21-7.22-.05-8.55-2.91s-.07-6.32,2.78-8.07l10.36-6.36c.21-3.03.34-6.65,1.89-8.59,3.6-4.52,13.02-4.3,16.67-.6,2.13,2.17,2.49,4.93,2.18,8.92l11.32,7.08c2.36,1.48,3.28,5.23,2.17,7.55-1.32,2.76-4.19,3.16-8.46,2.97l1.19,3.89-.1,17.96-5.36,5.23ZM68.27,90.65c1.43-3.77,4.11-6.36,6.27-9.81,1.9-3.03,1.36-10.98-.13-14.24s-6.5-4.23-4.97-9.38l13.61-.53-13.15-7.78-.66-6.84c-.25-2.56-3.08-4.14-5.74-4-1.8.09-4.46,2.06-4.65,3.89l-.72,6.94-13.29,7.88,13.78.38c1.42,5.45-3.47,6.14-5.04,9.45s-1.95,11.14-.14,14.24c1.99,3.41,4.84,5.52,5.88,9.33.95,3.48,7.68,3.82,8.96.45Z"/>
  <path class="cls-1" d="M68.27,90.65c-1.28,3.37-8.01,3.03-8.96-.45-1.04-3.82-3.9-5.93-5.88-9.33-1.81-3.1-1.39-11,.14-14.24s6.46-4.01,5.04-9.45l-13.78-.38,13.29-7.88.72-6.94c.19-1.83,2.85-3.79,4.65-3.89,2.66-.14,5.5,1.44,5.74,4l.66,6.84,13.15,7.78-13.61.53c-1.54,5.15,3.52,6.21,4.97,9.38s2.03,11.21.13,14.24c-2.16,3.45-4.84,6.04-6.27,9.81ZM70.16,74.35c.05-2.9-1.01-5.76-2.97-7.22-1.5-1.12-4.87-1.18-6.39,0-1.9,1.48-2.86,4.31-2.95,6.77-.17,4.21,1.97,7.47,5.93,8,3.24.43,6.31-2.94,6.38-7.55Z"/>
  <path class="cls-2" d="M70.16,74.35c-.08,4.61-3.14,7.99-6.38,7.55-3.96-.53-6.1-3.79-5.93-8,.1-2.46,1.06-5.29,2.95-6.77,1.52-1.18,4.89-1.13,6.39,0,1.95,1.46,3.02,4.32,2.97,7.22Z"/>
</svg>