<?xml version="1.0" encoding="UTF-8"?>
<svg id="katman_1" data-name="katman 1" xmlns="http://www.w3.org/2000/svg" viewBox="0 0 128 128">
  <defs>
    <style>
      .cls-1 {
        fill: #ffffff;
      }

      .cls-2 {
        fill: #1d1d1d;
      }
    </style>
  </defs>
  <path class="cls-2" d="M73.28,101.35l-2.33,19.13-9.16.64-.57,5.97-13.89-.25-.03-25.14-7.11-.71c-.05-3.64-.17-7.57.77-10.73,1.34-4.51,5.78-5.78,10.56-6.28.52-3.45-.32-7.22-2.58-10.59l-24.23,24.08-12.62-12.59,28.7-28.88c-1.1-5.08-1.43-9.7-1.44-14.76L12.15,13.84,24.61,1.09l16.5,16.21c3.89-4.63,7.56-10.25,13.65-12.86,5.16-2.21,13.31-2.2,18.4.12,5.97,2.73,9.6,8.08,13.44,13.02L103.19,1.11l12.73,12.57-27.39,27.65c-.09,4.9-.35,8.69-1.7,14.21l29.08,29.34-12.64,12.57-24.43-24.36c-2.05,3.42-2.88,7.12-3.04,10.62,4.4.82,8.53,1.67,10.39,5.27s1.42,7.97,1.1,12.23l-14.01.12ZM103.64,90.8l5.13-6.28-24.87-24.3c-3.35-3.28-10.22-3.66-13.5-7.58-.47-1.67-.4-5.4.16-7.01,3.36-3.6,10.17-4.45,13.54-7.47,8.94-8.01,16.56-16.13,24.9-24.49l-5.83-5.5-35.09,35.03-8.17.07L24.85,8.14l-5.76,5.5c8.27,8.44,15.87,16.53,24.86,24.54,3.44,3.07,10.13,3.79,13.3,7.52,1.19,1.4,1.09,6.05-.18,7.43-3.02,3.28-9.98,4.09-12.98,7.04l-24.92,24.48c1.89,2.37,3.51,4.04,5.73,5.61l35.23-35.15,7.78.02,35.71,35.68ZM67.5,38.89l15.64-15.74c-3.97-10.83-13.78-18.37-24.98-14.64-6.29,2.09-11.42,8.08-13.34,14.47l16.29,16.5c1.45.3,5.41.4,6.4-.59ZM53.88,50.99c1.19-.78-.52-4.43-1.73-4.96l-7.68-3.37c-.37,4.72-.06,7.69,1.63,12.52,2.62-1.17,5.16-2.48,7.77-4.19ZM81.96,54.15c1.39-4.2,1.62-7.68,1.35-11.25-3.7,1.26-8.79,2.9-9.49,6.07-.38,3.24,5.69,6.05,8.14,5.17ZM52.38,121.79c2.29.1,4.14.21,4.17-.59l.21-4.95,9.68-.69,2.54-19.11,13.38-.17c.02-1.41-.06-3.71-.42-4.74s-2.72-2.11-3.94-2.3l-8.07-1.28c.86-7.47,2.08-13.52,5.56-20.29l-8.02-7.99c-1.14-1.14-5.83-1.13-6.96,0l-8.13,8.16c3.24,6.91,4.61,12.81,5.36,20.07l-7.91,1.3c-1.27.21-3.58,1.08-4.08,2.13s-.38,3.89-.15,4.84l13.42.5,1.17,12.19c.07.72-2.61,2.08-2.76,1.38l-.51-2.34c-.39-1.81-.66-3.02-1.22-3.78-.45-.61-3.42.48-3.41,1.28l.09,16.37Z"/>
  <path class="cls-1" d="M103.64,90.8l-35.71-35.68-7.78-.02-35.23,35.15c-2.22-1.57-3.83-3.24-5.73-5.61l24.92-24.48c3-2.95,9.96-3.76,12.98-7.04,1.27-1.38,1.38-6.03.18-7.43-3.18-3.73-9.86-4.45-13.3-7.52-8.99-8.02-16.59-16.1-24.86-24.54l5.76-5.5,35.05,35.13,8.17-.07L103.17,8.17l5.83,5.5c-8.33,8.36-15.96,16.48-24.9,24.49-3.37,3.02-10.18,3.87-13.54,7.47-.56,1.61-.62,5.35-.16,7.01,3.27,3.92,10.15,4.3,13.5,7.58l24.87,24.3-5.13,6.28Z"/>
  <path class="cls-1" d="M52.38,121.79l-.09-16.37c0-.8,2.96-1.89,3.41-1.28.56.76.83,1.97,1.22,3.78l.51,2.34c.15.7,2.83-.66,2.76-1.38l-1.17-12.19-13.42-.5c-.23-.94-.34-3.78.15-4.84s2.81-1.92,4.08-2.13l7.91-1.3c-.74-7.27-2.11-13.16-5.36-20.07l8.13-8.16c1.12-1.13,5.82-1.13,6.96,0l8.02,7.99c-3.47,6.77-4.69,12.82-5.56,20.29l8.07,1.28c1.22.19,3.57,1.28,3.94,2.3s.45,3.33.42,4.74l-13.38.17-2.54,19.11-9.68.69-.21,4.95c-.03.8-1.88.7-4.17.59Z"/>
  <path class="cls-1" d="M67.5,38.89c-.98.99-4.95.89-6.4.59l-16.29-16.5c1.93-6.4,7.05-12.38,13.34-14.47,11.21-3.73,21.01,3.81,24.98,14.64l-15.64,15.74ZM63.77,35.91c5.7-5.56,10.07-9.96,15.02-15.33-9.56-7.42-20.92-7.23-29.83.25l14.81,15.08Z"/>
  <path class="cls-1" d="M53.88,50.99c-2.61,1.71-5.16,3.02-7.77,4.19-1.69-4.83-2-7.8-1.63-12.52l7.68,3.37c1.21.53,2.92,4.18,1.73,4.96Z"/>
  <path class="cls-1" d="M81.96,54.15c-2.45.88-8.52-1.94-8.14-5.17.69-3.17,5.79-4.82,9.49-6.07.27,3.57.04,7.04-1.35,11.25Z"/>
  <path class="cls-2" d="M63.77,35.91l-14.81-15.08c8.91-7.48,20.27-7.67,29.83-.25-4.95,5.37-9.32,9.76-15.02,15.33Z"/>
</svg>