<?xml version="1.0" encoding="UTF-8" standalone="no"?>
<!-- Created with Inkscape (http://www.inkscape.org/) -->

<svg
   version="1.1"
   id="svg1"
   width="128"
   height="128"
   viewBox="0 0 128 128"
   sodipodi:docname="map_ifv.svg"
   inkscape:version="1.4.2 (f4327f4, 2025-05-13)"
   xml:space="preserve"
   xmlns:inkscape="http://www.inkscape.org/namespaces/inkscape"
   xmlns:sodipodi="http://sodipodi.sourceforge.net/DTD/sodipodi-0.dtd"
   xmlns="http://www.w3.org/2000/svg"
   xmlns:svg="http://www.w3.org/2000/svg"><defs
     id="defs1"><style
       id="style1">
      .cls-1 {
        fill: #ffffff;
      }

      .cls-2 {
        fill: #1d1d1d;
      }
    </style></defs><sodipodi:namedview
     id="namedview1"
     pagecolor="#ffffff"
     bordercolor="#000000"
     borderopacity="0.25"
     inkscape:showpageshadow="2"
     inkscape:pageopacity="0.0"
     inkscape:pagecheckerboard="0"
     inkscape:deskcolor="#d1d1d1"
     inkscape:zoom="5.1458593"
     inkscape:cx="61.602928"
     inkscape:cy="73.457119"
     inkscape:window-width="1278"
     inkscape:window-height="1000"
     inkscape:window-x="-7"
     inkscape:window-y="0"
     inkscape:window-maximized="0"
     inkscape:current-layer="g1" /><g
     inkscape:groupmode="layer"
     inkscape:label="Image"
     id="g1"><path
       style="fill:#000000"
       d="m 45,122.44136 v -1.55864 L 41.832635,116.94136 38.665271,113 H 34.332635 30 V 75 37 H 32.5 35 V 31.372314 25.744628 L 40,19 45,12.255372 V 8.1276859 4 H 64.5 84 V 8.1276859 L 84,12.255372 89,19 94,25.744628 V 31.372314 37 h 2.5 2.5 v 38 38 H 94.667365 90.334729 L 87.167365,116.94136 84,120.88272 V 122.44136 124 H 64.5 45 Z M 80,118 v -1 h 1.154072 1.154072 l 3.423851,-4 3.423851,-4 H 91.577923 94 V 99 89 h -3 -3 v -2 -2 h 3 3 V 75 65 h -3 -3 v -2 -2 h 3 3 V 51 41 H 92 90 V 33.680362 26.360724 L 85.008939,19.930362 80.017878,13.5 80.008939,11.25 80,9 H 64.5 49 l -0.0089,2.25 -0.0089,2.25 -4.991061,6.430362 L 39,26.360724 V 33.680362 41 h -2 -2 v 10 10 h 3 3 v 2 2 h -3 -3 v 10 10 h 3 3 v 2 2 h -3 -3 v 10 10 h 2.422077 2.422077 l 3.423851,4 3.423851,4 H 47.845928 49 v 1 1 H 64.5 80 Z m -28,-14 -2.040648,-4 h 2.041763 2.041763 l 1.139076,2.5 1.139076,2.5 h 8.860924 8.860924 l 1.139076,-2.5 1.139076,-2.5 h 1.765223 1.765223 L 78.175738,103.98983 76.5,107.97966 65.270324,107.98983 54.040648,108 Z M 46,78.702948 V 62.405896 L 49.792163,58.702948 53.584325,55 57.292163,55 H 61 V 42.5 30 H 64.5 68 V 42.5 55 h 3.797052 l 3.797052,0 3.702948,3.792163 L 83,62.584325 83,78.792163 V 95 H 64.5 46 Z M 79,76.828741 V 62.657481 L 77.345012,60.828741 75.690025,59 64.673753,59 53.657481,59 51.828741,60.654988 50,62.309975 V 76.654988 91 H 64.5 79 Z M 46,38.534796 V 38.069592 L 49.103592,34.534796 52.207184,31 H 55.103592 58 v 4 4 H 52 46 Z M 71,35 v -4 h 2.896408 l 2.896408,0 3.103592,3.534796 L 83,38.069592 V 38.534796 39 h -6 -6 z"
       id="path1" /><path
       style="fill:#1d1d1d;fill-opacity:1;stroke-width:0.194331"
       d="m 44.852507,3.7940092 c -0.159299,2.7631823 -0.02073,5.577804 -0.06756,8.3604078 -3.350437,4.589884 -6.842767,9.106244 -10.105212,13.741707 0,3.608029 0,7.216056 0,10.824085 -1.588201,0.07539 -3.24396,-0.149569 -4.790715,0.110071 -0.157955,7.489226 -0.02229,15.029158 -0.06756,22.537842 0,17.878452 0,35.756904 0,53.635358 0.740185,0.70769 2.205394,0.0961 3.214812,0.30036 1.862971,2.6e-4 3.725942,9.1e-4 5.588914,0.001 2.053313,2.55498 4.106566,5.11 6.159761,7.66507 0.185132,1.01534 -0.373602,2.4546 0.293146,3.21319 12.95681,0.006 25.915406,7.9e-4 38.872901,0.002 0.707064,-0.72986 0.09533,-2.18474 0.299847,-3.18331 1.977398,-2.59165 4.10952,-5.12872 6.146478,-7.69922 2.907754,-0.0755 5.882975,0.14894 8.749448,-0.11008 0.157957,-7.48922 0.02229,-15.029153 0.06756,-22.537837 0,-17.878452 0,-35.756905 0,-53.635357 -0.740186,-0.70768 -2.205395,-0.09578 -3.214812,-0.299847 -1.514647,0.319212 -2.218252,-0.173017 -1.838657,-1.748979 -0.04163,-3.162818 0.07642,-6.351254 -0.06328,-9.498307 C 90.81534,21.049229 87.533095,16.625542 84.25084,12.201861 84.175904,9.393677 84.399558,6.5183279 84.140769,3.7514993 76.651544,3.5935444 69.111612,3.7292133 61.602928,3.6839389 c -5.506044,0 -11.012091,0 -16.518135,0 L 44.90918,3.767154 Z m 19.665386,5.3478982 c 5.082211,0 10.164423,0 15.246633,0 0.124065,1.5269946 -0.244847,3.1970996 0.182166,4.6383056 3.238806,4.265463 6.68577,8.418941 9.768569,12.777472 0.33053,4.81778 -0.0057,9.722312 0.237692,14.524604 1.167442,0.301227 2.555243,0.03336 3.803406,0.124234 0,6.53691 0,13.07382 0,19.610731 -1.976922,0.07512 -4.021185,-0.149132 -5.9567,0.110071 -0.09329,1.404562 -0.161075,2.925546 0.04251,4.308681 1.947505,0.16087 3.947175,0.01966 5.91419,0.06756 0,6.472133 0,12.944265 0,19.416399 -1.976922,0.07512 -4.021185,-0.149131 -5.9567,0.110071 -0.09329,1.404562 -0.161075,2.925546 0.04251,4.308682 1.947505,0.160869 3.947175,0.01966 5.91419,0.06756 0,6.537163 0,13.074332 0,19.611492 -1.620087,0.0745 -3.302275,-0.13208 -4.884084,0.11576 -2.229482,2.61692 -4.458855,5.23393 -6.6881,7.85105 -0.814434,0.18153 -2.728816,-0.56846 -2.419649,0.88284 0.51845,1.71404 -1.525857,0.86533 -2.526303,1.06047 -9.32232,0 -18.644643,0 -27.966963,0 0.156734,-1.13527 0.07131,-2.44861 -1.452549,-1.94331 -1.421641,0.38182 -1.87857,-1.31787 -2.77191,-2.07593 -1.72439,-1.92917 -3.276626,-4.08394 -5.110262,-5.87 -1.55237,-0.007 -3.10474,-0.0138 -4.657112,-0.0205 0,-6.53729 0,-13.074583 0,-19.611872 1.976923,-0.07512 4.021186,0.149131 5.956701,-0.110071 0.09329,-1.404562 0.161074,-2.925546 -0.04251,-4.308682 -1.947505,-0.160869 -3.947177,-0.01966 -5.914191,-0.06756 0,-6.472134 0,-12.944266 0,-19.416399 1.976923,-0.07512 4.021186,0.149131 5.956701,-0.110071 0.09329,-1.404563 0.161074,-2.925547 -0.04251,-4.308682 -1.947505,-0.160869 -3.947177,-0.01966 -5.914191,-0.06756 0,-6.536911 0,-13.073821 0,-19.610731 1.26535,-0.07079 2.594558,0.142311 3.81906,-0.110071 0.158569,-4.831432 0.02283,-9.713736 0.06946,-14.564576 3.347424,-4.384432 6.845319,-8.687749 10.099139,-13.122657 0.0015,-1.422437 0.0028,-2.844874 0.0038,-4.2673116 5.082337,0 10.164675,0 15.247012,0 z"
       id="path2" /><path
       style="fill:#1d1d1d;fill-opacity:1;stroke-width:0.194331"
       d="m 52.07995,30.797669 c -2.074846,2.532032 -4.546396,4.799907 -6.274007,7.588777 -0.461937,1.39089 1.41405,0.732079 2.168005,0.876767 3.364366,-0.0562 6.779172,0.11184 10.112304,-0.08322 0.296069,-1.950098 0.03744,-4.113465 0.124234,-6.143727 -0.10266,-0.902103 0.500853,-2.788742 -1.077171,-2.340323 -1.672708,0.07052 -3.419039,-0.139081 -5.053365,0.101721 z"
       id="path3" /><path
       style="fill:#1d1d1d;fill-opacity:1;stroke-width:0.194331"
       d="m 60.787649,29.834364 c -0.157954,7.456837 -0.02219,14.964396 -0.06756,22.440676 -0.147224,1.081283 0.601565,3.056902 -1.165984,2.520899 -2.06927,0.06315 -4.185478,-0.109391 -6.226185,0.09801 -2.496965,2.543066 -5.19997,4.946609 -7.571318,7.574735 0,10.820669 0,21.641338 0,32.462007 0.740185,0.70768 2.205394,0.09578 3.214812,0.299847 11.335975,0 22.671951,0 34.007925,0 0.70768,-0.740185 0.09578,-2.205394 0.299847,-3.214812 0,-9.814981 0,-19.629961 0,-29.444942 -2.374215,-2.663691 -5.074789,-5.109394 -7.573215,-7.690119 -2.42824,-0.206496 -4.933083,-0.02704 -7.390272,-0.08768 0,-8.256285 0,-16.512569 0,-24.768853 -0.740185,-0.707679 -2.205394,-0.09578 -3.214812,-0.299847 -1.427104,0.07085 -2.928508,-0.143321 -4.313237,0.110071 z M 64.6644,59.279306 c 3.648387,0 7.296775,0 10.945162,0 1.00955,1.240868 2.392462,2.336324 3.183309,3.662304 0,9.267539 0,18.535079 0,27.802618 -9.516525,0 -19.033051,0 -28.549577,0 0.01014,-9.474396 0.02039,-18.94879 0.03074,-28.423187 1.223994,-0.970032 2.31653,-2.286349 3.622072,-3.041735 3.58943,0 7.17886,0 10.76829,0 z"
       id="path4" /><path
       style="fill:#1d1d1d;fill-opacity:1;stroke-width:0.194331"
       d="m 70.892861,30.806019 c -0.159414,2.695475 -0.02079,5.44242 -0.06756,8.157347 0.740185,0.707679 2.205394,0.09578 3.214811,0.299847 2.960228,-0.09947 5.962659,0.199489 8.900512,-0.16966 0.873794,-0.533189 -0.250622,-1.46578 -0.582993,-1.992652 -1.821753,-2.176189 -3.636026,-4.439012 -5.643949,-6.404953 -1.927525,0.0766 -3.936166,-0.149776 -5.820821,0.110071 z"
       id="path5" /><path
       style="fill:#1d1d1d;fill-opacity:1;stroke-width:0.194331"
       d="m 51.668135,99.686111 c -0.53252,0.124385 -1.974689,-0.276345 -1.762263,0.652829 1.331343,2.62359 2.575278,5.37593 4.094254,7.85018 7.455103,0.14098 14.98521,0.0149 22.469124,0.0532 0.998677,-1.30442 1.382068,-3.11701 2.129741,-4.62732 0.388896,-1.19762 1.185781,-2.34928 1.313561,-3.58772 -0.794744,-0.699193 -2.092719,-0.11732 -3.058533,-0.263971 -1.312606,-0.04531 -1.240245,1.831581 -1.882863,2.667301 -0.588355,0.98607 -0.647954,2.78785 -2.194195,2.29619 -5.446708,0.003 -10.893417,0.006 -16.340125,0.009 -0.816103,-1.63332 -1.398235,-3.46756 -2.353608,-4.98122 -0.752223,-0.161539 -1.625145,-0.03266 -2.415093,-0.06873 z"
       id="path6" /><path
       style="fill:#ffffff;stroke-width:0.194331"
       d="m 53.532498,59.142288 c -1.137284,1.089041 -2.503595,2.008153 -3.500615,3.201147 0,9.437326 0,18.874652 0,28.311978 0.740185,0.70768 2.205394,0.09578 3.214812,0.299847 8.485787,0 16.971574,0 25.457361,0 0.707672,-0.740186 0.09561,-2.205395 0.299608,-3.214812 -0.07113,-7.850551 0.141463,-15.707259 -0.108569,-23.554079 0.02043,-1.392815 -0.561645,-2.730694 -1.703177,-3.558512 -0.773183,-0.701465 -1.356671,-1.929791 -2.601076,-1.559582 -7.01001,0.04585 -14.053106,-0.09109 -21.042598,0.06812 z"
       id="path7" /><path
       style="fill:#ffffff;stroke-width:0.194331"
       d="m 49.459897,11.377852 c -0.04306,1.108702 0.304499,2.356387 -0.725791,3.135295 -3.094383,4.066907 -6.243814,8.091324 -9.375246,12.129937 -0.03371,4.851949 -0.06749,9.703899 -0.10134,14.555849 -1.179861,0.259245 -2.540444,0.106269 -3.789455,0.207615 0,6.404573 0,12.809145 0,19.213718 1.960311,0.104331 4.036883,-0.06156 5.927096,0.205338 -0.06943,1.508115 0.134895,3.128084 -0.09793,4.569435 -1.943059,0.03504 -3.886117,0.07021 -5.829171,0.105516 0,6.340809 0,12.681616 0,19.022424 1.960311,0.104331 4.036883,-0.06156 5.927096,0.205338 -0.06943,1.508116 0.134895,3.128084 -0.09793,4.569435 -1.943059,0.03504 -3.886117,0.07021 -5.829171,0.105516 0,6.408368 0,12.816742 0,19.225102 1.515234,0.0211 3.047284,-0.0411 4.552355,0.0304 2.461854,2.50322 4.636098,5.26647 6.907101,7.9391 0.774484,0.0465 2.387774,-0.45264 2.500114,0.7648 -0.227437,1.20555 0.470727,1.36414 1.586522,1.1734 9.491605,-0.0312 18.98321,-0.0624 28.474814,-0.0936 -0.0708,-1.22507 0.262228,-2.15826 1.677378,-1.86209 1.457741,0.21794 1.915689,-1.51448 2.858605,-2.30085 1.611171,-1.80788 3.069654,-3.79887 4.818474,-5.46062 1.545485,-0.3389 3.154979,-0.12487 4.724294,-0.19054 0,-6.40836 0,-12.816734 0,-19.225102 -1.960313,-0.10433 -4.036885,0.06156 -5.927096,-0.205338 0.06943,-1.508115 -0.134895,-3.128084 0.09792,-4.569435 1.94306,-0.03504 3.886117,-0.07021 5.829173,-0.105516 0,-6.340808 0,-12.681615 0,-19.022424 -1.960313,-0.104331 -4.036885,0.06156 -5.927096,-0.205338 0.06943,-1.508115 -0.134895,-3.128084 0.09792,-4.569435 1.94306,-0.03504 3.886117,-0.07021 5.829173,-0.105516 0,-6.404573 0,-12.809145 0,-19.213718 -1.247911,-0.103788 -2.609759,0.05351 -3.789455,-0.206858 -0.153761,-4.809389 0.0534,-9.667232 -0.35754,-14.449192 -0.773888,-1.674202 -2.187151,-3.004507 -3.214431,-4.53148 -2.153652,-2.823742 -4.38642,-5.596507 -6.533241,-8.41886 -0.04233,-1.489873 -0.08471,-2.979744 -0.127151,-4.469613 -10.028669,0 -20.057338,0 -30.086007,0 0,0.682436 0,1.364872 0,2.047307 z m 16.024338,18.18665 c 0.991671,0.08614 2.12965,-0.189 3.0201,0.272898 0,8.255651 0,16.511304 0,24.766955 2.421815,0.0199 4.859247,-0.03915 7.271472,0.02923 2.555641,2.595108 5.177967,5.145998 7.692015,7.768685 -0.04733,10.885608 0.11073,21.78174 -0.132084,32.660893 -1.123857,0.506477 -2.531105,0.175121 -3.752592,0.311345 -11.241441,0.03103 -22.494939,0.10017 -33.729379,-0.101831 -0.40294,-1.823515 -0.151311,-3.802418 -0.259614,-5.680387 -0.0278,-9.093513 -0.05685,-18.202547 0.003,-27.286426 2.587193,-2.556681 5.13149,-5.177034 7.745153,-7.694293 2.364236,-0.03415 4.72847,-0.06842 7.092701,-0.102859 0.06453,-8.258942 0.12905,-16.517883 0.193573,-24.776824 1.522724,-0.243427 3.261489,-0.102119 4.855619,-0.167382 z m -10.31131,0.986458 c 0.934301,0.290256 2.897143,-0.528872 3.134536,0.540444 -0.06669,2.753692 0.293821,5.555721 -0.112916,8.284537 -4.034966,0.145211 -8.183254,0.101858 -12.259175,-0.02809 -0.803686,-0.233096 -0.07068,-1.372507 0.202682,-1.795665 1.766483,-2.535277 3.93239,-4.786987 6.003765,-7.054367 1.010369,0.01771 2.020739,0.03542 3.031108,0.05314 z m 21.800371,-0.02012 c 2.200033,2.54059 4.60306,4.965283 6.424309,7.795634 0.265028,0.731272 -0.466884,1.027106 -1.069579,0.917758 -3.79007,0.139963 -7.61541,0.347893 -11.394174,0.04213 -0.507529,-1.114246 -0.148811,-2.501831 -0.259518,-3.708211 0.08321,-1.643655 -0.09064,-3.397944 0.157418,-4.973679 2.044518,-0.0126 4.108492,-0.118835 6.141544,-0.07363 z M 52.278835,99.494817 c 1.170508,-0.09895 2.386781,-0.182257 2.589688,1.271503 0.599049,1.24905 1.163615,2.51383 1.722791,3.7811 5.597227,-0.0735 11.223494,0.15355 16.804317,-0.13664 0.877088,-0.17858 0.909916,-1.40308 1.376258,-2.01276 0.572184,-0.96562 0.572938,-2.488947 1.896626,-2.795409 1.053012,-0.09191 2.363467,-0.365829 3.270985,0.300225 0.387996,0.999094 -0.585869,1.999184 -0.788136,2.955434 -0.872601,1.84315 -1.417177,3.92204 -2.594059,5.58109 -7.573794,-0.0351 -15.186128,0.0699 -22.735967,-0.0524 -1.381898,-2.75862 -3.107229,-5.38694 -4.172424,-8.2845 0.196344,-0.863583 1.48031,-0.478433 2.116762,-0.604361 0.171053,-0.0011 0.342106,-0.0022 0.513159,-0.0033 z"
       id="path8" /><path
       style="fill:#ffffff;stroke-width:0.194331"
       d="m 52.018842,60.766014 c -0.785995,0.781881 -2.0834,1.335287 -1.688618,2.653446 0.01519,9.037723 -0.171121,18.143577 0.022,27.141444 6.34403,0.331723 12.713176,0.07086 19.066423,0.124623 3.094249,-0.0108 6.1885,-0.02159 9.282751,-0.03239 -0.07139,-9.141814 0.158113,-18.291431 -0.160551,-27.428378 -0.218163,-1.703209 -1.944476,-2.700659 -2.953679,-3.951144 -7.292727,0 -14.585454,0 -21.87818,0 -0.563383,0.497467 -1.126765,0.994934 -1.690148,1.492401 z"
       id="path9" /><path
       style="fill:#1d1d1d;fill-opacity:1;stroke-width:0.194331"
       d="m 60.878362,42.31178 c -0.0167,4.163314 -0.0334,8.326629 -0.0501,12.489942 -2.33686,0.262691 -4.853577,0.103318 -7.259326,0.204199 -2.535656,2.47849 -5.071322,4.956968 -7.606996,7.435438 0.03505,10.821806 -0.08803,21.646055 0.118421,32.466183 12.29756,0.175889 24.598049,0.01847 36.896701,0.02087 0.03292,-10.768924 0.06594,-21.537846 0.09906,-32.306769 -2.538802,-2.541006 -5.077504,-5.082113 -7.616106,-7.623318 -2.434641,-0.0676 -4.980309,0.133564 -7.346623,-0.09944 -0.03327,-8.291202 -0.06654,-16.582405 -0.09982,-24.873608 -2.361833,-0.03406 -4.723664,-0.06835 -7.085491,-0.102859 -0.01657,4.129787 -0.03315,8.259574 -0.04972,12.38936 z m 14.895167,16.597841 c 1.165506,1.385926 3.12849,2.455967 3.145733,4.49884 0.406881,6.271728 0.150096,12.569879 0.250064,18.852004 -0.05195,2.846994 0.100401,5.716167 -0.116755,8.550778 -0.632916,0.76752 -2.259119,0.115097 -3.271068,0.329337 -8.550829,-0.0517 -17.117669,0.07901 -25.658907,-0.146986 -0.408569,-1.928629 -0.154684,-4.002551 -0.25882,-5.982492 -0.01595,-7.656867 -0.05851,-15.333159 0.01363,-22.977762 1.22508,-1.040695 2.41444,-2.141701 3.660786,-3.146491 7.40969,0.01792 14.835715,-0.04463 22.235338,0.02277 z"
       id="path10" /><path
       style="fill:#1d1d1d;fill-opacity:1;stroke-width:0.194331"
       d="m 60.670367,29.698484 c -0.129459,8.288059 -0.08029,16.606245 -0.141194,24.905871 -2.376402,0.07243 -4.783829,-0.0044 -7.141285,0.159412 -2.557873,2.557002 -5.252345,5.020957 -7.725796,7.635463 0.04655,10.880825 -0.110874,21.768326 0.13626,32.64495 0.87781,0.446991 2.080294,0.05612 3.0614,0.212908 11.405613,0.07216 22.811458,-0.01239 34.217131,-0.0292 0.467788,-0.954876 0.07344,-2.372229 0.20977,-3.502876 -0.0095,-9.758094 0.13852,-19.547095 0.03087,-29.285927 -2.616601,-2.563481 -5.144369,-5.259621 -7.816129,-7.740599 -2.362968,0 -4.725938,0 -7.088905,0 -0.03317,-8.257422 -0.06632,-16.514845 -0.09944,-24.772268 -0.953901,-0.473081 -2.370604,-0.09925 -3.50027,-0.247113 -1.372846,0.03408 -2.799865,-0.14865 -4.142405,0.01938 z m 16.175399,30.732764 c 1.133026,0.851891 1.883239,2.121659 1.832773,3.569363 0.301197,7.736784 0.143387,15.510037 0.180566,23.261207 -0.05939,1.192328 0.08819,2.433291 -0.124306,3.582232 -9.462054,-0.05136 -18.999852,0.07436 -28.416733,-0.141193 -0.334283,-7.652728 -0.102444,-15.324599 -0.174974,-22.984575 0,-1.839312 0,-3.678626 0,-5.517938 1.237552,-0.961585 2.347704,-2.264158 3.664582,-3.013708 7.270206,-0.0022 14.540413,-0.0046 21.810618,-0.0072 0.409158,0.417254 0.818316,0.83451 1.227474,1.251764 z"
       id="path11" /><path
       style="fill:#1d1d1d;fill-opacity:1;stroke-width:0.194331"
       d="m 51.709886,99.592741 c -0.529362,0.15855 -1.736415,-0.238258 -1.860568,0.500629 1.063837,2.84623 2.616533,5.48687 4.069185,8.149 2.98141,0.24246 6.085959,0.0325 9.1142,0.10286 4.443424,0 8.886848,0 13.330271,0 1.245166,-1.46562 1.705558,-3.51042 2.551702,-5.24059 0.277841,-1.04674 1.140507,-2.10187 0.961439,-3.206738 -0.894231,-0.572793 -2.128591,-0.236593 -3.141559,-0.212929 -1.283171,0.21338 -1.290375,1.949357 -1.872698,2.845257 -0.485256,0.73336 -0.568542,2.20397 -1.758103,2.02251 -5.543521,0.17599 -11.092737,0.0494 -16.638453,0.0888 -0.793964,-1.67799 -1.420868,-3.52877 -2.416233,-5.052604 -0.779718,0.0023 -1.559498,-0.0049 -2.339183,0.0038 z"
       id="path12" /><path
       style="fill:#1d1d1d;fill-opacity:1;stroke-width:0.194331"
       d="m 44.73067,3.6695159 c -0.0947,2.8226325 -0.01537,5.6737372 -0.04365,8.5072951 -3.383734,4.568607 -6.83827,9.105741 -10.101796,13.749677 0,3.566405 0,7.132809 0,10.699212 -1.599392,0.05629 -3.251412,-0.109878 -4.819181,0.08009 -0.06575,22.002599 0.04357,44.033579 0.04479,66.04709 0.05871,3.4961 -0.09877,7.04349 0.09337,10.50794 2.909168,0.12949 5.846829,0.0938 8.76691,0.16017 2.006481,2.525 4.012923,5.05004 6.019326,7.57511 0.06068,1.01154 -0.125346,2.07988 0.16169,3.06299 1.990734,0.31773 4.126624,0.0719 6.167352,0.17098 11.009699,0.0345 22.019385,-0.028 33.029059,-0.0469 0.703929,-1.19325 -0.239039,-3.0852 0.995769,-4.09961 1.773022,-2.22233 3.545947,-4.44473 5.31885,-6.66716 2.962467,-0.0602 5.975946,0.094 8.906965,-0.0987 0.06436,-22.391498 -0.04469,-44.810861 -0.04666,-67.213071 -0.05844,-3.107388 0.100073,-6.266244 -0.09187,-9.341956 -1.529649,-0.210678 -3.257829,0.0939 -4.710249,-0.375377 C 94.063937,32.823277 94.386715,29.109565 94.216765,25.50438 90.926262,21.066209 87.635791,16.627972 84.345349,12.189716 84.291216,9.3428553 84.452472,6.4450412 84.265264,3.6296629 71.153465,3.5357845 58.013205,3.6162537 44.890462,3.5894303 Z M 64.501573,9.236416 c 5.047165,0 10.094332,0 15.141497,0 0.147986,1.535522 -0.117089,3.202947 0.285454,4.658002 3.207824,4.167814 6.508631,8.282211 9.58899,12.536116 0.336859,4.844002 0.243595,9.717491 0.354881,14.575964 1.09755,0.480287 2.555663,0.134938 3.789455,0.302884 0,6.47112 0,12.942241 0,19.413363 -1.987839,0.0556 -4.027769,-0.109003 -5.984029,0.08008 -0.04108,1.498971 -0.119498,3.076635 0.03985,4.555014 1.968262,0.09384 3.965021,0.01312 5.944176,0.04023 0,6.409128 0,12.818254 0,19.227382 -1.987839,0.0556 -4.027769,-0.109002 -5.984029,0.08009 -0.04108,1.49897 -0.119498,3.076635 0.03985,4.555014 1.968262,0.09384 3.965021,0.01312 5.944176,0.04023 0,6.473904 0,12.947805 0,19.421705 -1.583207,0.0501 -3.209717,-0.0971 -4.767183,0.0702 -2.217507,2.60246 -4.434861,5.20505 -6.652041,7.80778 -0.899327,0.27104 -2.791812,-0.38855 -2.560144,1.13732 0.160848,1.49126 -1.879632,0.53116 -2.809374,0.80796 -9.169113,0.0297 -18.338227,0.0594 -27.507339,0.0891 0.175957,-0.85924 -0.135233,-2.1794 -1.261634,-2.02036 -0.936615,0.32303 -1.703193,-0.27374 -2.216633,-1.00485 -1.999942,-2.2748 -3.83955,-4.73835 -5.952481,-6.88301 -1.520362,-0.001 -3.040723,-0.002 -4.561085,-0.004 0,-6.47403 0,-12.948055 0,-19.422085 1.987839,-0.0556 4.02777,0.109002 5.984028,-0.08009 0.04108,-1.49897 0.119499,-3.076635 -0.03985,-4.555014 -1.968261,-0.09384 -3.96502,-0.01312 -5.944175,-0.04023 0,-6.409128 0,-12.818254 0,-19.227382 1.987839,-0.0556 4.02777,0.109003 5.984028,-0.08008 0.04108,-1.498971 0.119499,-3.076635 -0.03985,-4.555014 -1.968261,-0.09384 -3.96502,-0.01312 -5.944175,-0.04023 0,-6.473905 0,-12.947809 0,-19.421713 1.275951,-0.05281 2.601956,0.105961 3.846387,-0.08009 0.09593,-4.894484 0.01796,-9.817433 0.04744,-14.722851 3.392452,-4.364811 6.850145,-8.702744 10.098002,-13.164407 0,-1.365758 0,-2.731515 0,-4.097272 5.045268,0 10.090536,0 15.135804,0 z"
       id="path13" /><path
       style="fill:#1d1d1d;fill-opacity:1;stroke-width:0.194331"
       d="m 52.026053,30.689875 c -2.047373,2.60878 -4.641573,4.843094 -6.248577,7.767547 -0.356438,0.95947 1.049221,0.839883 1.60399,0.85741 3.590067,-0.0099 7.229983,0.0639 10.787269,-0.1355 0.038,-2.794671 0.119612,-5.666943 -0.04099,-8.440494 -2.01247,-0.06547 -4.103427,-0.166315 -6.10169,-0.04896 z"
       id="path14" /><path
       style="fill:#1d1d1d;fill-opacity:1;stroke-width:0.194331"
       d="m 70.772922,30.668241 c -0.03222,2.799958 -0.153794,5.658346 0.11083,8.453778 1.27476,0.402354 2.771194,0.100773 4.120803,0.213815 2.607656,-0.0822 5.271689,0.155201 7.847254,-0.235829 1.040144,-0.39152 -0.05273,-1.435672 -0.390918,-1.939715 -1.775977,-2.226169 -3.646008,-4.423688 -5.606775,-6.461685 -2.019156,0.01992 -4.09158,-0.183512 -6.081194,-0.03036 z"
       id="path15" /><path
       style="fill:#1d1d1d;fill-opacity:1;stroke-width:0.194331"
       d="m 52.100066,99.472044 c -0.688388,0.197625 -1.860493,-0.11811 -2.260237,0.571606 0.81038,2.55425 2.23424,4.89328 3.451274,7.27603 0.541231,1.4161 2.220214,1.05339 3.396939,1.11308 6.554959,0.079 13.110536,0.0779 19.665824,0.1087 1.42279,-1.87962 2.09687,-4.29662 3.062888,-6.45776 0.164145,-0.71151 1.123353,-1.96534 0.130668,-2.449208 -1.157743,-0.125812 -2.609908,-0.367695 -3.576524,0.433448 -0.972205,1.3329 -1.264811,3.03006 -2.231771,4.37928 -5.756044,0 -11.512088,0 -17.268132,0 -0.759363,-1.72453 -1.467429,-3.58044 -2.496318,-5.107261 -0.62487,0.04403 -1.249741,0.08806 -1.874611,0.132085 z"
       id="path16" /></g></svg>
