<?xml version="1.0" encoding="UTF-8"?>
<svg id="katman_1" data-name="katman 1" xmlns="http://www.w3.org/2000/svg" viewBox="0 0 128 128">
  <defs>
    <style>
      .cls-1 {
        fill: #ffffff;
      }

      .cls-2 {
        fill: #1d1d1d;
      }
    </style>
  </defs>
  <path class="cls-2" d="M80.49,127.02c-18.29,1.31-11.88-3.56-22.09-.65-3.58,1.02-7.97.62-12.94.65l-.14-15.08,8.88-5.28c1.17-6.51-2.09-22.42-5.23-30.17l-26.19,25.75-12.71-12.67,26.83-26.92-9.46-5.22.16-15.84,18.09-.19.45-20.09c.16-7.33,4.83-12.07,9.05-16.86,2.42-2.75,3.69-3.73,7.8-3.79s5.21,1.4,7.67,3.81c6.18,6.06,9.72,12.74,9.39,22.82l23.19-22.82,12.65,12.73-23.7,23.85,6.07.93.13,15.53-14.82,7.68c.69,12.12-6.66,5.38-9.45,19.85-1.41,7.3-2.71,14.15-2.7,21.37l9.08,5.56-.02,15.06ZM56.52,44.54c3.34-8.12-3.63-25.3,6.98-24.65,2.48.15,5.01,2.98,4.99,5.92l-.1,15.1,6.37-6.3c.23-13.59,1.56-17.31-7.38-25.93-1.33-1.29-3.34-2.95-4.83-2.92s-11.37,7.62-11.48,16.24l-.32,24.4-18.26.16.21,8.36,10.5,4.67c2.61,0,8.16-2.61,9.14-4.88l4.19-10.18ZM23.08,95.04l36.42-36.21c3.05,1.22,6.8.72,8.37-1.3,1.12-1.43,1.33-5.15,1.73-7,2.48-4.84,10.19-4.95,13.8-8.23,9.06-8.22,16.8-16.32,25.48-25.02-2.08-2.16-3.7-3.7-5.86-5.55l-36.42,36.07c-2.79-.86-6.23-.73-8.08.97-1.38,1.27-1.62,4.94-1.91,6.99-2.58,5.63-10.67,5.33-14.55,9.15l-24.99,24.61c2.31,2.26,3.93,3.77,6.02,5.53ZM75.45,121.22l.08-6.66-8.65-5c-.28-4.35-.69-9.74.2-14.07l3.96-19.21,7.37-7.53.4-6.88,14.67-7.31-.25-7.82c-6.72-.89-15.5-.54-19.7,5.75-1.57,2.35-1.58,7.07-4.11,8.7-8.62,5.54-5.03-4.34-18.1,11.22,5.57,3.44,8.95,30.27,8.07,36.73l-8.85,5.49-.47,6.68c4.43,3.21,6.67-1.55,9.57-1.68l7.06-.32c1.64,2.24,6.26,4.08,8.75,1.94Z"/>
  <path class="cls-1" d="M75.45,121.22c-2.49,2.15-7.11.31-8.75-1.94l-7.06.32c-2.89.13-5.14,4.89-9.57,1.68l.47-6.68,8.85-5.49c.88-6.45-2.5-33.29-8.07-36.73,13.08-15.55,9.48-5.67,18.1-11.22,2.53-1.63,2.54-6.35,4.11-8.7,4.2-6.29,12.98-6.64,19.7-5.75l.25,7.82-14.67,7.31-.4,6.88-7.37,7.53-3.96,19.21c-.89,4.33-.49,9.72-.2,14.07l8.65,5-.08,6.66Z"/>
  <path class="cls-1" d="M23.08,95.04c-2.09-1.75-3.71-3.26-6.02-5.53l24.99-24.61c3.88-3.82,11.97-3.52,14.55-9.15.28-2.05.53-5.72,1.91-6.99,1.85-1.71,5.29-1.83,8.08-.97L103.01,11.72c2.17,1.85,3.78,3.39,5.86,5.55-8.68,8.71-16.42,16.8-25.48,25.02-3.61,3.28-11.32,3.39-13.8,8.23-.4,1.86-.61,5.57-1.73,7-1.58,2.02-5.32,2.52-8.37,1.3l-36.42,36.21Z"/>
  <path class="cls-1" d="M56.52,44.54l-4.19,10.18c-.99,2.27-6.53,4.87-9.14,4.88l-10.5-4.67-.21-8.36,18.26-.16.32-24.4c.11-8.62,10.03-16.21,11.48-16.24s3.49,1.63,4.83,2.92c8.95,8.63,7.61,12.35,7.38,25.93l-6.37,6.3.1-15.1c.02-2.94-2.5-5.77-4.99-5.92-10.62-.66-3.64,16.53-6.98,24.65Z"/>
</svg>