<?xml version="1.0" encoding="UTF-8" standalone="no"?>
<!-- Created with Inkscape (http://www.inkscape.org/) -->

<svg
   width="640mm"
   height="640mm"
   viewBox="0 0 640 640"
   version="1.1"
   id="svg1"
   xml:space="preserve"
   inkscape:version="1.4.2 (f4327f4, 2025-05-13)"
   sodipodi:docname="map_trackedjeep.svg"
   xmlns:inkscape="http://www.inkscape.org/namespaces/inkscape"
   xmlns:sodipodi="http://sodipodi.sourceforge.net/DTD/sodipodi-0.dtd"
   xmlns="http://www.w3.org/2000/svg"
   xmlns:svg="http://www.w3.org/2000/svg"><sodipodi:namedview
     id="namedview1"
     pagecolor="#ffffff"
     bordercolor="#000000"
     borderopacity="0.25"
     inkscape:showpageshadow="2"
     inkscape:pageopacity="0.0"
     inkscape:pagecheckerboard="true"
     inkscape:deskcolor="#d1d1d1"
     inkscape:document-units="mm"
     inkscape:zoom="0.17972959"
     inkscape:cx="1224.0611"
     inkscape:cy="1096.0911"
     inkscape:window-width="1278"
     inkscape:window-height="1000"
     inkscape:window-x="1273"
     inkscape:window-y="0"
     inkscape:window-maximized="0"
     inkscape:current-layer="layer1" /><defs
     id="defs1" /><g
     inkscape:label="Calque 1"
     inkscape:groupmode="layer"
     id="layer1"><path
       style="fill:#000000"
       d="m 181.43731,539.49045 c -8.59048,-8.61032 -8.59048,-418.65914 0,-427.26946 3.77352,-3.78223 22.69972,-5.98976 51.3531,-5.98976 44.64451,0 45.55548,0.24177 56.42268,14.9744 10.05806,13.63567 13.6202,14.9744 39.84454,14.9744 25.49816,0 30.43952,-1.71631 43.11231,-14.9744 13.73437,-14.3687 16.04827,-14.9744 57.20531,-14.9744 26.72047,0 45.14508,2.25831 48.86793,5.98976 8.59048,8.61032 8.59048,418.65914 0,427.26946 -10.31007,10.33388 -78.29254,7.61661 -99.90398,-3.99318 -25.57351,-13.73823 -75.11237,-13.73823 -95.80861,0 -11.78726,7.82442 -23.39949,9.92409 -55.02861,9.95004 -24.58202,0.0202 -42.40027,-2.284 -46.06467,-5.95686 z m 96.11331,-28.9505 c 7.69633,-8.52399 15.33813,-9.98294 52.28963,-9.98294 36.9515,0 44.59329,1.45895 52.28962,9.98294 7.34127,8.13074 15.33813,9.98293 43.10153,9.98293 h 34.08792 v -17.47013 c 0,-15.30716 -1.54142,-17.47013 -12.44991,-17.47013 -9.95993,0 -12.44991,-2.49574 -12.44991,-12.47867 0,-9.98293 2.48998,-12.47866 12.44991,-12.47866 12.00299,0 12.44991,-1.16468 12.44991,-32.44453 0,-31.27985 -0.44692,-32.44452 -12.44991,-32.44452 -9.95993,0 -12.44991,-2.49574 -12.44991,-12.47867 0,-9.98293 2.48998,-12.47866 12.44991,-12.47866 h 12.44991 v -82.35918 -82.35918 h -12.44991 c -9.95993,0 -12.44991,-2.49574 -12.44991,-12.47867 0,-9.98293 2.48998,-12.47866 12.44991,-12.47866 11.77082,0 12.44991,-1.49744 12.44991,-27.45306 V 126.1971 h -31.96361 c -31.158,0 -32.2351,0.44031 -42.73586,17.47013 L 373.8476,161.13736 H 329.84025 285.83289 L 275.06064,143.66723 C 264.55989,126.63741 263.48278,126.1971 232.32478,126.1971 h -31.9636 v 27.45306 c 0,25.95562 0.67908,27.45306 12.44991,27.45306 9.95992,0 12.44991,2.49573 12.44991,12.47866 0,9.98293 -2.48999,12.47867 -12.44991,12.47867 h -12.44991 v 82.35918 82.35918 h 12.44991 c 9.95992,0 12.44991,2.49573 12.44991,12.47866 0,9.98293 -2.48999,12.47867 -12.44991,12.47867 -12.00299,0 -12.44991,1.16467 -12.44991,32.44452 0,31.27985 0.44692,32.44453 12.44991,32.44453 9.95992,0 12.44991,2.49573 12.44991,12.47866 0,9.98293 -2.48999,12.47867 -12.44991,12.47867 -10.9085,0 -12.44991,2.16297 -12.44991,17.47013 v 17.47013 h 34.08791 c 27.76341,0 35.76026,-1.85219 43.10153,-9.98293 z M 245.18085,425.68503 V 400.7277 h 84.6594 84.65939 v 24.95733 24.95733 h -84.65939 -84.6594 z m 60.32627,-108.56438 c -5.77314,-4.80428 -11.88603,-15.94509 -13.5842,-24.75734 -2.5953,-13.46776 -0.61273,-18.50284 12.43491,-31.58062 13.88243,-13.9145 15.52249,-18.68206 15.52249,-45.12317 0,-26.23719 1.12103,-29.56484 9.95993,-29.56484 8.83889,0 9.95992,3.32765 9.95992,29.56484 0,26.44111 1.64006,31.20867 15.52249,45.12317 13.04765,13.07778 15.03021,18.11286 12.43491,31.58062 -3.78569,19.64498 -19.46259,33.49241 -37.91732,33.49241 -7.61007,0 -18.55998,-3.93078 -24.33313,-8.73507 z"
       id="path1" /><path
       style="fill:#1d1d1d;fill-opacity:1;stroke-width:5.56391"
       d="m 913.81856,406.36134 c -71.37474,4.11432 -146.36869,-7.81117 -215.36259,14.10539 -28.76809,20.84036 -14.95127,64.73788 -22.0049,94.85065 -16.05571,420.73775 -13.47689,842.04352 -6.37976,1262.96182 4.87134,84.7374 -0.67797,171.5805 16.20273,254.8859 26.23112,25.543 70.17168,17.9536 103.73171,24.3617 78.06692,4.2945 159.32362,6.4581 234.99325,-15.5159 59.1688,-28.5884 120.1631,-60.4224 188.1625,-54.6721 79.5974,-3.7789 160.8235,3.4263 232.7172,40.4906 100.3155,38.5426 211.2166,31.7773 316.502,26.5155 28.5472,0.6817 53.835,-20.609 50.4338,-50.586 18.1611,-293.0353 14.0247,-587.0053 15.1571,-880.4892 -2.658,-223.73443 0.7664,-448.01584 -16.1894,-671.23428 -0.285,-42.56616 -52.9875,-41.38835 -83.5057,-43.31947 -85.1596,-1.65642 -171.4179,-6.42165 -256.0235,3.31797 -59.6544,26.00495 -93.3453,102.70042 -165.733,99.45497 -57.098,-1.82547 -119.759,13.95401 -173.1659,-11.87765 -41.4136,-29.04712 -63.2885,-91.24407 -121.7215,-90.79395 -32.47622,-3.21273 -65.22592,-2.26336 -97.81404,-2.45595 z m -43.82669,70.63563 c 51.86641,4.87673 124.17199,-13.2704 155.40923,41.94669 19.579,29.70524 37.565,60.53173 56.7802,90.40274 109.4944,-0.0565 219.0883,0.25936 328.5209,-0.0435 30.581,-40.90203 50.0248,-95.00838 93.0869,-124.54692 76.0981,-13.44867 154.7889,-5.25968 231.8478,-9.55211 -3.745,64.48352 7.449,131.39131 -6.2594,194.58486 -17.5297,32.31869 -72.5456,0.088 -82.122,39.78416 -4.7685,23.77646 -6.049,65.46775 27.9608,65.68027 18.9666,7.15819 60.1218,-11.66747 60.4206,12.34493 0,205.66198 0,411.32401 0,616.98591 -26.4746,5.666 -68.7467,-12.1391 -86.7731,15.366 -6.2549,24.6667 -10.5766,70.8453 25.1245,73.2546 21.0862,1.0786 55.9892,-3.5917 57.943,26.5047 5.5135,69.7783 4.8508,141.5675 -4.1403,210.8527 -18.7615,21.1719 -60.3327,2.9468 -77.9926,26.1678 -6.0431,24.4479 -13.0822,71.8735 22.7772,75.8192 23.1625,0.06 59.039,-0.6379 60.3228,31.1123 4.8735,34.0028 1.8615,68.6192 2.7385,102.8781 -83.121,-3.1364 -168.4442,7.0311 -250.3,-9.0196 -43.476,-18.1932 -75.03,-66.9824 -127.7527,-58.7472 -87.2035,-0.9549 -175.3772,-5.707 -262.0365,4.01 -44.2409,18.0627 -76.1609,66.4673 -129.00235,61.0726 -69.77461,4.075 -139.69996,2.2752 -209.54874,2.6842 4.99802,-40.3784 -10.68839,-88.3591 12.4536,-124.5035 22.82804,-17.8 69.01277,3.605 77.73179,-33.5682 8.95757,-24.6977 2.48486,-61.3827 -29.34095,-63.2026 -19.05049,-5.6919 -59.91207,1.2179 -55.59568,-30.1886 -1.57233,-68.0629 -7.99146,-137.7498 3.23837,-205.0389 13.96403,-33.2792 68.81315,1.3983 80.51375,-36.5349 5.57924,-23.5328 8.11949,-66.7103 -25.99391,-67.7124 -20.19262,-6.8713 -61.17445,11.0813 -63.00697,-12.3341 0,-205.662 -1e-5,-411.32396 0,-616.98593 27.1929,-4.88423 73.45176,12.08573 88.91395,-19.97359 7.32807,-25.25997 5.71636,-69.74812 -30.11251,-69.15772 -21.70581,1.22414 -54.30693,1.12307 -53.66134,-29.25401 -6.24715,-60.64839 -3.57647,-121.97489 -5.85733,-182.89195 37.90416,0.60131 75.80833,1.20262 113.71249,1.80393 z"
       id="path2"
       transform="scale(0.26458333)" /><path
       style="fill:#1d1d1d;fill-opacity:1;stroke-width:5.56391"
       d="m 1245.4039,703.96555 c -39.5719,3.40312 -28.0363,54.4734 -32.4594,81.09447 -6.9588,58.42727 6.8204,127.87295 -38.6761,173.90015 -32.9601,39.82984 -85.791,83.02083 -69.2881,141.43423 11.5631,70.3061 74.4067,135.4889 149.5404,125.9847 86.2826,2.431 148.3162,-95.8426 133.3607,-175.2557 -25.0528,-63.70836 -106.2485,-99.89999 -101.7696,-176.20876 -9.0029,-52.36995 2.7688,-109.52017 -16.67,-159.35398 -5.9693,-6.87333 -14.6726,-12.12133 -24.0379,-11.59511 z"
       id="path3"
       transform="scale(0.26458333)" /><path
       style="fill:#1d1d1d;fill-opacity:1;stroke-width:5.56391"
       d="m 928.86939,1516.1666 c 0.20622,61.2611 -0.40704,122.8616 0.30428,183.9135 211.48813,-0.2028 423.31233,0.4056 634.59053,-0.3043 -0.2063,-61.2611 0.407,-122.8616 -0.3043,-183.9135 -211.488,0.2027 -423.3126,-0.4055 -634.59051,0.3043 z"
       id="path4"
       transform="scale(0.26458333)" /><path
       style="fill:#ffffff;fill-opacity:1;stroke-width:5.56391"
       d="m 759.17001,480.68089 c 4.17245,64.21365 -3.05955,131.13131 10.86702,193.8459 22.51769,17.38262 67.44765,-5.2287 78.01433,30.25378 5.64481,25.96117 8.82425,72.54863 -27.97171,75.14544 -17.87427,6.03206 -50.33483,-6.93479 -58.12769,7.36784 0.20348,204.06935 -0.40556,408.47525 0.30428,612.33485 27.03428,2.8811 80.26455,-11.1022 87.39257,28.1456 4.82957,26.1342 3.0442,67.8816 -32.39458,68.7773 -20.51342,1.6213 -52.36393,2.3135 -51.69442,30.8624 -2.84994,64.9068 -8.15168,131.4872 2.05387,195.8128 13.97434,32.4043 66.51277,0.045 79.54659,35.8068 7.90215,27.0399 9.05688,75.2569 -29.47136,76.8081 -19.94949,2.7577 -55.72317,0.036 -54.09603,29.9713 -4.49564,34.1403 -2.9578,69.0188 -1.32577,103.1063 81.85857,-5.4192 165.79845,0.4884 246.34449,-15.4095 40.6489,-19.8939 71.657,-62.0271 121.4498,-59.0622 87.782,-1.8225 176.9686,-8.1792 264.0251,4.8575 46.374,12.0949 74.9906,65.6173 127.3506,60.8119 72.0099,5.1399 144.6135,5.9088 216.5254,7.2809 -5.7946,-39.6758 1.4676,-84.9292 -14.7466,-121.8193 -24.8851,-14.2637 -74.0513,1.2674 -80.1333,-37.0783 -6.0904,-26.9083 -0.276,-69.4879 35.4808,-69.1577 20.4851,1.7672 49.5821,-0.8398 49.4123,-28.113 4.0165,-66.6729 7.0737,-135.4319 -3.2927,-201.3115 -21.7802,-22.6769 -73.7279,-0.6255 -81.2853,-39.8168 -5.0755,-25.6367 -4.8994,-68.5217 30.8732,-69.0382 18.8481,-6.2612 53.5178,7.5056 62.0462,-7.3025 -1.1454,-203.1471 -1.5353,-406.5904 -3.1361,-609.55298 -27.4635,-7.56505 -78.1038,6.70522 -89.5551,-29.34095 -4.2009,-24.05382 -6.6688,-65.02961 26.0374,-69.23378 21.7697,-3.93303 61.5466,0.42764 60.138,-32.50326 5.484,-57.14654 3.7113,-115.02956 4.2273,-172.15533 -74.2827,2.64595 -150.1615,-5.58839 -223.5889,6.18333 -47.051,24.77448 -65.6684,80.35622 -94.4779,121.78669 -113.0605,-0.19042 -226.1209,-0.37516 -339.1814,-0.55421 -30.2279,-38.05951 -43.3185,-95.72916 -89.72899,-118.05931 -74.01846,-14.90857 -152.91199,-5.64752 -227.8814,-9.64991 z m 492.97149,223.55633 c 36.6416,0.0235 27.9784,50.18457 31.9599,73.89574 6.2068,50.82901 -3.8983,107.31033 19.6693,154.31168 28.2048,50.5582 96.134,86.43076 90.6527,150.97556 -3.8018,85.6881 -86.1347,165.3914 -173.9267,145.7376 -79.8541,-13.0973 -134.0409,-101.4175 -117.3964,-178.48 24.0283,-64.26718 102.5078,-100.34185 100.6721,-175.77403 7.7256,-53.35109 -2.814,-110.50544 15.6594,-161.69039 6.9895,-10.75806 21.7753,-8.84216 32.7097,-8.97616 z m 316.578,903.69048 c -3.9372,30.2866 7.7408,76.1885 -5.5639,97.1077 -213.1675,0 -426.3349,0 -639.50238,0 1.01425,-63.7822 2.02851,-127.5643 3.04277,-191.3465 214.00781,-0.9563 428.01571,-1.9126 642.02351,-2.8689 0,32.3693 0,64.7385 0,97.1077 z"
       id="path5"
       transform="scale(0.26458333)" /></g></svg>
