<?xml version="1.0" encoding="UTF-8"?>
<svg id="katman_1" data-name="katman 1" xmlns="http://www.w3.org/2000/svg" viewBox="0 0 128 128">
  <defs>
    <style>
      .cls-1 {
        fill: #ffffff;
      }

      .cls-2 {
        fill: #1d1d1d;
      }
    </style>
  </defs>
  <path class="cls-2" d="M82.44,127h-.5c-.41-.14-.85-.16-1.37-.21l-16.52-1.61-7.68-.09-.25-5.64-.84-19.71-.35-7.91-.69-16.22-2.23-4.03-8.2.02c-.29,0-.55.36-.59.65v18.16s-10.91,0-10.91,0v-7.48s-3.49,3.43-3.49,3.43l-9.14-9.07,12.64-12.58v-2.84s-.16-.08-.25-.08h-11.12s-.02-36.08-.02-36.08l13.55-.03-14.58-14.53L29.03,2.04l18.62,18.54c2.65-4.32,7.05-7.05,11.96-7.72,1.75-.27,3.38-.27,5.13.04,4.88.74,9.13,3.51,11.74,7.71L96.24,1l9.21,9.07-15.73,15.64,13.43.03-.02,36.08h-11.39s.02,2.7.02,2.7l16.57,16.4-9.09,9.09-7.51-7.46-.02,7.87h-10.9s.03-18.15.03-18.15l-.17-.54c-.03-.11-.32-.14-.48-.14h-8.17s-2.23,4.02-2.23,4.02l-1.61,37.04,6.23.74,8.02.93-.02,12.68ZM96.23,7.41l-27.84,27.75,2.67,2.67,27.84-27.75-2.67-2.67ZM29.05,8.45l-2.67,2.68,26.72,26.63,2.67-2.68L29.05,8.45ZM63.72,33.31l9.29-9.21c-.99-2.35-2.74-4.13-4.98-5.35-3.91-2.14-8.77-2.02-12.55.34-1.93,1.21-3.46,2.82-4.37,4.93l9.38,9.32c1.17-.09,2.09-.06,3.23-.03ZM25.49,30.3v26.96s12.06,0,12.06,0v-26.96s-12.06,0-12.06,0ZM86.49,30.3v26.96s12.05,0,12.05,0v-26.96s-12.05,0-12.05,0ZM43.53,34.75l-.52-.48c-.04.13-.12.55,0,.53l.52-.06ZM81.17,34.26c.07,0-.17.02-.21.02l-.27.46.35.02c.06,0,.04-.1.12-.5ZM68.32,44.11c0-3.49-2.83-6.32-6.32-6.32s-6.32,2.83-6.32,6.32,2.83,6.32,6.32,6.32,6.32-2.83,6.32-6.32ZM81.95,46.37v-6.97s-1.72-.03-1.72-.03l.05,6.99h1.66ZM43.79,46.33l.07-6.94h-1.73s0,6.96,0,6.96c.57.03,1.17.03,1.66-.02ZM50.12,46.94c.35-.34.89-.8,1.07-1.23-.1-1.19-.08-2.2,0-3.39l-2.79-2.79-.06,4.81c-.02,1.43.1,2.79.2,4.13l1.58-1.53ZM75.57,48.44l.19-3.99c.08-1.59,0-3.11-.17-4.71l-2.76,2.8.03,3.17,2.71,2.74ZM71.08,50.34l-2.66,2.69,30.85,30.61,2.66-2.69-30.85-30.61ZM53.04,50.48l-26.89,26.84,2.68,2.69,26.89-26.84-2.68-2.69ZM44.67,52.37l-.33-1.42h-1.06s.12,2.76.12,2.76l1.27-1.34ZM80.69,53.55l.05-2.62h-.98s-.34,1.42-.34,1.42l1.27,1.2ZM60.75,120.58h2.56s.33-7.73.33-7.73l.83-19.93.83-18.54,4.67-8.5c.64-1.16.94-2.38,1.32-3.65l-7.36-7.36c-1.21.18-2.31.18-3.54.04l-7.52,7.49c.37,1.32.7,2.61,1.35,3.78l4.54,8.16.8,18.45.56,12.79.64,14.99ZM76.01,66.96l-1.02-1.06-.53,1.1,1.55-.04ZM49.62,67.01l-.51-.96-.75.95h1.26ZM87.19,85.87v-7.8s-1.81-1.78-1.81-1.78v9.59s1.81-.01,1.81-.01ZM36.94,85.87l1.75-.02-.02-9.25-1.73,1.68v7.59ZM77.91,122v-3.62s-9.91-1.2-9.91-1.2l-.18,3.8,10.09,1.01Z"/>
  <path class="cls-1" d="M60.75,120.58l-.64-14.99-.56-12.79-.8-18.45-4.54-8.16c-.65-1.17-.98-2.46-1.35-3.78l7.52-7.49c1.24.14,2.33.14,3.54-.04l7.36,7.36c-.38,1.27-.68,2.49-1.32,3.65l-4.67,8.5-.83,18.54-.83,19.93-.33,7.73h-2.56Z"/>
  <rect class="cls-1" x="18.04" y="37.75" width="26.96" height="12.06" transform="translate(-12.27 75.29) rotate(-89.99)"/>
  <rect class="cls-1" x="79.04" y="37.76" width="26.96" height="12.05" transform="translate(48.73 136.3) rotate(-90)"/>
  <path class="cls-1" d="M63.72,33.31c-1.13-.03-2.06-.06-3.23.03l-9.38-9.32c.9-2.11,2.44-3.73,4.37-4.93,3.79-2.37,8.64-2.49,12.55-.34,2.24,1.23,4,3.01,4.98,5.35l-9.29,9.21Z"/>
  <rect class="cls-1" x="83.28" y="45.26" width="3.78" height="43.46" transform="translate(-22.37 80.25) rotate(-45.22)"/>
  <rect class="cls-1" x="63.99" y="20.74" width="39.31" height="3.78" transform="translate(8.43 65.66) rotate(-44.91)"/>
  <rect class="cls-1" x="21.94" y="63.35" width="37.99" height="3.8" transform="translate(-34.13 47.98) rotate(-44.94)"/>
  <rect class="cls-1" x="39.18" y="4.25" width="3.79" height="37.72" transform="translate(-4.29 35.89) rotate(-45.1)"/>
  <circle class="cls-1" cx="61.99" cy="44.11" r="6.32"/>
  <polygon class="cls-1" points="77.91 122 67.82 120.99 68 117.19 77.92 118.38 77.91 122"/>
  <path class="cls-1" d="M50.12,46.94l-1.58,1.53c-.11-1.34-.22-2.69-.2-4.13l.06-4.81,2.79,2.79c-.08,1.19-.1,2.2,0,3.39-.18.43-.72.89-1.07,1.23Z"/>
  <path class="cls-1" d="M75.57,48.44l-2.71-2.74-.03-3.17,2.76-2.8c.18,1.6.25,3.12.17,4.71l-.19,3.99Z"/>
  <polygon class="cls-1" points="87.19 85.87 85.38 85.88 85.38 76.29 87.18 78.07 87.19 85.87"/>
  <polygon class="cls-1" points="36.94 85.87 36.93 78.29 38.66 76.61 38.69 85.86 36.94 85.87"/>
  <path class="cls-1" d="M43.79,46.33c-.49.05-1.09.05-1.66.02v-6.97s1.72,0,1.72,0l-.07,6.94Z"/>
  <polygon class="cls-1" points="81.95 46.37 80.28 46.36 80.23 39.37 81.94 39.4 81.95 46.37"/>
  <polygon class="cls-1" points="44.67 52.37 43.4 53.7 43.28 50.93 44.34 50.94 44.67 52.37"/>
  <polygon class="cls-1" points="80.69 53.55 79.42 52.35 79.76 50.94 80.74 50.93 80.69 53.55"/>
  <polygon class="cls-1" points="76.01 66.96 74.46 67 74.99 65.9 76.01 66.96"/>
  <polygon class="cls-1" points="49.62 67.01 48.36 67 49.11 66.04 49.62 67.01"/>
  <path class="cls-1" d="M43.53,34.75l-.52.06c-.13.01-.05-.41,0-.53l.52.48Z"/>
  <path class="cls-1" d="M81.17,34.26c-.08.4-.06.51-.12.5l-.35-.02.27-.46s.28-.03.21-.02Z"/>
</svg>