<?xml version="1.0" encoding="UTF-8" standalone="no"?>
<!-- Created with Inkscape (http://www.inkscape.org/) -->

<svg
   width="640mm"
   height="640mm"
   viewBox="0 0 640 640"
   version="1.1"
   id="svg1"
   xml:space="preserve"
   inkscape:version="1.4.2 (f4327f4, 2025-05-13)"
   sodipodi:docname="T_map_helicopter_scout.svg"
   xmlns:inkscape="http://www.inkscape.org/namespaces/inkscape"
   xmlns:sodipodi="http://sodipodi.sourceforge.net/DTD/sodipodi-0.dtd"
   xmlns="http://www.w3.org/2000/svg"
   xmlns:svg="http://www.w3.org/2000/svg"><sodipodi:namedview
     id="namedview1"
     pagecolor="#ffffff"
     bordercolor="#000000"
     borderopacity="0.25"
     inkscape:showpageshadow="2"
     inkscape:pageopacity="0.0"
     inkscape:pagecheckerboard="true"
     inkscape:deskcolor="#d1d1d1"
     inkscape:document-units="mm"
     inkscape:zoom="0.17972959"
     inkscape:cx="1524.5125"
     inkscape:cy="1463.3094"
     inkscape:window-width="1278"
     inkscape:window-height="1000"
     inkscape:window-x="1266"
     inkscape:window-y="0"
     inkscape:window-maximized="0"
     inkscape:current-layer="layer1" /><defs
     id="defs1" /><g
     inkscape:label="Calque 1"
     inkscape:groupmode="layer"
     id="layer1"><path
       style="fill:#000000"
       d="m 387.10987,633.07523 c -16.43388,-2.04844 -44.72149,-3.96878 -62.86134,-4.26742 l -32.98154,-0.54299 -3.38908,-121.32193 c -1.864,-66.72706 -5.7941,-127.54173 -8.73357,-135.14371 -8.39727,-21.71681 -50.3628,-26.6764 -52.37723,-6.19007 -0.54114,5.50326 -2.41308,27.45377 -4.15987,48.77891 l -3.17597,38.77299 H 194.95634 170.4814 v -20.78726 c 0,-20.55757 -0.11145,-20.68593 -10.08687,-11.61661 -9.87609,8.97902 -10.50048,8.76492 -29.87979,-10.24587 -10.8861,-10.67909 -19.79291,-21.84427 -19.79291,-24.81151 0,-2.96724 13.4459,-18.76204 29.87978,-35.09955 L 170.4814,320.89563 V 215.81134 110.72706 L 139.53277,79.356642 108.58414,47.986227 130.66856,25.379918 152.75297,2.7736085 l 47.66274,47.7032145 47.66275,47.703209 14.4989,-15.203488 c 29.51034,-30.944423 79.40682,-31.59827 112.59587,-1.475463 l 19.2765,17.495601 47.60355,-46.800562 c 26.18196,-25.740308 49.26086,-47.3900321 51.28646,-48.110499 2.0256,-0.7204669 12.48434,7.745174 23.24165,18.812536 l 19.55873,20.122475 -33.43042,33.844162 -33.43041,33.844156 v 104.83223 104.83223 l 40.92534,41.32906 40.92534,41.32906 -22.04145,22.56233 -22.04145,22.56233 -18.88389,-18.52479 -18.88389,-18.5248 v 21.0272 21.02721 h -27.20947 -27.20948 l -1.42532,-48.77892 -1.42533,-48.77892 -20.89569,-1.52519 c -31.28022,-2.28316 -34.31955,7.21703 -38.33394,119.82246 l -3.32552,93.28244 35.01255,3.53241 35.01255,3.53242 v 32.01152 c 0,17.60633 -0.56025,31.68052 -1.24499,31.27598 -0.68475,-0.40455 -14.6909,-2.41154 -31.12478,-4.45998 z m 12.44991,-29.19987 c 0,-9.1653 -16.74198,-15.63427 -40.46221,-15.63427 -13.80936,0 -12.17812,18.76627 1.86748,21.48407 27.6182,5.34407 38.59473,3.68036 38.59473,-5.8498 z m -67.11504,-110.92477 3.65752,-115.30236 16.31238,-34.19544 16.31238,-34.19543 -24.05994,-23.80761 -24.05993,-23.80761 -25.27431,24.46717 -25.2743,24.46717 15.66591,30.0178 c 14.96299,28.67089 15.83885,33.60952 19.51995,110.06525 2.11972,44.0261 4.03898,97.49529 4.26502,118.82044 0.36645,34.57098 1.43333,38.77298 9.8444,38.77298 8.87921,0 9.64827,-6.77369 13.09092,-115.30236 z M 201.12555,408.13086 c 1.04717,-15.18194 -0.23233,-24.37142 -3.25434,-23.37301 -6.43921,2.12738 -9.54009,48.3913 -3.24347,48.3913 2.6247,0 5.54872,-11.25823 6.49781,-25.01829 z m 248.23388,0.32078 c 0,-10.87797 -3.2165,-21.7858 -7.46995,-25.33215 -6.46905,-5.39364 -7.46995,-2.90605 -7.46995,18.56545 0,13.63647 1.43307,26.23327 3.18459,27.99288 6.57204,6.60239 11.75531,-2.75687 11.75531,-21.22618 z m -4.97997,-82.86626 c -68.40127,-68.82466 -77.78142,-76.59391 -84.42138,-69.92329 -6.63995,6.67062 1.08022,16.10753 69.48149,84.93219 68.40127,68.82465 77.78143,76.59391 84.42138,69.92328 6.63995,-6.67062 -1.08021,-16.10753 -69.48149,-84.93218 z m -224.26816,5.39757 c 35.70011,-35.55417 64.90929,-66.23435 64.90929,-68.17819 0,-1.94384 -2.83819,-5.90061 -6.30708,-8.79284 -9.1528,-7.63123 -141.01346,124.30103 -136.37374,136.44779 1.78588,4.67541 5.41047,7.7507 8.05465,6.83397 2.64417,-0.91673 34.01677,-30.75655 69.71688,-66.31073 z m -14.77014,-85.47411 c 0,-37.12161 1.01397,-41.59551 9.95993,-43.94573 5.47796,-1.43914 9.95992,-5.07872 9.95992,-8.08795 0,-3.00924 -4.48196,-5.47134 -9.95992,-5.47134 -8.21665,0 -9.95993,-3.33532 -9.95993,-19.05565 0,-10.48061 -3.29021,-23.42578 -7.31157,-28.76706 -6.52362,-8.66483 -7.32864,-0.6145 -7.46995,74.70086 -0.13974,74.47704 0.72083,83.67922 7.31157,78.18413 5.53681,-4.61637 7.46995,-16.92364 7.46995,-47.55726 z M 446.72868,138.66657 c -5.34493,-5.36962 -12.15598,11.65462 -12.23289,30.57612 -0.0626,15.40028 -1.86047,18.76113 -10.03619,18.76113 -5.47796,0 -9.95993,2.4621 -9.95993,5.47134 0,3.00923 4.48197,6.64881 9.95993,8.08795 8.93635,2.3477 9.95993,6.82412 9.95993,43.55772 0,26.07695 2.26005,43.21522 6.22496,47.2048 4.98047,5.01146 6.49984,-9.43179 7.59996,-72.24563 0.75625,-43.18012 0.0742,-79.81617 -1.51577,-81.41343 z M 228.71208,244.3824 c -1.26263,-4.86773 -2.37874,-2.0964 -2.48023,6.15849 -0.10149,8.25489 0.93158,12.23758 2.29571,8.85041 1.36412,-3.38717 1.44716,-10.14118 0.18452,-15.0089 z m 184.2587,0 c -1.26264,-4.86773 -2.37874,-2.0964 -2.48023,6.15849 -0.10149,8.25489 0.93157,12.23758 2.2957,8.85041 1.36413,-3.38717 1.44717,-10.14118 0.18453,-15.0089 z m -72.31771,-4.62284 c 13.08372,-11.89529 11.99226,-39.15223 -1.96094,-48.97057 -6.0874,-4.28348 -14.74912,-7.78814 -19.24827,-7.78814 -13.73585,0 -34.42327,19.76139 -34.42327,32.88239 0,26.62645 35.73745,41.96423 55.63248,23.87632 z m -78.39803,-9.58789 c 10.9,-10.95034 9.80872,-18.54022 -4.62425,-32.16192 l -12.44992,-11.75011 v 25.88692 c 0,27.03402 3.95286,31.20703 17.07417,18.02511 z m 132.32478,-17.11994 v -24.98174 l -12.44992,10.87506 c -14.6343,12.78313 -15.31301,17.61187 -4.20813,29.9393 13.01144,14.44388 16.65805,10.97797 16.65805,-15.83262 z m -110.4642,-36.14588 c 4.76933,-4.79136 -8.05094,-20.30738 -59.93938,-72.54301 -36.3035,-36.546399 -68.70648,-66.448001 -72.00661,-66.448001 -18.67719,0 -7.01078,16.960991 53.71614,78.094231 36.60059,36.84548 67.81021,66.99178 69.3547,66.99178 1.54449,0 5.53831,-2.74275 8.87515,-6.095 z M 432.34611,120.56761 C 499.94283,55.960005 507.87786,45.967377 499.57058,35.911476 492.31035,27.12303 352.32466,164.4581 356.7456,176.03208 c 1.63883,4.29046 5.21086,7.05079 7.93783,6.13406 2.72698,-0.91672 33.17518,-28.63606 67.66268,-61.59853 z m -80.27269,22.58973 c 21.82243,-22.2579 23.78897,-26.06882 18.95374,-36.73001 -5.88338,-12.972252 -33.74069,-28.488763 -51.14682,-28.488763 -15.97172,0 -44.33724,14.761092 -50.46324,26.260503 -4.54602,8.53355 -1.53764,13.77377 21.16693,36.87011 14.55635,14.80752 28.86788,26.92277 31.80339,26.92277 2.9355,0 16.29421,-11.17557 29.686,-24.83461 z"
       id="path1" /><path
       style="fill:#1d1d1d;fill-opacity:1;stroke-width:5.56391"
       d="M 574.84361,12.964355 C 521.93232,69.027611 468.25478,124.78196 415.80478,181.02282 c 75.15298,79.94831 150.64181,159.6255 229.30498,236.14034 10e-6,264.90172 0,529.80346 0,794.70514 -73.64695,79.6013 -158.74027,150.5259 -220.55703,240.0851 -6.1667,25.1302 25.93012,43.1637 37.03511,62.5144 33.74944,33.8235 64.66177,75.5491 108.28955,96.5787 25.46877,-8.1762 42.20239,-35.9229 67.48419,-42.2835 10.22503,46.4364 4.86452,95.3724 8.38934,142.4449 61.14873,-0.2064 122.63699,0.407 183.57657,-0.3043 4.9693,-117.0435 16.92469,-234.1246 33.17701,-350.081 31.02031,-38.5674 92.8192,-32.6368 133.56655,-13.6273 39.76225,18.4816 69.58015,57.0016 68.00245,102.2929 25.799,294.5087 27.3653,590.5947 37.7708,885.938 -14.9769,49.4004 29.5747,37.927 62.5678,37.8875 136.7448,0.087 273.3718,15.2096 408.4586,31.9381 15.2955,-40.7178 7.3921,-88.5518 12.0585,-131.7694 -0.094,-33.525 3.4368,-68.1044 -0.5829,-101.1325 -87.4418,-9.3138 -178.5034,-16.3477 -263.6448,-30.7428 5.409,-215.5628 10.3534,-431.5728 28.2543,-646.479 9.0635,-51.4299 8.1829,-121.4981 60.0946,-150.454 46.4152,-15.1094 98.2282,-6.4067 145.6072,0.1413 10.9383,120.9376 12.0855,244.6119 14.3662,366.3925 66.8266,-0.2023 133.9885,0.4048 200.6052,-0.3043 1.8101,-51.0194 -3.9123,-106.2275 4.1946,-155.181 49.3112,42.4839 93.7127,90.7671 140.8149,135.3487 55.1128,-55.305 111.0291,-110.2767 165.646,-165.7873 -103.5488,-106.0108 -207.097,-212.0222 -310.6447,-318.0341 -0.01,-263.09423 -0.013,-526.18842 -0.011,-789.28258 83.1396,-86.02129 172.7588,-167.43276 250.2566,-258.00479 C 1976.832,109.94561 1928.6092,62.234836 1875.68,22.78814 1847.9282,18.459486 1830.6407,52.252083 1809.9535,65.888144 1702.2971,167.71577 1597.3774,272.38084 1491.455,375.99889 1410.1456,299.01107 1311.1952,217.17182 1191.6774,226.5991 c -83.0623,3.70558 -160.9548,43.70154 -214.94963,106.47506 -13.7437,10.51288 -26.24262,30.38095 -41.70765,35.76336 C 812.35656,252.97339 695.05937,131.03316 574.84361,12.964355 Z M 1883.1024,136.4789 c 39.3895,27.79014 -10.8388,79.41283 -31.3258,104.04769 -147.9235,152.46346 -300.2833,301.23545 -461.211,439.97706 -9.4962,13.12883 -24.4479,15.07136 -33.1444,0.27168 -26.2377,-21.11906 7.979,-48.37656 18.8633,-67.64584 106.2689,-133.73692 233.3442,-249.42752 356.7337,-367.03889 46.5435,-37.42537 88.1205,-85.22479 143.4662,-109.42696 2.2357,-0.3967 4.3431,-0.5857 6.618,-0.18474 z m -1310.74733,5.70519 c 59.43186,33.11023 104.30885,88.71245 155.20705,133.48469 114.35518,114.92287 235.29059,224.87898 336.36258,351.89077 15.2125,15.55765 21.7876,43.94964 -2.5646,54.5307 -11.8937,12.31606 -27.5921,12.99041 -36.9153,-3.26012 C 878.24199,538.74735 731.13031,398.78002 596.74066,247.18123 c -18.55165,-28.36108 -54.69548,-57.23675 -50.65118,-94.18446 4.3884,-9.78412 17.08509,-10.66431 26.26559,-10.81268 z m 635.15553,151.52972 c 72.626,4.54819 145.2459,42.21262 190.2381,99.52017 23.1313,27.98488 12.7713,66.68718 -12.6316,89.15457 -51.4181,55.0422 -100.6999,116.322 -166.6417,154.37533 -57.2378,-31.844 -100.5867,-85.11198 -147.1164,-130.67296 -22.4865,-29.09172 -62.493,-57.29251 -60.3132,-97.84958 29.7305,-58.28283 95.4732,-88.06236 154.7463,-107.93125 13.5961,-3.87543 27.5648,-6.54378 41.7185,-6.59628 z m -470.28111,226.5991 c 27.73096,17.40785 30.17149,58.1002 37.66509,87.46865 9.66444,31.52325 -8.81448,80.51568 26.74374,99.38976 17.4171,2.47867 53.85848,4.42031 47.61928,30.03646 -19.22061,25.32777 -63.38023,29.04925 -65.44119,67.31028 -13.6533,95.23146 7.08973,195.77114 -24.73334,288.06294 -3.64794,15.8708 -25.91986,31.1829 -31.98164,8.1938 -11.51538,-131.75806 -4.21009,-264.91955 -5.84124,-397.21095 2.77182,-57.83906 -3.15592,-117.27441 6.02598,-174.29652 1.75996,-4.05814 4.75127,-9.39874 9.94332,-8.95442 z m 942.00761,0.21734 c 20.577,8.13242 11.4067,41.11351 15.7407,58.4412 2.1238,170.3128 4.3934,341.51789 -12.5132,511.12105 0.504,10.3884 -13.3947,28.0067 -19.8214,11.4864 -28.0885,-61.6628 -15.109,-132.9691 -22.1687,-198.73601 -4.803,-39.95731 1.9015,-83.86627 -13.2143,-121.5259 -14.5385,-22.33695 -53.0006,-21.75786 -61.214,-47.64102 6.3778,-27.19374 39.526,-20.13992 58.5515,-29.21055 24.9684,-35.19159 11.6081,-84.28595 23.7942,-124.29695 6.0072,-19.41192 7.2658,-52.91382 30.8452,-59.63822 z m -471.8677,170.95996 c 58.4008,5.47222 116.2953,51.7424 114.7449,114.5058 5.4774,52.70384 -22.6855,110.44497 -77.1777,123.56885 -76.6603,28.90548 -175.4928,-35.96197 -167.7976,-119.99359 14.8318,-56.99018 69.9791,-113.05279 130.2304,-118.08106 z M 927.92396,704.3133 c 31.40343,27.76689 66.57111,56.44836 85.94724,94.2062 17.6419,42.47625 -22.90609,79.52163 -56.54109,97.96617 -27.86433,7.77535 -28.89376,-33.53688 -29.15504,-50.77467 -1.22283,-46.50603 -9.69126,-95.635 -0.25111,-141.3977 z m 561.65104,85.3061 c -4.0383,33.85047 8.5177,74.57748 -10.4976,104.82326 -23.0781,10.53694 -40.9444,-22.99221 -56.1064,-35.04615 -23.0138,-19.7302 -33.6431,-56.04526 -8.7479,-78.89453 21.9513,-25.9324 49.0574,-46.78851 73.8306,-69.86406 0.507,26.32716 1.0142,52.65432 1.5213,78.98148 z m 68.2123,126.09004 c 7.942,20.14532 8.4499,50.18133 -0.7825,68.5383 -8.6688,-17.60367 -10.6956,-53.21729 0.7825,-68.5383 z m -697.24973,1.63006 c 11.16748,18.21024 9.40131,47.88304 1.55398,67.17992 -15.02686,-13.93538 -11.82658,-44.20046 -5.96599,-63.0722 0.95268,-1.64792 2.12329,-4.28638 4.41201,-4.10772 z m 515.29233,43.91358 c 54.5183,7.78597 85.7123,62.82062 126.459,94.28982 142.8871,141.2062 291.0487,278.1652 420.9454,431.6631 12.0896,18.0374 44.9841,48.4213 16.3006,66.843 -25.793,17.4502 -54.1163,-15.6759 -73.0483,-30.3225 -163.3726,-156.1213 -325.859,-313.7601 -478.6812,-480.2644 -13.5761,-20.6317 -49.8007,-51.10001 -27.3415,-76.89504 4.197,-3.69572 9.9151,-5.31036 15.366,-5.31398 z m -329.0099,0.48907 c 15.0802,2.17265 30.6192,19.70493 31.2318,33.72032 -139.48758,156.51983 -291.17023,302.04213 -441.68117,447.94213 -24.64544,19.5555 -45.19943,49.1201 -74.4805,61.0691 -13.89483,-10.5196 -38.916,-30.7436 -19.65844,-48.706 94.67378,-141.8498 225.53994,-254.2712 345.88877,-373.541 48.94291,-42.2822 93.9934,-94.76508 154.45054,-120.16941 3.6383,-0.85506 0.7071,0.258 4.249,-0.31514 z m 257.9287,115.46205 c 30.3951,30.4277 60.7901,60.8553 91.1852,91.283 -40.2576,87.346 -86.7142,173.1583 -123.2363,261.4247 -11.2374,270.2073 -13.696,541.0417 -33.6183,810.7372 6.4615,30.5132 -27.6967,83.3982 -56.2803,46.9672 -19.7656,-51.4431 -9.352,-110.0642 -15.0291,-164.255 -8.8529,-221.462 -12.2384,-443.5253 -33.09,-664.2466 -11.6735,-104.5089 -71.4041,-194.1672 -115.8968,-286.8458 64.9443,-62.0984 129.8893,-124.1962 194.8348,-186.29335 30.3769,30.40955 60.7539,60.81905 91.1308,91.22865 z m 349.6573,361.3719 c 42.1602,19.5082 45.0222,76.7371 43.6922,117.3175 -3.1285,24.8966 0.2686,65.8308 -27.9785,76.8109 -30.7523,-1.6836 -22.6238,-45.429 -26.5916,-65.7889 2.1496,-41.3716 -10.4244,-87.6675 6.2485,-126.6008 1.2593,-1.1404 2.9217,-1.7865 4.6294,-1.7387 z m -905.10325,17.2786 c 20.51417,10.674 9.17682,43.5482 12.01893,61.8333 -5.19459,39.0118 1.95664,86.5615 -25.02675,118.3092 -18.20506,-2.3902 -9.59433,-34.4895 -12.37604,-46.6954 4.65767,-42.8822 -4.39708,-92.5234 19.2114,-130.5457 1.68622,-1.5571 3.79771,-2.9024 6.17246,-2.9014 z m 605.16265,767.2441 c 54.0991,0.3897 121.3291,3.0798 156.3981,50.7925 8.6741,31.3581 -35.1248,48.04 -60.388,42.6313 -42.0321,-4.0993 -98.7726,-0.069 -125.7423,-39.3277 -13.7535,-20.6823 1.8645,-58.8454 29.7322,-54.0961 z"
       id="path2"
       transform="scale(0.26458333)" /><path
       style="fill:#ffffff;fill-opacity:1;stroke-width:5.56391"
       d="m 563.25937,147.28072 c -26.76784,1.2694 -9.46102,35.88078 -1.36924,48.29304 78.16904,107.33478 179.60336,195.35853 270.87436,291.24482 69.11997,66.85164 135.16734,139.10483 208.29601,200.5639 22.4784,-3.1211 45.5932,-31.00079 23.7553,-50.49905 C 955.6064,493.38408 820.75419,371.75908 691.96836,246.25754 c -40.46596,-32.8263 -73.8072,-80.1721 -123.53629,-98.97682 -1.72061,-0.18335 -3.45122,-0.0234 -5.1727,0 z"
       id="path3"
       transform="scale(0.26458333)" /><path
       style="fill:#ffffff;fill-opacity:1;stroke-width:5.56391"
       d="m 1204.9786,298.53877 c -74.0628,6.57083 -148.4335,45.4985 -189.9555,107.82257 -6.4568,40.69869 37.5948,67.98239 58.8353,96.64742 46.0998,44.78404 87.817,99.00795 145.4973,128.68024 63.2007,-36.33282 111.3357,-95.16966 160.5196,-148.18187 23.0793,-20.87491 38.8779,-56.88626 16.3629,-84.08982 -42.7777,-57.66702 -113.8807,-96.54312 -185.5,-101.08501 l -5.5604,0.19933 z"
       id="path4"
       transform="scale(0.26458333)" /><path
       style="fill:#ffffff;fill-opacity:1;stroke-width:5.56391"
       d="m 1880.4835,140.3693 c -56.0622,20.8996 -96.76,70.46342 -142.8479,107.08474 -130.4154,121.80662 -261.8935,244.58126 -372.4554,385.09345 -16.8309,13.96676 -16.7291,49.59907 7.0093,54.63936 94.7345,-69.67121 176.1284,-156.52763 263.1449,-235.57524 86.0894,-86.01729 181.9178,-165.13104 251.3107,-265.95944 9.0734,-12.05356 16.6657,-43.35968 -6.1616,-45.28287 z"
       id="path5"
       transform="scale(0.26458333)" /><path
       style="fill:#ffffff;fill-opacity:1;stroke-width:5.56391"
       d="m 1676.7812,525.62688 c -26.5283,22.82589 -23.1343,66.19411 -30.8841,97.84665 -5.0751,26.74429 -2.6736,57.79695 -15.7028,81.79606 -16.5125,12.39539 -55.007,1.58717 -58.9536,27.25448 11.0335,31.92517 69.1273,24.32944 63.9632,66.48443 12.8197,97.36581 5.4855,197.65568 25.6027,293.7899 3.5482,16.6608 19.8563,7.0721 19.0499,-6.0421 11.9592,-122.52117 7.4429,-246.57923 10.8396,-369.70495 -1.8534,-60.63815 5.22,-122.76015 -3.1892,-182.67652 -2.041,-3.87703 -5.4893,-9.63368 -10.7257,-8.74795 z"
       id="path6"
       transform="scale(0.26458333)" /><path
       style="fill:#ffffff;fill-opacity:1;stroke-width:5.56391"
       d="m 1442.2383,757.18134 c -23.1381,19.55175 -56.9653,54.1032 -29.504,84.33894 17.779,17.57136 34.4117,51.075 62.7353,50.36864 19.5414,-19.6634 4.5809,-54.82401 9.505,-79.57882 -0.7388,-31.03172 -0.6262,-62.93909 -2.3979,-93.38067 -13.4462,12.75064 -26.8923,25.50128 -40.3384,38.25191 z"
       id="path7"
       transform="scale(0.26458333)" /><path
       style="fill:#ffffff;fill-opacity:1;stroke-width:5.56391"
       d="m 1380.0572,965.96939 c -25.7159,-2.26099 -26.4708,29.39048 -13.073,43.90281 93.0095,115.0849 202.0429,216.5932 305.0078,322.7623 75.5318,71.8551 145.4298,151.0729 229.2909,213.3729 15.2466,18.019 53.8839,7.3141 44.1201,-18.713 -43.071,-76.8516 -115.5435,-132.2507 -173.5357,-197.4337 -117.2826,-116.965 -230.8387,-238.3218 -354.9383,-348.05806 -10.8434,-7.71978 -22.8688,-16.44599 -36.8718,-15.83325 z"
       id="path8"
       transform="scale(0.26458333)" /><path
       style="fill:#ffffff;fill-opacity:1;stroke-width:5.56391"
       d="m 1212.8355,993.07174 c -64.9715,58.37966 -126.8435,120.49626 -189.673,181.04456 49.796,104.2554 117.8041,206.2931 119.6055,325.9228 19.3014,254.1496 19.6198,509.4978 37.2274,763.6916 -6.0976,27.0734 34.5198,44.3143 46.6847,19.0933 21.7067,-96.5608 16.3399,-197.3746 23.4195,-295.775 7.2324,-186.7762 12.7456,-373.6133 18.9075,-560.4266 40.761,-86.0048 82.0725,-171.9292 122.4931,-257.9831 -59.5649,-58.3932 -116.8206,-119.8424 -178.6647,-175.56756 z"
       id="path9"
       transform="scale(0.26458333)" /><path
       style="fill:#ffffff;fill-opacity:1;stroke-width:5.56391"
       d="m 1653.6887,1443.5641 c -14.5342,16.0754 -2.7904,46.0339 -6.5533,66.103 3.4918,37.3281 -3.3237,78.6789 9.2266,113.9417 22.7569,15.3734 36.8119,-21.9251 37.2956,-39.5885 4.2633,-46.002 4.2102,-102.3876 -29.906,-137.5439 -2.9745,-1.91 -6.4989,-3.1232 -10.0629,-2.9123 z"
       id="path10"
       transform="scale(0.26458333)" /><path
       style="fill:#ffffff;fill-opacity:1;stroke-width:5.56391"
       d="m 1357.9537,2228.565 c -21.7816,-3.8418 -41.0715,14.6344 -33.0792,36.6218 14.5121,44.3928 71.1344,43.8649 109.4297,46.2775 23.892,0.3789 66.5505,4.6648 73.4513,-26.217 -9.5194,-47.045 -69.5349,-51.5991 -108.1485,-55.6065 -13.8643,-0.8151 -27.7629,-1.5137 -41.6533,-1.0758 z"
       id="path11"
       transform="scale(0.26458333)" /><path
       style="fill:#ffffff;fill-opacity:1;stroke-width:1.39098"
       d="m 1045.2579,961.60629 c -24.3025,8.75019 -45.04,25.27939 -65.34068,40.87361 -67.8341,54.5429 -128.76158,116.9829 -191.65761,177.0034 -71.7539,69.714 -141.07479,142.2167 -204.26865,219.8326 -16.03721,21.2358 -34.24281,41.7846 -44.46244,66.6424 -4.59874,11.8199 5.76761,22.6999 13.24418,30.6124 5.64503,6.7027 15.937,6.4798 21.89161,0.2418 48.57933,-41.3663 93.70537,-86.6165 139.80276,-130.6937 111.63402,-109.1506 222.46287,-219.2221 329.25753,-333.1321 10.7592,-12.7617 23.912,-24.0614 32.0995,-38.71958 1.9878,-9.13808 -6.3506,-16.69207 -11.8722,-22.92942 -5.2373,-4.4297 -11.4777,-9.62259 -18.694,-9.73141 z"
       id="path12"
       transform="scale(0.26458333)" /><path
       style="fill:#ffffff;fill-opacity:1;stroke-width:1.39098"
       d="m 747.4934,1457.0663 c -8.26121,2.8072 -9.33137,13.7781 -12.65193,20.699 -10.12754,34.8746 -8.27606,71.7598 -9.93211,107.6812 0.73258,15.3587 -2.4283,32.3124 4.89524,46.462 2.37343,4.9661 8.45366,3.4991 10.18512,-1.1437 14.44925,-22.4524 15.26269,-50.3792 18.28022,-76.1295 1.56685,-28.9078 5.65045,-58.4867 -0.29802,-87.1231 -1.26769,-4.9789 -4.57368,-10.7626 -10.47852,-10.4459 z"
       id="path13"
       transform="scale(0.26458333)" /><path
       style="fill:#ffffff;fill-opacity:1;stroke-width:1.39098"
       d="m 734.98002,520.86985 c -6.58653,2.96548 -6.05124,12.62125 -7.80524,18.56902 -5.95442,54.00921 -4.48447,108.51791 -5.59293,162.76862 -0.34058,115.37757 -2.36905,230.82898 2.03399,346.15291 1.81194,19.6425 0.83534,40.3946 8.42737,58.9319 2.29345,5.4063 8.89723,6.6523 12.81222,2.1408 16.26973,-11.7838 18.56281,-33.5614 23.43201,-51.5396 7.83522,-38.1507 5.65903,-77.42598 7.45385,-116.12583 2.04207,-48.8584 -2.35467,-98.38845 6.70587,-146.70662 2.12854,-13.4006 10.01545,-26.35616 23.51352,-30.66672 16.2738,-5.78617 33.79043,-13.84808 43.20727,-29.01223 3.6177,-12.78409 -11.14208,-21.95231 -22.23664,-22.80987 -14.49993,-3.07551 -34.37378,0.3703 -43.03883,-14.6732 -8.8694,-17.76038 -5.98521,-38.73023 -7.95587,-57.98276 -1.87657,-36.58143 -6.60685,-74.87128 -25.78895,-106.83189 -3.6899,-5.02138 -8.50216,-11.55643 -15.16764,-12.21453 z"
       id="path14"
       transform="scale(0.26458333)" /><path
       style="fill:#ffffff;fill-opacity:1;stroke-width:1.39098"
       d="m 927.22032,705.35381 c 1.03154,51.73478 -0.42154,103.57401 2.5456,155.24082 2.58634,12.24677 3.28391,28.74368 15.94735,35.12492 13.66808,3.08371 25.33164,-8.52663 35.09504,-16.33585 17.82132,-16.73348 38.84949,-37.1295 36.77129,-63.74051 -3.4591,-28.4764 -26.25087,-49.14603 -45.40254,-68.34813 -14.83062,-13.98674 -29.75605,-29.16447 -44.95674,-41.94125 z"
       id="path15"
       transform="scale(0.26458333)" /><path
       style="fill:#ffffff;fill-opacity:1;stroke-width:1.39098"
       d="m 1205.6144,692.43836 c -31.1908,1.99895 -58.3684,21.11519 -80.8344,41.49028 -22.3647,21.8566 -43.9575,48.75166 -46.9754,80.9756 -1.7277,50.55951 37.0225,94.99571 82.8432,111.66944 28.4021,10.94056 60.5808,12.30604 89.1627,1.20357 28.9149,-9.14048 52.1214,-32.10529 62.8793,-60.29565 10.5217,-23.4371 8.5936,-49.99348 7.2999,-74.97701 -4.3509,-31.66256 -22.558,-61.39371 -50.3822,-77.66387 -19.4224,-11.14145 -41.1355,-22.08553 -63.9931,-22.40236 z"
       id="path16"
       transform="scale(0.26458333)" /><path
       style="fill:#ffffff;fill-opacity:1;stroke-width:0.245893"
       d="m 859.93345,917.16591 c -2.10025,0.3714 -3.16592,2.4793 -3.31151,4.43636 -2.23114,14.38931 -1.73847,29.01572 -1.38885,43.52032 0.22706,4.14596 0.43337,8.34906 1.38658,12.39939 1.08235,2.57835 2.98322,4.76978 4.98508,6.68376 0.9192,-0.15753 1.13742,-1.51457 1.59328,-2.23496 2.98804,-7.86848 4.54435,-16.2593 4.68847,-24.67322 0.2513,-8.995 -0.11367,-18.07764 -1.87585,-26.91972 -1.04011,-4.43684 -2.59315,-8.8518 -5.08834,-12.68316 -0.2477,-0.28758 -0.58716,-0.55585 -0.98886,-0.52877 z"
       id="path17"
       transform="scale(0.26458333)" /><path
       style="fill:#ffffff;fill-opacity:1;stroke-width:0.245893"
       d="m 1557.695,915.77845 c -1.4662,1.06088 -1.998,3.05707 -2.8883,4.58153 -1.9185,3.7359 -2.9309,7.86698 -2.9996,12.06438 -0.7024,11.50142 -0.5741,23.04557 -0.1081,34.55341 0.6225,5.97265 2.5428,11.77083 5.0451,17.20828 1.0429,0.33343 1.1043,-1.87386 1.6938,-2.58427 4.5792,-11.03601 5.9116,-23.16458 5.3858,-35.02922 -0.1371,-10.39149 -2.0306,-20.77931 -5.6965,-30.50452 -0.077,-0.1652 -0.2286,-0.33198 -0.4322,-0.28959 z"
       id="path18"
       transform="scale(0.26458333)" /></g></svg>
