<?xml version="1.0" encoding="UTF-8" standalone="no"?>
<!-- Created with Inkscape (http://www.inkscape.org/) -->

<svg
   width="640mm"
   height="640mm"
   viewBox="0 0 640 640"
   version="1.1"
   id="svg1"
   xml:space="preserve"
   inkscape:version="1.4.2 (f4327f4, 2025-05-13)"
   sodipodi:docname="T_map_truck_artillery.svg"
   xmlns:inkscape="http://www.inkscape.org/namespaces/inkscape"
   xmlns:sodipodi="http://sodipodi.sourceforge.net/DTD/sodipodi-0.dtd"
   xmlns="http://www.w3.org/2000/svg"
   xmlns:svg="http://www.w3.org/2000/svg"><sodipodi:namedview
     id="namedview1"
     pagecolor="#ffffff"
     bordercolor="#000000"
     borderopacity="0.25"
     inkscape:showpageshadow="2"
     inkscape:pageopacity="0.0"
     inkscape:pagecheckerboard="true"
     inkscape:deskcolor="#d1d1d1"
     inkscape:document-units="mm"
     inkscape:zoom="0.089864794"
     inkscape:cx="-289.32354"
     inkscape:cy="923.60975"
     inkscape:window-width="1278"
     inkscape:window-height="1000"
     inkscape:window-x="1273"
     inkscape:window-y="0"
     inkscape:window-maximized="0"
     inkscape:current-layer="layer1" /><defs
     id="defs1" /><g
     inkscape:label="Calque 1"
     inkscape:groupmode="layer"
     id="layer1"><path
       style="fill:#585858;fill-opacity:1;stroke-width:1.73099"
       d="m 285.63321,61.653146 c -8.32534,10.457087 -14.97812,22.210737 -24.7057,31.763607 -26.11515,3.1003 -52.85189,1.4338 -79.11137,2.46412 -1.93265,8.443867 1.13069,21.077257 -3.76388,27.039217 -14.62751,-2.29764 -19.08097,3.58009 -16.03606,15.24812 0.0688,40.74223 -0.13747,81.58046 0.10318,122.26271 6.33776,-0.10016 19.4776,-1.35356 18.08364,7.25583 0.88515,11.54975 -0.13263,23.12652 -0.26885,34.68392 -13.09845,-1.09415 -22.34997,0.98809 -17.91792,13.76062 0.0687,78.34753 -0.13749,156.79105 0.10317,235.07859 9.97285,-1.60891 19.65132,1.10372 25.57124,8.22098 11.68024,8.0053 20.21562,24.36446 38.03459,22.36022 73.19684,0.42354 146.41484,-0.0756 219.60032,-0.27622 12.49244,-9.55171 21.87195,-22.76286 36.5135,-30.01637 5.45159,-1.65375 17.20525,3.26878 14.15386,-5.14237 -0.0638,-80.99722 0.12758,-162.07895 -0.0958,-243.02337 -14.46146,1.70078 -21.54481,-2.56794 -18.2263,-15.25862 0.80609,-8.38181 -2.4846,-18.20182 2.0652,-25.89909 5.2686,-4.23707 19.10505,2.45098 16.25689,-6.59788 -0.0638,-43.92159 0.12758,-87.92767 -0.0958,-131.79646 -13.58154,1.34404 -21.78277,-1.81961 -18.76132,-14.39371 2.95695,-12.415997 -4.13737,-16.196597 -18.00887,-13.927197 -20.72722,-0.41559 -41.45441,-0.83221 -62.18161,-1.24856 -8.93643,-9.25574 -14.04081,-20.95318 -23.01891,-29.976031 -17.29452,-5.152223 -36.64576,-1.396663 -54.68552,-2.586902 -11.20256,0.0017 -22.40507,0.0032 -33.60763,0.0049 z m 42.26272,19.250577 c 11.03349,0.75217 23.37904,-1.13957 33.79175,1.69447 8.5637,9.54285 15.5236,20.067547 23.28408,30.059827 21.61649,0.95568 43.82007,-1.92896 65.11216,1.60446 9.40551,4.54862 3.22958,16.45525 5.15992,23.58917 -1.86934,10.29663 24.25657,-0.60293 16.97136,13.72337 0,30.14051 0,60.28102 0,90.42152 -12.85338,-0.77761 -21.12463,2.22001 -17.85719,14.34696 -0.32319,7.7378 1.54061,17.08052 -10.83723,15.0115 -7.5284,1.9576 -4.32611,11.48352 -5.42508,16.56612 -0.33235,7.03029 10.24771,6.23309 15.69337,5.87788 2.51388,8.47584 0.55206,18.0495 3.59093,26.15881 5.32945,2.99005 17.65547,-2.03289 14.88581,6.40838 0.31783,29.86952 0.63331,59.73908 0.9475,89.60863 -5.98007,0.0337 -17.58355,-1.92817 -17.48699,6.0765 -2.12858,6.13314 -2.40496,17.14246 8.23525,17.04716 13.73179,-3.21155 6.55905,10.78479 8.25363,17.56851 0,25.36847 0,50.73695 0,76.10541 -8.12653,-0.51551 -20.37501,1.67394 -18.00998,10.88063 -2.67951,8.07727 -12.34764,14.46335 -19.77045,18.50574 -71.02713,0 -142.05425,0 -213.08136,0 -8.0036,-7.08394 -18.74563,-14.01533 -18.55507,-24.67227 -3.90879,-7.4529 -21.40762,-0.0194 -17.00453,-11.06994 0,-29.07706 0,-58.15412 0,-87.2312 6.61275,0.70815 16.61976,0.15964 16.12798,-7.55374 2.10671,-5.89415 1.72288,-15.68342 -8.02164,-15.80888 -14.49549,1.93865 -5.75477,-13.9114 -8.10634,-21.29263 0,-24.31225 0,-48.62451 0,-72.9368 12.84496,0.77719 21.12524,-2.21998 17.9124,-14.34411 -0.46307,-8.04232 -0.001,-14.74006 11.05827,-13.58365 9.17415,-2.80416 3.98664,-13.59437 3.63882,-19.49574 -2.13069,-6.56611 -17.27539,0.81237 -13.97857,-8.34144 -1.99568,-6.9655 2.5209,-17.28105 -4.81959,-22.49425 -5.3168,-2.29618 -16.69882,1.91864 -13.81133,-6.11065 0,-31.19567 0,-62.39135 0,-93.58702 13.09777,1.09434 22.34516,-0.98996 17.91423,-13.76062 1.31565,-4.9237 -3.43217,-16.96628 6.5521,-16.62817 20.96522,-0.95735 42.00241,-0.42284 62.96496,-0.62999 7.81266,-10.5804 15.62681,-21.159977 23.44246,-31.738777 10.40945,0.009 20.81891,0.0165 31.22837,0.0248 z"
       id="path1" /><path
       style="fill:#585858;fill-opacity:1;stroke-width:1.73099"
       d="m 368.57097,240.54701 c -9.6744,1.16602 -21.51225,-1.89372 -30.24501,2.21274 -1.09843,13.01246 0.16638,26.26336 0.49722,39.25839 19.93219,-0.99706 40.62213,1.94376 60.17694,-1.48034 5.72346,-2.91917 3.69815,-10.00033 9.18543,-12.44166 1.09051,-3.40814 3.19141,-6.07633 5.80447,-8.32027 0.64249,-6.77547 7.67401,-12.57388 9.25543,-18.57714 -18.18679,-0.92071 -36.45834,-0.56919 -54.67448,-0.65172 z"
       id="path2" /><path
       style="fill:#585858;fill-opacity:1;stroke-width:1.73099"
       d="m 245.9226,240.86977 c -5.06072,0.81995 -12.66078,-0.97729 -16.77252,1.55791 6.37456,10.35345 12.19354,20.87422 18.8976,31.07776 1.92136,7.24129 10.23192,9.35874 18.04627,8.42696 16.7184,0.11048 33.55708,0.16868 50.20017,-0.004 -0.45565,-13.52151 -0.64543,-27.14213 -1.27064,-40.60219 -23.03297,-0.16008 -46.06663,-0.64155 -69.10088,-0.45621 z"
       id="path3" /><path
       style="fill:#585858;fill-opacity:1;stroke-width:1.73099"
       d="m 319.57939,107.08401 c -5.69487,-0.40088 -12.92299,0.18949 -13.72294,6.11686 -5.44163,7.77677 -12.34807,14.66477 -17.14819,22.72642 -15.80095,18.59813 -30.48119,38.18985 -44.45778,57.70827 9.11553,0.77828 21.1147,3.38067 28.86018,-1.96137 8.07015,-9.67679 15.54266,-19.72064 23.30618,-29.62533 8.32172,-11.91216 17.12778,-24.08068 28.43296,-34.08808 9.42146,2.97253 12.41973,13.50906 19.15695,19.23726 11.80746,15.78495 25.17404,30.85488 37.11966,46.63304 8.96288,-0.18184 18.66775,1.59045 27.33905,-0.0528 -5.9158,-10.71089 -15.26027,-20.04453 -22.48484,-30.06603 -12.77651,-13.94598 -22.82156,-29.95971 -35.8653,-43.67456 -2.72707,-8.29568 -12.77097,-14.84393 -23.35034,-12.96722 -2.39527,-0.022 -4.7904,-0.001 -7.18559,0.0135 z"
       id="path4" /><path
       style="fill:#585858;fill-opacity:1;stroke-width:1.73099"
       d="m 372.43447,312.23002 c 1.76098,9.02854 -0.72248,18.14071 -9.77148,23.82085 -44.85573,39.45181 -89.28979,79.60042 -133.7302,119.16347 17.94979,-0.70731 37.90218,0.87108 54.87336,-1.43069 -4.72165,0.13649 -12.23339,-2.56764 -7.89271,-7.30234 14.52652,-17.34559 33.97595,-31.42192 50.45005,-47.38007 6.88513,-3.41756 6.35613,7.667 12.86851,7.85478 3.34741,2.49359 6.58753,4.4803 11.80409,3.73653 12.08959,-2.77749 18.71787,4.61767 25.52503,11.78284 7.78928,9.357 22.14881,15.92734 25.48854,27.44139 0.74829,2.61948 -7.23156,4.77945 -0.79185,5.02757 5.47144,-0.75269 25.88961,3.01474 19.99153,-2.07239 -17.36947,-14.01073 -32.79133,-29.54924 -49.37839,-44.25251 -4.43247,-3.57329 -6.8414,-8.44887 -3.25948,-13.09338 3.23777,-9.81727 -11.78857,-13.72481 -13.68245,-21.5533 4.57031,-5.33765 11.28739,-9.83598 15.13356,-15.42405 6.34935,-0.10384 5.0127,-7.48969 10.09517,-9.82547 4.16361,-3.03697 4.97664,-9.53025 12.18344,-7.91374 3.92019,1.1375 9.69145,-2.18536 4.18394,-3.98479 -8.16788,-8.07764 -14.2409,-17.92675 -24.09066,-24.5947 z"
       id="path6" /><path
       style="fill:#ffffff;fill-opacity:1;stroke-width:1.73098"
       d="m 315.07429,80.180383 c -13.54375,-1.21467 -26.47662,4.6064 -32.36819,15.04346 -5.08593,8.987737 -14.2545,16.786477 -26.95428,16.037387 -17.92457,1.20731 -36.00465,1.52475 -53.88265,2.55722 -1.69717,8.30769 1.7057,19.85942 -2.88071,26.32806 -8.00938,1.18676 -16.42558,5.71036 -14.35584,13.65032 -0.55294,26.93397 -2.58474,54.18739 1.39955,80.95918 0.7263,6.64076 11.6077,2.55327 13.14471,9.00616 4.773,7.08068 -0.60628,17.46178 6.31271,23.32535 7.54093,0.84595 12.72354,5.61606 12.29393,12.18409 2.18774,7.1634 -3.5401,14.87173 -12.79483,14.48991 -5.82805,5.72904 -0.53953,15.44995 -5.76024,21.92261 -2.37277,5.98755 -13.5406,1.98087 -13.85554,9.09926 -0.53041,28.01978 -0.86022,56.39647 2.50446,84.23019 4.33638,5.25461 14.74664,7.3726 11.95877,15.60405 1.25493,6.91932 -4.23463,13.16672 -12.35286,13.97476 -6.36879,13.95607 -3.20799,30.01128 -4.11186,44.74507 1.12237,15.07818 -0.77395,30.93187 3.77302,45.5585 3.27642,4.05545 11.64481,1.02165 12.97899,6.90513 3.96051,8.46121 9.90626,18.32469 18.94915,22.69541 72.06949,-0.0186 144.15797,0.0372 216.21561,-0.0279 9.02333,-6.50009 14.01227,-15.48723 18.38197,-24.38986 5.35696,-3.91919 16.4553,-4.55343 14.1996,-12.89672 0.7427,-26.78898 3.94215,-54.0795 -1.28691,-80.62204 -3.00734,-4.70788 -12.70707,-3.08511 -14.23487,-9.40028 -3.16052,-7.76047 1.84039,-18.58339 12.05821,-19.73784 6.88646,-11.29386 2.92876,-25.29508 4.33492,-37.59495 -0.9226,-16.94129 1.70347,-34.55946 -2.33874,-51.15383 -3.54538,-4.86681 -14.69407,-3.34437 -13.47987,-11.1227 -1.44269,-5.56866 2.46499,-16.18643 -5.9039,-18.5709 -13.75917,0.78612 -15.93289,-15.88558 -8.27206,-22.52781 5.42878,-2.89194 14.57887,-2.05635 11.65394,-9.95102 1.37022,-7.01565 -1.94416,-18.39232 9.16986,-20.7605 12.5651,-3.92617 6.92491,-16.85134 8.80613,-25.21227 -0.067,-22.46653 1.94573,-45.27678 -1.52106,-67.54925 -3.0102,-6.57997 -16.96499,-5.7003 -14.44117,-14.73509 0.59594,-6.21099 0.32078,-12.55507 -1.88937,-18.51816 -22.40605,-1.27385 -45.33728,-1.1656 -67.4104,-3.91343 -12.68636,-8.63724 -15.56679,-28.593207 -35.01083,-28.855687 -10.98567,-0.63541 -22.02022,-0.7589 -33.02935,-0.77585 z m 11.29951,25.823637 c 19.19891,-0.60356 26.16156,17.56605 36.41039,27.84397 15.46705,19.64047 32.81364,38.82061 46.25141,59.27551 -7.69042,3.93186 -19.24659,3.06594 -27.16231,-0.3631 -21.49908,-19.43089 -35.25645,-44.49321 -57.01688,-63.66997 -19.0689,20.45504 -33.3338,44.11243 -53.98948,63.41549 -8.62362,3.84368 -20.03057,4.25474 -29.33527,2.74343 21.51743,-28.683 42.52052,-57.86926 66.40493,-85.17673 4.64069,-4.0391 12.26563,-3.8233 18.43721,-4.0686 z m -9.62373,133.11231 c 0,15.30198 0,30.60395 0,45.90593 -20.61358,-0.88498 -41.86954,1.73212 -62.15474,-1.36242 -11.16194,-12.71079 -18.06018,-28.23679 -27.19543,-42.14767 -2.55873,-4.61081 11.04134,-0.79571 14.12419,-2.22304 25.0735,-0.29731 50.15092,-0.12723 75.22598,-0.1728 z m 64.21719,0 c 14.4876,0.55224 31.86957,-0.88059 44.93288,1.16068 -8.91523,15.14044 -17.99965,30.24473 -28.32979,44.74525 -20.58565,0 -41.1713,0 -61.75695,0 0,-15.30198 0,-30.60395 0,-45.90593 15.0513,0 30.10256,0 45.15386,0 z m -7.20396,73.18197 c 10.50348,6.54492 18.19674,16.71208 23.95435,26.48469 -0.52295,4.53393 -9.20589,3.03434 -11.0685,7.54645 -10.36861,8.83549 -20.12612,18.43412 -26.9403,29.50227 12.09001,10.54492 10.26893,26.70218 22.31911,37.24429 14.29884,15.35805 30.70598,29.20574 46.21091,43.68385 -9.36752,-2.57975 -28.10108,4.14529 -30.25911,-5.59251 -5.74784,-15.80583 -21.95934,-27.76297 -38.21197,-36.15481 -10.58185,-2.9509 -21.87346,-5.41656 -29.72202,-12.63408 -20.09239,13.04444 -37.51082,29.29376 -52.86243,46.19455 0.57616,3.18756 13.96276,4.57885 6.11014,6.68788 -19.62048,1.90761 -39.49298,1.02916 -59.21935,1.36863 49.02081,-44.06845 99.84534,-87.06945 143.60478,-134.99609 3.91551,-2.22335 2.67135,-7.48175 5.7271,-9.38789 z"
       id="path8" /><path
       style="fill:#1d1d1d;fill-opacity:1;stroke-width:1.22399"
       d="m 285.80957,61.66125 c -8.43938,11.232793 -15.77976,23.235893 -26.49342,33.103373 -25.80569,0.78146 -51.9265,-0.4487 -77.54539,1.96843 -1.34204,8.141887 1.15079,17.570867 -3.07307,25.087017 -5.05516,1.49804 -11.77846,-0.42223 -15.10749,4.4306 -4.72001,5.21541 0.1684,12.47216 -1.25334,18.42868 0.79554,38.31991 0.24808,76.73924 0.56841,115.00304 6.36222,-0.0601 18.16215,0.23689 17.27948,7.92198 0.80898,11.52567 0.0459,23.0754 -0.33335,34.60219 -5.72011,0.051 -13.27825,-0.20622 -17.27426,3.81178 -0.45913,81.5415 0.0645,163.18228 0.41928,244.66651 16.95392,-2.08158 27.71844,11.13625 38.03882,20.10674 6.46312,6.3946 15.32462,12.10764 25.94566,10.47688 71.57926,0.26033 143.19756,0.61317 214.75232,-1.04586 8.59298,0.51113 12.0436,-8.00513 17.84509,-11.86361 9.14437,-8.32219 19.59286,-19.74607 34.85844,-17.67635 3.03023,-4.28125 0.29687,-13.20058 1.20165,-19.18608 -0.2685,-75.95582 -0.27701,-152.00167 -0.71465,-227.90091 -6.86217,0.69348 -18.4321,-0.50062 -17.62324,-8.38065 3e-5,-10.84938 -1.15337,-22.24912 2.1225,-32.75664 3.96541,-4.03339 14.34093,1.54763 15.32626,-5.30617 1.91774,-25.49267 -0.14834,-51.1456 0.36533,-76.6962 -0.1471,-18.48473 0.0459,-37.04424 -0.18042,-55.4825 -7.11868,-0.28592 -18.40088,-1.45518 -18.17536,-9.49321 -0.80876,-6.1694 3.25073,-14.95109 -3.96893,-19.232217 -25.65592,-1.64431 -51.49615,-0.40075 -77.14954,-2.45998 -8.19326,-9.79066 -13.23534,-22.15845 -24.37875,-29.89508 -21.18258,-3.146861 -43.07628,-1.235289 -64.52289,-2.093156 -6.97153,-0.03127 -13.97976,-0.178518 -20.92914,-0.138607 z m 40.83009,18.922793 c 11.08331,0.61425 22.87625,-0.84499 33.5511,1.8587 9.64712,7.79491 15.58966,18.210007 23.38131,27.244177 22.39808,2.63507 45.34572,1.68426 67.59179,4.65225 7.38627,6.0428 2.82845,15.56056 4.37001,22.97376 2.60051,4.57248 8.66524,5.72512 14.00847,5.95356 4.67348,5.05924 1.99677,12.81893 3.02301,18.80633 0.0274,26.86203 -0.38385,53.72334 -0.54633,80.58498 -6.75398,-0.69598 -18.24077,0.19431 -17.56596,8.11732 -1.36499,6.51482 2.25855,15.06706 -3.72152,20.26357 -3.90243,1.324 -10.57385,-0.1317 -11.17499,4.95069 -1.17794,4.94592 -0.65272,10.09197 -0.66411,15.06496 5.15151,2.28943 15.4375,0.0954 15.87052,7.01347 2.46418,6.21899 -1.01021,13.80849 3.14079,19.39682 4.18979,2.53622 9.46634,3.14983 14.29496,4.34503 0.61019,31.18833 1.11122,62.3781 1.66155,93.56721 -6.53839,0.46968 -17.82988,-0.008 -18.24047,7.78372 -2.1073,5.73479 -0.0648,13.3282 7.94571,14.57779 4.88434,0.51821 11.20637,2.40492 8.92227,7.86273 0.25623,28.86177 -0.24421,57.72335 -0.42449,86.58448 -6.22347,1.55186 -18.86794,1.51259 -17.32113,9.74995 -2.66785,9.41749 -12.48006,16.94344 -22.21201,20.93731 -70.16827,0 -140.33658,0 -210.50485,0 -9.80272,-7.36994 -16.98238,-16.56794 -22.6964,-26.41026 -3.06052,-4.79544 -12.799,-0.5313 -13.8939,-6.65361 -2.06236,-26.91972 -2.97471,-54.07369 -1.14328,-81.0325 0.53291,-4.69312 1.15858,-10.8073 7.97694,-11.76445 7.1291,-3.73108 9.37103,-12.9849 5.7607,-19.11592 -2.78504,-4.05764 -13.03329,0.0568 -11.82869,-6.42757 -1.00127,-28.64629 -2.19363,-57.40021 -0.66258,-86.0248 -0.13229,-7.28623 11.99042,-5.00009 14.21271,-11.30372 4.23675,-6.25171 -1.24498,-15.80204 6.0159,-20.57521 9.14099,-0.83635 14.16595,-9.42784 11.45889,-16.48916 -0.5786,-4.86538 -6.37582,-6.73565 -11.38596,-6.66895 -4.91796,-5.81177 -2.8075,-14.21928 -5.1565,-20.9439 0.32347,-4.5009 -3.6355,-7.42836 -8.87283,-7.02664 -8.49832,1.76441 -5.60603,-6.72947 -6.88314,-11.18075 -0.84686,-27.9913 -1.90187,-56.14105 0.22658,-84.06962 1.68727,-5.21189 9.27507,-5.24763 13.70899,-7.50504 3.5936,-8.18676 1.94626,-17.37893 3.15119,-25.94286 20.92556,-2.40676 42.42393,-0.68166 63.13843,-4.12777 14.9701,-5.19803 18.65864,-20.341767 31.26112,-28.037517 7.81631,-2.55827 17.95738,-0.29053 26.66329,-1.00208 1.18763,0.004 2.37527,0.009 3.56291,0.0135 z"
       id="path5" /><path
       style="fill:#1d1d1d;fill-opacity:1;stroke-width:1.22399"
       d="m 325.44429,107.38713 c -6.21473,1.22318 -15.67471,-1.7961 -18.23109,4.78855 -20.64886,26.78035 -42.90392,53.0259 -61.66334,80.64822 6.4275,2.55865 14.51482,1.33242 21.36299,0.50472 11.23085,-4.88932 15.74309,-16.15137 23.28123,-24.13895 11.31721,-13.2393 20.09917,-28.37225 33.64076,-40.0862 5.99783,-1.64986 9.36859,5.51662 12.66206,8.53643 14.8536,18.03996 28.17642,37.21086 45.2053,53.85197 6.89267,3.48457 16.02935,3.07685 23.80842,2.4534 2.73134,-2.61095 -2.47732,-6.54132 -3.4637,-9.17503 -18.34999,-23.61763 -37.47493,-46.86019 -56.14072,-70.28624 -4.91932,-5.63577 -12.27254,-8.08516 -20.46191,-7.09687 z"
       id="path7" /><path
       style="fill:#1d1d1d;fill-opacity:1;stroke-width:1.22399"
       d="m 379.4,240.59062 c -12.99721,0.4561 -26.50661,-0.45898 -39.19978,1.59318 -2.76289,12.96898 -0.82204,26.55407 -1.28654,39.64723 19.49308,-0.75102 39.352,1.18865 58.63302,-1.61951 6.61634,-2.04952 5.67748,-9.49296 10.61249,-13.14699 5.43343,-8.1684 10.27917,-16.76626 14.5137,-25.32181 -14.40592,-0.88717 -28.82755,-1.31591 -43.27289,-1.1521 z"
       id="path9" /><path
       style="fill:#1d1d1d;fill-opacity:1;stroke-width:1.22399"
       d="m 264.72263,241.54961 c -11.25905,0.4824 -23.62479,-0.61856 -34.38184,0.99848 6.24404,12.62251 13.22993,25.36019 22.70681,36.50916 7.85835,4.67547 18.82701,1.94673 27.81903,3.02177 11.94169,-0.003 24.00983,0.17184 35.87151,-0.0177 -1.74393,-13.45116 -1.72415,-27.07319 -1.82557,-40.52722 -16.73,0.008 -33.45999,-0.0165 -50.18994,0.0153 z"
       id="path10" /><path
       style="fill:#1d1d1d;fill-opacity:1;stroke-width:1.22399"
       d="m 374.52999,313.89205 c -2.3284,4.07661 -0.18505,9.93984 -4.32835,13.79215 -17.6167,19.73723 -39.75283,36.2903 -59.31013,54.64636 -27.1229,24.26671 -54.72323,48.49752 -81.46483,72.85156 16.09311,-0.67752 32.89154,1.18803 48.59349,-1.9465 -1.41184,-1.08398 -4.56859,-2.56836 -2.77879,-4.95068 10.37549,-15.2479 26.91118,-26.85523 40.59049,-39.97204 4.82802,-2.53822 8.18018,-10.82634 14.97728,-9.49541 3.00345,3.45772 5.76475,7.42988 10.71403,9.43836 8.28887,4.04884 19.7857,-0.32443 26.82943,6.37052 10.52417,10.2291 22.46172,19.59665 31.65514,30.72238 2.72994,2.69569 1.40545,6.00606 0.98703,8.88535 6.51751,1.23826 14.3116,1.36995 20.6885,0.0197 -14.68295,-14.25148 -30.93486,-27.64866 -45.85737,-41.85191 -6.99234,-4.75994 -10.91142,-10.3856 -7.87573,-17.96646 3.14461,-7.85772 -8.12278,-11.61028 -11.79088,-17.84783 -3.37937,-3.74777 4.59132,-6.98714 6.12268,-10.12523 5.39371,-5.7692 12.8868,-9.80888 16.52946,-16.69541 3.80327,-4.7404 8.53983,-10.33591 16.25598,-9.48445 4.84143,-0.75599 -2.02504,-5.08185 -2.42198,-6.86865 -5.80271,-6.54301 -11.03417,-14.01148 -18.11545,-19.52187 z"
       id="path11" /></g></svg>
