<?xml version="1.0" encoding="UTF-8" standalone="no"?>
<!-- Created with Inkscape (http://www.inkscape.org/) -->

<svg
   width="640mm"
   height="640mm"
   viewBox="0 0 640 640"
   version="1.1"
   id="svg1"
   xml:space="preserve"
   inkscape:version="1.4.2 (f4327f4, 2025-05-13)"
   sodipodi:docname="T_map_wheeledrecon.svg"
   xmlns:inkscape="http://www.inkscape.org/namespaces/inkscape"
   xmlns:sodipodi="http://sodipodi.sourceforge.net/DTD/sodipodi-0.dtd"
   xmlns="http://www.w3.org/2000/svg"
   xmlns:svg="http://www.w3.org/2000/svg"><sodipodi:namedview
     id="namedview1"
     pagecolor="#ffffff"
     bordercolor="#000000"
     borderopacity="0.25"
     inkscape:showpageshadow="2"
     inkscape:pageopacity="0.0"
     inkscape:pagecheckerboard="true"
     inkscape:deskcolor="#d1d1d1"
     inkscape:document-units="mm"
     inkscape:zoom="0.17972959"
     inkscape:cx="1224.0611"
     inkscape:cy="1096.0911"
     inkscape:window-width="1278"
     inkscape:window-height="1000"
     inkscape:window-x="1266"
     inkscape:window-y="0"
     inkscape:window-maximized="0"
     inkscape:current-layer="layer1" /><defs
     id="defs1" /><g
     inkscape:label="Calque 1"
     inkscape:groupmode="layer"
     id="layer1"><path
       style="fill:#000000"
       d="m 225.84939,613.58579 c 0,-4.11952 -8.14165,-16.50186 -18.09254,-27.51632 -15.19848,-16.8229 -21.20049,-20.02628 -37.52225,-20.02628 H 150.8049 V 375.93047 185.81775 h 12.50741 c 11.97615,0 12.50742,-1.29804 12.50742,-30.55916 0,-29.14413 1.15829,-32.01481 25.01483,-61.995721 20.85704,-26.211406 25.01483,-34.852773 25.01483,-51.989788 V 20.719856 h 97.55783 97.55784 v 20.553225 c 0,17.137015 4.15778,25.778382 25.01483,51.989788 23.85653,29.980911 25.01483,32.851591 25.01483,61.995721 0,29.26112 0.53126,30.55916 12.50741,30.55916 h 12.50742 v 190.11272 190.11272 h -19.42971 c -16.32176,0 -22.32376,3.20338 -37.52224,20.02628 -9.9509,11.01446 -18.09254,23.3968 -18.09254,27.51632 0,6.39533 -14.25851,7.49003 -97.55784,7.49003 -83.29933,0 -97.55783,-1.0947 -97.55783,-7.49003 z m 195.30367,-42.43204 c 16.39709,-18.29339 25.97868,-24.93582 36.0835,-25.01483 l 13.75816,-0.10759 V 496.00166 445.972 h -15.0089 c -11.67359,0 -15.0089,-2.22354 -15.0089,-10.00593 0,-7.78239 3.33531,-10.00593 15.0089,-10.00593 h 15.0089 v -50.02967 c 0,-30.0178 -2.00119,-50.02966 -5.00297,-50.02966 -2.75163,0 -5.00296,-4.50267 -5.00296,-10.00594 0,-5.50326 2.25133,-10.00593 5.00296,-10.00593 3.00178,0 5.00297,-20.01186 5.00297,-50.02966 0,-46.69436 -0.66707,-50.02967 -10.00593,-50.02967 -9.06855,0 -10.00594,-3.33531 -10.00594,-35.60187 0,-35.14284 -0.32253,-36.01229 -25.01483,-67.43265 C 410.98,83.723184 400.95319,65.907865 400.95319,58.349503 V 45.734688 h -77.54597 -77.54597 v 13.088528 c 0,8.126819 -9.48283,25.155203 -25.01483,44.919304 -24.62048,31.32897 -25.01483,32.38455 -25.01483,66.95893 0,31.79285 -0.95003,35.12816 -10.00593,35.12816 -9.33887,0 -10.00593,3.33531 -10.00593,50.02967 0,30.0178 2.00118,50.02966 5.00296,50.02966 2.75163,0 5.00297,4.50267 5.00297,10.00593 0,5.50327 -2.25134,10.00594 -5.00297,10.00594 -3.00178,0 -5.00296,20.01186 -5.00296,50.02966 v 50.02967 h 15.0089 c 12.37626,0 15.00889,2.04187 15.00889,11.64093 0,10.08859 -2.00148,11.34719 -15.00889,9.4381 l -15.0089,-2.20284 v 50.5975 50.5975 l 13.75815,0.10759 c 10.10483,0.079 19.68642,6.72144 36.0835,25.01483 l 22.32534,24.90724 h 75.4205 75.4205 z M 252.8655,507.5304 c -7.97979,-18.42388 -15.19898,-35.12839 -16.04265,-37.12113 -0.84367,-1.99275 2.53333,-2.85026 7.50445,-1.90559 4.97112,0.94467 10.51165,1.88984 12.3123,2.10037 1.80064,0.21053 8.40609,12.76512 14.67877,27.8991 l 11.40487,27.51631 h 43.48787 43.48787 l 11.87488,-27.37374 c 12.3214,-28.40305 18.50663,-34.38225 28.91353,-27.95044 4.53006,2.79973 1.85205,12.45142 -10.28268,37.05937 l -16.408,33.27371 h -58.21126 -58.21126 z m -9.50573,-135.17116 c -47.3533,-12.3048 -59.92204,-74.53339 -20.90757,-103.5147 12.57466,-9.34091 22.3689,-10.67243 89.84451,-12.21428 46.64209,-1.06579 82.92138,0.4237 94.45004,3.87777 23.30697,6.98294 40.3706,29.83956 41.02924,54.95843 1.48496,56.63262 -72.53733,80.13959 -103.21275,32.77687 -13.38251,-20.66256 -29.54594,-22.85147 -37.63553,-5.09675 -9.57127,21.00666 -40.48182,35.21161 -63.56794,29.21266 z m 45.2541,-23.71768 c 9.03566,-9.03566 12.28001,-17.68725 12.28001,-32.74669 0,-15.05943 -3.24435,-23.71102 -12.28001,-32.74668 -9.03566,-9.03567 -17.68725,-12.28001 -32.74669,-12.28001 -15.05943,0 -23.71102,3.24434 -32.74668,12.28001 -9.03566,9.03566 -12.28001,17.68725 -12.28001,32.74668 0,28.16241 16.86429,45.0267 45.02669,45.0267 15.05944,0 23.71103,-3.24435 32.74669,-12.28001 z m -54.48464,-11.87802 c -24.47067,-27.03978 10.4603,-67.63434 38.92903,-45.24083 14.81481,11.65333 17.22769,34.26538 4.96491,46.52816 -10.61525,10.61526 -33.73591,9.93717 -43.89394,-1.28733 z m 189.56472,11.87802 c 17.06505,-17.06505 17.06505,-48.42832 0,-65.49337 -17.06505,-17.06506 -48.42832,-17.06506 -65.49337,0 -17.06506,17.06505 -17.06506,48.42832 0,65.49337 9.03566,9.03566 17.68725,12.28001 32.74668,12.28001 15.05944,0 23.71103,-3.24435 32.74669,-12.28001 z m -54.90268,-10.59069 c -10.11119,-10.11119 -10.11119,-34.2008 0,-44.31199 10.61526,-10.61526 33.73591,-9.93717 43.89394,1.28732 18.37599,20.30525 5.31214,50.88647 -21.73795,50.88647 -7.8618,0 -17.832,-3.53781 -22.15599,-7.8618 z m -37.8796,-24.2483 c 0,-1.15077 1.36654,-5.65344 3.03675,-10.00593 2.29054,-5.96907 -0.16815,-7.91363 -10.00594,-7.91363 -12.27108,0 -17.46358,8.92034 -9.70736,16.67655 3.64357,3.64358 16.67655,4.61501 16.67655,1.24301 z M 225.84939,198.0318 c 0,-1.53717 7.13079,-11.66818 15.84621,-22.51335 14.87492,-18.50985 17.48151,-19.7185 42.52521,-19.7185 h 26.679 v 22.51335 22.51335 H 268.3746 c -23.38887,0 -42.52521,-1.25769 -42.52521,-2.79485 z m 110.06525,-19.7185 v -22.51335 h 26.67899 c 25.0437,0 27.65029,1.20865 42.52521,19.7185 8.71542,10.84517 15.84622,20.97618 15.84622,22.51335 0,1.53716 -19.13635,2.79485 -42.52521,2.79485 h -42.52521 z"
       id="path1" /><path
       style="fill:#1d1d1d;fill-opacity:1;stroke-width:5.56391"
       d="m 1089.1362,592.37211 c -54.0215,-0.55557 -119.9639,-3.05707 -154.14869,47.88009 -26.53414,34.02927 -59.51101,67.85818 -75.06937,107.87691 104.0119,12.25807 209.88876,9.43827 314.37206,11.34516 -0.202,-55.69892 0.4045,-111.73271 -0.3043,-167.22169 -28.2833,0.0398 -56.5665,0.0797 -84.8497,0.11953 z"
       id="path2"
       transform="scale(0.26458333)" /><path
       style="fill:#1d1d1d;fill-opacity:1;stroke-width:5.56391"
       d="m 1273.8321,592.55685 c 0.2145,56.2519 -0.4202,112.86437 0.3151,168.89522 102.1648,-5.34999 205.518,-0.20695 306.939,-13.63811 14.5757,-8.43661 -11.7055,-25.41502 -14.5292,-35.19827 -35.8077,-41.08216 -65.3483,-97.85521 -119.7872,-115.95111 -57.3272,-6.28047 -115.5786,-4.14636 -172.9377,-4.10773 z"
       id="path3"
       transform="scale(0.26458333)" /><path
       style="fill:#1d1d1d;fill-opacity:1;stroke-width:5.56391"
       d="m 857.94034,80.665887 c -3.01631,64.721673 4.0339,135.974233 -38.79526,190.324983 -46.81654,80.81717 -129.19599,144.42115 -148.26962,239.29178 -10.8831,60.97767 7.51922,127.86169 -17.90884,185.61957 -23.32919,13.66308 -54.60469,4.09921 -80.18774,7.93291 0.20283,478.55607 -0.40569,957.44817 0.30427,1435.79417 61.9456,0.2438 135.31918,-9.518 181.82698,41.6097 44.97759,42.9531 79.87386,95.0507 109.94163,148.7044 67.37744,18.6979 140.44274,9.9282 210.00514,13.7685 157.2002,-0.827 314.9767,5.4157 471.7917,-6.8571 18.4656,-1.7794 47.8738,-5.6504 46.0653,-30.2647 32.0013,-60.534 81.1972,-112.9326 136.0877,-153.5075 45.1417,-22.8606 98.3604,-9.3432 146.5417,-13.7576 -0.2028,-478.5561 0.4057,-957.4482 -0.3042,-1435.79416 -26.9913,-5.6536 -74.7763,14.20729 -88.1099,-20.34306 -16.1938,-69.85447 1.1673,-145.74733 -23.7227,-213.72166 -45.0325,-90.51787 -128.2749,-157.94653 -165.2113,-252.63648 -8.3581,-44.85343 -4.2931,-91.29143 -7.8568,-136.457162 -244.0263,0.195756 -488.3691,-0.391043 -732.19806,0.293409 z M 1224.811,170.00366 c 97.9444,-1e-5 195.8888,0 293.8333,0 -11.2023,75.38385 35.2418,139.89636 77.7458,196.76967 42.3588,62.59872 106.6472,119.47048 107.1782,200.83284 9.9134,64.75954 -4.917,132.86224 13.7903,196.05189 12.4986,22.69053 55.6029,5.27765 56.954,39.06697 8.2292,106.80011 8.5139,215.29787 -1.0323,322.04417 1.9779,27.7602 -30.4847,38.6678 -27.3306,66.3431 -4.8949,23.2124 14.7203,36.492 22.9838,54.6068 18.9924,104.8498 7.6752,212.9906 11.182,319.1317 11.3511,43.0198 -10.2629,52.9293 -49.3579,45.7937 -25.7485,-2.1411 -65.0668,5.9516 -61.0618,39.7841 -1.0424,37.0665 48.3662,32.5382 73.0482,32.9597 50.8776,-16.1539 35.9953,33.4521 37.4042,66.767 0,105.5115 0,211.023 0,316.5345 -51.8859,-6.2497 -106.0158,7.1465 -141.7276,47.0542 -46.7805,44.603 -88.0827,94.5262 -131.73,142.1189 -190.0062,0 -380.0125,0 -570.0187,0 -59.96259,-61.576 -108.35475,-141.0223 -187.18442,-180.4577 -27.54134,-11.5809 -58.01019,-8.2517 -87.07742,-8.7154 0,-129.256 0,-258.5119 0,-387.7679 35.71981,6.6809 72.42973,8.2128 108.49632,6.9441 -2.86731,-22.4614 11.20857,-66.0761 -22.74467,-70.9399 -28.16649,-6.0384 -57.16689,-4.0362 -85.75165,-4.4773 3.36806,-118.3764 -7.81484,-238.3841 11.60597,-355.6449 5.60103,-27.3878 40.24409,-50.9819 21.72317,-81.2092 -40.25149,-42.8726 -25.63347,-107.5017 -30.31702,-160.8745 2.61806,-71.74376 -6.73525,-145.28151 6.65952,-215.96119 9.14111,-31.17739 53.32552,-10.78181 62.17022,-42.01189 9.31047,-80.66385 -3.23981,-164.87324 19.18029,-243.63858 45.20655,-98.77762 139.62281,-170.4014 170.92736,-276.37005 9.74249,-20.24267 -6.20813,-62.52677 17.7241,-64.73483 94.24243,0 188.48483,-1e-5 282.72733,0 z"
       id="path4"
       transform="scale(0.26458333)" /><path
       style="fill:#1d1d1d;fill-opacity:1;stroke-width:5.56391"
       d="m 1524.3277,1772.3892 c -43.1167,10.9277 -52.2766,64.417 -73.2544,97.4574 -18.5717,39.0901 -34.8091,79.2241 -51.5642,119.1114 -111.0319,-0.9873 -222.0638,-1.969 -333.0959,-2.9449 -32.2749,-65.2944 -49.9349,-139.5959 -93.8258,-198.3232 -20.0074,-15.7396 -52.37782,-16.3519 -74.51516,-13.4642 34.27656,91.7703 77.18503,180.2629 114.28846,270.817 145.8762,-0.1165 291.8884,0.2316 437.6801,-0.1739 35.9029,-83.1431 85.198,-162.0866 107.9638,-250.1479 1.5254,-15.9711 -21.0634,-23.5565 -33.6769,-22.3317 z"
       id="path5"
       transform="scale(0.26458333)" /><path
       style="fill:#1d1d1d;fill-opacity:1;stroke-width:5.56391"
       d="m 1253.0543,971.17469 c -117.2176,3.30676 -235.9155,-0.63247 -351.78715,19.13682 -88.95222,25.33369 -154.20461,118.70089 -142.03365,211.49379 -3.06954,116.5927 111.67411,224.9654 229.08934,206.3105 78.09556,-9.5905 146.79946,-60.386 182.47896,-129.9804 20.7896,-38.646 75.4679,-32.2869 99.4007,-0.326 46.3666,51.2658 90.4745,114.6532 163.3313,128.0678 54.2089,7.234 111.3066,2.8126 157.1697,-29.8734 109.1925,-59.3438 129.1828,-218.1591 53.6722,-311.9813 -42.1276,-61.0838 -116.5494,-86.64309 -188.167,-88.24328 -67.5798,-4.85013 -135.4378,-4.71142 -203.1544,-4.60453 z m 224.6865,49.98831 c 92.2396,-3.992 180.3854,77.9659 171.4381,172.2966 8.7438,92.4632 -77.2907,179.9463 -170.2967,171.4359 -65.2293,6.1792 -129.8383,-30.6151 -155.8117,-91.1939 -50.5863,-92.7008 3.193,-226.9777 109.996,-247.3768 14.6603,-3.4097 29.6328,-5.1454 44.6743,-5.1618 z m -498.54626,3.3905 c 80.75546,-6.3236 157.30386,66.1947 157.18056,146.7048 5.8371,51.6969 -2.2283,108.3341 -43.5224,144.2922 -62.2131,66.6431 -176.46628,64.4381 -245.36643,9.6717 -57.5878,-47.8339 -54.00012,-131.4063 -42.38138,-198.171 21.69139,-64.4308 89.37296,-108.9787 157.45203,-102.5575 l 5.5637,-0.049 h 4.3e-4 l 5.56365,0.055 z m 254.44036,92.4023 c 20.0178,-3.4993 43.9283,13.1213 29.0693,34.6114 -3.4815,29.9653 -16.8149,50.1654 -47.9018,40.6209 -32.5835,-0.4041 -58.3208,-46.8694 -24.7333,-65.8541 13.2134,-7.1194 28.7559,-9.2033 43.5658,-9.3782 z"
       id="path6"
       transform="scale(0.26458333)" /><path
       style="fill:#1d1d1d;fill-opacity:1;stroke-width:5.56391"
       d="m 952.80942,1084.7568 c -61.1698,-1.0698 -102.11349,69.3519 -94.70607,125.2424 6.30862,81.1023 110.8313,120.1993 175.11115,77.3297 68.4583,-41.874 51.988,-147.4712 -9.1174,-188.1733 -19.3304,-18.2847 -47.04546,-13.9411 -71.28768,-14.3988 z"
       id="path7"
       transform="scale(0.26458333)" /><path
       style="fill:#1d1d1d;fill-opacity:1;stroke-width:5.56391"
       d="m 1471.4923,1083.5179 c -53.5103,-0.7559 -106.2399,42.2538 -102.7368,98.553 -5.8734,49.8405 17.9601,107.8812 72.1896,117.7659 63.0588,20.5599 140.3393,-20.4435 147.4111,-89.0335 11.0893,-67.7201 -48.4151,-131.7827 -116.8639,-127.2854 z"
       id="path8"
       transform="scale(0.26458333)" /><path
       style="fill:#ffffff;fill-opacity:1;stroke-width:5.56391"
       d="m 1222.6701,176.29566 c -96.969,0.67008 -194.2347,0.59011 -291.01877,1.72786 4.38316,74.74778 -38.09149,138.84375 -81.86945,195.21094 -46.73737,66.27133 -110.75508,132.63381 -106.28213,219.95268 -6.27573,57.82409 5.45527,120.23338 -15.52896,175.29589 -14.46284,18.49184 -56.96482,6.60075 -54.82412,39.03436 -5.00961,106.1488 -11.67399,213.90261 3.27097,319.47951 4.77816,27.8114 34.75086,47.9924 24.96155,78.8294 -7.30034,24.6179 -29.97919,42.8208 -27.93911,71.1572 -9.88184,108.5559 -4.72907,218.1642 -5.79212,326.8582 33.5807,8.1181 80.54605,-5.7011 106.07298,23.1359 6.21877,19.4377 12.51147,54.2945 -10.66055,64.6479 -31.79587,4.7057 -64.75389,-3.6816 -95.69497,-9.7477 0.20435,126.5762 -0.4049,253.4895 0.30427,379.8567 55.22593,-7.6289 109.3182,14.4305 146.43309,55.2044 43.82923,41.9857 82.47253,88.9859 123.05813,133.9686 189.91829,-0.073 379.90209,0.1447 569.77959,-0.1086 60.9736,-61.8518 111.5552,-139.339 189.1948,-181.664 27.1054,-9.35 56.7425,-5.3847 84.6215,-8.9218 -1.9489,-121.4416 4.1379,-244.2029 -5.0532,-364.882 -34.081,-17.3008 -90.7267,8.0368 -108.7463,-35.3939 -13.1674,-31.4668 21.5594,-55.498 50.3578,-51.803 25.4836,-6.4044 75.0779,9.2734 60.432,-33.5456 -4.1472,-106.9677 5.5412,-215.4376 -11.1392,-321.4474 -9.6752,-24.7216 -34.3124,-47.5304 -22.4512,-76.6885 11.8533,-22.6598 30.4532,-42.9449 28.2868,-71.1572 4.6764,-99.1293 7.1489,-199.20257 -1.3801,-298.115 0.2158,-21.09007 -19.2456,-27.26947 -36.3067,-27.49358 -41.8737,-11.61651 -25.136,-64.74332 -30.8515,-95.7493 -3.289,-78.97779 5.831,-168.0058 -49.4145,-232.78709 -49.67,-75.40417 -120.8725,-143.1721 -140.1063,-234.16875 1.2325,-27.96472 3.5016,-54.32686 -34.3829,-41.95585 -85.7771,0.42325 -171.5542,0.84649 -257.3314,1.26973 z m -43.4246,496.93795 c -8.4773,25.67642 18.616,87.15687 -16.6914,85.82727 -102.3259,-3.22952 -205.75128,4.08786 -307.42832,-7.40001 -11.21687,-8.95668 14.33393,-24.47226 16.02886,-34.05722 37.19168,-41.71782 63.52452,-102.16424 119.0808,-122.25397 61.87976,-13.72021 126.13236,-5.73375 189.01006,-8.05246 0,28.64546 0,57.29092 0,85.93639 z m 168.6127,-85.90379 c 50.2259,1.89069 109.2822,-6.51605 146.9656,34.88313 35.3177,38.36703 72.4142,78.54049 96.0101,124.92724 -43.8186,18.20062 -95.8248,7.66657 -142.6296,12.49711 -58.8169,-0.062 -119.238,3.97564 -177.2303,-0.43471 -3.6102,-57.10432 -1.4962,-114.63622 -2.0973,-171.90537 26.3272,0.0109 52.6543,0.0217 78.9815,0.0326 z m -18.1262,382.16046 c 98.7661,3.18951 214.68,-11.37075 292.2468,63.90892 95.0194,85.4232 95.5493,256.6041 -11.0518,332.9329 -81.3986,67.9469 -214.3806,62.7883 -284.2812,-19.2455 -34.4764,-32.8185 -60.4776,-91.0418 -114.0711,-93.2064 -46.9219,9.0718 -54.9574,68.0494 -90.6592,93.2984 -51.3708,52.6872 -132.68765,78.2924 -204.40216,61.3176 -103.65533,-27.0248 -176.63941,-133.516 -163.52691,-239.8895 6.32501,-81.6665 66.57746,-160.6743 146.6287,-181.50096 141.09847,-23.5042 286.58307,-15.3337 429.11687,-17.61546 z m 197.1712,800.39952 c 23.0455,-2.6766 43.4225,19.8869 31.5361,41.9249 -26.2227,81.2121 -69.9425,155.5085 -105.986,232.6194 -147.9473,0 -295.8945,0 -443.8417,0 -37.31101,-90.0223 -80.57486,-178.5929 -113.51692,-269.8932 22.12755,-9.1539 51.76928,-2.2552 74.66729,4.4446 46.80993,58.7197 65.87183,134.9746 97.82493,202.0722 110.1833,-0.1237 220.5186,0.2463 330.6074,-0.1848 33.7583,-66.6613 53.2262,-143.6576 102.9324,-200.7464 7.1073,-6.3457 16.1268,-10.3328 25.7765,-10.2367 z"
       id="path9"
       transform="scale(0.26458333)" /><path
       style="fill:#ffffff;fill-opacity:1;stroke-width:5.56391"
       d="m 951.1033,1029.1176 c -61.08669,-5.7505 -115.83769,39.797 -141.06478,91.9894 -17.08396,71.8493 -14.83092,163.7536 52.06389,210.3203 51.41091,37.5298 122.84593,32.941 181.26189,17.0612 55.0595,-27.9173 95.6687,-85.2014 91.1308,-148.7369 6.7869,-72.7822 -41.7236,-151.6397 -114.3428,-168.4932 -22.86639,-3.0088 -46.04568,-2.0455 -69.049,-2.1408 z m 11.21476,48.0105 c 86.08084,-2.612 145.08674,100.307 107.39874,175.1655 -27.2828,58.6948 -111.07113,68.5338 -162.7336,38.9366 -49.49391,-31.249 -72.25984,-101.7428 -38.63226,-152.5295 16.43812,-36.239 53.95033,-61.7158 93.96712,-61.5726 z"
       id="path10"
       transform="scale(0.26458333)" /><path
       style="fill:#ffffff;fill-opacity:1;stroke-width:5.56391"
       d="m 1220.3337,1121.0526 c -31.4984,-3.6844 -59.0567,39.6383 -29.4822,60.0512 18.138,12.4932 54.5292,21.4366 61.4313,-7.8351 4.9899,-14.9112 21.1636,-47.7857 -5.3575,-51.0207 -8.7763,-1.3708 -17.7282,-1.4703 -26.5916,-1.1954 z"
       id="path11"
       transform="scale(0.26458333)" /><path
       style="fill:#ffffff;fill-opacity:1;stroke-width:5.56391"
       d="m 1494.4543,1026.5422 c -61.6562,-5.3979 -127.7276,18.0987 -160.3538,73.1241 -58.0818,88.1098 -16.6563,230.8787 90.5332,256.766 59.7776,6.4987 131.0032,9.8377 174.1222,-40.6101 78.2703,-77.0503 59.2739,-230.8457 -45.9227,-274.5016 -17.7526,-10.3353 -37.6754,-16.4326 -58.3789,-14.7784 z m -14.6053,56.1716 c 74.3219,-7.9348 125.7529,75.493 108.3877,142.4014 -14.5385,75.5064 -111.4631,101.952 -173.9158,68.2884 -49.3135,-25.2807 -56.8865,-93.995 -44.1527,-142.5536 13.0964,-43.8344 56.6236,-73.3463 102.3564,-68.1145 l 5.5639,-0.016 1.7496,-0.01 z"
       id="path12"
       transform="scale(0.26458333)" /></g></svg>
