<?xml version="1.0" encoding="UTF-8" standalone="no"?>
<!-- Created with Inkscape (http://www.inkscape.org/) -->

<svg
   width="210mm"
   height="210mm"
   viewBox="0 0 210 210"
   version="1.1"
   id="svg1"
   xml:space="preserve"
   inkscape:version="1.4.2 (f4327f4, 2025-05-13)"
   sodipodi:docname="T_map_apc_open_turret.svg"
   xmlns:inkscape="http://www.inkscape.org/namespaces/inkscape"
   xmlns:sodipodi="http://sodipodi.sourceforge.net/DTD/sodipodi-0.dtd"
   xmlns="http://www.w3.org/2000/svg"
   xmlns:svg="http://www.w3.org/2000/svg"><sodipodi:namedview
     id="namedview1"
     pagecolor="#ffffff"
     bordercolor="#000000"
     borderopacity="0.25"
     inkscape:showpageshadow="2"
     inkscape:pageopacity="0.0"
     inkscape:pagecheckerboard="true"
     inkscape:deskcolor="#d1d1d1"
     inkscape:document-units="mm"
     inkscape:zoom="0.35945918"
     inkscape:cx="166.91743"
     inkscape:cy="189.17308"
     inkscape:window-width="1278"
     inkscape:window-height="1000"
     inkscape:window-x="-7"
     inkscape:window-y="0"
     inkscape:window-maximized="0"
     inkscape:current-layer="layer1" /><defs
     id="defs1"><style
       id="style1">
      .cls-1 {
        fill: #ffffff;
      }

      .cls-2 {
        fill: #1d1d1d;
      }
    </style></defs><g
     inkscape:label="Calque 1"
     inkscape:groupmode="layer"
     id="layer1"><path
       style="fill:#1d1d1d;fill-opacity:1"
       d="m 77.788997,201.61083 c 0,-1.34953 -2.676518,-5.40592 -5.947815,-9.0142 -4.996409,-5.51109 -6.969532,-6.56049 -12.335212,-6.56049 H 53.118571 V 123.75625 61.476361 h 4.111737 c 3.937087,0 4.111737,-0.425229 4.111737,-10.011012 0,-9.547459 0.380783,-10.487875 8.223475,-20.309459 6.856628,-8.586713 8.223477,-11.417577 8.223477,-17.03157 V 7.3911969 H 109.86055 141.9321 V 14.12432 c 0,5.613993 1.36685,8.444857 8.22347,17.03157 7.8427,9.821584 8.22348,10.762 8.22348,20.309459 0,9.585783 0.17465,10.011012 4.11174,10.011012 h 4.11173 v 62.279889 62.27989 h -6.3874 c -5.36568,0 -7.3388,1.0494 -12.33521,6.56049 -3.2713,3.60828 -5.94781,7.66467 -5.94781,9.0142 0,2.09508 -4.6874,2.45369 -32.07155,2.45369 -27.384153,0 -32.071553,-0.35861 -32.071553,-2.45369 z m 64.449143,-13.93575 c 5.36205,-5.60214 9.15606,-8.19472 11.99222,-8.19472 h 4.14869 v -16.38945 -16.38944 h -4.93409 c -3.83762,0 -4.93408,-0.72842 -4.93408,-3.27789 0,-2.54947 1.09646,-3.27789 4.93408,-3.27789 h 4.93409 v -16.38944 -16.38944 h -4.93409 c -3.83762,0 -4.93408,-0.72842 -4.93408,-3.27789 0,-2.54947 1.09646,-3.27789 4.93408,-3.27789 h 4.93409 V 84.421583 c 0,-15.296815 -0.21929,-16.389444 -3.28939,-16.389444 -2.98123,0 -3.28939,-1.09263 -3.28939,-11.66298 0,-11.512601 -0.10603,-11.797429 -8.22348,-22.090566 -4.92722,-6.247852 -8.22347,-12.084052 -8.22347,-14.560131 V 15.585918 H 109.86055 84.367777 v 4.274707 c 0,2.663893 -3.09881,8.155414 -8.223477,14.573154 -8.127641,10.178432 -8.223475,10.434211 -8.223475,21.948403 0,10.557327 -0.308506,11.649957 -3.28939,11.649957 -3.070097,0 -3.28939,1.092629 -3.28939,16.389444 v 16.389447 h 4.934085 c 3.837622,0 4.934085,0.72842 4.934085,3.27789 0,2.54947 -1.096463,3.27789 -4.934085,3.27789 h -4.934085 v 16.38944 16.38944 h 4.934085 c 3.837622,0 4.934085,0.72842 4.934085,3.27789 0,2.54947 -1.096463,3.27789 -4.934085,3.27789 h -4.934085 v 16.38944 16.38945 l 4.522912,0.0352 c 3.3219,0.0259 6.471789,2.20191 11.86223,8.19472 l 7.33932,8.15948 H 109.73056 134.3946 Z M 86.511987,166.47431 c -3.94864,-8.85588 -4.57418,-11.55606 -2.83152,-12.22244 3.15134,-1.20505 6.50573,2.64809 9.80908,11.26755 l 2.83798,7.40516 h 14.375583 14.37557 l 3.9038,-8.88891 c 2.76083,-6.28637 4.98726,-9.09897 7.60436,-9.60639 4.81826,-0.93419 4.69841,0.0273 -1.58652,12.72796 l -5.28709,10.68417 H 110.64677 91.580317 Z m 13.22185,-33.81251 c -3.40099,-3.3891 -4.02569,-5.21945 -3.21639,-9.42393 0.5524,-2.86986 2.85544,-6.84198 5.117863,-8.82694 3.53556,-3.10194 4.1135,-5.00168 4.1135,-13.52129 0,-8.81965 0.36259,-9.91228 3.28939,-9.91228 2.91916,0 3.28939,1.09263 3.28939,9.70759 0,8.60096 0.56247,10.2681 4.93408,14.62443 6.06125,6.04006 6.37033,12.08148 0.89711,17.53556 -5.41776,5.39881 -12.89802,5.32446 -18.424943,-0.18314 z M 77.788997,65.477617 c 0,-0.503567 2.3442,-3.82243 5.20935,-7.37525 4.89004,-6.063725 5.74694,-6.459672 13.9799,-6.459672 h 8.770563 v 7.37525 7.375249 H 91.768907 c -7.68895,0 -13.97991,-0.412009 -13.97991,-0.915577 z m 36.183293,-6.459672 v -7.37525 h 8.77055 c 8.23297,0 9.08987,0.395947 13.97991,6.459672 2.86514,3.55282 5.20935,6.871683 5.20935,7.37525 0,0.503568 -6.29096,0.915577 -13.97991,0.915577 h -13.9799 z"
       id="path1" /><path
       style="fill:#1d1d1d;fill-opacity:1;stroke-width:0.695489"
       d="m 203.47816,269.50209 c 0,144.42994 0,288.85988 0,433.28982 15.30111,1.35004 32.45811,-2.1304 46.6426,5.86004 11.98609,7.75586 21.13757,19.09245 30.21304,29.91962 6.08715,7.72922 11.68307,16.14099 14.48845,25.61765 4.93657,4.54393 12.46235,4.13512 18.71267,5.16037 32.19077,2.38821 64.51864,1.39045 96.77115,1.7625 35.73236,-0.33237 71.54234,0.74388 107.20825,-1.89133 5.98239,-0.97672 13.16957,-0.52052 17.94722,-4.81013 1.89973,-4.97492 3.64766,-10.1886 6.78237,-14.65554 9.46697,-14.49954 21.1036,-27.7927 34.45525,-38.74364 12.66027,-9.6535 29.50385,-7.51829 44.42438,-7.91934 3.897,-0.28642 10.58125,1.83477 8.59445,-4.47314 0,-143.03896 0,-286.07791 0,-429.11688 -10.5699,-0.69931 -21.67854,-0.098 -32.45435,-0.3002 1.07605,17.4746 0.70588,35.75419 1.01224,53.51992 0.12735,19.45242 0.23572,38.90495 0.35565,58.35741 -10.38059,0.62114 -21.01209,-0.64335 -31.24541,1.39234 -6.63765,2.25975 -6.72173,10.75526 -5.25692,16.40376 1.74111,6.33812 9.49433,6.24461 14.74992,6.77209 7.19912,0.58504 14.42832,0.43948 21.64373,0.47078 -0.11774,41.18375 -0.23546,82.36748 -0.35318,123.55122 -10.4507,0.69366 -21.15639,-0.45915 -31.45186,1.72514 -6.08016,2.42111 -5.70006,10.49855 -4.73667,15.83869 1.08679,5.89863 7.87581,6.56315 12.76243,6.63271 7.91867,0.35444 15.84869,0.32057 23.77249,0.48654 0,41.2177 0,82.43541 0,123.65311 -10.70514,0.53223 -22.65802,-0.84303 -31.77485,6.06343 -18.87679,12.44358 -33.35069,30.2087 -49.16784,46.1039 -3.45162,3.11286 -6.31346,7.60551 -10.12565,9.8748 -62.11498,-0.0361 -124.22996,-0.0722 -186.34494,-0.10827 -15.61811,-16.95311 -30.0434,-35.17306 -47.4052,-50.41625 -7.28402,-6.10122 -16.03952,-11.15646 -25.82744,-10.98152 -5.31921,-0.29596 -10.64842,-0.37811 -15.97201,-0.57685 0,-41.20411 0,-82.40823 0,-123.61235 10.64155,-0.67575 21.60753,0.78928 32.04956,-1.72378 6.02259,-2.61902 5.56156,-10.67757 4.38484,-16.04108 -1.32438,-5.81158 -8.02439,-6.18877 -12.87676,-6.29496 -7.73267,-0.341 -15.47446,-0.41008 -23.21125,-0.62326 -0.11772,-41.18374 -0.23544,-82.36747 -0.35318,-123.55122 10.78893,-0.3319 22.03178,0.8398 32.46522,-2.43421 5.58505,-3.15191 5.28554,-11.00241 3.78172,-16.38067 -2.61336,-6.58887 -11.01732,-5.67474 -16.76287,-5.91181 -6.53043,-0.13042 -13.06187,-0.20648 -19.59274,-0.31228 0.37034,-36.53356 0.0683,-73.08777 1.15326,-109.60612 1.25229,-4.60153 -7.23449,-1.25223 -10.21772,-2.27121 -6.36519,0.19889 -13.08835,-0.40597 -19.24005,0.3002 z"
       id="path2"
       transform="scale(0.26458333)" /><path
       style="fill:#1d1d1d;fill-opacity:1;stroke-width:1.39098"
       d="m 411.95514,344.06343 c -6.99799,-0.35436 -11.88056,5.92167 -10.88875,12.63291 -2.18717,20.57683 1.14938,42.25533 -5.90351,62.01809 -7.89891,13.4679 -21.84863,22.91518 -27.11322,38.15682 -5.56612,13.21491 -5.96915,30.41836 5.5938,40.67798 12.85826,15.65613 35.08445,23.96942 54.51984,16.28423 14.24076,-6.09203 26.59094,-18.58238 31.35679,-33.43783 5.81488,-20.44402 -10.28036,-37.89556 -22.85606,-51.79765 -15.72371,-16.46334 -11.1347,-40.76201 -12.44002,-61.40138 -1.3002,-7.17812 0.58609,-17.77018 -6.47403,-22.29097 -1.82326,-0.7554 -3.83803,-0.95151 -5.79484,-0.8422 z"
       id="path3"
       transform="scale(0.26458333)" /><path
       style="fill:#1d1d1d;fill-opacity:1;stroke-width:1.39098"
       d="m 320.13969,582.61082 c -4.8515,0.60754 -10.77697,4.9733 -6.52855,10.21164 8.57645,26.2215 19.96721,51.55733 31.64767,76.51261 11.02346,3.6114 23.49192,1.0966 34.99451,2.0551 36.8469,-0.006 73.82207,0.25934 110.58823,-0.11262 12.39628,-27.33545 27.92726,-53.46653 37.51296,-81.96721 2.31115,-7.17362 -7.77735,-6.71583 -11.9836,-5.36288 -16.5406,4.44004 -21.40759,23.5202 -28.69375,36.79176 -4.98418,10.8585 -9.76047,21.81234 -14.63307,32.72185 -36.38639,0.24314 -72.7728,0.48493 -109.15921,0.72538 -8.94736,-22.54085 -15.49849,-47.2381 -31.53881,-66.01172 -3.30157,-2.98245 -7.58958,-5.73378 -12.20638,-5.56391 z"
       id="path4"
       transform="scale(0.26458333)" /><path
       style="fill:#1d1d1d;fill-opacity:1;stroke-width:1.39098"
       d="m 371.03809,195.4189 c -16.29857,0.5685 -36.32373,-1.4212 -47.50725,13.24122 -9.9782,12.33634 -21.62666,24.05293 -28.54559,38.42603 1.44338,3.48317 8.15909,0.98237 11.28825,2.19297 31.01564,1.45304 62.38987,2.19948 93.23619,1.79251 -0.20855,-18.70792 0.4087,-37.76226 -0.30428,-56.25856 -9.38911,0.20194 -18.77821,0.40389 -28.16732,0.60583 z"
       id="path5"
       transform="scale(0.26458333)" /><path
       style="fill:#1d1d1d;fill-opacity:1;stroke-width:1.39098"
       d="m 430.90451,195.11191 c 0.2081,18.85209 -0.40897,38.05034 0.30427,56.69052 33.66781,-1.32618 67.54278,-0.0996 101.07415,-3.52091 6.30944,-0.86255 -0.0227,-7.17378 -1.50944,-9.74458 -10.66528,-13.80458 -20.47248,-29.43436 -35.37594,-39.01574 -17.66955,-6.32322 -37.10515,-2.96169 -55.4904,-4.51601 -2.89613,0.22433 -6.33414,-0.66194 -9.00264,0.10672 z"
       id="path6"
       transform="scale(0.26458333)" /><path
       style="fill:#ffffff;fill-opacity:1;stroke-width:1.39098"
       d="m 319.62622,59.113871 c 2.65547,22.898766 -10.81615,42.822019 -23.71455,60.325549 -14.72449,21.78261 -37.81783,41.51179 -38.36818,69.80342 -1.90268,21.36921 2.01534,43.69653 -4.32291,64.42057 -4.33043,6.27637 -18.45025,0.76383 -18.48208,10.96482 -3.77374,38.51478 -2.57945,77.65444 -2.44508,116.10324 10.8915,1.17915 23.76819,-2.57451 33.48672,3.56167 7.22901,6.54293 3.68894,20.34171 -6.65333,20.85381 -8.88543,2.07137 -18.32034,0.88589 -27.13224,1.71427 0.19929,40.86037 -0.39853,82.05091 0.29885,122.70495 10.87825,1.10988 23.56086,-2.37872 33.45683,3.32532 8.45706,7.08264 2.09229,23.22049 -9.38793,21.02771 -8.08838,0.35572 -16.49178,-0.35005 -24.36775,0.38575 0.20041,41.32357 -0.39884,82.97835 0.29885,124.09593 14.28376,-0.88404 29.95001,-0.0664 40.769,10.54834 17.78007,15.24624 32.40796,33.76648 48.4927,50.65471 62.02232,-0.058 124.09037,0.11593 186.08413,-0.0869 19.96527,-18.69825 37.46459,-40.41729 59.95334,-56.20694 9.11824,-6.17816 20.63975,-4.53979 30.82702,-5.20802 -0.2004,-41.32357 0.39885,-82.97835 -0.29884,-124.09593 -11.16652,-1.29031 -24.15083,2.75054 -34.28816,-3.23294 -4.92344,-6.29615 -3.73845,-19.26388 5.97414,-20.06052 9.36547,-2.00404 19.31971,-0.52935 28.61286,-1.44531 -0.19746,-40.86101 0.39491,-82.04707 -0.29612,-122.70495 -11.30788,-1.04783 -25.3337,2.30056 -34.8451,-5.48242 -6.31432,-7.80358 0.21086,-21.32111 10.66207,-19.83747 8.22729,-0.98007 16.82255,-0.0285 24.8595,-0.81258 -1.11597,-37.90172 0.55895,-75.97059 -2.57277,-113.76955 0.0961,-6.21036 -5.39546,-9.81923 -11.16585,-9.41356 -6.17219,0.0607 -9.88785,-4.88665 -9.85368,-10.66326 -4.47411,-25.87266 2.31901,-53.18058 -6.78917,-78.2507 -15.01716,-31.64976 -44.45073,-54.95698 -55.61197,-88.669445 -2.17151,-6.742603 -1.49549,-14.104024 -2.68415,-20.84566 -63.45725,0.197873 -127.24195,-0.394444 -190.49615,0.296126 z m 80.3589,163.793149 c 0.12406,9.2886 0.24813,18.57718 0.37219,27.86577 -34.51715,-0.81461 -69.36626,1.1904 -103.68495,-2.14353 -5.77806,-0.76363 1.08154,-6.82188 2.06202,-9.41355 11.08691,-14.42842 21.23067,-31.04118 37.11087,-40.6318 11.85665,-4.40082 25.35461,-2.13961 37.81713,-3.22562 8.64927,-0.10657 17.29855,-0.21315 25.94783,-0.31973 0.12496,9.28948 0.24994,18.57898 0.37491,27.86846 z m 58.15757,-27.53159 c 12.12888,1.09039 25.23493,-1.17613 36.75226,3.34161 16.42736,10.446 26.58747,28.01975 38.56601,42.91236 1.91994,2.13767 5.35732,6.92823 0.0364,7.0705 -31.5787,2.74102 -63.53596,2.88806 -95.27266,2.6909 -3.58368,-0.22927 -9.64333,0.81409 -7.77238,-4.95884 -0.35656,-17.13061 0.1919,-34.2634 0.34898,-51.3934 9.11381,0.11229 18.22761,0.22458 27.34142,0.33687 z m -45.75287,148.19898 c 7.65687,-1.17238 11.16226,6.6758 11.10066,13.06759 3.20887,21.1435 -1.80212,44.23155 8.103,63.95704 10.04221,16.26416 29.53519,28.72111 29.16545,49.80708 1.36817,18.97808 -14.32606,34.05509 -29.69685,42.47375 -15.52965,7.55132 -34.45988,4.86747 -47.66818,-6.13715 -12.48804,-9.04777 -24.23265,-24.28562 -18.75105,-40.49866 3.44542,-17.18512 16.343,-29.73571 26.97738,-42.84051 10.28581,-16.49692 6.08858,-37.12786 8.32142,-55.52504 1.747,-7.80649 -2.10555,-21.00479 8.4627,-23.72271 1.29355,-0.37611 2.63978,-0.55959 3.98547,-0.58139 z m -91.44869,238.94404 c 14.47025,1.43297 19.92574,17.58064 26.09683,28.58271 6.5718,13.46131 11.31777,27.83721 17.01536,41.56661 36.21297,0.12236 72.56718,0.72896 108.69192,0.5488 10.59169,-21.40048 17.12623,-45.82352 33.50574,-63.76768 5.48869,-4.79805 14.81734,-9.22906 21.7096,-5.32213 3.64495,5.44331 -2.29297,12.31955 -3.76013,17.77812 -10.43482,23.52552 -22.09246,46.47156 -33.29369,69.63892 -48.43704,0.23851 -96.87406,0.47848 -145.31108,0.71993 -10.68605,-27.65492 -25.54275,-53.90802 -33.30198,-82.5649 -0.87555,-4.57967 4.75686,-7.55173 8.64743,-7.18038 z"
       id="path7"
       transform="scale(0.26458333)" /></g></svg>
