<?xml version="1.0" encoding="UTF-8" standalone="no"?>
<!-- Created with Inkscape (http://www.inkscape.org/) -->

<svg
   width="640mm"
   height="640mm"
   viewBox="0 0 640 640"
   version="1.1"
   id="svg1"
   inkscape:version="1.4.2 (f4327f4, 2025-05-13)"
   sodipodi:docname="T_map_jeep_antiair.svg"
   xml:space="preserve"
   xmlns:inkscape="http://www.inkscape.org/namespaces/inkscape"
   xmlns:sodipodi="http://sodipodi.sourceforge.net/DTD/sodipodi-0.dtd"
   xmlns="http://www.w3.org/2000/svg"
   xmlns:svg="http://www.w3.org/2000/svg"><sodipodi:namedview
     id="namedview1"
     borderopacity="0.25"
     inkscape:showpageshadow="2"
     inkscape:pageopacity="0.0"
     inkscape:pagecheckerboard="true"
     inkscape:deskcolor="#d1d1d1"
     inkscape:document-units="mm"
     inkscape:zoom="0.17972959"
     inkscape:cx="634.28621"
     inkscape:cy="1474.4372"
     inkscape:window-width="1278"
     inkscape:window-height="1000"
     inkscape:window-x="1273"
     inkscape:window-y="0"
     inkscape:window-maximized="0"
     inkscape:current-layer="layer1"
     pagecolor="#ffffff"
     bordercolor="#000000" /><defs
     id="defs1" /><g
     inkscape:label="Calque 1"
     inkscape:groupmode="layer"
     id="layer1"><path
       style="fill:#000000"
       d="m 198.95569,549.44742 c -2.56468,-10.19489 -6.15196,-12.42116 -20.01473,-12.42116 h -16.89001 v -74.52695 -74.52696 h 12.44991 12.44991 v -32.29501 -32.29501 h -12.44991 -12.44991 v -77.01118 -77.01119 h 12.44991 c 6.89894,0 12.44991,-2.88146 12.44991,-6.46265 0,-3.55446 10.08443,-11.35073 22.40984,-17.32504 17.72643,-8.59228 22.40984,-13.47178 22.40984,-23.34813 V 109.7384 h 84.65939 84.65939 v 12.48574 c 0,9.87635 4.68341,14.75585 22.40984,23.34813 12.32541,5.97431 22.40984,13.77058 22.40984,17.32504 0,3.58119 5.55097,6.46265 12.44991,6.46265 h 12.44991 v 77.01119 77.01118 h -12.44991 -12.44991 v 32.29501 32.29501 h 12.44991 12.44991 v 74.52696 74.52695 h -16.89 c -13.86277,0 -17.45006,2.22627 -20.01474,12.42116 l -3.12473,12.42115 H 316.42984 202.08042 Z M 418.9641,524.6051 c 2.24339,-8.91777 6.48396,-12.42116 15.03477,-12.42116 h 11.91004 v -49.68463 -49.68464 h -9.63953 -9.63952 l -1.56539,-53.41098 c -0.86097,-29.37604 -1.25846,-54.08985 -0.8833,-54.91958 0.37515,-0.82973 5.41736,-1.86447 11.20492,-2.29942 l 10.52282,-0.79083 V 245.31384 189.23382 H 433.459 c -9.24342,0 -12.44991,-2.63122 -12.44991,-10.21631 0,-7.33071 -6.32965,-13.00974 -22.40984,-20.10635 -12.32541,-5.43952 -22.40984,-13.13913 -22.40984,-17.11024 0,-5.9135 -10.81517,-7.2202 -59.75957,-7.2202 -48.9444,0 -59.75957,1.3067 -59.75957,7.2202 0,3.97111 -10.08443,11.67072 -22.40984,17.11024 -16.08019,7.09661 -22.40984,12.77564 -22.40984,20.10635 0,7.58509 -3.20649,10.21631 -12.44991,10.21631 h -12.44991 v 54.11447 54.11448 l 12.90269,3.23089 c 8.96339,2.24447 12.00424,5.56682 9.95993,10.88191 -1.61852,4.20806 -2.94276,28.70833 -2.94276,54.44506 v 46.79404 h -9.95993 -9.95993 v 49.68464 49.68463 h 11.91004 c 8.55081,0 12.79138,3.50339 15.03477,12.42116 l 3.12473,12.42116 h 99.40953 99.40953 z M 256.67027,487.34162 v -29.81078 h -12.44991 c -9.12994,0 -12.44991,2.64985 -12.44991,9.93693 0,6.62462 -3.31998,9.93693 -9.95993,9.93693 h -9.95993 v -78.96385 -78.96384 l 7.87725,-3.01581 c 4.33248,-1.65869 8.81445,-3.0158 9.95992,-3.0158 1.14548,0 2.08269,20.27778 2.08269,45.06174 v 45.06173 l 11.20492,-1.58768 c 8.79375,-1.24603 11.5527,-5.32972 12.82108,-18.9773 0.8889,-9.56429 6.32175,-22.42019 12.073,-28.56866 l 10.45683,-11.17905 h 38.10356 38.10356 l 10.45683,11.17905 c 5.75125,6.14847 11.1841,19.00437 12.073,28.56866 1.25874,13.54381 4.05028,17.73501 12.62253,18.95134 l 11.00636,1.56172 1.44355,-43.79366 c 1.15287,-34.97529 2.94771,-43.79366 8.91349,-43.79366 6.27736,0 7.68841,12.8899 8.8383,80.73754 l 1.36835,80.73753 h -10.08329 c -6.76331,0 -10.08329,-3.27179 -10.08329,-9.93693 0,-7.28708 -3.31997,-9.93693 -12.44991,-9.93693 h -12.44991 v 29.81078 29.81078 h -59.75957 -59.75957 z m 103.49696,-51.46419 c 0.93637,-39.19025 -0.51835,-61.23226 -4.34474,-65.83214 -7.31627,-8.7952 -69.61541,-9.55415 -78.23637,-0.9531 -4.00221,3.99297 -5.97596,26.21023 -5.97596,67.2677 v 61.30553 l 43.57469,-1.43555 43.57469,-1.43555 z m -60.81155,13.84583 c -11.85623,-11.82885 -9.69052,-30.49197 4.62425,-39.84971 l 12.44991,-8.13865 12.44991,8.13865 c 21.02312,13.74307 12.16343,47.65729 -12.44991,47.65729 -5.08668,0 -12.77005,-3.51341 -17.07416,-7.80758 z m -74.27885,-173.54133 -12.5251,-22.35809 h 103.87811 103.87811 l -12.5251,22.35809 -12.5251,22.35808 h -78.82791 -78.82791 z"
       id="path7" /><path
       style="fill:#1d1d1d;fill-opacity:1;stroke-width:5.56391"
       d="m 878.79415,414.5116 c 4.28738,44.49798 -4.75167,99.81367 -52.03129,118.01584 -49.70948,26.59871 -101.46143,54.29524 -134.22943,101.6501 -25.08101,11.20551 -54.43185,5.28697 -80.80716,9.71511 0.20298,192.52153 -0.40563,385.37925 0.30428,577.69075 29.27971,4.0024 74.30519,-7.741 94.28226,5.5639 0,79.4017 10e-6,158.8034 0,238.2051 -30.55372,1.2752 -61.46391,1.7567 -91.80458,3.5209 -0.76837,186.1049 -2.32053,372.5262 -2.58635,558.4344 38.79736,5.8521 82.98989,-6.1411 118.77653,12.1385 22.61158,21.5271 25.97256,55.1003 33.34001,83.5565 287.63108,-1.101 575.47108,-1.5964 862.97178,-3.0754 9.0802,-33.3352 13.7363,-87.6785 59.0296,-89.5985 29.4992,-3.6082 59.7023,-1.0126 89.1531,-2.2821 -0.2035,-187.3776 0.4055,-375.0917 -0.3043,-562.2596 -26.991,-8.1457 -88.3549,18.0815 -88.7183,-16.6918 0,-75.8373 0,-151.6745 0,-227.5119 26.0412,-7.449 81.7522,15.0626 89.0226,-11.4321 -0.1885,-188.8064 0.3767,-377.90876 -0.2825,-566.53032 -29.9607,-5.23765 -74.3231,6.85837 -90.1963,-27.84131 -40.5179,-55.22906 -117.3045,-65.08786 -159.4735,-117.36381 -14.4999,-25.4749 -9.1808,-56.48619 -13.1165,-84.20854 -211.0678,0.20288 -422.4723,-0.40551 -633.32995,0.30428 z m 354.57995,97.69451 c 61.1517,3.64156 125.3348,-6.72202 184.7068,10.29106 9.3042,10.04788 6.3522,28.10663 22.0926,34.92661 45.1594,40.58518 118.584,49.56757 148.2914,106.25772 4.4864,20.20413 7.6812,47.48906 34.7636,47.83661 20.4707,4.48276 41.5193,3.8647 62.3332,3.74913 0,142.10439 0,284.20881 0,426.31316 -25.0152,4.8046 -56.482,-0.7693 -78.5033,12.2471 -4.3158,135.634 6.1355,271.6748 6.4767,407.1547 26.9344,6.3476 85.6409,-19.0768 72.0266,27.8196 0,116.6393 0,233.2786 0,349.918 -33.1469,0.5545 -86.4192,-8.4341 -96.9447,35.0896 -12.9303,18.9323 -0.9885,65.4162 -32.0686,59.4969 -245.8735,0 -491.7471,0 -737.62066,0 -8.77987,-32.9608 -13.18692,-90.0981 -57.00839,-94.1301 -29.27257,-1.2111 -69.19534,10.1046 -54.99798,-33.8399 0,-114.7847 -10e-6,-229.5694 0,-344.3541 23.25366,-7.8912 81.54701,19.853 71.14142,-22.5452 2.80182,-124.5834 2.55471,-250.0994 12.59983,-373.9815 -9.60561,-37.1403 -67.66419,-21.2438 -83.74125,-43.9788 -10e-6,-135.06985 0,-270.13965 0,-405.20946 31.8227,0.89136 85.48439,5.75899 91.83718,-37.51295 14.90733,-61.19083 89.19589,-71.75038 132.46897,-106.26859 19.25202,-11.21355 35.89433,-27.83916 41.84889,-48.4017 59.65919,-17.91065 124.76559,-7.14435 186.49979,-10.87789 24.5993,-0.0234 49.1986,-0.0226 73.7979,0 z"
       id="path8"
       transform="scale(0.26458333)" /><path
       style="fill:#1d1d1d;fill-opacity:1;stroke-width:5.56391"
       d="m 1092.6245,960.34027 c -95.09306,0.58988 -190.85593,0.67738 -285.52008,2.35814 30.52847,54.64629 60.75792,109.57609 91.46771,164.04849 198.51757,-0.1452 397.15987,0.1447 595.59967,-0.2716 29.9993,-54.7402 61.3688,-109.4949 90.5222,-164.22244 -164.0206,-1.39025 -328.0418,-2.51138 -492.0695,-1.91259 z"
       id="path9"
       transform="scale(0.26458333)" /><path
       style="fill:#1d1d1d;fill-opacity:1;stroke-width:5.56391"
       d="m 862.8305,1189.3518 c -20.72867,2.4409 -39.83285,12.2532 -59.14919,19.2455 -0.74975,197.1687 -2.32347,394.674 -2.57548,591.6332 22.83791,-1.4149 70.47792,9.295 72.28741,-26.4177 -6.16368,-28.2568 20.18182,-47.6138 46.17397,-45.4133 33.47113,-3.7514 67.18084,-5.4953 53.81348,38.4475 0.20214,61.1613 -0.40472,122.6578 0.30428,183.6092 148.43053,-0.2028 297.19693,0.4055 445.41743,-0.3043 0,-74.0841 0,-148.1682 0,-222.2523 29.9187,4.38 80.4575,-11.9936 97.1946,23.2772 3.709,17.287 -1.2173,46.1328 24.19,47.641 20.374,-0.6512 62.7994,14.5626 50.1114,-21.1437 -4.7376,-186.4085 -3.125,-373.525 -20.0967,-559.2638 -2.8421,-27.7903 -39.2475,-20.14 -36.9805,5.5747 -12.7872,99.4938 -14.8864,200.0257 -17.648,300.2015 -31.7859,-0.7613 -79.8154,-2.0593 -86.1538,-42.5553 -8.3644,-64.2138 -30.5566,-128.6058 -80.5015,-172.5774 -22.2569,-23.2095 -63.2226,-3.8629 -92.8926,-10.1841 -67.8069,0.065 -135.6696,-0.1304 -203.4415,0.098 -52.6847,45.8856 -84.123,111.0389 -90.00065,180.3816 -1.84801,42.6352 -57.47883,42.454 -88.16413,48.1518 -3.1237,-112.3702 1.71753,-226.4526 -8.49801,-337.8122 -1.08279,-0.3885 -2.25958,-0.3653 -3.39051,-0.3369 z m 346.9296,183.1311 c 45.2828,3.56 99.1667,-2.2165 136.6636,27.5587 23.2023,59.9758 11.8787,127.6311 16.2361,190.7922 0.807,93.3642 -1.8348,186.7181 -7.0208,279.9345 -110.5374,4.2038 -221.0668,8.6232 -331.5745,13.5512 2.9047,-156.5731 -7.4588,-314.6867 14.6596,-470.1073 12.2934,-42.2658 68.5172,-35.5477 102.7516,-40.1381 22.7401,-1.1762 45.5131,-1.7853 68.2844,-1.5912 z"
       id="path10"
       transform="scale(0.26458333)" /><path
       style="fill:#1d1d1d;fill-opacity:1;stroke-width:5.56391"
       d="m 1164.2708,1541.3129 c -37.8224,20.559 -66.0891,61.3961 -55.2371,105.7361 2.8049,73.087 110.6514,108.6361 154.0726,47.8149 39.5292,-46.6861 20.9351,-119.9023 -29.8843,-150.1496 -26.2775,-22.5914 -42.3741,-32.635 -68.9512,-3.4014 z"
       id="path11"
       transform="scale(0.26458333)" /><path
       style="fill:#ffffff;fill-opacity:1;stroke-width:5.56391"
       d="m 1159.4241,517.30274 c -58.5422,2.86006 -118.9165,-4.01708 -176.5239,6.42241 -14.1144,8.52714 -13.89078,29.24039 -31.15574,36.51318 -41.80423,40.9592 -109.73483,49.00459 -142.70571,98.98769 -9.97542,19.92193 -7.03206,55.52579 -37.69769,55.32399 -18.55351,6.65903 -53.52899,-5.52576 -62.24629,9.33478 0.1531,133.03298 -0.30413,266.27537 0.22821,399.17821 25.23988,13.3658 74.48081,5.9441 83.02403,40.7188 -5.66891,111.0092 -9.81137,222.7763 -8.24386,334.2471 -3.98838,20.2279 7.27672,56.5709 -16.92416,66.485 -20.18136,1.6712 -40.78966,-5.017 -60.86618,-5.39 0.20375,124.8378 -0.40575,250.0124 0.30428,374.6405 32.31542,-0.3759 76.1743,-7.3531 93.08689,28.6998 14.09532,17.1487 11.45689,44.2499 23.66837,60.4098 176.12976,9.6857 353.08655,2.0316 529.52695,3.5319 72.7976,-0.4314 145.8048,-0.2555 218.4718,-1.0651 8.314,-35.4147 16.6067,-92.3758 64.7565,-91.0113 28.3538,1.4681 56.127,4.0009 44.3344,-34.2515 -0.8912,-110.9794 6.3868,-222.6997 -2.5289,-333.2602 -17.4362,-15.5369 -46.8371,5.6671 -63.8764,-7.6939 -11.0419,-137.0649 -5.2337,-275.2116 -8.5632,-412.6968 24.2183,-11.53 85.1302,9.0071 75.1128,-32.6119 -0.2031,-133.01003 0.4058,-266.35644 -0.3042,-399.15652 -25.0143,-3.49678 -56.1085,6.06186 -78.6881,-7.06356 -14.7845,-29.34636 -19.737,-67.30573 -53.8787,-82.2742 -42.484,-28.97465 -101.8299,-43.50381 -128.5351,-90.43534 -10.9594,-25.26764 -49.9915,-10.95846 -70.7742,-16.26511 -62.9891,-1.362 -126.0007,-1.45008 -189.0019,-1.31773 z m 36.4153,442.77672 c 131.3425,0 262.6849,0 394.0273,0 -31.8125,57.29224 -63.6276,114.58324 -95.445,171.87274 -198.8339,0 -397.6677,0 -596.5016,0 -31.958,-57.331 -63.95117,-114.6428 -96.08618,-171.87274 131.33518,0 262.67038,0 394.00548,0 z M 863.79766,1185.9179 c 16.46507,4.5601 4.96384,32.9449 10.28013,45.3294 4.57937,97.1582 3.83214,194.8671 6.56376,291.8198 27.1002,-5.0423 71.59941,-2.0662 76.71029,-38.8278 10.20729,-63.4519 29.733,-128.227 79.28796,-172.6099 20.9677,-33.6916 66.6733,-11.2632 99.6484,-17.7151 67.6544,0 135.3089,0 202.9633,0 50.8738,45.8242 85.2399,108.3692 91.3156,177.002 1.6734,32.1603 31.4585,49.7384 61.2176,49.1399 40.6555,14.3215 13.8502,-52.1627 23.2547,-75.09 5.9321,-79.4825 -1.8874,-162.2706 21.3507,-239.2051 8.1678,-22.3742 37.6324,-9.4184 36.3502,11.3017 15.9467,117.4058 12.7547,237.1081 17.3843,355.5235 1.4957,76.6044 1.679,153.2256 2.3937,229.8393 -26.7184,3.81 -75.9963,7.623 -78.6229,-30.7102 5.7577,-27.6472 -22.649,-42.2863 -46.4457,-38.7626 -43.2789,-12.4158 -50.3325,12.3422 -43.392,50.2817 0,57.3923 0,114.7847 0,172.177 -151.8774,0 -303.7549,0 -455.63237,0 -0.20248,-74.1436 0.40492,-148.6228 -0.30428,-222.5565 -27.7645,3.5462 -81.3461,-12.7258 -89.20736,27.6456 0.4826,23.0778 -14.48556,47.1079 -40.17537,44.3158 -39.86585,11.6913 -41.79962,-16.3254 -37.23041,-49.7058 0,-183.1708 -1e-5,-366.3417 0,-549.5126 20.58842,-6.4182 40.56885,-18.0603 62.28975,-19.6801 z"
       id="path12"
       transform="scale(0.26458333)" /><path
       style="fill:#ffffff;fill-opacity:1;stroke-width:5.56391"
       d="m 1159.4349,1377.3187 c -36.2928,4.2859 -85.7128,-5.6059 -111.9629,25.8418 -22.9341,86.5488 -14.7105,178.3348 -18.3761,267.1548 0.042,69.6376 -0.4538,139.6246 0.2391,209.038 107.1654,-3.7846 214.7734,-4.849 321.5442,-13.5077 12.8715,-137.4119 6.1814,-276.0798 3.271,-413.8922 2.5423,-31.155 -13.1812,-67.7691 -49.0537,-68.1362 -48.1469,-6.8387 -97.1338,-6.0034 -145.6616,-6.4985 z m 71.0051,162.2663 c 42.6217,22.9884 68.2564,72.8115 53.7266,120.3197 -10.0199,55.856 -80.4332,90.7513 -128.6981,57.0953 -60.5552,-26.8497 -73.0579,-118.2395 -19.7889,-158.539 18.5979,-16.3471 39.9931,-28.9308 60.3663,-42.8812 11.4647,8.0017 22.9294,16.0035 34.3941,24.0052 z"
       id="path13"
       transform="scale(0.26458333)" /></g></svg>
