<?xml version="1.0" encoding="UTF-8"?>
<svg id="katman_1" data-name="katman 1" xmlns="http://www.w3.org/2000/svg" viewBox="0 0 128 128">
  <defs>
    <style>
      .cls-1 {
        fill: #ffffff;
      }

      .cls-2 {
        fill: #1d1d1d;
      }
    </style>
  </defs>
  <g>
    <path class="cls-2" d="M76.41,106.21c-5.14-1.53-20.3-1.24-25.77-.11-3.83.79-6.59,4.24-10.56,2.58-3.21-1.34-7.07-4.51-7.07-8.84v-48.86c0-13.55,9.49-19.89,18.56-27.53,6.24-5.26,15.28-6.38,22.09-1.23,10.08,7.63,20.3,14.84,20.3,28.78v48.85c0,3.91-3.5,7.26-6.31,8.55-4.11,1.89-6.7-.84-11.25-2.19ZM66.6,99.04c2.25,2.94,7.15,2.16,8.6-.56.38-.72,1.77-1.82,2.38-2.17,2.71-1.54.13,7.77,6.96,7.65,2-.04,4.48-2.43,4.48-4.86l-.03-48.18c0-11.85-10.93-20.03-20.65-26.27-2.34-1.5-8.75-.87-10.93.75-9.2,6.81-19.38,13.9-19.39,25.55l-.02,48.15c0,3,2.67,5.16,5.49,4.83,1.82-.21,3.66-2.67,4.21-4.78l.66-2.5c.87-3.3,3.85,4.47,7.09,4.23,8.3-.62,5.86-8.75,11.15-1.84Z"/>
    <path class="cls-1" d="M66.6,99.04c-5.29-6.91-2.85,1.22-11.15,1.84-3.23.24-6.22-7.54-7.09-4.23l-.66,2.5c-.56,2.11-2.39,4.57-4.21,4.78-2.82.32-5.49-1.83-5.49-4.83l.02-48.15c0-11.64,10.18-18.74,19.39-25.55,2.18-1.61,8.59-2.25,10.93-.75,9.72,6.24,20.64,14.42,20.65,26.27l.03,48.18c0,2.44-2.47,4.83-4.48,4.86-6.83.12-4.24-9.18-6.96-7.65-.61.35-2,1.45-2.38,2.17-1.45,2.72-6.34,3.5-8.6.56ZM79.97,42.91c-1.73-3.48-4.7-5.39-7.81-5.39l-16.23-.02c-3.8,0-7.61,1.52-8.46,5.54l32.51-.12Z"/>
    <path class="cls-2" d="M79.97,42.91l-32.51.12c.85-4.02,4.65-5.54,8.46-5.54l16.23.02c3.11,0,6.08,1.91,7.81,5.39Z"/>
  </g>
  <g>
    <path class="cls-2" d="M71.6,84.53c-1.17-.37-.13-1.36-.96-1.41-.16-.01-.63.04-.76-.09l-8.83-8.88c-1.88-1.89-.44-1.72-2.56-3.59l2.98-2.99,1.41,1.22c.35.3.98.34,1.45.56l9.76,9.77c.03.31.06.97.31.98h.64c.16.02.36.38.44.6l-3.87,3.86Z"/>
    <path class="cls-2" d="M64.53,91.57c-.85-.27-.36-1.02-.62-1.27-.36-.34-.69.11-1.23-.44l-3.73-3.77-2.87-2.89c-1.01-1.02-2.19-1.96-2.95-3.16-.54-.86-.64-1.83-1.69-2.45l3.06-3.05c.71,1.04,1.72,1.36,2.72,1.8l9.84,9.76c-.04.38.03.96.29,1.05.47-.04.97-.05,1.12.53l-3.93,3.89Z"/>
    <path class="cls-2" d="M78.59,77.45c-.19.18-.68-.38-.62-.6.03-.14.03-.45-.01-.56-.21-.5-.61.21-1.45-.64l-9.2-9.29-.66-1.47c-.21-.48-.72-.86-1.15-1.31l3.02-2.99c1.39,1.13,1,1.12,2.81,1.75l9.76,9.75c-.03.41.04.78.24.98.49-.14,1.01.06,1.12.59l-3.86,3.8Z"/>
    <path class="cls-2" d="M53.9,73.97l-3.02,3.02c-2.21-2.08-4.32-4.15-5.15-7.11-.07-.25-.02-.88.21-.96.43-.16,1-.07,1.41.1,2.85,1.18,4.28,2.64,6.54,4.95Z"/>
    <path class="cls-2" d="M67.97,59.96l-3.06,3.04-2.4-2.48c-1-1.03-3.19-4.31-2.61-5.49.09-.19.66-.29.91-.21,3.13.99,4.78,2.81,7.17,5.15Z"/>
    <path class="cls-2" d="M60.92,66.97l-3.02,3.02c-1.27-1.26-2.43-2.41-3.43-3.79-.54-.74-2.18-3.45-1.57-4.15.66-.75,3.41.95,4.17,1.4,1.37,1.03,2.54,2.13,3.85,3.52Z"/>
  </g>
</svg>