<?xml version="1.0" encoding="UTF-8" standalone="no"?>
<!-- Created with Inkscape (http://www.inkscape.org/) -->

<svg
   width="640mm"
   height="640mm"
   viewBox="0 0 640 640"
   version="1.1"
   id="svg1"
   inkscape:version="1.4.2 (f4327f4, 2025-05-13)"
   sodipodi:docname="T_map_mgs.svg"
   xmlns:inkscape="http://www.inkscape.org/namespaces/inkscape"
   xmlns:sodipodi="http://sodipodi.sourceforge.net/DTD/sodipodi-0.dtd"
   xmlns="http://www.w3.org/2000/svg"
   xmlns:svg="http://www.w3.org/2000/svg">
  <sodipodi:namedview
     id="namedview1"
     borderopacity="0.25"
     inkscape:showpageshadow="2"
     inkscape:pageopacity="0.0"
     inkscape:pagecheckerboard="true"
     inkscape:deskcolor="#d1d1d1"
     inkscape:document-units="mm"
     inkscape:zoom="0.17972959"
     inkscape:cx="634.28621"
     inkscape:cy="1474.4372"
     inkscape:window-width="1278"
     inkscape:window-height="1000"
     inkscape:window-x="0"
     inkscape:window-y="0"
     inkscape:window-maximized="0"
     inkscape:current-layer="layer1"
     pagecolor="#ffffff"
     bordercolor="#000000" />
  <defs
     id="defs1" />
  <g
     inkscape:label="Calque 1"
     inkscape:groupmode="layer"
     id="layer1">
    <path
       style="fill:#000000;stroke-width:18.4784"
       d="m 162.89647,568.49163 c -1.32898,-3.25744 -1.82663,-102.93554 -1.10208,-221.50657 l 1.31562,-215.58393 41.21955,-1.36994 41.21934,-1.36995 18.05754,14.89071 18.05753,14.8907 V 122.41607 86.389307 h 47.92601 47.92602 v 36.026763 36.02658 l 17.83254,-14.70518 17.83255,-14.70518 h 42.70561 42.70564 v 222.69117 222.69118 h -46.18862 c -41.49524,0 -47.86901,-1.20341 -62.72403,-11.8453 -14.7,-10.53052 -21.39124,-11.84531 -60.28609,-11.84531 -39.30729,0 -45.27302,1.20341 -58.73938,11.84531 -13.54587,10.70493 -19.33732,11.8453 -60.1635,11.8453 -31.48709,0 -45.90757,-1.79454 -47.59291,-5.92265 z m 96.06425,-22.506 c 8.17981,-8.48902 15.538,-9.47628 70.62793,-9.47628 55.08991,0 62.44813,0.98672 70.62774,9.47628 7.30346,7.57947 15.53799,9.47609 41.14077,9.47609 h 32.00954 v -18.95237 -18.95238 h -20.17932 -20.17933 v -14.21433 -14.21432 h 20.17933 20.17932 v -33.49639 -33.4962 l -11.35086,1.51321 c -8.42482,1.12461 -11.77185,5.17822 -12.98395,15.72843 -0.97243,8.46806 -9.03497,21.39733 -19.94215,31.98228 l -18.30883,17.76795 h -80.74228 -80.74209 l -19.13101,-17.545 c -14.49904,-13.29636 -19.13082,-21.3266 -19.13082,-33.16599 0,-13.50464 -1.71034,-15.62187 -12.61216,-15.62187 H 185.8104 v 33.1667 33.16688 h 20.17952 20.17933 v 14.21432 14.21433 H 205.98992 185.8104 v 18.95238 18.95237 h 32.00973 c 25.6026,0 33.83711,-1.89662 41.14059,-9.47609 z m 153.14993,-91.67548 c 10.42248,-10.41966 11.03988,-14.8538 9.70786,-69.72119 l -1.42242,-58.59383 -34.05276,-9.13854 -34.05277,-9.13853 v -96.45023 -96.45022 h -22.70172 -22.70191 v 96.45022 96.45023 l -34.05257,9.13853 -34.05278,9.13854 -1.42241,58.59383 c -1.33278,54.86739 -0.71501,59.30153 9.70785,69.72119 l 11.13045,11.12756 h 71.39156 71.39138 z m -202.14904,-101.31989 1.44911,-43.74467 35.12584,-10.02049 35.12587,-10.02031 v -20.8601 -20.85992 h -14.11082 c -9.815,0 -20.10915,-5.76954 -33.81538,-18.95255 l -19.70455,-18.95238 h 33.81538 33.81537 v -14.21432 c 0,-8.57588 -2.62745,-14.21433 -6.62353,-14.21433 -3.64278,0 -13.14832,-6.39649 -21.12315,-14.21432 -12.54828,-12.30124 -18.10711,-14.21434 -41.30267,-14.21434 h -26.80286 v 123.5204 123.52038 l 11.35085,-1.51499 11.35106,-1.51321 z M 473.3667,275.91342 V 152.72253 h -26.80267 c -23.19557,0 -28.75439,1.9131 -41.30268,14.21434 -7.97502,7.81783 -17.48037,14.21432 -21.12333,14.21432 -3.99609,0 -6.62336,5.63845 -6.62336,14.21433 v 14.21432 h 33.81539 33.81537 l -19.70474,18.95238 c -13.70622,13.18301 -24.00018,18.95255 -33.81537,18.95255 h -14.11065 v 20.85992 20.8601 l 35.31387,10.07404 35.31406,10.07404 v 41.71696 c 0,44.14616 1.29276,48.0343 15.97521,48.0343 h 9.2489 z"
       id="path1" />
    <path
       style="fill:#5b5b5b;fill-opacity:1;stroke-width:1.04094"
       d="m 282.31292,86.918931 c -0.18095,23.989859 -0.36258,47.979719 -0.54486,71.969569 -12.063,-9.91895 -24.09999,-19.88425 -36.17895,-29.77469 -27.22237,1.0115 -54.55708,1.34022 -81.70404,2.98459 -1.54457,138.3735 -2.82008,276.77169 -1.5119,415.15367 0.77337,7.12446 -0.85063,15.01005 1.35535,21.79936 9.6759,5.53286 21.79545,3.91475 32.53756,4.60873 19.42297,-0.47467 39.20982,1.30341 58.37234,-2.47193 14.05523,-4.44732 23.77991,-18.44958 39.25095,-19.3449 24.55193,-1.5444 49.47512,-2.83162 73.89899,0.70345 17.79839,2.33299 29.50359,19.81671 47.91803,20.09714 27.34821,1.72233 54.88014,1.18983 82.21435,1.66714 -0.0529,-148.25326 0.10573,-296.59413 -0.0793,-444.79266 -28.29491,0.0244 -56.59832,5e-5 -84.88788,0.0549 -11.75462,9.67627 -23.50929,19.35246 -35.26404,29.02855 -0.23524,-23.90963 -0.25993,-47.90713 -0.62418,-71.762199 -31.57302,0.05304 -63.23409,-0.105632 -94.75245,0.07929 z m 47.41587,27.664339 c 7.60717,0 15.21434,0 22.82151,0 0.21598,64.31007 0.27958,128.67005 0.58756,192.94897 22.30085,6.45896 45.33198,11.81169 67.31989,18.46662 0.70035,35.14439 3.03824,70.34125 1.5045,105.48109 -0.0734,11.02051 -6.17873,20.60586 -14.11155,27.81967 -3.60442,6.45644 -9.62525,7.34984 -16.42758,6.44411 -44.54856,0 -89.09706,0 -133.6456,0 -8.41735,-8.96871 -20.05135,-17.58317 -20.28623,-31.11452 -1.77831,-31.37032 0.13574,-62.84388 0.62018,-94.2394 0.67877,-4.827 -0.60254,-11.54482 1.89396,-15.03812 22.11276,-5.96262 44.32626,-11.76282 66.37124,-17.84792 0.17568,-64.30683 0.35256,-128.61367 0.53062,-192.9205 7.60717,0 15.21434,0 22.8215,0 z m -120.49144,38.24661 c 13.24246,0.71306 28.92678,-1.53222 39.10496,9.0215 9.18076,7.1366 17.54856,16.45704 28.87161,19.98672 6.68465,5.99368 3.90729,16.59651 5.19425,24.52621 0.94308,6.9359 -10.87197,1.68115 -15.46747,3.32481 -17.22611,0.11082 -34.69823,-0.14238 -51.77078,0.19554 14.19035,12.56114 26.28385,29.40008 44.83181,35.77233 7.22533,2.1491 14.85277,1.56429 22.28476,1.6468 -0.55282,13.78371 1.11628,27.84097 -0.93319,41.47923 -5.03525,3.42673 -12.13081,3.63477 -17.83089,5.93381 -17.01713,5.05428 -34.4567,9.2452 -51.19272,14.92374 -2.28229,28.8733 -1.83258,58.01853 -4.06213,86.83353 -7.4044,1.91582 -15.11354,2.3608 -22.63039,3.76936 0,-82.62027 0,-165.24058 0,-247.86086 7.86672,0.14909 15.73345,0.29818 23.60018,0.44728 z m 264.58308,-0.25211 c 0,82.18182 0,164.36364 0,246.54547 -6.90746,-1.11469 -17.17456,2.56199 -21.79479,-4.52162 -5.86695,-10.51343 -2.60713,-23.31802 -3.78148,-34.77811 -0.20174,-16.7232 -0.23474,-33.49762 -0.52054,-50.18905 -23.47135,-6.88618 -47.03416,-13.47163 -70.55252,-20.20287 0,-14.0426 0,-28.08519 0,-42.1278 12.10103,0.45594 25.3239,0.18068 34.93876,-8.31739 11.64783,-8.60402 21.97184,-19.15801 32.12293,-29.2217 -22.42982,-0.0311 -44.8596,-0.0623 -67.28939,-0.0935 1.2296,-8.89069 -1.46503,-19.54165 3.99706,-27.30856 7.04128,-3.20691 14.21267,-6.69745 20.01369,-12.07869 8.81954,-8.20745 18.67667,-17.22331 31.55161,-17.16911 13.74294,-0.94014 27.55064,-0.37771 41.31467,-0.53706 z M 193.23485,422.1826 c 6.04874,0.0607 15.76612,-0.81597 17.05767,7.17278 1.6423,10.67001 1.43074,22.72458 9.56572,31.04131 8.9677,10.36645 19.66537,19.05852 29.63848,28.40641 53.86047,-0.0164 107.73429,0.0325 161.58642,-0.0243 12.09524,-13.39583 27.61456,-24.87975 34.99773,-41.80451 3.59368,-7.43466 2.37691,-19.13954 11.69234,-22.34171 5.15244,-1.63957 10.6317,-2.422 16.04722,-2.44988 0,22.50096 0,45.00189 0,67.50285 -13.52101,0.0537 -27.13038,-0.10599 -40.59688,0.0793 0.0527,9.03711 -0.10543,18.16151 0.0793,27.14387 13.52076,0 27.04153,0 40.56232,0 -0.18884,12.95895 -0.37656,25.9179 -0.56317,38.87687 -20.39829,-0.90987 -41.19068,1.24743 -61.32631,-2.59625 -10.57738,-2.599 -16.70709,-14.51194 -28.32309,-14.40857 -34.82936,-2.97342 -69.94539,-2.50854 -104.8122,-0.44932 -9.80932,0.18217 -17.81522,6.02769 -25.20633,11.7696 -11.53181,6.93086 -25.83413,4.19142 -38.61953,5.72566 -9.45391,-0.0866 -19.47262,1.38115 -28.68002,-0.21188 -1.19969,-12.85319 -0.49585,-25.81116 -0.69735,-38.70611 13.521,-0.0537 27.13037,0.106 40.59686,-0.0793 -0.0526,-9.03708 0.10544,-18.16148 -0.0793,-27.14387 -13.50586,0 -27.01172,0 -40.51757,0 0,-22.50096 0,-45.00189 0,-67.50285 2.53256,0 5.06512,0 7.59768,0 z"
       id="path2" />
    <path
       style="fill:#ffffff;fill-opacity:1;stroke-width:1.04094"
       d="m 186.51953,153.36865 c 0.0625,82.0329 -0.12462,164.18334 0.0935,246.14289 6.7351,-1.764 14.44748,-1.01753 20.76605,-3.53962 2.99106,-28.44448 1.46281,-57.27203 4.40368,-85.6828 1.819,-3.96452 8.20225,-2.6553 11.47612,-4.75522 19.3421,-5.68804 38.87736,-10.92221 58.14523,-16.759 -0.051,-13.41827 0.10052,-26.91731 -0.0752,-40.28581 -12.81599,-0.10509 -26.66337,-1.21251 -36.65876,-10.23867 -10.54726,-8.74367 -21.05434,-18.46548 -29.7686,-28.68089 22.11653,-1.42346 44.40588,-0.43643 66.50258,-0.86 -0.8362,-8.35633 1.78049,-18.65203 -3.73073,-25.80609 -14.82353,-5.38416 -24.65173,-18.2875 -37.95181,-26.07243 -10.70943,-5.14098 -23.20288,-2.14491 -34.6434,-3.27198 -6.17461,-0.0358 -12.43813,-0.28973 -18.55866,-0.19038 z"
       id="path3" />
    <path
       style="fill:#ffffff;fill-opacity:1;stroke-width:1.04094"
       d="m 307.27935,115.02445 c -0.17574,64.3414 -0.35261,128.68281 -0.53065,193.02421 -22.27826,6.53137 -45.31562,10.97203 -66.99458,19.28592 -1.81533,14.93401 -0.90823,30.52141 -1.40283,45.69587 0.4458,22.72118 -1.56484,45.62719 1.20766,68.23073 1.86921,10.33761 12.00104,16.00766 18.17588,23.60017 48.06619,-0.0164 96.14532,0.0325 144.20344,-0.0243 9.00385,-9.64764 20.44374,-20.23325 19.4791,-34.70291 0.79475,-34.3032 0.31186,-68.71854 -2.34619,-102.92752 -1.50699,-3.00093 -6.93526,-2.04454 -9.63925,-3.73179 -19.02968,-5.31741 -38.15281,-10.29287 -57.23538,-15.41592 -0.0556,-64.36025 0.10028,-128.80811 -0.0874,-193.11365 -14.93187,0.0534 -29.95255,-0.10578 -44.82978,0.0793 z"
       id="path4" />
    <path
       style="fill:#ffffff;fill-opacity:1;stroke-width:1.04094"
       d="m 449.17523,153.63499 c -12.08151,0.5977 -25.94057,-1.7856 -35.7886,7.05484 -10.04671,7.50881 -18.65347,17.41716 -30.71193,21.76633 -7.10272,6.42904 -3.68107,17.62644 -4.62119,25.99313 21.52925,1.15558 44.86156,-0.72072 66.56962,1.30932 -11.16407,11.61497 -22.43098,23.70876 -36.0407,32.48278 -9.13842,5.66033 -20.23224,5.77668 -30.57165,6.31276 0.22466,13.55152 0.30094,27.15435 0.62008,40.67411 23.22883,6.66446 46.45763,13.32897 69.6864,19.99348 0.83286,26.8352 -0.31294,53.80633 2.05955,80.55533 0.84119,4.63119 4.43817,8.97639 9.57791,8.22389 4.01357,-0.32518 10.86911,1.7222 12.98335,-0.88033 -0.0543,-81.26563 0.1084,-162.62275 -0.0813,-243.83127 -7.89381,0.11521 -15.78766,0.23042 -23.6815,0.34563 z"
       id="path5" />
    <path
       style="fill:#ffffff;fill-opacity:1;stroke-width:1.47212"
       d="m 186.3535,423.23419 c 0.0536,21.60685 -0.10719,43.30247 0.0805,64.85374 13.22223,0 26.44446,0 39.6667,0 0,9.76045 0,19.5209 0,29.28138 -13.23743,0.0549 -26.56508,-0.10795 -39.74721,0.0805 0.0549,12.35477 -0.10806,24.79974 0.0805,37.09913 20.40801,-1.21719 41.26988,1.12657 61.42933,-2.46695 10.52814,-4.92148 18.89924,-15.13644 31.5758,-14.31578 35.36853,-1.65555 70.91829,-1.16464 106.26284,0.4399 9.59654,0.36457 14.86956,9.40588 22.72297,13.19157 20.77371,4.36641 42.43859,2.03451 63.49661,3.12827 2.62824,-11.94948 1.11525,-24.36767 0.84244,-36.42058 -13.46856,-0.27136 -26.9371,-0.54356 -40.40563,-0.81656 0,-9.73362 0,-19.46725 0,-29.20087 13.72875,-0.0534 27.54608,0.10697 41.21933,-0.0805 -0.0536,-21.60683 0.10718,-43.30245 -0.0805,-64.85374 -8.79316,-0.36457 -22.03883,1.1236 -23.05359,12.28301 -4.32184,23.06802 -23.95995,38.19274 -39.53158,53.96235 -54.04477,0 -108.08957,0 -162.13434,0 -12.90669,-14.23172 -32.62968,-25.19359 -37.4154,-45.02901 -1.57983,-7.01191 0.48905,-20.39165 -9.93968,-20.96045 -4.99469,-0.44953 -10.11684,-0.25646 -15.06909,-0.17539 z"
       id="path6" />
    <path
       style="fill:#1d1d1d;fill-opacity:1;stroke-width:5.56391"
       d="m 1062.4033,325.48897 c -1.2498,88.5111 2.8736,179.28514 -3.3253,266.51367 -45.1617,-33.5843 -87.27741,-71.15411 -130.95845,-106.6272 -102.04666,6.38399 -205.89162,1.57747 -306.7977,17.35463 -10.16527,188.38183 -5.29652,377.9257 -7.9154,566.75733 -0.59235,355.5122 -3.56808,711.0933 0.64537,1066.5666 3.88663,35.5734 51.76557,26.1023 75.8518,31.7969 90.18374,2.3669 182.02154,6.8825 271.27341,-7.4765 59.42067,-22.1736 106.19017,-79.735 174.73077,-74.2435 89.5048,-1.7071 180.5943,-6.9899 269.1326,7.4874 58.4489,18.3699 103.8354,69.1491 168.1781,70.9182 103.13,9.3151 207.2606,4.4401 310.4707,5.39 0.7405,-561.0873 2.289,-1122.5108 2.5103,-1683.3883 -107.9047,0.0511 -215.8475,-0.10107 -323.7285,0.0761 -43.1632,35.55325 -86.3234,71.11009 -129.4806,106.67067 -4.0315,-89.2863 -7.2684,-178.93092 -8.6284,-268.10024 -120.6101,0.20388 -241.5583,-0.40541 -361.9587,0.30427 z m 269.7955,418.54327 c 0.8148,139.48811 5.2069,279.29266 0.2826,418.59756 84.8882,24.2447 172.8517,44.4747 255.7878,71.831 3.2039,136.2133 12.8165,273.0483 3.6731,409.089 -5.179,44.8598 -36.339,84.3303 -70.929,110.8545 -115.1685,11.7523 -231.9894,3.4425 -347.7772,6.1826 -66.0498,0.029 -132.0995,0.059 -198.14929,0.088 -34.538,-36.7553 -80.38069,-74.7011 -76.52357,-130.663 -5.99782,-132.3168 1.77493,-264.77 4.84471,-397.0721 84.1021,-24.9719 169.61195,-45.9415 254.11445,-69.1685 0.9463,-243.1605 1.899,-486.32092 2.858,-729.48132 55.9179,-1.02332 111.836,-2.0412 167.7542,-3.05364 1.3547,104.26544 2.7095,208.53087 4.0642,312.7963 z M 791.45591,577.42996 c 51.55571,3.01731 110.77701,-3.13189 149.95247,38.00003 35.52254,31.66768 75.80562,57.14354 115.39842,82.52608 10.2872,29.62706 3.2303,63.56781 5.5965,94.59741 -81.74574,0.33064 -164.31039,-0.65061 -245.55116,0.48902 36.32387,44.52003 80.1412,84.26974 127.10066,116.96175 9.44998,1.58248 5.78813,14.4472 17.3329,8.94354 30.71391,16.85666 67.4146,16.17458 101.4002,20.29961 -1.0108,51.83225 -2.0323,103.6643 -3.0645,155.4962 -81.84817,26.6289 -168.27414,41.366 -247.37688,75.3302 -24.17029,22.1703 -9.34801,61.9173 -16.04768,90.8862 -3.51965,79.1971 -5.40234,158.4535 -7.8163,237.6889 -28.74006,5.8973 -57.93889,9.0233 -87.02308,12.6601 0,-312.2275 -10e-6,-624.45514 0,-936.68273 30.03281,0.93456 60.06563,1.86913 90.09845,2.80369 z m 998.46179,462.67424 c -1.5976,154.5937 5.0658,309.8019 -4.5642,464.0217 -21.457,11.6617 -53.917,3.5561 -73.7979,-9.889 -22.2285,-38.7037 -11.0058,-88.4955 -16.8373,-131.4044 -2.2563,-64.871 -3.5854,-129.95 -5.9835,-194.7039 -88.0087,-25.257 -175.9934,-50.5993 -264.0685,-75.6236 0,-51.0931 0,-102.18627 0,-153.27936 56.7659,-1.6769 116.741,-11.99335 157.5174,-55.25879 31.8706,-28.57685 63.5112,-58.74059 93.3694,-88.63141 -82.716,-1.85378 -165.4321,-3.7048 -248.1483,-5.55305 -5.2059,-37.22943 -5.8625,-91.77965 33.6877,-110.39805 10.0224,3.9723 8.0849,-11.43367 19.1912,-10.3454 52.5522,-32.27211 94.8262,-93.06005 163.2661,-88.42494 48.2921,-1.69465 96.6319,-1.05163 144.9443,-1.66265 0.4745,153.71761 0.9491,307.43525 1.4236,461.15285 z m -1.4236,681.9272 c 0,41.6316 0,83.2631 0,124.8947 -50.9586,1.2227 -102.2641,1.6597 -153.0076,3.3905 0.2124,34.2612 -0.4099,68.8682 0.3042,102.9215 50.9048,0 101.8095,0 152.7143,0 0.079,49.3061 6.8882,99.5876 -3.5101,148.2696 -80.6887,-6.3832 -164.7033,4.5887 -243.0844,-18.3217 -33.8145,-18.8879 -62.5131,-52.5683 -105.4961,-48.0136 -136.6984,-4.036 -274.7855,-12.6976 -410.8177,4.339 -44.16038,12.6076 -74.94862,56.1605 -124.37302,54.4873 -66.2406,5.3483 -133.56071,12.6734 -199.86622,5.3791 -0.009,-48.7096 -0.013,-97.4192 -0.0109,-146.1288 50.03587,1.0027 100.40409,2.853 150.23656,3.3253 -0.20996,-35.5808 0.41079,-71.5056 -0.30428,-106.8772 -49.97381,0 -99.94761,0 -149.9214,0 -10e-6,-83.2558 0,-166.5117 0,-249.7675 27.06679,3.5636 60.70663,-6.463 84.88228,7.9003 18.00499,43.1261 8.25915,97.0205 45.58141,131.9897 33.39271,40.8546 74.49067,74.4214 112.71847,110.4861 201.9602,-0.065 403.9764,0.1303 605.9016,-0.098 49.7501,-57.2135 119.8389,-104.8503 143.3685,-180.0339 1.5479,-34.6361 24.1943,-69.807 62.0942,-69.8098 41.576,-16.831 33.2103,22.5782 32.5902,52.4552 0,23.0706 0,46.1414 0,69.212 z"
       id="path7"
       transform="scale(0.26458333)" />
  </g>
</svg>
