<?xml version="1.0" encoding="UTF-8" standalone="no"?>
<!-- Created with Inkscape (http://www.inkscape.org/) -->

<svg
   width="210mm"
   height="210mm"
   viewBox="0 0 210 210"
   version="1.1"
   id="svg1"
   xml:space="preserve"
   inkscape:version="1.4.2 (f4327f4, 2025-05-13)"
   sodipodi:docname="dessin.svg"
   xmlns:inkscape="http://www.inkscape.org/namespaces/inkscape"
   xmlns:sodipodi="http://sodipodi.sourceforge.net/DTD/sodipodi-0.dtd"
   xmlns="http://www.w3.org/2000/svg"
   xmlns:svg="http://www.w3.org/2000/svg"><sodipodi:namedview
     id="namedview1"
     pagecolor="#ffffff"
     bordercolor="#000000"
     borderopacity="0.25"
     inkscape:showpageshadow="2"
     inkscape:pageopacity="0.0"
     inkscape:pagecheckerboard="true"
     inkscape:deskcolor="#d1d1d1"
     inkscape:document-units="mm"
     inkscape:zoom="0.50835204"
     inkscape:cx="112.12702"
     inkscape:cy="679.64712"
     inkscape:window-width="2560"
     inkscape:window-height="1009"
     inkscape:window-x="-8"
     inkscape:window-y="-8"
     inkscape:window-maximized="1"
     inkscape:current-layer="layer1" /><defs
     id="defs1"><style
       id="style1">
      .cls-1 {
        fill: #ffffff;
      }

      .cls-2 {
        fill: #1d1d1d;
      }
    </style></defs><g
     inkscape:label="Calque 1"
     inkscape:groupmode="layer"
     id="layer1"><path
       style="fill:#000000"
       d="m 55.246362,181.39764 c -2.8338,-2.83671 -2.8338,-146.020047 0,-148.856762 1.23317,-1.234435 7.36438,-1.971613 16.39818,-1.971613 14.42858,0 14.42858,0 18.13665,5.730199 3.70807,5.730199 3.70807,5.730199 18.728218,5.750537 15.02014,0.02034 15.02014,0.02034 18.40956,-5.730199 3.38942,-5.750537 3.38942,-5.750537 17.88845,-5.750537 9.08858,0 15.23399,0.735725 16.46862,1.971613 2.8338,2.836715 2.8338,146.020052 0,148.856762 -1.23123,1.2325 -7.23043,1.95792 -16.00293,1.93508 -11.39711,-0.0297 -14.80417,-0.6401 -18.13666,-3.24948 -3.37968,-2.64634 -6.70839,-3.21296 -18.87525,-3.21296 -12.166858,0 -15.495568,0.56662 -18.875248,3.21296 -3.33249,2.60938 -6.73955,3.21981 -18.13666,3.24948 -8.7725,0.0228 -14.7717,-0.70258 -16.00293,-1.93508 z m 30.03627,-7.88645 c 2.66126,-2.94367 5.05523,-3.28602 22.978568,-3.28602 17.92334,0 20.31731,0.34235 22.97857,3.28602 2.41958,2.67635 5.05523,3.28602 14.20565,3.28602 11.2349,0 11.2349,0 11.2349,-5.75053 0,-5.03857 -0.50803,-5.75054 -4.10331,-5.75054 -3.28266,0 -4.10332,-0.8215 -4.10332,-4.10753 0,-3.28602 0.82066,-4.10752 4.10332,-4.10752 4.01213,0 4.10331,-0.27384 4.10331,-12.32258 0,-12.04875 -0.0912,-12.32258 -4.10331,-12.32258 -3.28266,0 -4.10332,-0.82151 -4.10332,-4.10753 0,-3.28602 0.82066,-4.10752 4.10332,-4.10752 4.10331,0 4.10331,0 4.10331,-43.539791 0,-43.539781 0,-43.539781 -10.53475,-43.539781 -10.26924,0 -10.62424,0.144935 -14.08514,5.750537 -3.55038,5.750537 -3.55038,5.750537 -23.77097,5.750537 -20.220588,0 -20.220588,0 -23.610008,-5.750537 -3.32374,-5.639095 -3.59725,-5.750537 -14.1134,-5.750537 -10.72397,0 -10.72397,0 -10.72397,43.539781 0,43.539791 0,43.539791 4.10331,43.539791 3.28265,0 4.10332,0.8215 4.10332,4.10752 0,3.28602 -0.82067,4.10753 -4.10332,4.10753 -4.01213,0 -4.10331,0.27383 -4.10331,12.32258 0,12.04874 0.0912,12.32258 4.10331,12.32258 3.28265,0 4.10332,0.8215 4.10332,4.10752 0,3.28603 -0.82067,4.10753 -4.10332,4.10753 -3.59528,0 -4.10331,0.71197 -4.10331,5.75054 0,5.75053 0,5.75053 11.23489,5.75053 9.15043,0 11.78608,-0.60967 14.20566,-3.28602 z m -3.67906,-53.77603 c -5.26166,-0.95565 -12.92883,-9.22178 -14.13001,-15.23385 -1.34444,-6.729101 2.17267,-14.916386 8.14752,-18.966105 4.06342,-2.754168 8.23121,-3.291975 29.288938,-3.779414 15.08744,-0.34924 26.91859,0.141657 30.69243,1.273487 6.23346,1.869507 11.61677,7.752106 13.29898,14.532441 1.52778,6.157881 -1.79929,14.742031 -7.20802,18.597341 -9.20634,6.56221 -22.546,3.71318 -27.69337,-5.91463 -2.86689,-5.36233 -8.61079,-5.36233 -11.47768,0 -3.721398,6.96064 -12.620178,10.99796 -20.918788,9.49073 z m 14.947,-7.13461 c 3.520398,-2.77199 4.324658,-4.77197 4.324658,-10.75425 0,-9.914901 -5.270448,-15.414674 -14.771938,-15.414674 -4.94055,0 -7.77889,1.065468 -10.74322,4.032844 -2.96434,2.967377 -4.02871,5.808629 -4.02871,10.75426 0,4.94562 1.06437,7.78687 4.02871,10.75425 5.19328,5.19861 15.01587,5.48952 21.1905,0.62757 z m -17.57886,-4.5284 c -5.93676,-6.56678 -1.35115,-16.711492 7.55392,-16.711492 5.54618,0 9.42562,4.000918 9.42562,9.720782 0,8.79128 -11.18755,13.39735 -16.97954,6.99071 z m 61.894668,4.5284 c 3.611,-2.84333 4.32466,-4.72157 4.32466,-11.38182 0,-6.660266 -0.71366,-8.538502 -4.32466,-11.381833 -6.17463,-4.861944 -15.99722,-4.57104 -21.1905,0.627573 -5.59855,5.604289 -5.59855,15.90422 0,21.50851 5.19328,5.19861 15.01587,5.48952 21.1905,0.62757 z m -17.57886,-4.5284 c -3.58744,-3.96814 -3.45214,-10.606631 0.28519,-13.99233 6.50689,-5.894703 16.69435,-1.364096 16.69435,7.42438 0,8.41436 -11.34343,12.80217 -16.97954,6.56795 z M 112.05568,97.503079 c 0.40703,-2.115702 -0.54571,-2.8564 -3.67413,-2.8564 -4.01254,0 -5.65169,2.95187 -3.07271,5.533501 1.97635,1.97838 6.17144,0.3138 6.74684,-2.677101 z M 75.845012,65.981729 c -2.48251,-3.114488 -4.51365,-6.071885 -4.51365,-6.571994 0,-0.500109 5.53947,-0.909289 12.30995,-0.909289 11.21572,0 12.30994,0.29209 12.30994,3.286021 0,2.99393 1.09422,3.286021 12.309948,3.286021 11.21573,0 12.30995,-0.292091 12.30995,-3.286021 0,-3.0161 1.09421,-3.286021 13.32098,-3.286021 13.32099,0 13.32099,0 7.7963,6.432968 -5.52469,6.432968 -5.52469,6.432968 -33.42723,6.571994 -27.902548,0.139026 -27.902548,0.139026 -32.416188,-5.523679 z"
       id="path1" /><path
       style="fill:#1d1d1d;fill-opacity:1;stroke-width:1.96714"
       d="m 520.42014,116.81051 c -13.79945,-0.50135 -30.48122,1.24935 -37.07515,15.48416 -6.98654,12.10002 -15.94154,26.5592 -31.92062,25.84772 -29.4982,1.00977 -59.37997,2.32604 -88.72512,-1.00934 -20.54487,-3.10689 -24.03577,-28.81715 -40.69522,-37.50246 -32.51289,-3.18117 -65.48014,-2.16468 -98.1073,-0.94899 -9.40331,-0.71662 -17.92902,5.96624 -16.79843,15.88232 -6.46903,99.28289 -4.97298,198.91292 -5.27427,298.36071 1.25432,80.88122 -0.53252,161.97573 5.60854,242.67685 -0.74875,7.73293 4.42385,13.25855 12.10341,13.66234 30.97934,2.94745 62.47276,2.42432 93.53908,0.63779 20.65556,-3.35372 36.31727,-21.38076 58.21123,-20.48209 31.48178,-1.22008 63.89326,-3.80791 94.77239,3.54239 17.26933,6.03442 31.7416,21.71298 51.29933,17.80416 28.55879,-1.2873 57.76605,2.72085 85.95482,-2.72788 11.65161,-4.80973 7.1734,-21.00143 9.39003,-30.77113 5.66275,-142.82345 4.50767,-285.84772 2.49227,-428.74213 -1.46357,-33.81554 -0.1063,-68.07862 -5.39303,-101.55599 -5.3692,-11.56742 -21.84955,-7.64154 -32.03904,-9.34007 -19.10977,-0.45317 -38.22719,-0.83762 -57.34292,-0.81836 z m 28.76174,23.29832 c 12.19633,0.51984 29.76121,-1.73372 35.05891,12.64042 10.66018,25.78286 5.21238,54.73148 7.34248,81.90116 0.20708,74.48303 1.7348,149.0993 -2.16337,223.4936 -1.24699,10.76903 -12.5154,13.4862 -21.50791,13.18598 -8.76835,4.04178 -8.79579,18.67568 -2.81624,25.16173 6.91067,6.1972 20.69126,1.05647 25.14252,10.00476 2.3889,26.29351 2.30645,53.3526 0.43031,79.70376 -3.68539,11.20596 -17.85768,6.24288 -25.80335,10.88075 -7.03853,8.20329 -4.78153,26.24378 8.30656,26.79846 8.53023,0.0492 19.55966,3.57087 19.11815,13.93904 0.40795,9.86306 3.67322,26.89888 -10.17382,28.89238 -24.5351,3.51264 -50.56104,3.90404 -74.4747,-3.22735 -12.41811,-6.39337 -22.51114,-18.10041 -37.7061,-17.662 -41.13456,-2.66655 -82.65509,-2.98698 -123.75697,0.28815 -18.6715,-0.0573 -28.84752,20.08606 -47.38427,20.22467 -22.06137,1.91214 -45.56486,5.38874 -67.05568,-0.96435 -9.65875,-6.55393 -5.68943,-21.08287 -5.14069,-30.80958 2.65344,-15.56533 26.67497,-4.70967 29.85674,-19.85199 2.80364,-8.47828 -1.17738,-20.62295 -11.7068,-19.89808 -9.39422,1.02217 -20.20935,-5.43975 -17.93089,-16.22618 0.44054,-24.61453 -2.45315,-50.07716 2.09387,-74.20851 8.18513,-6.60395 25.94993,-1.07565 27.82429,-14.79581 2.16584,-8.39845 -1.61902,-20.93376 -12.383,-18.89917 -8.86267,0.50646 -16.29587,-5.89096 -15.55943,-15.10843 -4.23573,-64.64579 -1.42684,-129.65115 -2.16395,-194.43426 1.31489,-34.82215 -2.18896,-70.50326 5.51712,-104.6965 3.86923,-13.18513 18.69208,-18.13829 31.27061,-16.30137 17.68063,0.92964 41.83977,-3.84917 52.37897,14.75301 7.43324,12.19671 16.14836,27.10191 32.54392,26.82691 40.29193,2.32808 80.86067,1.85653 121.17047,-0.0185 14.80335,0.46823 24.53223,-11.30513 31.27752,-22.92405 6.36335,-9.53165 14.94455,-18.91599 27.5515,-17.75806 6.92654,-0.65604 13.88758,-0.89642 20.84323,-0.91057 z"
       id="path5"
       transform="scale(0.26458333)" /><path
       style="fill:#1d1d1d;fill-opacity:1;stroke-width:1.96714"
       d="m 496.04988,221.9949 c -12.14469,1.5908 -27.53989,-3.22962 -37.66383,5.19449 -2.83526,6.66756 -2.31526,17.6734 -12.52131,17.297 -25.43211,1.3702 -51.49563,2.60028 -76.77612,-0.75304 -10.31231,-2.7014 -3.52108,-20.26275 -16.23275,-20.38988 -26.5651,-2.03017 -53.674,-2.27965 -80.15715,0.6301 -2.67301,5.49797 5.6782,11.75828 7.83399,16.55933 9.68317,12.3571 20.52712,27.57929 38.11335,27.13271 56.2609,3.80595 112.81352,1.60752 169.14142,0.15147 15.64636,-0.0851 31.47095,-4.71393 41.7691,-17.17185 6.08038,-7.52967 17.14893,-14.66223 17.68891,-24.88894 -10.89647,-6.39376 -25.3951,-2.37234 -37.58699,-3.76044 -4.5362,-0.0114 -9.07241,-0.007 -13.60862,-9.5e-4 z"
       id="path6"
       transform="scale(0.26458333)" /><path
       style="fill:#1d1d1d;fill-opacity:1;stroke-width:1.96714"
       d="m 429.75493,309.85924 c -41.52691,1.52513 -83.65714,-1.31649 -124.72901,6.009 -30.41551,7.45868 -52.43089,39.61644 -49.46493,70.67491 -0.8575,23.2448 17.26567,41.92264 34.08511,55.60631 28.92213,23.12102 72.15985,7.91159 92.76683,-19.17963 7.78495,-10.03975 19.40968,-27.18292 34.21749,-20.32071 16.342,10.22025 22.33107,31.80769 40.71058,40.03438 16.77894,10.2889 37.87983,9.26138 56.55146,6.27795 21.99468,-6.51205 38.89848,-24.2078 45.97039,-45.8436 6.45991,-20.3722 3.63484,-43.94552 -10.33902,-60.67016 -13.37213,-20.17978 -36.827,-31.13944 -60.69705,-31.40509 -19.65014,-1.44289 -39.38314,-1.24504 -59.07185,-1.18336 z M 324.6858,326.2572 c 24.73092,-1.15013 51.3543,14.60745 54.80715,40.59533 2.05104,19.45313 5.54679,44.35468 -12.95162,57.30066 -16.62573,14.38146 -41.66272,18.15896 -62.21455,11.3831 -34.96842,-11.90462 -46.30001,-59.84152 -24.25128,-88.10159 10.35005,-13.88517 27.54221,-21.31146 44.6103,-21.1775 z m 168.02148,0.45337 c 21.84673,-1.03225 46.14817,10.85985 54.09253,31.98909 2.38925,17.69537 4.13497,37.20551 -2.48967,54.01569 -19.92426,30.86025 -69.14433,35.13294 -94.08081,8.39492 -26.24228,-28.28658 -13.76487,-82.99041 25.09641,-92.47098 5.69094,-1.34858 11.52644,-1.8988 17.38154,-1.92872 z m -81.14456,30.70199 c 8.37679,-1.73277 15.63837,7.08443 10.63102,14.33477 -4.65618,9.13735 -18.37561,15.21298 -25.49984,4.88328 -7.79954,-5.74926 -2.11906,-16.14181 5.93601,-17.65432 2.85993,-1.02217 5.89303,-1.57784 8.93281,-1.56373 z"
       id="path7"
       transform="scale(0.26458333)" /><path
       style="fill:#1d1d1d;fill-opacity:1;stroke-width:1.96714"
       d="m 325.29669,345.91324 c -24.74882,0.0479 -42.99177,28.01099 -33.32998,50.70767 5.63525,15.70944 23.05068,25.17637 39.35819,21.19671 21.52386,-2.31346 34.59608,-25.92957 29.0038,-46.02418 -2.75974,-16.53841 -18.97689,-26.71739 -35.03201,-25.8802 z"
       id="path8"
       transform="scale(0.26458333)" /><path
       style="fill:#1d1d1d;fill-opacity:1;stroke-width:1.96714"
       d="m 491.24345,346.95444 c -21.40294,-0.69031 -38.88412,21.03432 -33.38761,41.88627 2.01488,17.82869 18.6251,32.47675 36.8301,29.11138 19.62377,-0.26885 37.7276,-18.20565 34.17523,-38.39382 -1.09762,-19.13907 -18.62081,-33.93287 -37.61772,-32.60383 z"
       id="path9"
       transform="scale(0.26458333)" /><path
       style="fill:#ffffff;fill-opacity:1;stroke-width:1.96714"
       d="m 267.02014,141.37671 c -12.95612,-0.44171 -31.54658,0.92825 -34.34043,16.85517 -8.04952,40.98693 -4.03931,83.23061 -5.56684,124.75192 0.57954,57.08933 -1.6378,114.37772 2.77365,171.33349 -0.13434,7.96068 4.84996,16.97404 14.03125,15.14545 9.78801,-1.73791 15.20137,8.54815 13.20135,17.07033 1.35234,8.21038 -4.06023,14.43203 -12.33689,14.01588 -6.5029,0.81924 -17.75718,0.81809 -16.02144,10.51958 -0.77182,25.35609 -2.33764,51.10907 0.67621,76.30356 5.24767,10.66196 23.68045,0.89987 26.93676,13.93135 3.55711,8.69822 1.52085,21.48204 -9.53986,22.86801 -7.74838,2.15593 -21.64989,2.49426 -19.54644,14.24698 0.80424,7.93788 -3.12052,19.3354 3.59031,25.26489 16.28053,7.12384 35.19834,2.41207 52.44428,3.20428 16.0536,0.26495 32.55896,-3.73297 43.84957,-15.84086 18.88915,-10.58827 42.1865,-5.7089 62.94079,-7.39076 30.86467,1.07642 62.49323,-2.67224 92.86675,3.53332 12.99863,4.94732 22.08015,18.30662 37.16658,18.54112 21.96457,1.7329 45.34454,5.31412 66.6654,-1.7167 7.02041,-7.19405 4.12836,-19.73733 4.09565,-28.97689 -1.51545,-11.40186 -17.26438,-7.77935 -24.66226,-12.99774 -8.78976,-5.36512 -7.11246,-20.32721 -0.21515,-26.54487 7.3729,-4.17302 22.96029,0.5914 23.62874,-11.63763 0.69368,-26.27645 2.42547,-53.10239 -1.2871,-79.15052 -6.73291,-6.83383 -22.58781,-0.26952 -26.14914,-10.7578 -2.13283,-8.1871 -3.03496,-23.67543 8.85982,-24.28959 10.91954,2.28096 19.09551,-7.7535 18.1192,-18.06541 1.44758,-90.07571 2.27323,-180.23333 -0.10015,-270.29404 -0.12513,-14.68617 -2.92681,-30.49637 -15.3565,-39.96478 -19.83191,1.74761 -41.59004,-3.93789 -60.2283,4.76033 -14.49639,9.90084 -18.17066,34.36761 -38.58594,35.08195 -43.03433,2.78739 -86.42763,1.62641 -129.54866,0.38828 -20.75875,0.47416 -25.13536,-24.81383 -39.00687,-35.32423 -11.51647,-7.42165 -26.48774,-3.96492 -39.35434,-4.86407 z M 513.101,221.61454 c 11.50343,1.35638 25.18013,-2.3408 35.54301,3.62691 -0.22731,9.55545 -10.52397,16.55076 -16.0445,23.65564 -10.7944,11.79778 -25.1711,20.99658 -41.80734,19.46989 -57.89685,0.85668 -115.99513,2.76362 -173.80973,-0.30179 -20.38651,0.0468 -30.87055,-19.7511 -41.89395,-33.71034 -2.69995,-3.30694 -8.98276,-12.00441 -0.40341,-11.76058 27.38071,-0.56595 55.32501,-3.07664 82.41243,1.39467 9.49333,2.31812 2.6213,18.08494 13.46262,19.19115 26.06247,1.48693 52.55268,2.07843 78.54732,-0.32274 9.67651,-2.61381 2.60703,-18.10119 13.35887,-19.22188 16.61278,-3.05678 33.80908,-1.60204 50.63468,-2.02093 z m -53.15507,87.69913 c 26.46197,-0.32943 56.21206,-0.6989 77.09118,18.29979 20.28637,16.90063 32.90592,44.79114 24.59693,70.95154 -5.98947,26.67317 -27.79322,49.28602 -55.45262,52.65559 -29.69758,6.61249 -60.75559,-9.56183 -76.52254,-34.80149 -6.03991,-9.16021 -18.00095,-19.75078 -29.06527,-11.49164 -15.00881,11.29013 -22.79841,30.49713 -40.53002,38.73961 -24.6316,14.38363 -59.14672,14.33507 -79.47325,-7.64956 -15.76163,-15.09043 -29.2252,-35.33898 -26.41424,-58.1536 1.63734,-23.01515 16.3105,-44.8619 35.62753,-57.16618 28.0414,-13.09034 60.44696,-9.36303 90.573,-11.17659 26.52159,-0.31473 53.04642,-0.30391 79.5693,-0.20747 z"
       id="path10"
       transform="scale(0.26458333)" /><path
       style="fill:#ffffff;fill-opacity:1;stroke-width:1.96714"
       d="m 323.58312,327.87472 c -22.22151,-1.82295 -43.09379,13.50591 -50.57319,33.92165 -4.35915,21.61307 -4.23559,48.92425 15.57576,63.19824 22.19713,19.54399 58.82988,15.34058 80.06493,-3.55008 16.69701,-16.9797 13.15924,-44.12965 6.54305,-64.84648 -7.92657,-20.68695 -30.47289,-30.60234 -51.61055,-28.72333 z m 5.21754,17.81953 c 26.46696,-1.24355 43.57986,33.35059 28.60806,54.63041 -11.69621,21.12128 -45.0626,26.66739 -60.2091,6.55842 -15.97711,-18.74038 -8.60645,-53.05731 16.71685,-59.18712 4.81212,-1.48715 9.86739,-1.95605 14.88419,-2.00171 z"
       id="path11"
       transform="scale(0.26458333)" /><path
       style="fill:#ffffff;fill-opacity:1;stroke-width:1.96714"
       d="m 492.46907,327.24462 c -27.33306,-0.8724 -52.97986,20.96341 -54.665,48.6022 -4.17824,25.59176 11.89903,52.02921 36.79937,59.59438 18.22258,4.60441 39.51978,1.78715 55.17215,-9.02503 14.39308,-9.03608 19.62453,-26.30304 18.2644,-42.54317 1.20766,-16.62683 -2.60345,-35.1692 -17.91478,-44.46054 -10.85756,-7.8019 -24.22068,-12.47612 -37.65614,-12.16784 z m 1.3793,18.54568 c 28.84937,-1.63678 45.8028,36.06626 29.68001,58.16896 -13.46986,16.95776 -41.26269,21.45019 -57.26992,5.34817 -16.70469,-17.37862 -13.00113,-50.77398 10.60411,-60.15532 5.33973,-2.34259 11.15149,-3.3921 16.9858,-3.36181 z"
       id="path12"
       transform="scale(0.26458333)" /><path
       style="fill:#ffffff;fill-opacity:1;stroke-width:0.245893"
       d="m 406.62374,357.57585 c -3.84682,1.13457 -8.19605,1.89919 -10.91004,5.15654 -2.82434,2.86328 -3.35411,7.48475 -1.40764,10.97536 1.69648,3.04451 4.17896,5.82674 7.30666,7.43105 6.42703,2.46657 13.89585,-0.43127 18.173,-5.53883 2.74303,-3.29145 5.31169,-7.86546 3.60578,-12.2101 -1.20531,-2.95767 -3.97132,-5.3626 -7.26343,-5.45286 -3.15513,-0.32196 -6.33881,-0.2842 -9.50433,-0.36116 z"
       id="path13"
       transform="scale(0.26458333)" /></g></svg>
