<?xml version="1.0" encoding="UTF-8" standalone="no"?>
<svg
   id="katman_1"
   data-name="katman 1"
   viewBox="0 0 128 128"
   version="1.1"
   xml:space="preserve"
   width="128"
   height="128"
   xmlns="http://www.w3.org/2000/svg"
   xmlns:svg="http://www.w3.org/2000/svg"><defs
     id="defs1"><style
       id="style1">
      .cls-1 {
        fill: #ffffff;
      }

      .cls-2 {
        fill: #1d1d1d;
      }
    </style></defs><path
     style="fill:#000000"
     d="m 32.539433,107.95396 -1.068804,-1.28783 -0.06488,-43.647595 -0.06488,-43.647595 2.233743,-1.564575 2.233744,-1.564575 h 6.892623 6.892624 l 3.205875,3.5 3.205875,3.5 8.928994,0.009 8.929,0.009 2.64684,-3.220497 2.64684,-3.220497 7.1062,-0.401536 7.10619,-0.401536 2.50825,1.643467 2.50825,1.643468 -0.0649,43.68172 -0.0649,43.681721 -1.0688,1.28783 -1.06881,1.28783 h -8.24269 -8.2427 l -2.54259,-2 -2.54258,-2 h -9.68455 -9.684537 l -2.542588,2 -2.542588,2 h -8.242757 -8.242696 z m 17.323914,-4.71217 1.809976,-2 h 13.190024 13.19002 l 1.80998,2 1.80998,2 h 6.34501 6.34501 v -3.5 -3.500001 h -2.5 -2.5 v -2.499999 -2.5 h 2.5 2.5 v -7.5 -7.5 h -2.5 -2.5 v -2.5 -2.5 h 2.5 2.5 v -26 -26 h -6.44346 -6.44347 l -1.77214,3 -1.77215,3 H 64.863347 51.794562 l -1.772143,-3 -1.772144,-3 h -6.443464 -6.443464 v 26 26 h 2.5 2.5 v 2.5 2.5 h -2.5 -2.5 v 7.5 7.5 h 2.5 2.5 v 2.5 2.499999 h -2.5 -2.5 v 3.500001 3.5 h 6.345013 6.345012 z m 27.16667,-4.66667 -0.66667,-0.666663 V 91.575124 85.24179 h -1.39301 -1.39301 l -0.57561,1.5 -0.5756,1.5 h -6.90894 -6.90894 l -1.24489,-1.5 -1.244889,-1.5 H 54.627359 53.13626 l 0.669106,4.461922 0.669107,4.461922 -1.090747,2.038078 -1.090746,2.038077 h -2.809829 -2.809828 l -1.502988,-1.749999 -1.502988,-1.75 -0.620615,-1.75 -0.620615,-1.75 h -1.496201 -1.496201 l -1.035184,-1.934258 -1.035184,-1.934259 v -1.705818 -1.705818 l 9.496334,-9.665669 9.496333,-9.665669 0.652987,-7.724826 0.652986,-7.724826 -1.899319,-1.388817 -1.899321,-1.388817 v -5.500047 -5.500047 l 2.424314,-2.580564 2.424316,-2.580565 h 6.75759 6.75759 l 2.0681,2.904371 2.06809,2.90437 v 5.68925 5.689249 l -2.08216,0.544496 -2.08215,0.544496 0.64704,5.611884 0.64705,5.611884 0.29066,2.686777 0.29065,2.686776 8.63973,8.620299 8.63973,8.620299 0.61257,2.440689 0.61257,2.440689 -0.61289,1.597175 -0.61289,1.597175 -1.99496,0.521692 -1.99495,0.521692 v 1.709055 1.709054 l -2.31445,2.174314 -2.31445,2.174314 h -2.51888 -2.51889 z M 49.03519,87.864272 48.435184,83.486754 50.228006,81.864272 52.020829,80.24179 h 1.342518 1.342519 l 1.828741,-1.654987 1.82874,-1.654988 v -3.571552 -3.571552 l -7.911755,7.865353 -7.911756,7.865352 2.914439,2.452338 2.914438,2.452338 -0.5617,0.908849 -0.5617,0.908849 h 1.194941 1.194941 z m 30.390147,-9.909045 -7.56199,-7.786563 -0.32152,3.145983 -0.32152,3.145983 2.27352,2.420054 2.27353,2.420053 1.44261,-0.553584 1.44262,-0.553583 1.75198,1.585527 1.75199,1.585528 -0.53911,4.019409 -0.53912,4.019409 2.9545,-2.830826 2.9545,-2.830827 z m -10.0616,2.036563 -0.0623,-3.25 -0.58229,-15.25 -0.58228,-15.25 h -2.73481 -2.73481 l -0.65197,10.655563 -0.65197,10.655563 v 7.844437 7.844437 h 4.03133 4.03133 z m -6.00039,-1.676675 V 74.24179 h 2.06037 2.06036 l -0.31036,3.741684 -0.31037,3.741683 -1.75,0.331641 -1.75,0.331641 z m 8.44016,-36.690919 0.65697,-2.617594 -1.70355,-1.882406 -1.70356,-1.882406 h -4.14501 -4.14501 l -1.2,1.2 -1.2,1.2 v 3.3 3.3 h 6.39159 6.39159 z m -12.03112,-0.758846 -0.58627,-1.527785 0.64763,-1.047887 0.64763,-1.047888 h 4.834 4.83399 l 0.51447,1.340684 0.51447,1.340684 -0.65748,0.969041 -0.65748,0.96904 -4.75235,0.265949 -4.75234,0.265948 z M 44.436151,37.513947 41.363347,33.786103 V 33.013947 32.24179 h 5.5 5.5 v 4.5 4.5 H 49.936151 47.508955 Z M 77.363347,36.74179 v -4.5 h 5.5 5.5 v 0.606096 0.606096 l -3.08403,3.893904 -3.08403,3.893904 h -2.41597 -2.41597 z"
     id="path60" /><path
     style="fill:#ffffff;stroke-width:0.224311"
     d="m 35.240993,21.421743 c 0,17.271981 0,34.543962 0,51.815944 1.39314,0.474759 3.154182,0.06132 4.686444,0.200216 0.600146,0.7244 0.06869,2.580402 0.248408,3.725234 0.471453,1.796001 -1.874223,0.774873 -2.940145,1.033497 -1.798697,-0.50049 -2.356387,0.582775 -1.994707,2.219019 0,4.261917 0,8.523835 0,12.785752 1.39314,0.47476 3.154182,0.06133 4.686444,0.200216 0.600146,0.724401 0.06869,2.580403 0.248408,3.725235 0.471453,1.796001 -1.874223,0.774872 -2.940145,1.033497 -1.798697,-0.500491 -2.356387,0.582774 -1.994707,2.219017 0.129137,1.61107 -0.261106,3.43728 0.200215,4.91076 4.220832,-0.0434 8.478138,0.0866 12.676226,-0.0648 1.314616,-1.26634 2.432945,-2.97971 3.867619,-3.97249 8.699225,0.0109 17.398449,0.0221 26.097673,0.0335 1.223101,1.31524 2.335379,2.78038 3.626222,4.00387 4.167287,0 8.334572,0 12.501859,0 0.474759,-1.39314 0.06132,-3.15418 0.200216,-4.68645 0.172017,-1.445045 0.159274,-3.058241 -1.770396,-2.443327 -1.012226,-0.341674 -3.542248,0.834445 -3.164456,-0.897246 0.154528,-1.207404 -0.307181,-3.031047 0.224311,-3.861486 1.543568,-0.130986 3.303637,0.260711 4.710541,-0.200216 0,-4.934851 0,-9.869703 0,-14.804555 -1.39314,-0.47476 -3.154183,-0.06132 -4.686445,-0.200216 -0.600145,-0.7244 -0.06869,-2.580403 -0.248407,-3.725234 -0.471453,-1.796002 1.874223,-0.774873 2.940144,-1.033497 1.798698,0.50049 2.356387,-0.582775 1.994708,-2.219019 0,-16.599047 0,-33.198094 0,-49.797141 -1.39314,-0.474759 -3.154183,-0.06133 -4.686445,-0.200216 -2.783575,0.06587 -5.637617,-0.133171 -8.377068,0.09858 -1.103467,1.873925 -2.206915,3.74786 -3.310348,5.621805 -8.761872,0.03826 -17.523746,0.07652 -26.28562,0.114785 -1.210585,-1.917916 -2.221162,-4.038313 -3.551306,-5.835165 -4.253009,0 -8.506019,0 -12.759028,0 l -0.158612,0.158613 z m 30.225967,8.948362 c 2.260346,0 4.520694,0 6.78104,0 1.3013,1.980511 2.957158,3.847633 4.041987,5.897376 0,3.717494 0,7.43499 0,11.152483 -1.347814,0.450312 -2.986335,0.473937 -4.157209,1.183331 0.657434,5.510515 1.201641,11.053873 1.930305,16.543846 5.753102,5.759214 11.506195,11.51844 17.259277,17.277676 0.312838,1.679952 1.013567,3.385979 1.100981,5.050794 -0.536632,1.155956 -0.724441,3.019966 -2.286066,3.2093 -0.838169,0.42835 -2.377434,0.18433 -2.751972,1.078023 -0.218919,1.415033 0.444913,3.231 -1.097861,4.044878 -1.244479,1.029013 -2.321571,2.479683 -3.668981,3.249786 -1.733569,-0.142484 -3.573923,0.276442 -5.246784,-0.235264 -1.500242,-0.908888 -0.719595,-2.806946 -0.90557,-4.267613 0,-3.068071 0,-6.136145 0,-9.204216 -0.869494,-0.178655 -3.022063,-0.781732 -3.255575,0.568012 -0.382245,1.271286 -0.642484,2.716434 -2.327678,2.147821 -4.128587,0 -8.257171,0 -12.385758,0 -0.931704,-0.886093 -1.504159,-2.425112 -2.65669,-2.916049 -0.773606,0.214623 -2.265376,-0.448085 -2.651431,0.524855 0.218826,2.894192 1.001386,5.821929 1.09671,8.66488 -0.785746,1.206726 -1.254392,2.940729 -2.237543,3.819261 -1.823844,-0.123212 -3.864132,0.22081 -5.556461,-0.185521 -1.73304,-1.824691 -3.24276,-3.897519 -3.873796,-6.373718 -0.582973,-1.038782 -2.484113,0.130776 -3.243032,-0.591186 -0.952881,-1.816497 -2.267841,-3.626455 -1.937274,-5.796358 -0.398701,-1.773122 1.627046,-2.552411 2.518073,-3.796846 5.512157,-5.700772 11.252384,-11.204983 16.52965,-17.119759 0.331333,-4.926721 0.96757,-9.852779 1.09746,-14.786155 -0.640351,-1.464552 -2.434976,-2.009474 -3.5478,-3.058873 0.0018,-3.718225 0.0035,-7.436449 0.0053,-11.154674 1.543152,-1.642178 3.086461,-3.284209 4.629928,-4.92609 2.265604,0 4.531208,0 6.796812,0 z m -18.585868,2.018803 c 1.802523,0 3.605047,0 5.407571,0 0,2.932113 0,5.864225 0,8.796338 -1.606145,-0.117784 -3.433415,0.231641 -4.903571,-0.17347 -1.903752,-2.544554 -4.288584,-4.780964 -5.851988,-7.556074 -0.554573,-1.403145 0.98158,-1.065034 1.95922,-1.066794 1.129589,0 2.259179,0 3.388768,0 z m 35.889831,0 c 1.802524,0 3.605046,0 5.40757,0 0.112759,1.647531 -1.503389,2.802024 -2.296666,4.100984 -1.230665,1.568639 -2.470652,3.129939 -3.705417,4.695354 -1.604351,0 -3.208705,0 -4.813057,0 0,-2.932113 0,-5.864225 0,-8.796338 1.802524,0 3.605046,0 5.40757,0 z"
     id="path61" /><path
     style="fill:#ffffff;stroke-width:0.224311"
     d="m 62.644228,46.301475 c -1.082009,12.23363 -1.474887,24.526286 -1.383108,36.805915 1.356841,0.47214 3.077787,0.06525 4.574289,0.200216 1.119461,-0.264602 3.071836,0.542253 3.677534,-0.424088 -0.254483,-11.804573 -0.743189,-23.607457 -1.277092,-35.402629 0.438562,-1.924057 -1.609291,-1.273743 -2.772834,-1.360791 -0.899343,0.127818 -2.044586,-0.252472 -2.818789,0.181377 z m 2.742558,28.033673 c 1.443086,-0.262686 2.356106,0.04515 1.865972,1.612158 -0.150123,1.870484 -0.249857,3.800518 -0.510465,5.646859 -1.006377,0.141675 -2.126679,0.78145 -3.102683,0.49988 -0.444863,-2.529596 -0.04617,-5.181453 -0.183567,-7.758897 0.643581,0 1.287162,0 1.930743,0 z"
     id="path62" /><path
     style="fill:#ffffff;stroke-width:0.0793061"
     d="m 71.836741,70.22754 c -0.339946,0.261095 -0.147787,0.815026 -0.269625,1.19086 -0.145626,1.64787 -0.37346,3.300231 -0.453578,4.947306 0.945287,1.30689 2.127165,2.432508 3.205675,3.630678 0.470379,0.436101 0.845624,1.013446 1.371153,1.371646 0.851452,-0.07445 1.6171,-0.556266 2.429177,-0.799648 0.255181,-0.119249 0.531321,-0.229465 0.719212,0.04206 1.067007,0.921539 2.181749,1.813917 3.115087,2.872522 -0.298918,2.578988 -0.66772,5.154398 -1.006971,7.725836 0.204054,0.433463 0.608077,-0.08085 0.805452,-0.253408 1.78002,-1.68088 3.541403,-3.38141 5.310099,-5.074194 C 87.202417,85.421776 86.502598,85.16553 86.287404,84.805414 81.641198,80.077396 77.090423,75.254357 72.3829,70.586586 72.212902,70.462459 72.072282,70.21299 71.836741,70.22754 Z"
     id="path63" /><path
     style="fill:#ffffff;stroke-width:0.0793061"
     d="m 58.149474,69.825898 c -5.097093,5.060681 -10.264573,10.053106 -15.248814,15.225695 -0.198286,0.202685 -0.620169,0.575639 -0.200774,0.801553 1.804716,1.543788 3.674164,3.040463 5.426663,4.628266 -0.268852,0.620084 -0.783216,1.128669 -0.986524,1.76549 0.311013,0.328353 0.88861,0.05907 1.302974,0.146375 0.416792,-0.05308 0.933793,0.103001 1.28702,-0.165582 0.02803,-0.841978 -0.212956,-1.707922 -0.284839,-2.557906 -0.265611,-2.015772 -0.562367,-4.03725 -0.820025,-6.048352 0.995312,-1.113808 2.19752,-2.032104 3.276882,-3.064604 0.377974,-0.30121 0.963632,-0.06531 1.428353,-0.14218 0.593904,-0.08972 1.356005,0.24015 1.77923,-0.321782 1.106648,-1.033456 2.284689,-2.015406 3.346881,-3.080977 0.07834,-2.018264 0.01089,-4.06734 0.03343,-6.097396 -0.08322,-0.275474 0.234048,-1.343881 -0.340457,-1.0886 z"
     id="path64" /><path
     style="fill:#ffffff;stroke-width:0.0793061"
     d="m 60.648699,35.109975 c -0.808096,0.836051 -1.685837,1.625508 -2.451071,2.490234 -0.06601,2.193046 -0.0094,4.410511 -0.02833,6.612926 0.233291,0.41806 0.902321,0.100933 1.310254,0.199969 3.879389,0 7.758777,0 11.638166,0 0.401373,-0.213437 0.276855,-0.848588 0.463458,-1.228599 0.326739,-1.393836 0.739902,-2.784175 1.012891,-4.180186 -0.515623,-0.736145 -1.230427,-1.373408 -1.818249,-2.073691 -0.609399,-0.609359 -1.116359,-1.360401 -1.79131,-1.879048 -2.731516,0 -5.463031,0 -8.194547,0 l -0.07329,0.0303 z m 4.658302,2.363848 c 1.588032,0 3.176064,0 4.764095,0 0.312184,0.809094 0.624019,1.618289 0.935875,2.427509 -0.448459,0.587041 -0.761213,1.302846 -1.292442,1.805452 -3.088358,0.160459 -6.183448,0.367429 -9.267503,0.48637 -0.358357,-0.952174 -0.763745,-1.912828 -1.057311,-2.874381 0.35297,-0.628439 0.748618,-1.231513 1.126549,-1.84495 1.596912,0 3.193825,0 4.790737,0 z"
     id="path65" /></svg>
