<?xml version="1.0" encoding="UTF-8"?>
<svg id="katman_1" data-name="katman 1" xmlns="http://www.w3.org/2000/svg" viewBox="0 0 128 128">
  <defs>
    <style>
      .cls-1 {
        fill: #04a0d8;
      }

      .cls-2 {
        fill: #1d1d1d;
      }
    </style>
  </defs>
  <path class="cls-2" d="M97.99,115.88c-7.39.57-7.85,7.21-11.91,7.19l-46.35-.21c-2.65-3.57-5.3-6.57-9.72-7.03l-.02-55.68c1.48-.5,3.35-.59,3.44-1.35l.44-3.83c.11-.93.14-3.39-.53-3.73l-3.35-1.68.06-29.12c.58-.62,2.57-1.52,3.2-1.99.79-.59.47-2.78.51-5.63l16.17-.37,5.22-7.43,17.74-.03,4.94,7.35,16.34.52.29,5.33c.04.8,1.76.9,3.51,1.38l.03,30.23-3.35,1.42c-.69.29-.62,2.93-.54,3.7l.44,3.91c.09.77,2.02.89,3.45,1.4l-.02,55.65ZM92.97,110.47l-.08-19.24c-2.32-.62-4.01-1.48-3.94-2.83.09-1.93,1.84-3.11,3.9-4.02l.22-19.18c-1.61-.78-3.41-1.03-3.57-2.01l-.67-4.08c-.16-1-3.41-1.71-3.27-2.71l.58-3.95c1.86,0,2.62.24,2.68-.27l.28-2.27c.12-.95.04-3.28.74-3.59l3.15-1.4.02-20.5c-2.15-.66-3.79-.9-3.82-1.92l-.12-4.8-13.94-.43-5.02-7.31-12.5.17-4.66,7.16-13.94.35-.41,5.34c-.08,1.02-2.59,1.11-3.66,1.74l.18,20.53c1.77.54,3.36.67,3.44,1.47l.33,3.34c.06.56.47,2.05.95,2.14.32.06.4.05,2.09.16l.51,4.01c.13,1-2.91,1.75-3.3,2.69-.45,1.08-.05,4.2-.95,4.64l-3.19,1.56.07,19.26c2.1.89,3.91,1.49,3.9,2.61-.01,1.42-1.92,3.19-3.82,4.04l-.04,19.71c6.11.96,2.82,7.16,9.85,7.15l39.1-.02c4.86,0,3.09-5.36,8.93-7.54Z"/>
  <path class="cls-1" d="M92.97,110.47c-5.83,2.17-4.07,7.53-8.93,7.54l-39.1.02c-7.03,0-3.73-6.19-9.85-7.15l.04-19.71c1.9-.85,3.81-2.62,3.82-4.04,0-1.12-1.8-1.72-3.9-2.61l-.07-19.26,3.19-1.56c.9-.44.5-3.56.95-4.64.39-.93,3.43-1.68,3.3-2.69l-.51-4.01c-1.69-.12-1.77-.1-2.09-.16-.48-.09-.89-1.58-.95-2.14l-.33-3.34c-.08-.81-1.67-.93-3.44-1.47l-.18-20.53c1.08-.63,3.58-.72,3.66-1.74l.41-5.34,13.94-.35,4.66-7.16,12.5-.17,5.02,7.31,13.94.43.12,4.8c.03,1.02,1.67,1.26,3.82,1.92l-.02,20.5-3.15,1.4c-.7.31-.62,2.64-.74,3.59l-.28,2.27c-.06.52-.83.28-2.68.27l-.58,3.95c-.15,1,3.1,1.71,3.27,2.71l.67,4.08c.16.98,1.95,1.22,3.57,2.01l-.22,19.18c-2.05.9-3.81,2.09-3.9,4.02-.06,1.35,1.63,2.21,3.94,2.83l.08,19.24ZM74.3,35.27c1.07,1.46,5.95.98,6.78.15l-13.48-18.97c-1.45-.94-5.75-.91-7.46-.15l-13.22,19.16c.87.79,5.56,1.24,6.63-.22l10.34-14.19,10.41,14.22ZM62.26,55.99l-.44-10.35-18.2.14,5.4,10.22h13.25ZM79.16,55.98l5.2-10.24-18.38-.02-.09,10.29,13.27-.03ZM66.58,74.03l-.27-11.04c-.03-1.2-4.41-1.17-4.47.05l-.54,11.58c-4.4,2.12-5.98,5.8-5.14,9.46s4.36,6.4,8.29,6.23c3.66-.16,6.86-2.94,7.59-6.89.69-3.74-2.02-6.63-5.47-9.39Z"/>
  <path class="cls-2" d="M66.58,74.03c3.46,2.77,6.16,5.66,5.47,9.39-.73,3.95-3.93,6.73-7.59,6.89-3.93.17-7.41-2.4-8.29-6.23s.73-7.34,5.14-9.46l.54-11.58c.06-1.23,4.44-1.26,4.47-.05l.27,11.04Z"/>
  <path class="cls-2" d="M74.3,35.27l-10.41-14.22-10.34,14.19c-1.07,1.46-5.76,1.01-6.63.22l13.22-19.16c1.71-.76,6-.79,7.46.15l13.48,18.97c-.83.82-5.71,1.31-6.78-.15Z"/>
  <polygon class="cls-2" points="79.16 55.98 65.89 56.01 65.98 45.72 84.36 45.74 79.16 55.98"/>
  <polygon class="cls-2" points="62.26 55.99 49.02 56 43.62 45.78 61.82 45.65 62.26 55.99"/>
</svg>