<?xml version="1.0" encoding="UTF-8"?>
<svg id="katman_1" data-name="katman 1" xmlns="http://www.w3.org/2000/svg" viewBox="0 0 128 128">
  <defs>
    <style>
      .cls-1 {
        fill: #04a0d8;
      }

      .cls-2 {
        fill: #1d1d1d;
      }
    </style>
  </defs>
  <path class="cls-2" d="M77,117.36c-8.11-.41-17.84-.38-25.65-.36l-4.55,3.96-21.8.04V26.7s22.65-.04,22.65-.04c2.51,3.88,3.72,5.87,6.97,9.62l.38-32.27h18.05s.36,32.29.36,32.29c3.23-3.73,4.5-5.81,6.93-9.58l22.63-.11.02,94.36-20.8.08c-1.32,0-3.93-3.63-5.19-3.7ZM79.38,90.1l5.05-5.38-.14-24.9-16.14-5.45V9.12s-8.22.02-8.22.02l-.07,45.35-16.23,5.35.02,23.64c0,2.15,3.45,6.37,5.51,6.38l30.21.22ZM38.12,55.7l16.2-5.32.1-9.1c-.96-.4-4.09-1.34-4.67-2.22l-4.89-7.51-14.84.04-.04,84.42,16.01-.25-.02-20.7-7.8-7.46-.06-31.9ZM89.75,87.76l-7.77,7.25.11,20.97,15.93-.16-.02-84.14h-14.99s-5.04,7.9-5.04,7.9c-.51.8-3.45,1.54-4.25,1.87l-.04,8.94,16.32,5.41-.23,31.96ZM80,95.61h-32v16.65h32v-16.65Z"/>
  <path class="cls-1" d="M79.38,90.1l-30.21-.22c-2.06-.02-5.51-4.23-5.51-6.38l-.02-23.64,16.23-5.35.07-45.35,8.22-.02v45.24s16.14,5.45,16.14,5.45l.14,24.9-5.05,5.38ZM64,71h-14v13.02h14v-13.02Z"/>
  <path class="cls-1" d="M38.12,55.7l.06,31.9,7.8,7.46.02,20.7-16.01.25.04-84.42,14.84-.04,4.89,7.51c.58.88,3.71,1.82,4.67,2.22l-.1,9.1-16.2,5.32Z"/>
  <path class="cls-1" d="M89.75,87.76l.23-31.96-16.32-5.41.04-8.94c.81-.33,3.74-1.08,4.25-1.87l5.04-7.91h14.99s.02,84.15.02,84.15l-15.93.16-.11-20.97,7.77-7.25Z"/>
  <rect class="cls-1" x="48" y="95.61" width="32" height="16.65"/>
  <rect class="cls-2" x="50" y="71" width="14" height="13.02"/>
</svg>