<?xml version="1.0" encoding="UTF-8"?>
<svg id="katman_1" data-name="katman 1" xmlns="http://www.w3.org/2000/svg" viewBox="0 0 128 128">
  <defs>
    <style>
      .cls-1 {
        fill: #04a0d8;
      }

      .cls-2 {
        fill: #1d1d1d;
      }
    </style>
  </defs>
  <path class="cls-2" d="M106,116l-22.19.03-4.82-8.71-2.3,5.16-24.93.14-2.79-5.14-5.05,8.62-21.92-.03V11.93s21.98-.03,21.98-.03l4.47,7.98c.66-1.05,2.89-5.25,4.74-5.32,6.1-.24,15.23-.22,21.8.05,1.69.07,3.93,4.21,4.56,5.27l4.5-7.99,21.96.02v104.09ZM86.9,111.03l14.1.07V16.91s-13.93-.07-13.93-.07l-2.05,3.91c-1.1,2.09-3.87,4.38-6.36,4.06-1.72-.22-3.49-3.01-4.86-5.19-5.92-.39-13.51-.38-19.45.06-1.27,1.74-2.82,4-3.97,4.73s-4.73.43-5.4-.72l-4-6.83-13.96.22v94.02s14.24-.06,14.24-.06l4.07-7.63c2.2.02,6.74-.1,8.64.05.96.08,1.75,2.77,1.96,4.07l15.93.15,1.35-4.42,9.47.32,4.23,7.44Z"/>
  <path class="cls-1" d="M86.9,111.03l-4.23-7.44-9.47-.32-1.35,4.42-15.93-.15c-.21-1.3-1-4-1.96-4.07-1.9-.15-6.45-.03-8.64-.05l-4.07,7.63-14.24.06V17.09s13.97-.22,13.97-.22l4,6.83c.67,1.15,4.26,1.44,5.4.72s2.7-2.99,3.97-4.73c5.94-.44,13.54-.45,19.45-.06,1.37,2.18,3.14,4.97,4.86,5.19,2.49.32,5.26-1.97,6.36-4.06l2.05-3.91,13.93.07v94.19s-14.1-.07-14.1-.07ZM88.53,31.89l.08,23.33c-1.96.25-4.98.16-6.12-.27.06-11.47.59-8.28-7.3-16.06l-22.12.2c-2.32,1.31-6.87,5.09-7.08,7.49l-.75,8.59c-1.17.62-5.02.44-5.87-.42l.08-23.14c-1.56-.91-4.94-.89-6.28.38l.03,44.96c0,1.73,4.77,2.51,5.3,1.3.43-.99.7-2.93,1.05-5.43l5.82-.38.33,16.77,36.74-.11.08-16.24c1.65-.45,5.47-.56,5.98.12.27,2.24.03,4.92,1.06,5.38s3.56.08,5.24-.35V31.39c-2.02-.63-5.15-.61-6.27.51Z"/>
  <path class="cls-2" d="M88.53,31.89c1.12-1.12,4.24-1.14,6.26-.51v46.62c-1.66.43-4.19.81-5.22.35s-.79-3.14-1.06-5.38c-.5-.68-4.33-.57-5.98-.12l-.08,16.24-36.74.11-.33-16.77-5.82.38c-.36,2.5-.62,4.44-1.05,5.43-.52,1.21-5.3.44-5.3-1.3l-.03-44.96c1.34-1.28,4.72-1.29,6.28-.38l-.08,23.14c.85.87,4.69,1.04,5.87.42l.75-8.59c.21-2.41,4.76-6.19,7.08-7.49l22.12-.2c7.89,7.79,7.35,4.59,7.3,16.06,1.13.43,4.16.52,6.12.27l-.08-23.33ZM76.39,82.84l-.1-33.7c0-1.4-3.1-4.07-4.5-4.07l-15.67.04c-1.55,0-4.52,3.09-4.51,4.66l.06,33.09,24.72-.02Z"/>
  <path class="cls-1" d="M76.39,82.84l-24.72.02-.06-33.09c0-1.57,2.96-4.66,4.51-4.66l15.67-.04c1.4,0,4.5,2.67,4.5,4.07l.1,33.7ZM71.94,64.41c0-4.35-3.56-7.88-7.94-7.88s-7.94,3.53-7.94,7.88,3.56,7.88,7.94,7.88,7.94-3.53,7.94-7.88Z"/>
  <ellipse class="cls-2" cx="64" cy="64.41" rx="7.94" ry="7.88"/>
</svg>