<?xml version="1.0" encoding="UTF-8"?>
<svg id="katman_1" data-name="katman 1" xmlns="http://www.w3.org/2000/svg" viewBox="0 0 128 128">
  <defs>
    <style>
      .cls-1 {
        fill: #04a0d8;
      }

      .cls-2 {
        fill: #1d1d1d;
      }
    </style>
  </defs>
  <path class="cls-2" d="M93.6,111.6h-14.71s-5.32-3.89-5.32-3.89l-17.51-.15-5.94,3.93-14.36.24c-2.6.04-5.43-2.76-5.42-5.7l.16-83.07c0-1.89,1.72-5.01,3.46-5.01l16.06-.04c1.94,0,4.2,4.31,5.4,6.32l18.46.05c1.05-2.03,3.16-6.33,5.03-6.34l15.2-.1c1.73-.01,4.38,2.15,4.39,4.1l.22,83.07c0,2.92-1.23,6.6-5.1,6.6ZM94.12,107.05l-.34-7.03c-2.93-.12-4.86-.16-4.83-1.22.03-1.16-.19-3.41.65-3.51l4.42-.53-.12-14.84c-2.06,0-4.79.42-4.8-.43l-.02-3.96c0-.86,2.62-.46,4.85-.46l.09-52.33-12.69-.29-4.39,6.56h-24.87s-4.22-6.47-4.22-6.47l-12.82.12-.03,52.25c1.6.21,4.95-.36,4.93.7l-.05,3.89c-.01.84-2.79.44-4.8.43l-.02,15.13c3.06.05,5.04.1,5,1.15-.05,1.14.22,3.58-.63,3.64l-4.33.3-.13,6.91,13.04-.12,4.23-3.9h24.46s4.35,3.92,4.35,3.92l13.07.11Z"/>
  <path class="cls-1" d="M94.12,107.05l-13.07-.11-4.35-3.91h-24.46s-4.23,3.89-4.23,3.89l-13.04.12.13-6.91,4.33-.3c.85-.06.58-2.5.63-3.64.05-1.05-1.94-1.1-5-1.15l.02-15.13c2.01.01,4.79.41,4.8-.43l.05-3.89c.01-1.05-3.33-.49-4.93-.7l.03-52.25,12.82-.12,4.22,6.47h24.87s4.39-6.56,4.39-6.56l12.69.29-.09,52.33c-2.23,0-4.85-.39-4.85.46l.02,3.96c0,.85,2.73.43,4.8.43l.12,14.84-4.42.53c-.84.1-.62,2.35-.65,3.51-.03,1.06,1.9,1.09,4.83,1.22l.34,7.03ZM71.91,34.05l-.97,4.95h-12.91s-1.06-4.98-1.06-4.98l-16.31.44,7.13,8.64,33.9-.11,6.74-8.65-16.52-.29ZM67,65.22l.17-15.16-5.18-.02-.24,15.47c-7.69,2.08-12.06,8.41-10.85,15.83,1.08,6.59,7.23,11.75,14.24,11.42s12.77-5.98,13.17-13.16-4.42-11.99-11.31-14.39Z"/>
  <path class="cls-2" d="M67,65.22c6.9,2.39,11.69,7.52,11.31,14.39s-6.09,12.83-13.17,13.16-13.17-4.83-14.24-11.42c-1.21-7.42,3.16-13.75,10.85-15.83l.24-15.47,5.18.02-.17,15.16ZM73.11,79.05c0-4.76-3.86-8.61-8.61-8.61s-8.61,3.86-8.61,8.61,3.86,8.61,8.61,8.61,8.61-3.86,8.61-8.61Z"/>
  <polygon class="cls-2" points="71.91 34.05 88.43 34.34 81.69 42.99 47.79 43.1 40.66 34.46 56.96 34.02 58.03 39 70.94 39 71.91 34.05"/>
  <circle class="cls-1" cx="64.5" cy="79.05" r="8.61"/>
</svg>