<?xml version="1.0" encoding="UTF-8"?>
<svg id="katman_1" data-name="katman 1" xmlns="http://www.w3.org/2000/svg" viewBox="0 0 128 128">
  <defs>
    <style>
      .cls-1 {
        fill: #04a0d8;
      }

      .cls-2 {
        fill: #1d1d1d;
      }
    </style>
  </defs>
  <path class="cls-2" d="M83.33,116l-38.43.03c-1.54,0-4.14-2.32-4.09-3.77l.52-16.77c-.39-.46-3.14-2.94-3.16-4.11l-.3-15.76-30.34-.48c-1.29-.02-3.59-2.32-3.58-3.48l.14-17.75c.01-1.85,3.97-4.14,5.72-4.33l43.12-4.8.12-22.94c.02-3.79,1.93-9.26,5.7-11.19,2.37-1.21,8.01-1.1,10.68,0,2.25.93,5.33,6.08,5.36,8.61l.35,25.49,43.03,4.81c1.75.2,5.75,2.47,5.76,4.37l.08,18.24c0,1.39-3.34,3.32-4.92,3.34l-29.03.3v14.55c.02,1.64-1.76,4.11-3.27,5.52l.38,16.99c.02.93-2.59,3.13-3.84,3.13ZM81.99,111l.02-11.01h-12.06s.17-36.37.17-36.37l8.82-.87c5.58-.55,8.44,2.78,9.64,7.76l30.36-.14-.21-15.35-48.71-5.5-.08-26.44c0-1.66-1.57-4.94-2.54-6.77-.9-1.7-5.87-1.64-6.76.1-1.11,2.18-2.57,5.56-2.58,7.5l-.12,25.63-48.65,5.49c-.25,5.72-.27,10.29-.04,15.02l30.25.02c.42-2.92,2.79-7.03,5.19-7.01l13.24.09.12,36.66-12.06.27.03,10.92h35.97ZM55.17,90.97v-24.89s-8.3.14-8.3.14c-1.62.03-3.83,2.95-3.8,4.63l.34,19.64,11.76.48ZM85.06,70.39c.01-1.31-2.1-4.31-3.29-4.31l-9.31.07c-.51,8.95-.5,15.72-.04,24.71,4.56.19,8.18.08,12.48-.56l.16-19.91Z"/>
  <path class="cls-1" d="M81.99,111h-35.97s-.03-10.92-.03-10.92l12.06-.27-.12-36.66-13.24-.09c-2.41-.02-4.78,4.1-5.19,7.01l-30.25-.02c-.23-4.73-.21-9.31.04-15.02l48.65-5.49.12-25.63c0-1.93,1.46-5.32,2.58-7.5.89-1.74,5.86-1.8,6.76-.1.97,1.83,2.53,5.11,2.54,6.77l.08,26.44,48.71,5.5.21,15.35-30.36.14c-1.2-4.98-4.06-8.31-9.64-7.76l-8.82.87-.17,36.37h12.06s-.02,11-.02,11ZM66.21,41.09l-.05-16.68c0-1.34-3.99-2.13-4.44-1.17-.16,5.54-.21,14.97-.09,20.42.02.75,2.86,1.49,3.31.86s1.27-2.61,1.27-3.43Z"/>
  <path class="cls-1" d="M85.06,70.39l-.16,19.91c-4.3.64-7.92.75-12.48.56-.46-8.99-.47-15.76.04-24.71l9.31-.07c1.19,0,3.3,2.99,3.29,4.31Z"/>
  <path class="cls-1" d="M55.17,90.97l-11.76-.48-.34-19.64c-.03-1.68,2.18-4.6,3.8-4.63l8.29-.14v24.89Z"/>
  <path class="cls-2" d="M66.21,41.09c0,.82-.81,2.79-1.27,3.43s-3.3-.11-3.31-.86c-.12-5.44-.07-14.88.09-20.42.45-.95,4.44-.17,4.44,1.17l.05,16.68Z"/>
</svg>