<?xml version="1.0" encoding="UTF-8"?>
<svg id="katman_1" data-name="katman 1" xmlns="http://www.w3.org/2000/svg" viewBox="0 0 128 128">
  <defs>
    <style>
      .cls-1 {
        fill: #04a0d8;
      }

      .cls-2 {
        fill: #1d1d1d;
      }
    </style>
  </defs>
  <path class="cls-2" d="M92.43,111.66l-13.51-.09-5.37-3.87-17.5-.15-5.94,3.95-14.36.23c-2.6.04-5.43-2.76-5.42-5.7l.15-83.07c.01-7.92,11.92-4.51,19.43-5.03,2.17.14,4.61,4.78,5.74,6.56l17.92-.22c1.2-1.46,3.37-6.33,5.45-6.35l15.07-.12c1.75-.01,4.39,2.2,4.39,4.13l.22,82.04c.01,3.93-.92,7.73-6.27,7.69ZM93.92,107l-.1-6.91c-3.06-.23-4.88-.23-4.87-1.31.01-.99-.19-3.4.65-3.5l4.42-.51-.13-14.85c-2.06,0-4.79.43-4.8-.44v-3.72c0-.86,2.78-.68,4.88-.69V22.59s-12.9.02-12.9.02l-4.11,6.41-24.89-.03-4.21-6.5-12.88.26.06,52.38c2.07-.04,4.89-.47,4.88.4l-.03,3.94c0,.87-2.73.45-4.81.43l-.02,15.13c3.05.05,5.04.12,5,1.17-.04.98.22,3.57-.63,3.63l-4.33.29-.13,6.91,13.02-.11,4.25-3.92h24.53s4.24,3.94,4.24,3.94l12.92.04Z"/>
  <path class="cls-1" d="M93.92,107l-12.92-.04-4.24-3.94h-24.53s-4.25,3.92-4.25,3.92l-13.02.11.13-6.91,4.33-.29c.85-.06.59-2.65.63-3.63.04-1.05-1.94-1.12-5-1.17l.02-15.13c2.08.01,4.8.43,4.81-.43l.03-3.94c0-.87-2.81-.44-4.88-.4l-.06-52.38,12.88-.26,4.21,6.5,24.89.03,4.11-6.41,12.91-.02v52.48c-2.1.01-4.9-.17-4.89.69v3.72c0,.86,2.74.43,4.8.44l.13,14.85-4.42.51c-.84.1-.64,2.51-.65,3.5-.01,1.08,1.81,1.08,4.87,1.31l.1,6.91ZM71.9,34.05l-.97,4.99-13.22-.14-.73-4.84-16.37.41,7.14,8.61,34-.06,6.67-8.68-16.52-.28ZM71.95,75.08c2.44,1.08,5.52,5.03,6.45,7.79.42,1.23,2.76,1.27,5.52.83l-11.17-11.77c.02-2.44-.83-4.61-2.46-6.72l8.23-8.37-4.77-5.71-1.07,3.58-28.94,29.14,13.36.08-3.39-2.2,10.35-10.13,7.9,3.48Z"/>
  <path class="cls-2" d="M71.95,75.08l-7.9-3.48-10.35,10.13,3.39,2.2-13.36-.08,28.94-29.14,1.07-3.58,4.77,5.71-8.23,8.37c1.64,2.11,2.48,4.28,2.46,6.72l11.17,11.77c-2.76.44-5.1.4-5.52-.83-.93-2.75-4.01-6.71-6.45-7.79Z"/>
  <polygon class="cls-2" points="71.9 34.05 88.42 34.33 81.75 43.01 47.75 43.07 40.62 34.46 56.99 34.06 57.72 38.9 70.93 39.05 71.9 34.05"/>
</svg>