<?xml version="1.0" encoding="UTF-8"?>
<svg id="katman_1" data-name="katman 1" xmlns="http://www.w3.org/2000/svg" viewBox="0 0 128 128">
  <defs>
    <style>
      .cls-1 {
        fill: #dc322e;
      }

      .cls-2 {
        fill: #1d1d1d;
      }
    </style>
  </defs>
  <path class="cls-2" d="M87.66,122.99h-47.26s-6.68-6.66-6.68-6.66l-3.81-.05v-56.75s3.88-.06,3.88-.06v-8.71s-3.88-.02-3.88-.02v-31.76s3.87-.03,3.87-.03l.03-6.47h16.21s5.15-7.46,5.15-7.46h17.62s5.19,7.45,5.19,7.45h16.23s.02,6.47.02,6.47l3.87.03v31.76s-3.87.04-3.87.04v8.7s3.87.05,3.87.05v56.76s-3.78.05-3.78.05l-6.66,6.66ZM89.22,111.44h3.86s-.02-7.93-.02-7.93v-5.63s0-7.12,0-7.12l-3.87-.04v-5.58s3.88-.04,3.88-.04v-14.66s0-5.92,0-5.92h-3.86s-.01-6.58-.01-6.58l-3.72-.05v-5.69s3.72-.01,3.72-.01v-6.39s3.9,0,3.9,0v-8.65s-.01-13.1-.01-13.1h-3.87s-.02-6.51-.02-6.51h-13.88s-5.17-7.48-5.17-7.48h-12.3s-5.17,7.48-5.17,7.48h-13.84s-.02,6.48-.02,6.48l-3.88.03v21.72s3.88.02,3.88.02v6.37s3.75.02,3.75.02v5.71s-3.74.02-3.74.02v6.57s-3.89.05-3.89.05v20.56s3.87.01,3.87.01v5.61s-3.88.04-3.88.04v20.65s3.88.04,3.88.04v2.95s3.71,3.65,3.71,3.65h42.98s3.68-3.65,3.68-3.65l.03-2.97Z"/>
  <path class="cls-1" d="M89.22,111.44l-.03,2.97-3.68,3.65h-42.98s-3.7-3.65-3.7-3.65v-2.95s-3.88-.04-3.88-.04v-20.65s3.88-.04,3.88-.04v-5.61s-3.87-.01-3.87-.01v-20.56s3.88-.05,3.88-.05v-6.57s3.74-.02,3.74-.02v-5.71s-3.73-.02-3.73-.02v-6.37s-3.89-.02-3.89-.02v-21.72s3.88-.03,3.88-.03l.02-6.48h13.84s5.17-7.47,5.17-7.47h12.3s5.17,7.47,5.17,7.47h13.88s.02,6.49.02,6.49h3.87s0,13.11,0,13.11v8.65s-3.88,0-3.88,0v6.39s-3.73.01-3.73.01v5.69s3.72.05,3.72.05v6.59s3.87,0,3.87,0v5.92s0,14.66,0,14.66l-3.88.04v5.58s3.88.04,3.88.04v7.12s0,5.63,0,5.63l.02,7.92h-3.86ZM74.84,36.25l6.74-.02-3.54-5.11-10.74-15.35h-6.6s-14.28,20.44-14.28,20.44l6.72.05,10.85-15.47,10.85,15.47ZM62.11,55.97v-10.17s-18.66.01-18.66.01l5.63,10.17,13.03-.02ZM78.96,55.96l5.6-10.15h-18.66s0,10.17,0,10.17l13.06-.02Z"/>
  <polygon class="cls-2" points="74.84 36.25 63.99 20.79 53.14 36.26 46.42 36.22 60.7 15.78 67.3 15.77 78.04 31.12 81.58 36.23 74.84 36.25"/>
  <polygon class="cls-2" points="78.96 55.96 65.9 55.98 65.9 45.8 84.56 45.81 78.96 55.96"/>
  <polygon class="cls-2" points="62.11 55.97 49.09 55.98 43.46 45.81 62.1 45.8 62.11 55.97"/>
</svg>