<?xml version="1.0" encoding="UTF-8"?>
<svg id="katman_1" data-name="katman 1" xmlns="http://www.w3.org/2000/svg" viewBox="0 0 128 128">
  <defs>
    <style>
      .cls-1 {
        fill: #dc322e;
      }

      .cls-2 {
        fill: #1d1d1d;
      }
    </style>
  </defs>
  <path class="cls-2" d="M87.33,109.97h-46.67c-.63-2.33-.78-4.45-1.77-4.51l-5.78-.33-.19-29.38,4.84-1.36.19-11.62-4.97-1.02.05-30.65c8.45-1.62,1.18-1.99,13.28-6.94l.89-5.16h33.6s.89,5.15.89,5.15c11.23,4.32,5.77,5.9,13.22,6.63l.14,30.97-4.99.98.16,11.66,4.87,1.34-.19,29.39-5.81.33c-.97.06-1.11,2.17-1.75,4.5ZM83.54,105c.86-2.43,1.24-4.39,2.19-4.55l4.24-.72.04-19.42-4.94-1,.12-21.77,4.82-.62-.03-21.27-4.35-.88c-1.6-8.24-7.62-2.63-10.21-10.7h-22.83c-2.76,8.25-8.88,2.4-10,10.7l-4.6,1.06v20.97s4.87.8,4.87.8l.02,21.89-4.95,1.04.15,19.17,4.74,1.14c.76.18.86,2.06,1.33,4.1l39.41.07Z"/>
  <path class="cls-1" d="M83.54,105l-39.41-.07c-.47-2.04-.57-3.92-1.33-4.1l-4.74-1.14-.15-19.17,4.95-1.04-.02-21.89-4.85-.8v-20.97s4.59-1.06,4.59-1.06c1.12-8.31,7.24-2.46,10-10.7h22.83c2.59,8.07,8.61,2.45,10.21,10.7l4.35.88.03,21.27-4.82.62-.12,21.77,4.94,1-.04,19.42-4.24.72c-.95.16-1.33,2.13-2.19,4.55ZM80.66,57.13l4.16-9.15-41.67.02,4.44,9.16,33.07-.04ZM66.61,73.96l-.39-11.02c-.04-1.07-4.37-.98-4.4.11l-.32,11.39c-4.18,2.29-6.32,5.82-5.28,9.68s4.32,6.29,8.29,6.14c3.63-.14,6.87-2.97,7.52-6.81.64-3.77-2.06-6.5-5.42-9.49ZM81,99.94c-.91-1.77-3.5-4.71-5.22-4.71h-23.61c-1.7,0-4.32,2.95-5.11,4.75l33.94-.04Z"/>
  <polygon class="cls-2" points="80.66 57.13 47.59 57.17 43.15 48.01 84.82 47.98 80.66 57.13"/>
  <path class="cls-2" d="M66.61,73.96c3.36,3,6.06,5.73,5.42,9.49-.65,3.83-3.89,6.67-7.52,6.81-3.97.15-7.22-2.18-8.29-6.14s1.1-7.39,5.28-9.68l.32-11.39c.03-1.08,4.36-1.18,4.4-.11l.39,11.02Z"/>
  <path class="cls-2" d="M81,99.94l-33.94.04c.79-1.8,3.4-4.76,5.11-4.76h23.61c1.73,0,4.31,2.95,5.22,4.72Z"/>
</svg>