<?xml version="1.0" encoding="UTF-8"?>
<svg id="katman_1" data-name="katman 1" xmlns="http://www.w3.org/2000/svg" viewBox="0 0 128 128">
  <defs>
    <style>
      .cls-1 {
        fill: #dc322e;
      }

      .cls-2 {
        fill: #1d1d1d;
      }
    </style>
  </defs>
  <path class="cls-2" d="M92.43,111.65l-13.53-.1-5.37-3.87-18.08-.02-5.33,3.94-15.3-.04c-3.5,0-4.53-4.62-4.52-7.56l.21-82.08c0-1.3,2.32-4.02,3.51-4.02h15.86c2.19,0,4.67,4.83,5.77,6.58l17.8-.21,4.8-6.52,17.39.29c1,.02,2.86,2.93,2.86,4.05l.21,81.75c.01,4.18-.92,7.86-6.27,7.81ZM94.13,107.05l-.35-7.03c-2.96-.12-4.85-.16-4.82-1.22s-.23-3.57.62-3.63l4.45-.34-.12-14.83c-2.93-.08-4.99-.14-4.95-1.17s-.23-3.53.6-3.62l4.44-.46.02-51.95-12.61-.49-4.45,6.7-24.89-.02-4.19-6.49-12.88.24.06,52.39c2.07-.04,4.88-.49,4.87.38v3.96c-.01.87-2.67.44-4.86.42l.06,15.12c3.26.1,5.01.19,4.95,1.23-.06,1.11.19,3.55-.64,3.61l-4.32.29-.13,6.91,12.86-.11,4.98-3.99,23.97.12,4.21,3.85,13.14.14Z"/>
  <path class="cls-1" d="M94.13,107.05l-13.14-.14-4.21-3.85-23.97-.12-4.98,3.99-12.86.11.13-6.91,4.32-.29c.83-.06.58-2.5.64-3.61.06-1.04-1.69-1.13-4.95-1.23l-.06-15.12c2.19.02,4.85.44,4.85-.42v-3.96c.01-.87-2.8-.42-4.87-.38l-.06-52.39,12.88-.24,4.19,6.49,24.89.02,4.45-6.7,12.61.49-.02,51.95-4.44.46c-.83.09-.56,2.54-.6,3.62s2.02,1.08,4.95,1.17l.12,14.83-4.45.34c-.85.07-.59,2.53-.62,3.63s1.86,1.1,4.82,1.22l.35,7.03ZM71.9,34.06l-.97,4.93-12.73.03-1.26-5-16.29.45,7.04,8.58,33.67.05,7.15-8.74-16.6-.31ZM72,64h-17v25h17v-25Z"/>
  <rect class="cls-2" x="55" y="64" width="17" height="25"/>
  <polygon class="cls-2" points="71.9 34.06 88.5 34.37 81.35 43.11 47.68 43.06 40.65 34.47 56.93 34.02 58.19 39.02 70.93 38.99 71.9 34.06"/>
</svg>