<?xml version="1.0" encoding="UTF-8"?>
<svg id="katman_2" data-name="katman 2" xmlns="http://www.w3.org/2000/svg" viewBox="0 0 128 128">
  <defs>
    <style>
      .cls-1 {
        fill: #ffffff;
      }

      .cls-2 {
        fill: #1d1d1d;
      }
    </style>
  </defs>
  <path class="cls-2" d="M76.53,84.97c-2.66,11.69-12.81,18.37-23.75,19.11-15.78,1.07-28.23-9.09-28.96-24.82-.6-12.77,5.78-24.77,19.13-27.85,6.51-1.5,13.02-.28,20.83.79l.58-23.99c3.14-1.71,8.66-1.87,12.05-.8,1.46.46,1.88,4.42,1.56,5.71,2.43-2.34,5.98-6.4,8.71-8.02,5.28-3.12,9.63.08,12.97,3.2,3.56,3.32,6.84,9.42,2.51,13.68l-7.96,7.83c.81-.4,4.96,0,5.81,1.2,1.93,2.73,1.91,9.53-.75,12.04l-19.63.32c-7.61.12-.05,8.18-3.1,21.57ZM82.34,51.19l5.19-2.52,11.68-11.85c-2.59-3.69-5.09-6.26-8.62-7.95-4.61,4.18-9.12,8.13-12.55,12.79-1.76,2.39-2.99,5.58-5.17,7.84l-25.18,26.04c-1.09,1.13-.06,4.18,1.34,4.8,1.78.78,3.39-.13,4.99-1.69l28.33-27.46ZM71.38,31.57c-.61.08-2.15,1.13-2.15,1.89l-.02,11.39c5.42-2.98,4.4-13.58,2.17-13.28ZM94.29,58.44c.92.04,2.37-2.62,1.71-2.88-1.99-.79-11.38-1.58-12.78,2.35l11.07.53ZM40.83,75.86c.28-1.45,1.98-3.53,3.33-4.91l13.73-13.93c-10.89-3.8-21.35,1.01-26.21,9.73-4.91,8.8-3.05,20.01,4.33,26.58,7.45,6.63,18.44,7.63,26.87,1.81,7.93-5.48,11.93-15.89,7.65-26.02l-15.03,14.18c-1.77,1.67-3.97,3.46-6.33,3.14-3.33-.45-9.15-6.31-8.34-10.59Z"/>
  <path class="cls-1" d="M40.83,75.86c-.81,4.28,5.01,10.14,8.34,10.59,2.36.32,4.56-1.47,6.33-3.14l15.03-14.18c4.28,10.13.29,20.54-7.65,26.02-8.43,5.82-19.42,4.82-26.87-1.81-7.39-6.57-9.24-17.78-4.33-26.58,4.86-8.72,15.32-13.53,26.21-9.73l-13.73,13.93c-1.36,1.38-3.06,3.46-3.33,4.91Z"/>
  <path class="cls-1" d="M82.34,51.19l-28.33,27.46c-1.61,1.56-3.22,2.47-4.99,1.69-1.39-.61-2.42-3.67-1.34-4.8l25.18-26.04c2.18-2.26,3.41-5.45,5.17-7.84,3.44-4.66,7.95-8.61,12.55-12.79,3.53,1.7,6.03,4.26,8.62,7.95l-11.68,11.85-5.19,2.52ZM90.52,32.25l-11.31,11.29,4.54,4.54,11.31-11.29-4.54-4.54Z"/>
  <path class="cls-1" d="M71.38,31.57c2.23-.3,3.25,10.3-2.17,13.28l.02-11.39c0-.76,1.54-1.81,2.15-1.89Z"/>
  <path class="cls-1" d="M94.29,58.44l-11.07-.53c1.4-3.93,10.79-3.13,12.78-2.35.66.26-.79,2.93-1.71,2.88Z"/>
  <rect class="cls-2" x="79.14" y="36.96" width="15.98" height="6.42" transform="translate(-2.9 73.32) rotate(-44.96)"/>
</svg>