<?xml version="1.0" encoding="UTF-8"?>
<svg id="katman_1" data-name="katman 1" xmlns="http://www.w3.org/2000/svg" viewBox="0 0 128 128">
  <defs>
    <style>
      .cls-1 {
        fill: #ffffff;
      }

      .cls-2 {
        fill: #1d1d1d;
      }
    </style>
  </defs>
  <path class="cls-2" d="M13.52,98.02c-2.75-2.81-2.85-7.47-.59-10.34,1.79-2.29,4.6-3.08,9.36-4.24l-8.15-8.56c-1.49-1.57-4.08-6.94-2.31-8.73l27.69-27.83c1.11-1.11,5.31-.39,6.45.75l9.99,10.01,20.76-20.36c2.85-2.79,5.49-3.95,4.67-9.19l9.11-9.19c2.38-2.41,6.8-.66,8.72,1.35l17.65,18.54c1.38,1.45,3.16,4.3,2.99,6.26-.26,2.99-8.75,12.34-13.75,11.65l-56.59,56.43c-1.48,1.48-4.35,1.25-4.3,4.79.05,3.83-5.24,11.87-10.15,9.94-7.62-6.31-14.33-13.89-21.53-21.28ZM46.56,103.29l58.93-58.93,3.9.21,8.23-8.56-12.56-13.11-10.96-11.63-9.66,9.35.54,4.2-28.92,28.85-13.84-13.62-28.63,28.53,32.98,34.71ZM41.5,112.14c-.33-3.04.11-4.24,2.58-6.65l-12.64-14.12c-1.93-2.16-4.82-4.39-6.95-6-2.06,2.4-3.63,3.02-6.54,1.89l-4.93,5.14,23.6,24.56,4.89-4.81Z"/>
  <path class="cls-1" d="M46.56,103.29L13.58,68.58l28.63-28.53,13.84,13.62,28.92-28.85-.54-4.2,9.66-9.35,10.96,11.63,12.56,13.11-8.23,8.56-3.9-.21-58.93,58.93ZM58.9,85.17c2.06-4.21,2.55-6.81,3.95-8.23l26.01-26.24c1.47-4.34,2.71-9.14,3.65-14-5.34,2.12-11.38,2.81-14.71,6.06l-25.24,24.69-7.7,3.74c4.89,5.19,8.87,9.17,14.04,13.98ZM44.27,75.78l-7.79,7.82,9.83,9.8,7.79-7.82-9.83-9.8Z"/>
  <path class="cls-1" d="M41.5,112.14l-4.89,4.81-23.6-24.56,4.93-5.14c2.91,1.14,4.48.51,6.54-1.89,2.13,1.61,5.02,3.85,6.95,6l12.64,14.12c-2.46,2.41-2.91,3.6-2.58,6.65Z"/>
  <path class="cls-2" d="M58.9,85.17c-5.17-4.8-9.15-8.79-14.04-13.98l7.7-3.74,25.24-24.69c3.33-3.26,9.36-3.94,14.71-6.06-.94,4.87-2.18,9.66-3.65,14l-26.01,26.24c-1.4,1.41-1.89,4.01-3.95,8.23Z"/>
  <rect class="cls-2" x="39.78" y="77.65" width="11.03" height="13.88" transform="translate(-46.6 56.98) rotate(-45.11)"/>
</svg>