<?xml version="1.0" encoding="UTF-8" standalone="no"?>
<svg
   viewBox="0 0 740 740"
   version="1.1"
   id="svg1"
   sodipodi:docname="middleContext.svg"
   inkscape:version="1.4.2 (f4327f4, 2025-05-13)"
   width="740"
   height="740"
   xmlns:inkscape="http://www.inkscape.org/namespaces/inkscape"
   xmlns:sodipodi="http://sodipodi.sourceforge.net/DTD/sodipodi-0.dtd"
   xmlns="http://www.w3.org/2000/svg"
   xmlns:svg="http://www.w3.org/2000/svg">
  <defs
     id="defs1" />
  <sodipodi:namedview
     id="namedview1"
     pagecolor="#ffffff"
     bordercolor="#000000"
     borderopacity="0.25"
     inkscape:showpageshadow="2"
     inkscape:pageopacity="0.0"
     inkscape:pagecheckerboard="true"
     inkscape:deskcolor="#d1d1d1"
     inkscape:zoom="0.89161747"
     inkscape:cx="365.62765"
     inkscape:cy="366.74921"
     inkscape:window-width="1278"
     inkscape:window-height="1000"
     inkscape:window-x="1273"
     inkscape:window-y="0"
     inkscape:window-maximized="0"
     inkscape:current-layer="svg1" />
  <path
     style="fill:#000000;stroke-width:0.672428"
     d="m 376.06528,159.50679 c -13.00455,-0.0894 -25.7776,5.79532 -34.27626,15.87305 -55.98636,56.34819 -111.55564,113.14254 -166.55133,170.50353 -12.11792,11.56101 -14.82688,30.50459 -10.90656,46.37749 2.29993,9.51718 8.28421,17.45549 15.2656,23.9464 54.85069,56.8686 110.06409,113.38571 165.88824,169.25849 6.2979,6.97266 15.52058,10.49347 24.4712,12.08536 11.28129,0.4356 23.38699,-0.11286 32.9422,-7.04024 8.5428,-6.73186 15.635,-15.27321 23.55058,-22.76524 51.73946,-52.46049 103.51105,-104.9026 154.40093,-158.22277 7.21482,-8.36052 11.15718,-19.68165 10.30353,-30.85383 0.8063,-10.33814 -2.57416,-20.72191 -8.63434,-28.93375 -47.12296,-49.65574 -95.23641,-98.3253 -143.1619,-147.16986 -11.5942,-11.47943 -22.69967,-23.53899 -34.76883,-34.4834 -8.2554,-6.069 -18.40454,-8.88117 -28.52306,-8.57523 z"
     id="path2" />
  <rect
     style="fill:#000000;stroke-width:0.796625"
     id="rect1"
     width="27.046598"
     height="282.63245"
     x="0.70368344"
     y="1.1118864" />
  <rect
     style="fill:#000000;stroke-width:0.804841"
     id="rect1-8"
     width="27.607378"
     height="282.63245"
     x="712.93121"
     y="1.1387858" />
  <rect
     style="fill:#000000;stroke-width:0.796625"
     id="rect1-5"
     width="27.046598"
     height="282.63245"
     x="0.97893798"
     y="457.96902" />
  <rect
     style="fill:#000000;stroke-width:0.779933"
     id="rect1-1"
     width="25.925041"
     height="282.63245"
     x="714.20337"
     y="457.72739" />
  <rect
     style="fill:#000000;stroke-width:0.771452"
     id="rect1-7"
     width="25.364264"
     height="282.63245"
     x="715.17963"
     y="-283.9649"
     transform="rotate(90)" />
  <rect
     style="fill:#000000;stroke-width:0.788323"
     id="rect1-7-2"
     width="26.485821"
     height="282.63245"
     x="713.68237"
     y="-740.47052"
     transform="rotate(90)" />
  <rect
     style="fill:#000000;stroke-width:0.771452"
     id="rect1-7-1"
     width="25.364264"
     height="282.63245"
     x="0.063158095"
     y="-740.29199"
     transform="rotate(90)" />
  <rect
     style="fill:#000000;stroke-width:0.788323"
     id="rect1-7-7"
     width="26.485821"
     height="282.63245"
     x="0.42452291"
     y="-282.79626"
     transform="rotate(90)" />
  <path
     style="fill:#ffffff;stroke-width:1.12156"
     d="m 371.6385,160.15925 c -18.33177,0.52008 -30.34805,16.75728 -42.57683,28.20226 -52.04162,53.0013 -104.4421,105.698 -155.35612,159.77904 -12.30053,13.48959 -13.42807,34.23215 -6.9002,50.59933 9.50097,17.16221 25.66135,29.32157 38.47648,43.85933 48.67469,49.69017 96.76838,100.01743 147.03231,148.10164 12.08989,8.82836 28.31167,7.25842 42.07313,4.08591 14.34448,-6.17435 23.15633,-20.10801 34.6478,-30.07175 49.52875,-50.16602 99.36804,-100.07278 147.60234,-151.4844 8.0149,-8.30744 14.95541,-18.88469 13.60179,-30.97894 0.62883,-10.85022 0.10845,-22.7055 -7.76789,-31.11972 -23.69796,-27.99536 -50.51622,-53.19005 -75.80386,-79.73461 -33.58514,-33.71467 -66.27299,-68.38108 -100.96165,-100.96007 -6.98711,-6.93244 -16.40412,-11.50686 -26.43326,-10.28664 -2.54464,0.005 -5.08958,-0.0306 -7.63404,0.009 z"
     id="path3" />
  <path
     style="fill:#ffffff;stroke-width:1.12156"
     d="m 1.3822317,458.15612 c 0,94.32836 0,188.65673 0,282.98509 91.6923293,-1.88237 183.9984183,-0.90816 275.9227883,-1.17391 9.50217,3.06924 5.37637,-7.71388 6.18828,-13.19384 1.41212,-7.95388 -0.0342,-13.59591 -9.27254,-10.97055 -81.96057,-0.18281 -163.92115,-0.36603 -245.881726,-0.54952 -0.190195,-85.69908 -0.380039,-171.39818 -0.56954,-257.09727 -8.473379,-0.48703 -17.9187053,-0.50607 -26.3872623,0 z"
     id="path4" />
  <path
     style="fill:#ffffff;stroke-width:1.12156"
     d="m 0.26067446,0.5607786 c 0,94.2108054 0,188.4216114 0,282.6324114 8.88138554,0.50053 18.63619654,0.50053 27.51758154,0 0,-85.51216 0,-171.02432 0,-256.536492 84.764454,0 169.528924,0 254.293384,0 0.48789,-8.504431 0.50841,-17.8928447 0,-26.39602357 -93.83696,0 -187.673908,-10e-9 -281.5108614,0 z"
     id="path5" />
  <path
     style="fill:#ffffff;stroke-width:1.12156"
     d="m 457.85602,0.5607786 c 0.20145,8.2827778 -0.40198,16.8989484 0.3001,24.9743624 85.13831,0 170.27662,0 255.41494,0 0,85.886019 0,171.772039 0,257.658049 8.45003,0.48648 17.78525,0.509 26.23393,0 0.13835,-93.93431 0.76926,-187.871341 0.38772,-281.8043868 C 719.22176,-0.05134357 697.53329,0.83323177 676.30557,0.40155376 603.58937,0.1521619 530.87259,0.30181597 458.15612,0.26067443 Z"
     id="path6" />
  <path
     style="fill:#ffffff;stroke-width:1.12156"
     d="m 714.69261,458.15612 c 0,85.13831 0,170.27662 0,255.41494 -85.51216,0 -171.02432,0 -256.53649,0 -0.48789,8.50443 -0.50842,17.89285 0,26.39602 93.83695,0 187.6739,0 281.51086,0 0.70021,-71.44417 0.10015,-143.42692 0.3001,-215.07831 -0.20169,-22.30214 0.40231,-44.93801 -0.3001,-67.03275 -8.27845,0.19971 -16.90513,-0.39951 -24.97437,0.3001 z"
     id="path7" />
</svg>
