<?xml version="1.0" encoding="UTF-8" standalone="no"?>
<svg
   viewBox="0 0 712 712"
   version="1.1"
   id="svg1"
   sodipodi:docname="pen.svg"
   width="712"
   height="712"
   inkscape:version="1.4.2 (f4327f4, 2025-05-13)"
   xmlns:inkscape="http://www.inkscape.org/namespaces/inkscape"
   xmlns:sodipodi="http://sodipodi.sourceforge.net/DTD/sodipodi-0.dtd"
   xmlns="http://www.w3.org/2000/svg"
   xmlns:svg="http://www.w3.org/2000/svg">
  <defs
     id="defs1" />
  <sodipodi:namedview
     id="namedview1"
     pagecolor="#ffffff"
     bordercolor="#000000"
     borderopacity="0.25"
     inkscape:showpageshadow="2"
     inkscape:pageopacity="0.0"
     inkscape:pagecheckerboard="0"
     inkscape:deskcolor="#d1d1d1"
     inkscape:zoom="0.39404297"
     inkscape:cx="-15.226766"
     inkscape:cy="518.97893"
     inkscape:window-width="2560"
     inkscape:window-height="1009"
     inkscape:window-x="-8"
     inkscape:window-y="-8"
     inkscape:window-maximized="1"
     inkscape:current-layer="svg1" />
  <path
     d="m 289.88736,127.98736 c 15,-13.7 34.7,-21.4 55.1,-21.4 h 1 c 44.5,0 80.6,36.1 80.6,80.6 0,21.4 -8.5,41.9 -23.6,57 l -206.9,206.8 c -6.1,6.1 -9.5,14.4 -9.5,23 0,18 14.6,32.6 32.6,32.6 8.6,0 16.9,-3.4 23,-9.5 l 238.9,-238.9 c 15.1,-15.1 35.6,-23.6 57,-23.6 44.5,0 80.6,36.1 80.6,80.6 0,21.4 -8.5,41.9 -23.6,57 l -104.3,104.2 c -10.4,10.3 -16.2,24.4 -16.2,39 0,30.5 24.7,55.2 55.2,55.2 h 4.4 c 5.6,0 11.2,-0.9 16.6,-2.7 l 36.2,-12.1 c 12.6,-4.2 26.2,2.6 30.4,15.2 4.2,12.6 -2.6,26.2 -15.2,30.4 l -36.2,12.1 c -10.2,3.4 -21,5.2 -31.8,5.2 h -4.4 c -57,0 -103.2,-46.2 -103.2,-103.2 0,-27.4 10.9,-53.6 30.2,-73 l 104.3,-104.3 c 6.1,-6.1 9.5,-14.4 9.5,-23 0,-18 -14.6,-32.6 -32.6,-32.6 -8.6,0 -16.9,3.4 -23,9.5 l -238.9,238.9 c -15.1,15.1 -35.6,23.6 -57,23.6 -44.4,0 -80.5,-36.1 -80.5,-80.6 0,-21.4 8.5,-41.9 23.6,-57 l 206.9,-206.8 c 6.1,-6.1 9.5,-14.4 9.5,-23 0,-18 -14.6,-32.6 -32.6,-32.6 h -1 c -8.4,0 -16.5,3.2 -22.7,8.8 l -175.5,160.9 c -9.8,9 -25,8.3 -33.9,-1.5 -8.9,-9.8 -8.3,-25 1.5,-33.9 z"
     id="path1"
     style="fill:#ffffff" />
</svg>
