<?xml version="1.0" encoding="UTF-8" standalone="no"?>
<svg
   viewBox="0 0 712 712"
   version="1.1"
   id="svg1"
   sodipodi:docname="rectangle.svg"
   width="712"
   height="712"
   inkscape:version="1.4.2 (f4327f4, 2025-05-13)"
   xmlns:inkscape="http://www.inkscape.org/namespaces/inkscape"
   xmlns:sodipodi="http://sodipodi.sourceforge.net/DTD/sodipodi-0.dtd"
   xmlns="http://www.w3.org/2000/svg"
   xmlns:svg="http://www.w3.org/2000/svg">
  <defs
     id="defs1" />
  <sodipodi:namedview
     id="namedview1"
     pagecolor="#ffffff"
     bordercolor="#000000"
     borderopacity="0.25"
     inkscape:showpageshadow="2"
     inkscape:pageopacity="0.0"
     inkscape:pagecheckerboard="0"
     inkscape:deskcolor="#d1d1d1"
     inkscape:zoom="0.55726091"
     inkscape:cx="362.48729"
     inkscape:cy="314.03602"
     inkscape:window-width="1552"
     inkscape:window-height="1000"
     inkscape:window-x="999"
     inkscape:window-y="0"
     inkscape:window-maximized="0"
     inkscape:current-layer="svg1" />
  <!--! Font Awesome Pro 6.7.1 by @fontawesome - https://fontawesome.com License - https://fontawesome.com/license (Commercial License) Copyright 2024 Fonticons, Inc. -->
  <path
     d="m 555.49234,215.77263 c 8.8,0 16,7.2 16,16 v 256 c 0,8.8 -7.2,16 -16,16 h -384 c -8.8,0 -16,-7.2 -16,-16 v -256 c 0,-8.8 7.2,-16 16,-16 z m -384,-48.00001 c -35.3,0 -64,28.7 -64,64.00001 v 256 c 0,35.3 28.7,64 64,64 h 384 c 35.3,0 64,-28.7 64,-64 v -256 c 0,-35.30001 -28.7,-64.00001 -64,-64.00001 z"
     id="path1"
     style="fill:#ffffff" />
</svg>
