<?xml version="1.0" encoding="UTF-8" standalone="no"?>
<svg
   id="katman_2"
   data-name="katman 2"
   viewBox="0 0 128 128"
   version="1.1"
   sodipodi:docname="deployable_hab_activated.svg"
   inkscape:version="1.4.2 (f4327f4, 2025-05-13)"
   xmlns:inkscape="http://www.inkscape.org/namespaces/inkscape"
   xmlns:sodipodi="http://sodipodi.sourceforge.net/DTD/sodipodi-0.dtd"
   xmlns="http://www.w3.org/2000/svg"
   xmlns:svg="http://www.w3.org/2000/svg">
  <sodipodi:namedview
     id="namedview5"
     pagecolor="#ffffff"
     bordercolor="#000000"
     borderopacity="0.25"
     inkscape:showpageshadow="2"
     inkscape:pageopacity="0.0"
     inkscape:pagecheckerboard="0"
     inkscape:deskcolor="#d1d1d1"
     inkscape:zoom="3.1523438"
     inkscape:cx="27.598513"
     inkscape:cy="96.753408"
     inkscape:window-width="1278"
     inkscape:window-height="1000"
     inkscape:window-x="-7"
     inkscape:window-y="0"
     inkscape:window-maximized="0"
     inkscape:current-layer="katman_2" />
  <defs
     id="defs1">
    <style
       id="style1">
      .cls-1 {
        fill: #575750;
      }

      .cls-2 {
        fill: #f9ce0a;
      }
    </style>
  </defs>
  <path
     class="cls-2"
     d="M43.47,128H0v-44.37l7.36.04.02,36.98h35.6c.34.01.47.2.5.48v6.87Z"
     id="path1" />
  <path
     class="cls-2"
     d="M11.37,7.15h-4.07c0,1-.08,1.27-.08,2.11,0,.49,0,.75,0,1.52,0,.3-.05,2.08-.06,2.6-.02.84.03,6.25.03,6.57,0,.78-.03.93-.03,1.44v15.83c0,.82.04,1.25.04,2.4,0,.55-.02,1.86-.02,3.48l-7.17.02V0h43.26s.02,6.75.02,6.75c-.05.31-.26.36-.55.42l-11.48-.07c-2.06-.01-8.84.15-10.01.04h-9.88"
     id="path2" />
  <path
     class="cls-2"
     d="M120.97,120.79c-.08-.25-.11-2.17-.11-2.96v-32.57c-.02-.34.11-.51.4-.54h6.74s0,43.27,0,43.27h-43.15v-6.99c.01-.16.38-.27.55-.27h32.55s3.02.06,3.02.06Z"
     id="path3" />
  <polygon
     class="cls-2"
     points="120.78 43.35 120.76 7.28 83.89 7.25 83.82 2.96 83.79 0 127.99 0 128 43.34 120.78 43.35"
     id="polygon3" />
  <circle
     class="cls-1"
     cx="62.95"
     cy="21.71"
     r=".22"
     id="circle3" />
  <g
     id="g5"
     transform="translate(0.26950433,0.78057001)">
    <path
       class="cls-1"
       d="M 99.47,83.32 H 30 c 0,0 -0.07,-6.54 -0.07,-6.54 L 44.12,55.39 43.91,45.44 h 41.65 c 0,0 -0.2,10.02 -0.2,10.02 l 14.2,21.32 z M 47.46,48.94 v 5.35 c 0,0 34.55,0 34.55,0 v -5.35 c 0,0 -34.55,0 -34.55,0 z m 22.48,30.58 c 0.08,0.23 0.15,0.29 0.23,0.32 0.06,0.02 0.11,-0.09 0.24,-0.09 h 22.8 c 0.46,0.01 0.74,0.06 1.2,0.04 l 1.63,-0.08 c -0.13,-0.52 0.22,-1.41 -0.1,-1.9 L 94.15,75.11 91.4,70.99 89.05,67.45 83.5,59.13 c -0.34,-0.51 -0.68,-0.97 -1,-1.49 l -0.55,-0.88 h -34.5 c 0,0 -2.02,3.2 -2.02,3.2 L 44.01,62.02 43,63.64 c -1.12,1.8 -2.32,3.49 -3.51,5.24 l -0.91,1.34 -1.25,1.88 -1.79,2.7 -2,3.01 c -0.29,0.52 0,1.34 -0.03,1.94 h 26.02 c 0,0 0,-15.57 0,-15.57 l 10.43,0.02 v 15.33 z"
       id="path4"
       style="fill:#1d1d1d" />
    <path
       class="cls-2"
       d="M 69.94,79.52 V 64.19 c 0,0 -10.42,-0.02 -10.42,-0.02 v 15.58 c 0,0 -26.01,0 -26.01,0 0.04,-0.6 -0.26,-1.42 0.03,-1.94 l 2,-3.01 1.79,-2.7 1.25,-1.88 0.91,-1.34 c 1.2,-1.75 2.39,-3.45 3.51,-5.24 l 1.01,-1.62 1.42,-2.06 2.02,-3.19 h 34.5 c 0,0 0.55,0.88 0.55,0.88 0.33,0.52 0.66,0.98 1,1.49 l 5.55,8.32 2.35,3.54 2.75,4.12 1.79,2.7 c 0.32,0.49 -0.03,1.38 0.1,1.9 l -1.63,0.08 c -0.45,0.02 -0.74,-0.02 -1.2,-0.02 h -22.8 c -0.12,-0.01 -0.18,0.1 -0.24,0.08 -0.09,-0.03 -0.16,-0.08 -0.23,-0.32 z"
       id="path5"
       style="fill:#14c4ff" />
    <rect
       class="cls-2"
       x="62.060001"
       y="34.34"
       width="5.3499999"
       height="34.549999"
       transform="rotate(-89.98,64.740309,51.617713)"
       id="rect5"
       style="fill:#14c4ff" />
  </g>
  <path
     style="fill:#30a64a;stroke-width:0.448623"
     d="m 64.987737,57.236081 c -5.792747,0.09372 -11.677594,-0.178603 -17.413929,0.139318 -4.700123,7.431542 -10.098389,14.511196 -14.181565,22.289198 0.801145,1.658332 3.529566,0.607568 4.990054,1.010277 7.102655,0.0669 14.205834,0.02314 21.308711,0.03592 0.763755,-4.909414 0.261293,-10.360665 0.540625,-15.47749 3.242586,0 6.485171,0 9.727757,0 0.08049,5.060733 0.160793,10.121467 0.240959,15.182205 4.999349,0.682424 10.516629,0.109083 15.718447,0.291439 3.427398,-0.293175 7.177746,0.518455 10.440123,-0.651564 0.317405,-1.791881 -1.712232,-3.41539 -2.350003,-5.040024 -3.847982,-5.98372 -7.718319,-12.060154 -11.857848,-17.783666 -5.721111,0.0015 -11.442221,0.0029 -17.163331,0.0044 z"
     id="path6" />
  <path
     style="fill:#30a64a;stroke-width:0.448623"
     d="m 47.299553,49.904776 c 0.04671,2.518933 -0.946415,6.479324 2.991403,5.234518 10.617409,0 21.234817,0 31.852225,0 0.347743,-1.965408 1.44385,-6.735308 -2.243114,-5.534184 -10.766949,0 -21.533899,0 -32.300848,0 z"
     id="path7" />
  <path
     style="fill:#30a64a;fill-opacity:1;stroke-width:0.317224"
     d="m -0.29987608,0.15861214 c 0,14.27509286 0,28.55018586 0,42.82527886 1.85764698,0.70689 4.26157318,0.09495 6.32713758,0.299875 C 8.2050979,43.618622 6.9860379,40.685852 7.3030221,39.3829 7.359573,28.735572 7.0398198,18.067077 7.6691449,7.4374224 c 11.8244531,3e-7 23.6489051,0 35.4733581,0 0.70689,-1.8576467 0.09495,-4.261573 0.299875,-6.3271374 0.211878,-2.3836169 -3.264387,-0.79269568 -4.741015,-1.25154894 -12.900454,0 -25.800909,0 -38.701363,0 L -0.22431145,0.0830475 Z"
     id="path8" />
  <path
     style="fill:#30a64a;fill-opacity:1;stroke-width:0.317224"
     d="m 83.447336,0.15923171 c 0.09505,2.39997609 -0.193787,5.11062699 0.7057,7.27819069 12.136514,3e-7 24.273024,0 36.409544,0 0,11.9545646 0,23.9091286 0,35.8636926 1.85764,0.70689 4.26157,0.09494 6.32713,0.299876 2.38362,0.211877 0.7927,-3.264388 1.25155,-4.741016 0,-12.900454 0,-25.800908 0,-38.70136286 -1.85764,-0.70688927 -4.26157,-0.09494406 -6.32713,-0.29987608 -12.68898,0 -25.377947,0 -38.066918,0 l -0.22408,0.22454281 z"
     id="path9" />
  <path
     style="fill:#30a64a;fill-opacity:1;stroke-width:0.317224"
     d="m -0.29987608,83.5886 c 0,14.8038 0,29.6076 0,44.4114 1.85764698,0.70689 4.26157318,0.095 6.32713758,0.29988 12.4774885,0 24.9549775,0 37.4324655,0 0.707119,-1.91042 0.0938,-4.36779 0.299876,-6.48575 0.456977,-2.51112 -2.985427,-1.00591 -4.423791,-1.41016 -10.579926,0 -21.159852,0 -31.7397775,0 0,-12.27179 4e-7,-24.543582 0,-36.81537 C 5.6856125,82.88148 3.2282482,83.49479 1.110285,83.288724 0.63436959,83.378054 -0.01704738,83.046816 -0.29987608,83.5886 Z"
     id="path10" />
  <path
     style="fill:#30a64a;fill-opacity:1;stroke-width:0.317224"
     d="m 120.56258,84.857497 c 0,11.848822 0,23.697643 0,35.546473 -11.84883,0 -23.697648,0 -35.546471,0 -0.70712,1.91042 -0.0938,4.36778 -0.299876,6.48574 -0.456978,2.51112 2.985427,1.00591 4.423792,1.41017 12.900455,0 25.800905,0 38.701365,0 0.70689,-1.85765 0.0949,-4.26158 0.29987,-6.32714 0,-12.37175 0,-24.743496 0,-37.115243 -1.85764,-0.706889 -4.26157,-0.09494 -6.32713,-0.299876 -0.4418,0.07691 -0.99276,-0.221456 -1.25155,0.299876 z"
     id="path11" />
</svg>
