<?xml version="1.0" encoding="UTF-8" standalone="no"?>
<svg
   id="katman_2"
   data-name="katman 2"
   viewBox="0 0 128 128"
   version="1.1"
   sodipodi:docname="deployable_hab.svg"
   inkscape:version="1.4.2 (f4327f4, 2025-05-13)"
   xmlns:inkscape="http://www.inkscape.org/namespaces/inkscape"
   xmlns:sodipodi="http://sodipodi.sourceforge.net/DTD/sodipodi-0.dtd"
   xmlns="http://www.w3.org/2000/svg"
   xmlns:svg="http://www.w3.org/2000/svg">
  <sodipodi:namedview
     id="namedview5"
     borderopacity="0.25"
     inkscape:showpageshadow="2"
     inkscape:pageopacity="0.0"
     inkscape:pagecheckerboard="0"
     inkscape:deskcolor="#d1d1d1"
     inkscape:zoom="2.2290436"
     inkscape:cx="83.89248"
     inkscape:cy="99.145659"
     inkscape:window-width="1278"
     inkscape:window-height="1000"
     inkscape:window-x="1273"
     inkscape:window-y="0"
     inkscape:window-maximized="0"
     inkscape:current-layer="katman_2" />
  <defs
     id="defs1">
    <style
       id="style1">
      .cls-1 {
        fill: #1d1d1d;
      }

      .cls-2 {
        fill: #14c4ff;
      }
    </style>
  </defs>
  <circle
     class="cls-1"
     cx="62.95"
     cy="21.71"
     r=".22"
     id="circle3" />
  <g
     id="g5">
    <path
       class="cls-1"
       d="M99.47,83.32H30s-.07-6.54-.07-6.54l14.19-21.39-.21-9.95h41.65s-.2,10.02-.2,10.02l14.2,21.32-.09,6.54ZM47.46,48.94v5.35s34.55,0,34.55,0v-5.35s-34.55,0-34.55,0ZM69.94,79.52c.08.23.15.29.23.32.06.02.11-.09.24-.09h22.8c.46.01.74.06,1.2.04l1.63-.08c-.13-.52.22-1.41-.1-1.9l-1.79-2.7-2.75-4.12-2.35-3.54-5.55-8.32c-.34-.51-.68-.97-1-1.49l-.55-.88h-34.5s-2.02,3.2-2.02,3.2l-1.42,2.06-1.01,1.62c-1.12,1.8-2.32,3.49-3.51,5.24l-.91,1.34-1.25,1.88-1.79,2.7-2,3.01c-.29.52,0,1.34-.03,1.94h26.02s0-15.57,0-15.57l10.43.02v15.33Z"
       id="path4" />
    <path
       class="cls-2"
       d="M69.94,79.52v-15.33s-10.42-.02-10.42-.02v15.58s-26.01,0-26.01,0c.04-.6-.26-1.42.03-1.94l2-3.01,1.79-2.7,1.25-1.88.91-1.34c1.2-1.75,2.39-3.45,3.51-5.24l1.01-1.62,1.42-2.06,2.02-3.19h34.5s.55.88.55.88c.33.52.66.98,1,1.49l5.55,8.32,2.35,3.54,2.75,4.12,1.79,2.7c.32.49-.03,1.38.1,1.9l-1.63.08c-.45.02-.74-.02-1.2-.02h-22.8c-.12-.01-.18.1-.24.08-.09-.03-.16-.08-.23-.32Z"
       id="path5" />
    <rect
       class="cls-2"
       x="62.06"
       y="34.34"
       width="5.35"
       height="34.55"
       transform="translate(13.1 116.34) rotate(-89.98)"
       id="rect5" />
  </g>
  <path
     style="fill:#30a64a;stroke-width:0.448623"
     d="m 64.718233,56.455511 c -5.792747,0.09372 -11.677594,-0.178603 -17.413929,0.139318 -4.700123,7.431542 -10.098389,14.511196 -14.181565,22.289198 0.801145,1.658332 3.529566,0.607568 4.990054,1.010277 7.102655,0.0669 14.205834,0.02314 21.308711,0.03592 0.763755,-4.909414 0.261293,-10.360665 0.540625,-15.47749 3.242586,0 6.485171,0 9.727757,0 0.08049,5.060733 0.160793,10.121467 0.240959,15.182205 4.999349,0.682424 10.516629,0.109083 15.718447,0.291439 3.427398,-0.293175 7.177746,0.518455 10.440123,-0.651564 0.317405,-1.791881 -1.712232,-3.41539 -2.350003,-5.040024 -3.847982,-5.98372 -7.718319,-12.060154 -11.857848,-17.783666 -5.721111,0.0015 -11.442221,0.0029 -17.163331,0.0044 z"
     id="path6" />
  <path
     style="fill:#30a64a;stroke-width:0.448623"
     d="m 47.030049,49.124206 c 0.04671,2.518933 -0.946415,6.479324 2.991403,5.234518 10.617409,0 21.234817,0 31.852225,0 0.347743,-1.965408 1.44385,-6.735308 -2.243114,-5.534184 -10.766949,0 -21.533899,0 -32.300848,0 z"
     id="path7" />
</svg>
