<?xml version="1.0" encoding="UTF-8"?>
<svg id="katman_2" data-name="katman 2" xmlns="http://www.w3.org/2000/svg" viewBox="0 0 128 128">
  <defs>
    <style>
      .cls-1 {
        fill: #30a64a;
      }

      .cls-2 {
        fill: #1d1d1d;
      }
    </style>
  </defs>
  <path class="cls-2" d="M58.44,113.97l-29.78-.02-14.74-14.96.22-29.57L55.92,27.7c9.45-3.16,18.52-7.08,28.09-9.4,4.16-1.01,8.22-.78,10.96-4.3,1.71-2.19,8.53-2.47,10.53-.76,3.2,2.73,6.62,6.01,9.18,9.14,3.54,4.33.82,11.6-4.26,13.99l-.33,7.8-9.79,27.91-41.87,41.88ZM32.81,108.1l22.19-.17,39.74-40.05,9.24-26.68-3.14-4.27,9.37-9.35-9.78-9.63-9.4,9.27-4.14-3.28-27.33,9.64-39.46,39.57-.18,22.28,12.88,12.69Z"/>
  <path class="cls-1" d="M32.81,108.1l-12.88-12.69.18-22.28,39.46-39.57,27.33-9.64,4.14,3.28,9.4-9.27,9.78,9.63-9.37,9.35,3.14,4.27-9.24,26.68-39.74,40.05-22.19.17ZM94.94,40.33l4.19-9.97-9.73,4.42,5.54,5.55ZM72.78,42.16l4.63-10.12-9.92,4.92,5.29,5.2ZM82.84,51.25l4.58-10.21-9.99,4.72,5.42,5.49ZM60.89,54.31l4.46-10.33-9.86,5,5.4,5.34ZM90.84,61.25l4.54-10.15-9.83,4.77,5.29,5.39ZM70.94,64.3l4.24-9.9-9.82,4.33,5.57,5.57ZM79.81,74.25l4.49-10.01-9.73,4.65,5.24,5.36ZM26.14,73.02l-2.12,2.12,29.85,29.85,2.12-2.12-29.85-29.85Z"/>
  <rect class="cls-2" x="38.51" y="67.89" width="3" height="42.22" transform="translate(-51.22 54.36) rotate(-45)"/>
  <polygon class="cls-2" points="82.84 51.25 77.43 45.75 87.42 41.03 82.84 51.25"/>
  <polygon class="cls-2" points="94.94 40.33 89.4 34.78 99.13 30.36 94.94 40.33"/>
  <polygon class="cls-2" points="72.78 42.16 67.49 36.96 77.41 32.03 72.78 42.16"/>
  <polygon class="cls-2" points="60.89 54.31 55.49 48.97 65.35 43.97 60.89 54.31"/>
  <polygon class="cls-2" points="90.84 61.25 85.54 55.87 95.38 51.1 90.84 61.25"/>
  <polygon class="cls-2" points="70.94 64.3 65.36 58.73 75.18 54.4 70.94 64.3"/>
  <polygon class="cls-2" points="79.81 74.25 74.57 68.89 84.31 64.24 79.81 74.25"/>
</svg>