<?xml version="1.0" encoding="UTF-8"?>
<svg id="katman_2" data-name="katman 2" xmlns="http://www.w3.org/2000/svg" viewBox="0 0 128 128">
  <defs>
    <style>
      .cls-1 {
        fill: #30a64a;
      }

      .cls-2 {
        fill: #1d1d1d;
      }
    </style>
  </defs>
  <path class="cls-2" d="M94.47,110.29l-13.38-13.11c-4.76,5.33-28.85,5.38-33.64.37l-12.42,12.35c-.92.92-4.82.91-5.46-.08s-.98-2.87-1.11-4.75l-.27-3.99c-.09-1.26-4.94.89-9.1-1.69-1.01-.63-.89-4.47.03-5.4l13.81-13.98c1.15-1.17,3.28-2.07,4.6-2.43-1.65-2.62-.47-7.28-.77-10.68-.54-6.06-.98-11.57-1.2-18.02.12.02-3.47-.84-4.3-1.66l-11.73-11.62c-.89-.88-1.37-4.06-.89-5.13.58-1.29,3.38-1.99,5.23-2.08l4.08-.18c1.36-.06-.68-4.83,1.7-9.05,2.85-5.04,15.1,9.48,17.42,12.98,10.55-4.7,23.95-4.59,34.32.33,3.39-4.13,14.25-17.95,18.01-13.18.73.92,1.01,2.8,1.09,4.69l.19,4.07c.06,1.26,4.6-.6,9.11,1.58,1.06.51.97,4.57,0,5.54l-13.29,13.37-4.27,1.44-1.05,16.38c-.18,2.79.32,7.2.65,9.86l17.61,17.11c.95.92,1.38,4.19.9,5.27-.58,1.29-3.34,1.94-5.22,2l-4.13.14c-.96.03-.24,3.18-.4,4.24l-.64,4.28c-.18,1.18-4.57,1.94-5.47,1.06ZM34.87,45.76c2.77-5.39,5.03-8.58,8.97-12.87l-11.91-11.85-.68,10.06-10.27.76,13.9,13.91ZM107.92,31.9l-10.19-.64-.61-10.17-12.91,12.5c3.98,3.05,6.99,7.92,8.97,13.45l14.74-15.13ZM73.7,97.37c3.78-.7,6.67-4.86,6.65-8.46-.04-6.44,3.04-10.58,8.3-14.2l-1.2-9.46c3.46-8.69,2.32-16.96-2.83-24.28-8.94-12.68-32.65-12.97-41.71.55-4.9,7.31-5.72,15.27-2.47,23.73l-1.12,9.51c5.19,3.56,8.24,7.9,8.29,13.99.08,11.89,18.31,10.07,26.1,8.62ZM31.99,107.88l12.04-11.86-1.55-10.04c-.32-2.06-2.84-4.89-4.85-5.6l-16.69,16.81,10.26.81.79,9.89ZM97.73,97.67l10.21-.58-17.05-17.22c-6.41,2.43-6.19,10.09-6.55,15.61l12.78,12.42.61-10.23Z"/>
  <path class="cls-1" d="M73.7,97.37c-7.79,1.45-26.01,3.27-26.1-8.62-.04-6.09-3.1-10.43-8.29-13.99l1.12-9.51c-3.25-8.46-2.43-16.42,2.47-23.73,9.06-13.52,32.77-13.24,41.71-.55,5.16,7.32,6.3,15.59,2.83,24.28l1.2,9.46c-5.26,3.63-8.34,7.76-8.3,14.2.02,3.61-2.87,7.76-6.65,8.46ZM54.21,76.63c3.4-2.39,5.41-4.28,8.46-7.61l-18.07-7.61c-1.05,4.79-.74,8.66,1.37,12.58,1.38,2.57,5.89,4.3,8.24,2.65ZM76.69,77.29c4.85,1.07,9.26-9.82,6.64-15.87l-17.94,7.5c3.26,3.97,5.88,7.17,11.3,8.36ZM64.32,84.86c1.6,0,4.15,0,4.97-.61-1.55-4.55-3.03-8.36-5.24-13.35-2.69,5.26-3.91,8.74-5.46,13.94l5.73.03Z"/>
  <path class="cls-1" d="M97.73,97.67l-.61,10.23-12.78-12.42c.35-5.52.14-13.18,6.55-15.61l17.05,17.22-10.21.58Z"/>
  <path class="cls-1" d="M31.99,107.88l-.79-9.89-10.26-.81,16.69-16.81c2,.72,4.53,3.54,4.85,5.6l1.55,10.04-12.04,11.86Z"/>
  <path class="cls-1" d="M107.92,31.9l-14.74,15.13c-1.97-5.53-4.99-10.4-8.97-13.45l12.91-12.5.61,10.17,10.19.64Z"/>
  <path class="cls-1" d="M34.87,45.76l-13.9-13.91,10.27-.76.68-10.06,11.91,11.85c-3.94,4.29-6.2,7.48-8.97,12.87Z"/>
  <path class="cls-2" d="M76.69,77.29c-5.42-1.19-8.04-4.4-11.3-8.36l17.94-7.5c2.62,6.05-1.79,16.93-6.64,15.87ZM79.88,66.42l-7.98,3.55c1.24,2.26,3.64,4.33,5.2,3.77,3.06-1.09,4.95-8.13,2.78-7.31Z"/>
  <path class="cls-2" d="M54.21,76.63c-2.35,1.65-6.85-.08-8.24-2.65-2.11-3.92-2.43-7.79-1.37-12.58l18.07,7.61c-3.05,3.33-5.06,5.23-8.46,7.61ZM57.18,70.27l-9.96-4.04c-.11,3.66,1.41,6.58,4.44,8.03l5.52-3.99Z"/>
  <path class="cls-2" d="M64.32,84.86l-5.73-.03c1.55-5.2,2.77-8.68,5.46-13.94,2.21,4.99,3.69,8.8,5.24,13.35-.82.62-3.37.62-4.97.61Z"/>
  <path class="cls-1" d="M79.88,66.42c2.17-.82.28,6.22-2.78,7.31-1.56.56-3.96-1.5-5.2-3.77l7.98-3.55Z"/>
  <path class="cls-1" d="M57.18,70.27l-5.52,3.99c-3.04-1.45-4.55-4.37-4.44-8.03l9.96,4.04Z"/>
</svg>