<?xml version="1.0" encoding="UTF-8"?>
<svg id="katman_1" data-name="katman 1" xmlns="http://www.w3.org/2000/svg" viewBox="0 0 128 128">
  <defs>
    <style>
      .cls-1 {
        fill: #04a0d8;
      }

      .cls-2 {
        fill: #1d1d1d;
      }
    </style>
  </defs>
  <path class="cls-2" d="M39.34,99.2l-.88,3.88c-.17.77.49,4.38-.91,5.74l-2.19,2.14c-.32.31-.85.46-1.3.46h-4.07c-.4.01-.9-.16-1.2-.43-2.73-2.47-2.27-3.21-6.44-6.32-.44-.33-1.24-.25-1.65-.62-.88-.79-1.63-1.56-2.47-2.4-.2-.2-.38-.69-.38-.99l.04-6.59,2.26-2.29c.36-.36.87-.61,1.38-.6h2.7s10.25-10.3,10.25-10.3l-.15-1.98c-.04-.58.09-1.21.39-1.7.58-.96,1.07-1.85,1.59-2.84.19-.36.53-.77.78-1.1l-.06-3.32c-.02-.91.69-1.5,1.28-2.05,1.17-1.1,2.28-2.1,3.65-2.94.52-.32,1.12-.95,1.72-1.02,1.09-.12,3.12.06,3.29-.32l-1.79-1.79c-.18-.18-.31-.72-.31-.96v-3.71c.02-.29.12-.96.33-1.16l4.62-4.52,3.96-3.88c.22-.22.68-.52.97-.52l4.7-.03c.25.08.62.25.82.44l3.25,2.97,7.23-7.24,5.08-5.23-.86-.91c-.35-.37-.63-.82-.63-1.37v-4.05c0-.25.24-.7.4-.86l1.86-1.86c.22-.22.7-.42,1.02-.42l4.33.04c.63.39,1.26.96,1.89,1.47l9.92-9.94c.06-.6.23-1.1.67-1.49.54-.49,1.03-.98,1.54-1.5.4-.41.84-.51,1.39-.51l4.41.06c.54,0,1.09.69,1.44,1.05l1.62,1.65.05,4.74c0,.36-.19.79-.48,1.08l-10.62,10.45c.06.17.19.46.19.62v4.37c-.82,1.02-1.83,1.9-2.79,2.79.55.4.85.86.89,1.58l13.73,13.71c.49.01,1.15-.08,1.49.18,1.02.79,2,1.7,2.81,2.72.08,1.45.03,2.9.03,4.38,0,.33-.31.77-.55,1l-3.88,3.76-4.92.07-2.86-2.83c-.34-.34-.2-1.13-.22-1.68l-12.77-12.63c-.43.21-.62.58-.62.98v2.82c0,.33-.21.73-.43.98l-4.98,4.77-3.45,3.37,7.39,6.92c.27.26.46.75.48,1.11.06,1.4.08,2.66-.05,4.07-.03.35-.51.87-.79,1.13l-7.12,6.78c-.29.28-.82.71-1.19.71l-3.58.04c-.52,0-1.16-.16-1.55-.54l-5.09-5.05c-.28-.16-.81.46-.61.76l1.15,1.7.03,3.83c0,.65-.24,1.3-.73,1.74-.62.55-1.16,1.25-1.84,1.71s-4.59,2.47-5.11,2.47l-3.95.03c-.44,0-.93-.23-1.24-.53l-2-1.97c-.29-.29-.47-.78-.48-1.18l-.05-2.04-3.33,1.65c-.64.32-4.58,3.95-5.57,6.49-.37.95-.66,1.81-.88,2.79ZM47.86,84.03l3.45-2.2c.73-.47,1.68.47,1.71,1.24l.22,5.19c.02.59.03,1.07.69,1.41.75.38,1.75.13,2.55-.24,1.19-.54,2.29-1.09,3.34-1.83.45-.31.64-.71.65-1.18.02-.57-.29-.78-.62-1.25-1.33-1.87-1.24-4.14-1.34-6.46.77-.06,1.4.78,2.32-.1l3.02-2.92c.63.53,1.18,1.04,1.75,1.62l5.71,5.77,1.45.03,6.35-6.04c.3-.28.15-1.14-.13-1.4l-9.28-8.65c-.64-.6-1.02-1.38-.98-2.25.02-.4.66-.83,1.04-.65.43.2.8.48,1.21.78l8.77-8.44c.34-.32.54-.68.51-1.16-.07-.97-1.8-1.5-2.71-1.89l.27-1.46c.66.2,1.21.5,1.89.39.73-.12,1.44-.71,1.73-1.38.53-1.23-.29-2.57.53-2.9.53-.21.66.85,1.92-.15.42-.33,1.05-.42,1.51.03l15.57,15.46c1.27,1.26.46,2.39,1.66,3.17.26.17,1.02.18,1.24-.03l2.11-2.06c.19-.22.18-.95.02-1.19-.55-.81-1.64.04-2.66-.99l-14.34-14.42c-1.99-2,.25-.8-2.71-3.39-.49-.43-.94-1.13-.47-1.71l1.4-1.74c.42-.52.56-1.27,1.28-1.41s1.38-.61,1.44-1.26c.08-.84-.18-1.39-.95-1.75l-1.47-.69c1.01-1.11,1.84-1.95,2.83-2.92l7.76-7.63,2.62-2.56.03-1.34c0-.25-.23-.87-.48-.87l-1.58-.04c-.53-.01-.93.39-.92.92,0,.41-.15.76-.46,1.07l-10.19,10.24c-.79.8-1.41,1.63-2.26,2.32-.56.46-1.52.64-2.03.1l-2.45-2.62c-.58-.05-1.26-.04-1.85.09-.06.58-.05,1.24,0,1.76.95.72,3.25,3.56,2.14,4.68l-14.52,14.66-2.56,2.55-5.52-5.09c-.39-.36-1.28-.21-1.78-.17l-7.23,7.09v1.42s1.51,1.35,1.51,1.35c.34-.08.75-.39,1.01-.7,1.85-2.19,3.69-4.25,5.69-6.31.21-.22.61-.35.85-.13l1.54,1.42c.44.41.21,1.15-.16,1.55-2.22,2.36-4.41,3.3-5.98,5.51-.24.33-.64.73-.81,1.04-.23.41-.3.84-.64,1.18l-3.52,3.48c-.34.33-1.14.34-1.55.23-.94-.26-1.63-.1-2.47.32-1.21.62-2.28,1.53-3.28,2.48-.35,2.05.97,1.45.97,2.84-.41.84-1.25,1.5-1.75,2.29l-1.57,2.49c-1.02,1.63.43,1.72.62,3.24l-12.88,12.94c-.45.45-.9.67-1.45.89-1.59.62-.37-.72-3.09-.23l-.03,3.54c-.01,1.48,1.13.77,3.33,2.47,1.53,1.18,2.91,2.47,4.18,3.94,1.17,1.35,1.01,2.28,3.57,1.86.5-.08.59-.76.76-1.09.36-.72.51-1.34.44-2.14-.12-1.55.24-3.05.56-4.57l.68-3.15.87-2.51c.21-.61.51-1.24.97-1.71l5.62-5.77c.49-.5,1-.61,1.65-.81,1.09-.34,2.17-.86,3.18-1.5Z"/>
  <path class="cls-1" d="M47.86,84.03c-1.01.65-2.1,1.16-3.18,1.5-.65.2-1.16.31-1.65.81l-5.62,5.77c-.46.47-.76,1.1-.97,1.71l-.87,2.51-.68,3.15c-.33,1.52-.68,3.01-.56,4.57.06.8-.08,1.42-.44,2.14-.17.33-.26,1.01-.76,1.09-2.56.43-2.4-.51-3.57-1.86-1.27-1.47-2.64-2.75-4.18-3.94-2.2-1.7-3.34-.99-3.33-2.47l.03-3.54c2.72-.49,1.51.85,3.09.23.55-.22,1-.44,1.45-.89l12.88-12.94c-.19-1.52-1.65-1.61-.62-3.24l1.57-2.49c.5-.8,1.34-1.45,1.75-2.29,0-1.39-1.33-.79-.97-2.84,1-.95,2.07-1.87,3.28-2.48.84-.43,1.53-.59,2.47-.32.41.11,1.21.11,1.55-.23l3.52-3.48c.34-.34.42-.77.64-1.18.17-.31.58-.7.81-1.04,1.57-2.21,3.75-3.15,5.98-5.51.37-.4.6-1.14.16-1.55l-1.54-1.42c-.24-.22-.64-.08-.85.13-1.99,2.06-3.84,4.12-5.69,6.31-.26.31-.68.62-1.01.7l-1.5-1.35v-1.42s7.21-7.09,7.21-7.09c.5-.04,1.38-.2,1.78.17l5.52,5.09,2.56-2.55,14.52-14.66c1.11-1.12-1.19-3.96-2.14-4.68-.05-.52-.06-1.18,0-1.76.58-.13,1.27-.14,1.85-.09l2.45,2.62c.51.54,1.47.36,2.03-.1.86-.7,1.47-1.52,2.26-2.32l10.19-10.24c.3-.3.46-.66.46-1.07,0-.53.39-.93.92-.92l1.58.04c.25,0,.48.63.48.87l-.03,1.34-2.62,2.56-7.76,7.63c-.99.97-1.82,1.81-2.83,2.92l1.47.69c.77.36,1.03.92.95,1.75-.06.65-.7,1.12-1.44,1.26s-.87.9-1.28,1.41l-1.4,1.74c-.47.58-.02,1.28.47,1.71,2.96,2.59.71,1.38,2.71,3.39l14.34,14.42c1.02,1.02,2.11.17,2.66.99.16.24.17.97-.02,1.19l-2.11,2.06c-.22.21-.98.2-1.24.03-1.2-.78-.39-1.91-1.66-3.17l-15.57-15.46c-.46-.45-1.09-.36-1.51-.03-1.26,1-1.39-.06-1.92.15-.82.32,0,1.67-.53,2.9-.29.67-1,1.26-1.73,1.38-.68.11-1.23-.19-1.89-.39l-.27,1.46c.91.39,2.65.91,2.71,1.89.03.49-.17.84-.51,1.16l-8.77,8.44c-.41-.3-.78-.58-1.21-.78-.38-.17-1.03.26-1.04.65-.04.87.34,1.66.98,2.25l9.28,8.65c.28.26.43,1.11.13,1.4l-6.35,6.04-1.45-.03-5.71-5.77c-.57-.58-1.12-1.09-1.75-1.62l-3.02,2.92c-.92.89-1.54.04-2.32.1.1,2.31,0,4.59,1.34,6.46.33.47.63.68.62,1.25-.01.47-.2.86-.65,1.18-1.06.74-2.15,1.29-3.34,1.83-.8.36-1.8.62-2.55.24-.66-.34-.67-.82-.69-1.41l-.22-5.19c-.03-.77-.98-1.71-1.71-1.24l-3.45,2.2ZM57.92,65.39l4.27-4.26c.69-.69-.47-1.98-1.16-2.11-.31-.06-.74.13-.97.37l-4.36,4.37c-.2.2-.35.75-.25,1,.16.38.98,1.28,1.55,1.27.37,0,.63-.34.93-.64ZM60.26,68.32l4.57-4.66c.57-.58-.71-2.01-1.38-2.03-.3,0-.6.23-.83.46l-4.36,4.37c-.32.32-.47.76-.15,1.16.29.37.65.73,1.07.99.32.19.84-.04,1.08-.29ZM62.75,70.99l4.64-4.65c.5-.5-.12-1.24-.46-1.58-.38-.38-.98-.78-1.44-.32l-4.64,4.6c-.31.31-.38.89-.07,1.19l.94.9c.23.22.77.13,1.04-.13ZM60.8,76.15l1.86-1.72c-.42-.61-1.84-2.25-2.6-1.41-.5.55-.97,1.01-1.36,1.61-.5.75.07,1.95.94,2.12.45.09.85-.3,1.16-.59ZM33.15,95.79c-.45-.72-.92-1.17-1.52-1.62-.32-.06-.63-.06-.85.16l-4.34,4.49c1.21,1.31,2.51,2.27,4.09,3.04l2.63-6.08Z"/>
  <path class="cls-2" d="M33.15,95.79l-2.63,6.08c-1.57-.77-2.87-1.73-4.09-3.04l4.34-4.49c.21-.22.53-.23.85-.16.61.45,1.07.91,1.52,1.62Z"/>
  <path class="cls-2" d="M57.92,65.39c-.3.3-.56.64-.93.64-.57,0-1.39-.89-1.55-1.27-.1-.25.05-.8.25-1l4.36-4.37c.23-.23.66-.42.97-.37.68.13,1.85,1.42,1.16,2.11l-4.27,4.26Z"/>
  <path class="cls-2" d="M62.75,70.99c-.26.27-.81.35-1.04.13l-.94-.9c-.31-.3-.24-.88.07-1.19l4.64-4.6c.46-.46,1.06-.06,1.44.32.34.34.96,1.08.46,1.58l-4.64,4.65Z"/>
  <path class="cls-2" d="M60.26,68.32c-.25.25-.77.48-1.08.29-.43-.26-.78-.62-1.07-.99-.32-.4-.16-.85.15-1.16l4.36-4.37c.23-.23.53-.46.83-.46.67.02,1.95,1.44,1.38,2.03l-4.57,4.66Z"/>
  <path class="cls-2" d="M60.8,76.15c-.32.29-.72.68-1.16.59-.86-.17-1.44-1.36-.94-2.12.4-.59.86-1.06,1.36-1.61.76-.84,2.18.8,2.6,1.41l-1.86,1.72Z"/>
</svg>