<?xml version="1.0" encoding="UTF-8"?>
<svg id="katman_1" data-name="katman 1" xmlns="http://www.w3.org/2000/svg" viewBox="0 0 128 128">
  <defs>
    <style>
      .cls-1 {
        fill: #ffffff;
      }

      .cls-2 {
        fill: #1d1d1d;
      }
    </style>
  </defs>
  <path class="cls-2" d="M103.16,64c0,21.63-17.53,39.16-39.16,39.16s-39.16-17.53-39.16-39.16,17.53-39.16,39.16-39.16,39.16,17.53,39.16,39.16ZM98.24,64.01c0-18.91-15.33-34.24-34.24-34.24s-34.24,15.33-34.24,34.24,15.33,34.24,34.24,34.24,34.24-15.33,34.24-34.24Z"/>
  <path class="cls-1" d="M98.24,64.01c0,18.91-15.33,34.24-34.24,34.24s-34.24-15.33-34.24-34.24,15.33-34.24,34.24-34.24,34.24,15.33,34.24,34.24ZM57.91,57.6c1.79-1.63,3.16-2.67,3.82-3.77s.2-5.08-1.04-5.45c-1.43-.43-3.54-.51-3.56-1.39-.02-1.15-.25-2.73.44-2.92l3.72-1.02c.75-1.79.59-5.8.17-8.52-14.69,1.53-25.37,12.36-26.96,26.85,2.97.76,7.35.96,8.67-.47l1.15-3.68c.21-.68,2.92-.5,3.12.2l.96,3.36c.41,1.43,5.06,1.82,6.04.71l3.46-3.9ZM79.8,59.88c.17-2.06,1.6-3.32,3.24-2.92.84.21,1.13,1.68,1.69,4.11,1.63.47,5.48.52,8.71.19-1.54-14.48-12.33-25.31-26.72-26.67-.39,3.2-.32,6.7.27,8.69,2.03.29,3.23.11,3.66.76s.65,3.21-.11,3.43l-3.16.94c-1.37.41-1.77,5.04-.71,6.04l3.54,3.34c1.56,1.56,2.72,3.16,4,3.76,1.62.76,5.46-.2,5.58-1.67ZM57.64,70.01c-1.65-1.69-2.73-3.05-3.82-3.68s-4.92-.16-5.35,1.05c-.52,1.48-.68,3.32-1.55,3.48-.79.14-2.8.22-2.95-.47l-.87-4.02-8.6.19c1.51,14.65,12.4,25.42,26.81,26.87.39-3.25.37-6.87-.12-8.88-1.85-.21-4.09-.12-4.05-.85l.14-3.15c.03-.73,2.66-.64,3.4-1,1.25-.62,1.63-4.97.62-5.97l-3.64-3.57ZM67.76,93.47c14.21-2.27,24.43-13.06,25.68-26.74-3.12-.49-7.08-.54-8.64.05l-1.16,3.92c-.2.68-2.85.52-3.07-.16l-1.04-3.2c-.45-1.37-5.02-1.71-5.99-.64l-3.28,3.61c-1.56,1.53-3.26,2.6-3.88,3.9-.56,1.16-.09,4.79.97,5.41.69.4,3.35.23,3.38.95l.1,2.97c.03.73-2.98.8-3.53,1.28-1.66,1.44-1.62,7.18.47,8.64Z"/>
  <path class="cls-2" d="M67.76,93.47c-2.09-1.46-2.13-7.2-.47-8.64.55-.48,3.55-.55,3.53-1.28l-.1-2.97c-.03-.72-2.69-.55-3.38-.95-1.06-.62-1.53-4.25-.97-5.41.63-1.29,2.32-2.37,3.88-3.9l3.28-3.61c.97-1.07,5.54-.73,5.99.64l1.04,3.2c.22.68,2.87.84,3.07.16l1.16-3.92c1.56-.59,5.53-.53,8.64-.05-1.25,13.68-11.46,24.47-25.68,26.74ZM85.43,76.01l-9.58-.18.16,9.59c4.58-2.83,6.57-4.8,9.42-9.41Z"/>
  <path class="cls-2" d="M57.64,70.01l3.64,3.57c1.02,1,.64,5.35-.62,5.97-.74.37-3.36.27-3.4,1l-.14,3.15c-.03.73,2.21.63,4.05.85.48,2.01.51,5.63.12,8.88-14.41-1.45-25.3-12.22-26.81-26.87l8.6-.19.87,4.02c.15.68,2.16.61,2.95.47.87-.16,1.03-2,1.55-3.48.43-1.22,4.25-1.68,5.35-1.05s2.17,1.99,3.82,3.68ZM52.15,75.75l-9.55.27c2.77,4.63,5.16,7.17,9.38,9.14l.17-9.41Z"/>
  <path class="cls-2" d="M57.91,57.6l-3.46,3.9c-.98,1.11-5.63.72-6.04-.71l-.96-3.36c-.2-.69-2.9-.88-3.12-.2l-1.15,3.68c-1.32,1.42-5.7,1.23-8.67.47,1.59-14.49,12.27-25.32,26.96-26.85.42,2.72.58,6.72-.17,8.52l-3.72,1.02c-.69.19-.46,1.77-.44,2.92.02.88,2.13.97,3.56,1.39,1.24.37,1.7,4.35,1.04,5.45s-2.04,2.14-3.82,3.77ZM52.22,52.16l-.28-9.61c-4.47,2.78-6.61,4.9-9.38,9.41l9.66.2Z"/>
  <path class="cls-2" d="M79.8,59.88c-.12,1.47-3.97,2.43-5.58,1.67-1.29-.6-2.45-2.21-4-3.76l-3.54-3.34c-1.05-.99-.66-5.63.71-6.04l3.16-.94c.75-.22.54-2.78.11-3.43s-1.63-.48-3.66-.76c-.59-1.99-.66-5.49-.27-8.69,14.39,1.36,25.17,12.19,26.72,26.67-3.23.34-7.08.29-8.71-.19-.56-2.43-.84-3.9-1.69-4.11-1.64-.4-3.07.86-3.24,2.92ZM85.37,51.87c-3.02-4.83-4.95-6.63-9.37-9.27l-.15,9.7,9.51-.42Z"/>
  <path class="cls-1" d="M85.43,76.01c-2.84,4.61-4.84,6.58-9.42,9.41l-.16-9.59,9.58.18Z"/>
  <path class="cls-1" d="M52.15,75.75l-.17,9.41c-4.22-1.97-6.61-4.5-9.38-9.14l9.55-.27Z"/>
  <path class="cls-1" d="M52.22,52.16l-9.66-.2c2.77-4.51,4.92-6.63,9.38-9.41l.28,9.61Z"/>
  <path class="cls-1" d="M85.37,51.87l-9.51.42.15-9.7c4.42,2.65,6.34,4.44,9.37,9.27Z"/>
</svg>