<?xml version="1.0" encoding="UTF-8" standalone="no"?>
<svg
   id="katman_1"
   data-name="katman 1"
   viewBox="0 0 128 128"
   version="1.1"
   sodipodi:docname="map_genericinfantry.svg"
   inkscape:version="1.4.2 (f4327f4, 2025-05-13)"
   xmlns:inkscape="http://www.inkscape.org/namespaces/inkscape"
   xmlns:sodipodi="http://sodipodi.sourceforge.net/DTD/sodipodi-0.dtd"
   xmlns="http://www.w3.org/2000/svg"
   xmlns:svg="http://www.w3.org/2000/svg">
  <sodipodi:namedview
     id="namedview2"
     pagecolor="#ffffff"
     bordercolor="#000000"
     borderopacity="0.25"
     inkscape:showpageshadow="2"
     inkscape:pageopacity="0.0"
     inkscape:pagecheckerboard="0"
     inkscape:deskcolor="#d1d1d1"
     inkscape:zoom="6.3046875"
     inkscape:cx="64.158612"
     inkscape:cy="63.920694"
     inkscape:window-width="1279"
     inkscape:window-height="1000"
     inkscape:window-x="1265"
     inkscape:window-y="0"
     inkscape:window-maximized="0"
     inkscape:current-layer="katman_1" />
  <defs
     id="defs1">
    <style
       id="style1">
      .cls-1 {
        fill: #1d1d1d;
      }
    </style>
  </defs>
  <path
     class="cls-1"
     d="M77.83,95.04c-3.58,8.3-12.24,11.06-19.95,7.24-6.53-3.23-10.33-9.44-12.79-16.44l-20.13-2.64.29-29.96c.13-13.38,9.65-23.96,22.58-26.74,7.35-1.58,14.51-1.52,22.26-1.56,17.91-.08,33.75,12.9,34.75,31.09.31,5.53.14,11.29.01,16.49l-22.56.4c-.51,8.17-1.32,14.85-4.46,22.12ZM56.66,68.31c8.33-11.11,31.01-10.3,43.3-10.53-.04-13.23-9.8-24.9-23.25-27.06-8.69-1.4-18.08-1.08-26.6.42-11.7,2.07-19.74,11.1-19.94,22.8l-.26,15.14,18.22,2.12c2.73.32,6.36-.93,8.52-2.89ZM68.5,98.36c8.2-4.33,8.47-20.72,8.78-29.74,6.81-.67,14.67-.97,21.8-1.14.9-.44.98-3.67.55-5.32-10.17-.42-20.19.02-30.16,2.51-11,2.74-11.36,11.66-20.31,10.73l-18.91-1.96c-.09,1.64-.01,4.53.29,5.6l18.27,2.12c1.94,9.98,11.54,21.51,19.69,17.2Z"
     id="path1" />
  <path
     class="cls-1"
     d="M67.01,93.63c-4.56,3.45-10.36-8.02-11.17-12.8l6.06-4.94c2.74-2.23,4.37-4.07,8.83-5.59.68,5.96.96,19.79-3.72,23.33ZM64.92,89.26l1.25-10.49-4.55,4.35,3.3,6.14Z"
     id="path2" />
  <path
     style="fill:#ffffff;stroke-width:0.158612"
     d="m 47.504337,71.059105 c -0.130855,-0.0344 -4.120125,-0.509383 -8.865045,-1.055528 l -8.627127,-0.992992 0.110594,-7.858452 c 0.136634,-9.708852 0.285511,-11.26176 1.392043,-14.520163 1.959227,-5.769331 6.040196,-10.366586 11.627701,-13.09873 2.368825,-1.158293 4.295125,-1.788657 6.965865,-2.279514 10.68113,-1.963094 23.559865,-1.728805 30.737425,0.559171 2.018784,0.643524 5.606933,2.461803 7.4022,3.751033 6.687136,4.802211 11.061511,12.529715 11.542458,20.390199 l 0.100982,1.650418 -1.712646,0.104791 c -0.941955,0.05763 -3.118588,0.104788 -4.83696,0.104788 -1.718374,0 -4.580133,0.07314 -6.359465,0.162522 -10.475741,0.526261 -17.354491,1.870126 -22.804082,4.455116 -2.868121,1.360479 -4.403308,2.446083 -6.602072,4.66864 -2.087374,2.109962 -3.065297,2.762137 -5.234201,3.490681 -0.980462,0.329342 -1.647467,0.438085 -2.934324,0.478391 -0.915985,0.02869 -1.772491,0.02402 -1.903346,-0.01037 z"
     id="path3" />
  <path
     style="fill:#ffffff;stroke-width:0.158612"
     d="M 62.820952,98.957829 C 58.829254,97.992327 54.305061,93.723386 51.491588,88.267658 50.442879,86.234062 49.541902,83.927554 49.136646,82.238985 48.925053,81.357346 48.799228,81.105676 48.54311,81.051821 48.36435,81.014233 44.399504,80.550863 39.732342,80.022111 35.06518,79.49336 31.095275,79.027692 30.910331,78.987295 30.66143,78.932929 30.548296,78.752666 30.474863,78.29344 c -0.104103,-0.651024 -0.163138,-4.608469 -0.07013,-4.701473 0.02963,-0.02963 4.478014,0.409379 9.885293,0.975581 10.460968,1.09538 11.07262,1.120316 12.985132,0.529376 1.780628,-0.550188 3.039469,-1.452932 6.277842,-4.501983 3.777961,-3.557094 6.230249,-4.9223 10.860227,-6.045966 4.159001,-1.009362 8.816631,-1.723915 14.12705,-2.167307 3.322832,-0.277439 14.740694,-0.279387 15.01752,-0.0026 0.142062,0.142062 0.200669,0.738222 0.19491,1.982652 -0.0094,2.025598 -0.267019,2.906265 -0.887232,3.032674 -0.202032,0.04118 -2.116029,0.115521 -4.253327,0.165209 -5.460271,0.126941 -15.946832,0.716772 -17.059607,0.959541 -0.312782,0.06824 -0.333834,0.240455 -0.518243,4.239418 -0.360276,7.812651 -1.030165,12.555825 -2.358387,16.698649 -1.422736,4.437619 -3.646136,7.506853 -6.425698,8.870183 -1.820333,0.892843 -3.525612,1.090845 -5.429257,0.630397 z m 4.124127,-5.207723 c 2.760571,-1.984335 4.190279,-7.510547 4.188259,-16.188768 -6.97e-4,-2.992915 -0.207363,-7.16407 -0.362649,-7.319356 -0.09479,-0.09479 -1.79374,0.615888 -3.12261,1.3062 -1.62887,0.846153 -2.160947,1.244511 -7.607928,5.695932 l -4.269888,3.489467 0.09112,0.555143 c 0.172951,1.053738 1.028192,3.415885 1.894413,5.232305 1.692791,3.549691 3.961199,6.440019 5.77389,7.356894 1.175701,0.59468 2.478078,0.54594 3.415397,-0.127817 z"
     id="path4" />
  <path
     style="fill:#ffffff;stroke-width:0.158612"
     d="m 63.842627,29.69114 c -5.676386,-0.03897 -11.39663,0.494981 -16.886522,1.977049 -7.762037,2.120362 -14.240311,8.498522 -16.208828,16.337951 -0.978121,3.638935 -0.732164,7.459749 -0.931741,11.188945 -0.03765,3.322807 -0.201196,6.681011 -0.09777,9.981903 1.064474,0.444515 2.438765,0.328216 3.619372,0.561296 5.320908,0.543352 10.614092,1.476849 15.965526,1.654531 3.390393,0.09259 6.532512,-1.729855 8.7373,-4.204773 3.441972,-3.669625 8.326819,-5.582178 13.094614,-6.845215 9.235995,-2.288181 18.808473,-1.989113 28.265051,-2.331365 1.260451,0.109679 0.628361,-1.346155 0.702291,-2.088291 C 99.498438,46.320086 93.422645,37.269883 84.75103,33.085345 78.321983,29.794296 70.900428,29.618697 63.842627,29.69114 Z"
     id="path5" />
  <path
     style="fill:#ffffff;stroke-width:0.158612"
     d="m 91.108116,61.890335 c -7.622238,-0.0454 -15.274043,0.786081 -22.627323,2.831784 -3.789144,1.002993 -6.950838,3.444497 -9.721822,6.123987 -2.185855,1.957027 -4.604932,4.380547 -7.792118,4.24776 -6.365556,-0.247135 -12.737323,-1.172797 -19.108484,-1.737287 -0.577885,0.08201 -1.769314,-0.569349 -1.907935,0.347572 -0.03038,1.788795 0.03077,3.602354 0.317224,5.370509 0.704648,0.555899 1.860544,0.289178 2.743743,0.515529 5.150895,0.619723 10.332031,1.08889 15.453902,1.870467 0.59918,1.305075 0.779939,2.81716 1.407064,4.137238 1.903454,4.54186 4.710048,8.916105 8.796598,11.777062 1.98856,1.261763 4.264368,2.384799 6.690985,2.062074 3.220253,-0.06457 5.886193,-2.441331 7.493829,-5.055989 3.070327,-5.150882 3.727363,-11.28104 4.241411,-17.136515 0.282222,-2.757831 0.139245,-5.563187 0.56652,-8.299359 0.891455,-0.331793 2.003306,-0.220136 2.968933,-0.361909 5.918097,-0.442516 11.856069,-0.593631 17.785094,-0.869503 0.968838,0.0524 1.593103,-0.788916 1.586433,-1.694238 0.10438,-1.288588 0.24976,-2.679602 -0.157684,-3.920384 -0.948734,-0.374893 -2.096909,-0.0839 -3.113957,-0.200067 -1.874075,-0.01725 -3.748288,-0.01809 -5.622413,-0.0087 z M 70.5,70.704151 c 0.468087,5.836895 0.569703,11.796082 -0.816652,17.516946 -0.567718,2.151574 -1.505312,4.595778 -3.640907,5.612236 -2.046789,0.607158 -3.78425,-1.17499 -4.969641,-2.600681 -2.177313,-2.867716 -3.839527,-6.215525 -4.816802,-9.700218 -0.454737,-0.954156 0.995515,-1.255513 1.461613,-1.8937 2.970988,-2.35888 5.796536,-4.922267 8.905296,-7.097395 1.244312,-0.686353 2.529639,-1.422501 3.877093,-1.837188 z"
     id="path6" />
</svg>
