<?xml version="1.0" standalone="no"?>
<!DOCTYPE svg PUBLIC "-//W3C//DTD SVG 20010904//EN"
 "http://www.w3.org/TR/2001/REC-SVG-20010904/DTD/svg10.dtd">
<svg version="1.0" xmlns="http://www.w3.org/2000/svg"
 width="512.000000pt" height="512.000000pt" viewBox="0 0 512.000000 512.000000"
 preserveAspectRatio="xMidYMid meet">
<metadata>
Created by potrace 1.14, written by Peter Selinger 2001-2017
</metadata>
<g transform="translate(0.000000,512.000000) scale(0.100000,-0.100000)"
fill="#000000" stroke="none">
<path d="M0 2560 l0 -2560 2560 0 2560 0 0 2560 0 2560 -2560 0 -2560 0 0
-2560z m1590 1220 c208 -19 385 -64 545 -140 134 -64 129 -41 50 -237 l-68
-171 -88 44 c-303 153 -693 189 -917 84 -127 -59 -192 -150 -192 -270 0 -80
22 -132 78 -182 80 -72 162 -102 523 -193 414 -104 544 -159 670 -284 120
-120 159 -222 159 -414 0 -193 -54 -323 -189 -457 -172 -171 -381 -245 -726
-257 -298 -10 -597 52 -836 172 -68 35 -169 103 -169 114 0 8 138 329 146 339
1 2 28 -14 61 -36 136 -93 347 -177 517 -207 114 -19 339 -20 443 0 160 30
277 113 308 219 30 102 13 178 -56 248 -84 84 -161 113 -559 213 -332 84 -457
133 -587 228 -152 112 -222 262 -223 473 -1 480 453 772 1110 714z m2496 -1
c297 -30 556 -145 736 -326 l68 -68 -108 -101 c-59 -55 -124 -115 -144 -133
l-37 -32 -43 41 c-238 232 -605 302 -939 180 -263 -96 -454 -319 -516 -604
-21 -96 -20 -299 1 -391 78 -329 283 -539 616 -631 50 -14 103 -18 230 -19
187 0 262 15 394 81 80 40 206 132 235 172 l19 26 43 -38 c24 -22 90 -84 146
-138 l102 -99 -59 -59 c-163 -159 -363 -262 -621 -317 -129 -27 -439 -25 -576
5 -255 55 -464 164 -633 331 -239 235 -360 532 -360 879 0 160 22 299 70 436
65 184 155 321 302 462 163 156 344 255 570 309 174 42 324 52 504 34z"/>
</g>
</svg>
