<?xml version="1.0" standalone="no"?>
<!DOCTYPE svg PUBLIC "-//W3C//DTD SVG 20010904//EN"
 "http://www.w3.org/TR/2001/REC-SVG-20010904/DTD/svg10.dtd">
<svg version="1.0" xmlns="http://www.w3.org/2000/svg"
 width="260.000000pt" height="260.000000pt" viewBox="0 0 260.000000 260.000000"
 preserveAspectRatio="xMidYMid meet">
<metadata>
Created by potrace 1.14, written by Peter Selinger 2001-2017
</metadata>
<g transform="translate(0.000000,260.000000) scale(0.100000,-0.100000)"
fill="#000000" stroke="none">
<path d="M0 1300 l0 -1300 1300 0 1300 0 0 1300 0 1300 -1300 0 -1300 0 0
-1300z m1939 949 c24 -5 66 -19 92 -31 l48 -20 -15 -37 c-8 -20 -18 -39 -22
-43 -4 -4 -34 3 -67 16 -121 48 -247 42 -304 -14 -33 -33 -41 -62 -29 -107 11
-44 55 -68 188 -103 199 -52 266 -101 277 -204 23 -199 -236 -306 -497 -207
-30 12 -66 30 -79 40 l-24 18 18 45 19 45 46 -29 c63 -40 131 -58 219 -58 121
1 191 46 191 122 0 60 -53 92 -225 137 -166 43 -228 89 -245 182 -19 102 45
203 151 240 61 21 187 25 258 8z m-1174 -272 c139 -232 162 -265 172 -250 7 9
79 131 160 270 l148 253 48 0 47 0 0 -390 0 -390 -55 0 -55 0 -2 277 -3 277
-139 -232 c-117 -195 -142 -232 -162 -232 -19 0 -45 37 -163 232 l-141 232 0
-277 0 -277 -55 0 -55 0 0 391 0 390 47 -3 47 -3 161 -268z m1342 -831 c33
-15 74 -41 89 -57 l28 -29 -33 -34 -33 -34 -47 33 c-55 39 -106 55 -183 55
-119 0 -221 -62 -269 -164 -55 -117 -34 -258 52 -345 101 -101 286 -118 395
-35 l45 35 28 -20 c53 -38 55 -46 20 -75 -157 -133 -423 -123 -567 21 -211
211 -126 571 157 665 87 28 236 21 318 -16z m-1342 -249 c139 -232 162 -265
172 -250 7 9 79 131 160 270 l148 253 48 0 47 0 0 -390 0 -390 -55 0 -55 0 -2
277 -3 277 -139 -232 c-117 -195 -142 -232 -162 -232 -19 0 -45 37 -163 232
l-141 232 0 -277 0 -277 -55 0 -55 0 0 391 0 390 47 -3 47 -3 161 -268z"/>
</g>
</svg>
