<?xml version="1.0" encoding="UTF-8"?>
<svg id="katman_1" data-name="katman 1" xmlns="http://www.w3.org/2000/svg" viewBox="0 0 128 128">
  <defs>
    <style>
      .cls-1 {
        fill: #ffa500;
      }

      .cls-2 {
        fill: #1d1d1d;
      }
    </style>
  </defs>
  <path class="cls-2" d="M73.78,108.07c-5.65-.49-12-.48-17.7-.53l-5.99,3.96-14.31.22c-2.78.04-5.49-2.67-5.48-5.67l.18-83.07c0-2.69,1.93-5.05,4.37-5.08l14.37-.15c1.91-.02,4.19,3.09,5.46,5.21l.42-8.94h17.79s.45,10.9.45,10.9c1.22-2.07,3.43-6.93,5.64-6.95l15.14-.17c1.68-.02,4.35,2.23,4.36,4.14l.22,82.04c.01,3.9-.94,7.62-5.83,7.64l-12.92.06c-1.54,0-4.64-3.46-6.17-3.6ZM68.17,19h-8.29v36h8.29V19ZM76.78,29c-1.6.23-3.58.11-3.62.74l-.22,4.13,15.61.68-7.24,8.51-8.22.11-.13,11.7,8.57.48-.05,40.31-35.41.07-.09-33.66c2.74-2.77,5.93-5.64,8.99-8.27v-10.51s-7.6-.38-7.6-.38l-6.57-8.42,12.9-.41c1.15-.04,2.14-3.77,1.22-4.24l-3.14-1.6-3.95-5.67-12.84.1.09,52.47c2.29-.03,4.88-.46,4.87.4l-.04,3.97c0,.85-2.69.42-4.85.4l.08,15.21c2.36,0,4.81-.39,4.8.44l-.03,3.95c0,.86-2.64.43-4.7.4l-.19,7.18,12.94-.19,4.88-3.95,23.96.14,4.26,3.89,12.94.02-.21-6.93c-2.12-.21-4.52.17-4.52-.67v-3.71c-.02-.84,2.61-.52,4.64-.63l.1-14.92c-1.31-.27-4.9.35-4.9-.7l-.02-3.91c0-.83,2.63-.41,4.88-.38l.05-52.38-12.56-.4-4.67,6.64ZM76.74,90.91l-.06-30.97-20.85-.16c-2.68-.02-5,2.42-5,5.02v26.12s25.9,0,25.9,0Z"/>
  <path class="cls-1" d="M76.78,29l4.67-6.64,12.56.4-.05,52.38c-2.25-.03-4.88-.44-4.88.38l.02,3.91c0,1.05,3.6.44,4.9.7l-.1,14.92c-2.02.11-4.65-.21-4.65.63v3.71c.02.84,2.41.45,4.53.67l.21,6.93-12.94-.02-4.26-3.89-23.96-.14-4.88,3.95-12.94.19.19-7.18c2.06.03,4.69.45,4.7-.4l.03-3.95c0-.84-2.45-.45-4.8-.44l-.08-15.21c2.16.03,4.84.45,4.85-.4l.04-3.97c0-.85-2.58-.42-4.87-.4l-.09-52.47,12.84-.1,3.95,5.67,3.14,1.6c.92.47-.07,4.21-1.22,4.24l-12.9.41,6.57,8.42,7.59.38v10.51c-3.05,2.64-6.24,5.5-8.98,8.27l.09,33.66,35.41-.07.05-40.31-8.57-.48.13-11.7,8.22-.11,7.24-8.51-15.61-.68.22-4.13c.03-.63,2.02-.51,3.62-.74Z"/>
  <path class="cls-1" d="M76.74,90.91h-25.92s.01-26.11.01-26.11c0-2.59,2.32-5.04,5-5.02l20.85.16.06,30.97Z"/>
  <rect class="cls-1" x="59.88" y="19" width="8.29" height="36"/>
</svg>