<?xml version="1.0" encoding="UTF-8"?>
<svg id="katman_1" data-name="katman 1" xmlns="http://www.w3.org/2000/svg" viewBox="0 0 128 128">
  <defs>
    <style>
      .cls-1 {
        fill: #ffa500;
      }

      .cls-2 {
        fill: #1d1d1d;
      }
    </style>
  </defs>
  <path class="cls-2" d="M87.33,109.97h-46.67c-.63-2.33-.83-4.46-1.76-4.51l-5.8-.33-.19-29.38,4.84-1.36.19-11.63-4.97-1.02.04-30.66c8.44-1.59,1.18-1.99,13.28-6.93l.89-5.16h33.61s.88,5.18.88,5.18c11.3,4.25,5.7,5.87,13.23,6.6l.14,30.99-5,.98.19,11.63,4.84,1.37-.19,29.35-5.81.36c-.94.06-1.12,2.18-1.75,4.5ZM83.54,105c.91-2.49,1.22-4.4,2.21-4.56l4.25-.68v-19.47s-4.93-.97-4.93-.97l.13-21.8,4.81-.62-.03-21.27-4.35-.87c-1.58-8.25-7.61-2.63-10.2-10.7h-22.83c-2.74,8.24-8.88,2.39-10,10.7l-4.6,1.06v20.97s4.87.8,4.87.8l.02,21.89-4.95,1.05.16,19.15,4.73,1.14c.76.18.88,2.11,1.36,4.1l39.38.07Z"/>
  <path class="cls-1" d="M83.54,105l-39.38-.07c-.48-1.99-.6-3.92-1.36-4.1l-4.73-1.14-.16-19.15,4.95-1.05-.02-21.89-4.85-.8v-20.97s4.59-1.06,4.59-1.06c1.12-8.31,7.26-2.46,10-10.71h22.83c2.59,8.07,8.63,2.46,10.2,10.71l4.35.87.03,21.27-4.81.62-.13,21.8,4.94.97v19.47s-4.25.68-4.25.68c-.99.16-1.31,2.06-2.21,4.56ZM80.66,57.12l4.16-9.15-41.67.04,4.45,9.15,33.07-.04ZM81.13,99.97c-.94-1.67-3.61-4.73-5.33-4.73l-23.6-.02c-1.76,0-4.37,2.95-5.13,4.74h34.07Z"/>
  <polygon class="cls-2" points="80.66 57.12 47.6 57.16 43.15 48.01 84.82 47.97 80.66 57.12"/>
  <path class="cls-2" d="M81.13,99.97h-34.07c.77-1.8,3.38-4.75,5.13-4.75l23.6.02c1.72,0,4.39,3.07,5.33,4.73Z"/>
</svg>