<?xml version="1.0" encoding="UTF-8"?>
<svg id="katman_1" data-name="katman 1" xmlns="http://www.w3.org/2000/svg" viewBox="0 0 128 128">
  <defs>
    <style>
      .cls-1 {
        fill: #ffa500;
      }

      .cls-2 {
        fill: #1d1d1d;
      }
    </style>
  </defs>
  <path class="cls-2" d="M82.95,123.43l-37.5.12c-2.08-3.87-4.82-7.6-7.84-10.26l-7.83-.51-.02-74.12c0-1.59,3.33-2.31,4.18-2.26l.37-10.95,10.01-13.2.29-7.8h38.77s.3,7.8.3,7.8l10.02,13.21.34,10.83,4.19,1.19v75.35s-7.72.49-7.72.49c-2.92,2.34-5.32,5.16-7.56,10.12ZM87.19,108.99l6.07-1.03.02-18.12-5.57-.57c-.36-.54-.91-4.38.17-4.49l5.34-.52-.03-18.53c-3.08-.08-4.68.09-5.51-.56s-.77-4.22.3-4.29l5.09-.32.27-18.09-4.39-1.91.1-13.28-8.77-11.17c-1.32-1.68-1.68-3.47-1.63-6.51l-28.82-.27-.94,5c-9.66,14.28-10.49,7.82-9.75,26.1l-4.49,2.13.29,18.13c2.44.04,5.57-.29,5.55.82l-.07,4-5.76.38.26,18.68c2.82-.03,4.89-.19,5.59.64s.53,4.24-.55,4.29l-5.05.21-.17,18.37c8.16-1.61,10.89,9.91,16.7,10.21,9.04.47,16.97.4,25.94.12,3.42-1.53,6.99-6.13,9.81-9.39Z"/>
  <path class="cls-1" d="M87.19,108.99c-2.82,3.26-6.39,7.86-9.81,9.39-8.98.28-16.91.35-25.94-.12-5.82-.3-8.54-11.82-16.7-10.21l.17-18.37,5.05-.21c1.08-.05,1.25-3.45.55-4.29s-2.77-.66-5.59-.64l-.26-18.68,5.76-.38.07-4c.02-1.1-3.11-.77-5.55-.82l-.29-18.13,4.49-2.13c-.73-18.27.1-11.81,9.75-26.1l.94-5,28.82.27c-.05,3.04.32,4.83,1.63,6.51l8.77,11.17-.1,13.28,4.39,1.91-.27,18.09-5.09.32c-1.07.07-1.14,3.64-.3,4.29s2.43.49,5.51.56l.03,18.53-5.34.52c-1.08.11-.53,3.95-.17,4.49l5.57.57-.02,18.12-6.07,1.03ZM61.42,40.25l-.12-9.12c-12.36-1.08-9.65-.83-17.57,8.76l17.69.36ZM84.26,39.97l-7.01-9.11-10.68.02.13,9.33,17.56-.24ZM66.5,62.09l-.05-14.6c-.85-.88-4.99-.48-5,.76l-.1,14.28c-7.58,1.98-12.04,8.28-10.87,15.66,1.04,6.61,7.16,11.49,14.17,11.29,7.02-.2,12.71-5.89,13.08-13s-4.54-11.97-11.23-14.39ZM76.98,95.28l-4.09,8.8-16.55.03-4.19-8.98c-.84-1.8-4.05-2.87-5.83-1.56l6.85,14.69,22.83.04,6.88-14.64c-2.29-1.52-4.96-.4-5.9,1.63Z"/>
  <path class="cls-2" d="M66.5,62.09c6.7,2.42,11.58,7.59,11.23,14.39s-6.06,12.81-13.08,13c-7.01.2-13.13-4.69-14.17-11.29-1.16-7.38,3.29-13.69,10.87-15.66l.1-14.28c0-1.24,4.15-1.64,5-.76l.05,14.6ZM72.54,75.93c0-4.71-3.82-8.53-8.53-8.53s-8.53,3.82-8.53,8.53,3.82,8.53,8.53,8.53,8.53-3.82,8.53-8.53Z"/>
  <path class="cls-2" d="M76.98,95.28c.94-2.02,3.61-3.15,5.9-1.63l-6.88,14.64-22.83-.04-6.85-14.69c1.78-1.31,4.99-.24,5.83,1.56l4.19,8.98,16.55-.03,4.09-8.8Z"/>
  <path class="cls-2" d="M61.42,40.25l-17.69-.36c7.92-9.59,5.21-9.84,17.57-8.76l.12,9.12Z"/>
  <polygon class="cls-2" points="84.26 39.97 66.7 40.2 66.57 30.87 77.25 30.85 84.26 39.97"/>
  <circle class="cls-1" cx="64.01" cy="75.93" r="8.53"/>
</svg>