<?xml version="1.0" encoding="UTF-8"?>
<svg id="katman_1" data-name="katman 1" xmlns="http://www.w3.org/2000/svg" viewBox="0 0 128 128">
  <defs>
    <style>
      .cls-1 {
        fill: #ffa500;
      }

      .cls-2 {
        fill: #1d1d1d;
      }
    </style>
  </defs>
  <path class="cls-2" d="M87.34,109.97h-46.69c-.63-2.32-.78-4.46-1.76-4.51l-5.79-.31-.19-29.4,4.84-1.36.2-11.63-4.97-.99.03-30.68c8.37-1.89,1.58-2.21,13.28-6.94l.9-5.14h33.6s.88,5.15.88,5.15c11.47,4.65,4.96,4.86,13.27,7.13l.07,30.49-4.97.99.15,11.66,4.87,1.32-.19,29.4-5.82.31c-.97.05-1.11,2.21-1.73,4.52ZM83.56,105.01c.89-2.41,1.24-4.34,2.21-4.52l4.21-.75.04-19.44-4.95-.96.05-21.27,4.79-1.36.15-20.79-4.55-1.19c-1.27-8.24-7.71-2.67-10.08-10.68h-22.84c-2.53,8.14-9.21,2.51-10.05,10.68l-4.56,1.07.02,20.96,4.91,1.12-.04,21.69-4.9.64.05,19.55,4.79,1.03c.76.16.9,2.11,1.41,4.12l39.33.11Z"/>
  <path class="cls-1" d="M83.56,105.01l-39.33-.11c-.5-2.01-.64-3.96-1.41-4.12l-4.79-1.03-.05-19.55,4.9-.64.04-21.69-4.91-1.12-.02-20.96,4.56-1.07c.84-8.17,7.52-2.54,10.05-10.67h22.84c2.37,8.01,8.81,2.43,10.08,10.68l4.55,1.19-.15,20.79-4.79,1.36-.05,21.27,4.95.96-.04,19.44-4.21.75c-.97.17-1.31,2.11-2.21,4.52ZM80.42,57.18l4.21-9.24-41.44.1,4.66,9.15h32.57ZM71.43,86.17c3.89,1.53,7.1,9.61,8.09,9.54,1.31-.09,3.98-.76,4.56-1.09-10.79-12.34-7.06-4.66-13.55-18.47l8.86-8.23-5.73-5.86c-.9,1.73-1.62,3.49-2.43,4.31l-27.98,28.49c2.16,1.73,18.61.62,13.42-1.12l-2.14-.71c2.77-3.21,6.13-6.78,9.29-9.84l7.61,2.98Z"/>
  <path class="cls-2" d="M71.43,86.17l-7.61-2.98c-3.16,3.07-6.51,6.63-9.29,9.84l2.14.71c5.19,1.74-11.26,2.85-13.42,1.12l27.98-28.49c.81-.83,1.53-2.58,2.43-4.31l5.73,5.86-8.86,8.23c6.49,13.81,2.76,6.13,13.55,18.47-.58.34-3.26,1-4.56,1.09-.98.07-4.19-8.01-8.09-9.54Z"/>
  <polygon class="cls-2" points="80.42 57.18 47.84 57.19 43.19 48.04 84.63 47.94 80.42 57.18"/>
</svg>