<?xml version="1.0" encoding="UTF-8"?>
<svg id="katman_1" data-name="katman 1" xmlns="http://www.w3.org/2000/svg" viewBox="0 0 128 128">
  <defs>
    <style>
      .cls-1 {
        fill: #ffa500;
      }

      .cls-2 {
        fill: #1d1d1d;
      }
    </style>
  </defs>
  <path class="cls-2" d="M84.92,97.73c-5.76.44-10.27-.49-14.02-3.78-6.3-5.52-4.39-11.44-6.16-15.27-.28-.61-2.35,1.05-2.28,1.94.55,7.28-5.42,17.47-14.76,17.18-5.19-.16-9.76-.3-13.5-3.86-7.39-7.03-7.29-18.71.55-25.69,4.07-3.62,8.81-2.59,14.72-4.26-5.89-1.68-10.64-.64-14.72-4.27-7.66-6.83-7.91-18.09-1.1-25.16,3.75-3.89,8.5-4.42,14.09-4.33,8.35.14,14.59,7.87,14.68,15.7,0,.51.6,1.97.8,2.4,2.42,5.13.89-8.61,7.65-14.32,4.17-3.52,8.93-4.23,14.57-3.66,9.42.95,14.9,10.23,13.57,18.95-1.52,10-9.58,14.37-20.46,14.3,6.12,2.62,11.23.89,15.33,5.15,3.5,3.64,5.75,8.25,5.29,14.07-.59,7.47-6.07,14.28-14.25,14.9ZM34.49,54.26c4.37,5.83,11.73,7.53,17.87,4,5.38-3.09,8.7-9.88,6.14-16.12-3.29-8.04-12.32-11.28-19.53-7.11-6.68,3.86-9.43,12.63-4.48,19.23ZM95.86,46.63c0-7.45-6.04-13.49-13.49-13.49s-13.49,6.04-13.49,13.49,6.04,13.49,13.49,13.49,13.49-6.04,13.49-13.49ZM67.74,75.46c2.55-4.7,4.06-6.15,8.17-8.49l.02-5.98c-4.54-2.45-6.46-4.58-8.43-9.4l-7.01-.08c-1.9,4.94-3.78,7.04-8.42,9.4l.13,5.95c4.27,2.43,5.99,4.26,8.3,8.63,1.87.13,5.33.12,7.25-.03ZM59.16,81.34c0-7.46-6.04-13.5-13.5-13.5s-13.5,6.04-13.5,13.5,6.04,13.5,13.5,13.5,13.5-6.04,13.5-13.5ZM95.3,85.49c2.35-6.06-1.03-12.35-5.67-15.38-4.88-3.19-11.31-2.83-15.73.8-4.24,3.48-6.74,9.55-4.39,14.92,2.55,5.82,7.42,9.13,13.34,8.93,5.18-.18,10.12-3.28,12.44-9.27Z"/>
  <path class="cls-1" d="M67.74,75.46c-1.92.15-5.38.16-7.25.03-2.31-4.37-4.03-6.19-8.3-8.63l-.13-5.95c4.64-2.36,6.52-4.46,8.42-9.4l7.01.08c1.97,4.83,3.89,6.96,8.43,9.4l-.02,5.98c-4.1,2.35-5.62,3.79-8.17,8.49Z"/>
  <path class="cls-1" d="M34.49,54.26c-4.95-6.6-2.2-15.37,4.48-19.23,7.22-4.17,16.24-.93,19.53,7.11,2.55,6.24-.77,13.03-6.14,16.12-6.14,3.53-13.5,1.83-17.87-4ZM55.57,46.6c0-5.46-4.43-9.89-9.89-9.89s-9.89,4.43-9.89,9.89,4.43,9.89,9.89,9.89,9.89-4.43,9.89-9.89Z"/>
  <path class="cls-1" d="M59.16,81.34c0,7.46-6.04,13.5-13.5,13.5s-13.5-6.04-13.5-13.5,6.04-13.5,13.5-13.5,13.5,6.04,13.5,13.5ZM55.58,81.35c0-5.47-4.44-9.91-9.91-9.91s-9.91,4.44-9.91,9.91,4.44,9.91,9.91,9.91,9.91-4.44,9.91-9.91Z"/>
  <path class="cls-1" d="M95.86,46.63c0,7.45-6.04,13.49-13.49,13.49s-13.49-6.04-13.49-13.49,6.04-13.49,13.49-13.49,13.49,6.04,13.49,13.49ZM92.27,46.66c0-5.46-4.43-9.89-9.89-9.89s-9.89,4.43-9.89,9.89,4.43,9.89,9.89,9.89,9.89-4.43,9.89-9.89Z"/>
  <path class="cls-1" d="M95.3,85.49c-2.33,5.99-7.26,9.1-12.44,9.27-5.92.2-10.79-3.11-13.34-8.93-2.35-5.38.15-11.44,4.39-14.92,4.41-3.63,10.85-4,15.73-.8,4.64,3.04,8.02,9.33,5.67,15.38ZM92.27,81.34c0-5.47-4.44-9.91-9.91-9.91s-9.91,4.44-9.91,9.91,4.44,9.91,9.91,9.91,9.91-4.44,9.91-9.91Z"/>
  <path class="cls-2" d="M55.57,46.6c0,5.46-4.43,9.89-9.89,9.89s-9.89-4.43-9.89-9.89,4.43-9.89,9.89-9.89,9.89,4.43,9.89,9.89ZM49.82,46.68c0-2.3-1.87-4.17-4.17-4.17s-4.17,1.87-4.17,4.17,1.87,4.17,4.17,4.17,4.17-1.87,4.17-4.17Z"/>
  <path class="cls-2" d="M55.58,81.35c0,5.47-4.44,9.91-9.91,9.91s-9.91-4.44-9.91-9.91,4.44-9.91,9.91-9.91,9.91,4.44,9.91,9.91ZM49.84,81.36c0-2.32-1.88-4.2-4.2-4.2s-4.2,1.88-4.2,4.2,1.88,4.2,4.2,4.2,4.2-1.88,4.2-4.2Z"/>
  <path class="cls-2" d="M92.27,46.66c0,5.46-4.43,9.89-9.89,9.89s-9.89-4.43-9.89-9.89,4.43-9.89,9.89-9.89,9.89,4.43,9.89,9.89ZM86.55,46.64c0-2.32-1.88-4.19-4.19-4.19s-4.19,1.88-4.19,4.19,1.88,4.19,4.19,4.19,4.19-1.88,4.19-4.19Z"/>
  <path class="cls-2" d="M92.27,81.34c0,5.47-4.44,9.91-9.91,9.91s-9.91-4.44-9.91-9.91,4.44-9.91,9.91-9.91,9.91,4.44,9.91,9.91ZM86.53,81.36c0-2.3-1.86-4.16-4.16-4.16s-4.16,1.86-4.16,4.16,1.86,4.16,4.16,4.16,4.16-1.86,4.16-4.16Z"/>
  <circle class="cls-1" cx="45.65" cy="46.68" r="4.17"/>
  <circle class="cls-1" cx="45.65" cy="81.36" r="4.2"/>
  <circle class="cls-1" cx="82.36" cy="46.64" r="4.19"/>
  <circle class="cls-1" cx="82.36" cy="81.36" r="4.16"/>
</svg>