<?xml version="1.0" encoding="UTF-8"?>
<svg id="katman_1" data-name="katman 1" xmlns="http://www.w3.org/2000/svg" viewBox="0 0 128 128">
  <defs>
    <style>
      .cls-1 {
        fill: #ffa500;
      }

      .cls-2 {
        fill: #1d1d1d;
      }
    </style>
  </defs>
  <g>
    <path class="cls-2" d="M92.43,111.66l-13.51-.11-5.38-3.88h-18.07s-5.36,3.89-5.36,3.89l-14.19.13c-3.82.03-5.61-3.17-5.6-6.69l.2-83.06c0-1.3,2.31-4.04,3.51-4.04h15.99c1.92.01,4.18,4.32,5.39,6.33l18.47.05c1.04-2.02,3.14-6.36,5.07-6.37l15.15-.09c1.74-.01,4.39,2.17,4.4,4.12l.22,82.04c.01,3.93-.92,7.73-6.27,7.69ZM94.12,107.04l-.34-7.03c-2.92-.12-4.84-.15-4.82-1.22.01-.94-.24-3.53.6-3.6l4.44-.4-.09-14.88c-2.1,0-4.81.43-4.81-.44v-3.97c0-.87,2.8-.42,4.87-.38l.06-52.41-12.64-.28-4.51,6.54-24.82.03-4.21-6.54-12.87.27.08,52.39c2.29-.02,4.88-.44,4.88.4l-.04,3.96c0,.85-2.69.43-4.85.42l.09,15.11c3.07.12,5.02.22,4.94,1.27-.07.91.19,3.53-.65,3.58l-4.36.25-.07,6.96,13.02-.13,4.24-3.92,24.48.02,4.33,3.9,13.06.11Z"/>
    <path class="cls-1" d="M94.12,107.04l-13.06-.11-4.33-3.9-24.48-.02-4.24,3.92-13.02.13.07-6.96,4.36-.25c.84-.05.58-2.67.65-3.58.08-1.05-1.87-1.14-4.94-1.27l-.09-15.11c2.17.01,4.84.43,4.85-.42l.04-3.96c0-.84-2.58-.42-4.88-.4l-.08-52.39,12.87-.27,4.21,6.54,24.82-.03,4.51-6.54,12.64.28-.06,52.41c-2.07-.04-4.88-.49-4.87.38v3.97c0,.87,2.72.44,4.82.44l.09,14.88-4.44.4c-.84.08-.58,2.66-.6,3.6-.02,1.07,1.9,1.1,4.82,1.22l.34,7.03ZM71.9,34.09l-.95,4.91h-12.88s-1.07-4.99-1.07-4.99l-16.47.47,7.22,8.65,33.85-.13,6.96-8.6-16.67-.31Z"/>
    <polygon class="cls-2" points="71.9 34.09 88.56 34.4 81.6 43 47.74 43.13 40.53 34.48 57 34.01 58.07 39 70.95 39 71.9 34.09"/>
  </g>
  <g>
    <path class="cls-2" d="M71.53,84.53c-1.17-.37-.13-1.36-.96-1.41-.16-.01-.63.04-.76-.09l-8.83-8.88c-1.88-1.89-.44-1.72-2.56-3.59l2.98-2.99,1.41,1.22c.35.3.98.34,1.45.56l9.76,9.77c.03.31.06.97.31.98h.64c.16.02.36.38.44.6l-3.87,3.86Z"/>
    <path class="cls-2" d="M64.46,91.57c-.85-.27-.36-1.02-.62-1.27-.36-.34-.69.11-1.23-.44l-3.73-3.77-2.87-2.89c-1.01-1.02-2.19-1.96-2.95-3.16-.54-.86-.64-1.83-1.69-2.45l3.06-3.05c.71,1.04,1.72,1.36,2.72,1.8l9.84,9.76c-.04.38.03.96.29,1.05.47-.04.97-.05,1.12.53l-3.93,3.89Z"/>
    <path class="cls-2" d="M78.51,77.45c-.19.18-.68-.38-.62-.6.03-.14.03-.45-.01-.56-.21-.5-.61.21-1.45-.64l-9.2-9.29-.66-1.47c-.21-.48-.72-.86-1.15-1.31l3.02-2.99c1.39,1.13,1,1.12,2.81,1.75l9.76,9.75c-.03.41.04.78.24.98.49-.14,1.01.06,1.12.59l-3.86,3.8Z"/>
    <path class="cls-2" d="M53.82,73.97l-3.02,3.02c-2.21-2.08-4.32-4.15-5.15-7.11-.07-.25-.02-.88.21-.96.43-.16,1-.07,1.41.1,2.85,1.18,4.28,2.64,6.54,4.95Z"/>
    <path class="cls-2" d="M67.9,59.96l-3.06,3.04-2.4-2.48c-1-1.03-3.19-4.31-2.61-5.49.09-.19.66-.29.91-.21,3.13.99,4.78,2.81,7.17,5.15Z"/>
    <path class="cls-2" d="M60.84,66.97l-3.02,3.02c-1.27-1.26-2.43-2.41-3.43-3.79-.54-.74-2.18-3.45-1.57-4.15.66-.75,3.41.95,4.17,1.4,1.37,1.03,2.54,2.13,3.85,3.52Z"/>
  </g>
</svg>