<?xml version="1.0" encoding="UTF-8" standalone="no"?>
<svg
   id="katman_1"
   data-name="katman 1"
   viewBox="0 0 128 128"
   version="1.1"
   sodipodi:docname="map_hat.svg"
   inkscape:version="1.4.2 (f4327f4, 2025-05-13)"
   xmlns:inkscape="http://www.inkscape.org/namespaces/inkscape"
   xmlns:sodipodi="http://sodipodi.sourceforge.net/DTD/sodipodi-0.dtd"
   xmlns="http://www.w3.org/2000/svg"
   xmlns:svg="http://www.w3.org/2000/svg">
  <sodipodi:namedview
     id="namedview1"
     pagecolor="#30a64a"
     bordercolor="#000000"
     borderopacity="0.25"
     inkscape:showpageshadow="2"
     inkscape:pageopacity="0.0"
     inkscape:pagecheckerboard="0"
     inkscape:deskcolor="#d1d1d1"
     inkscape:zoom="6.3046875"
     inkscape:cx="64"
     inkscape:cy="63.920694"
     inkscape:window-width="1279"
     inkscape:window-height="1000"
     inkscape:window-x="1272"
     inkscape:window-y="0"
     inkscape:window-maximized="0"
     inkscape:current-layer="katman_1" />
  <defs
     id="defs1">
    <style
       id="style1">
      .cls-1 {
        fill: #0e0e0e;
      }
    </style>
  </defs>
  <path
     class="cls-1"
     d="M63.92,79.32l-30.9,30.63c-3.01,2.98-5.51,4.35-9.73,4.22-3.38-.1-7.36-1.59-9.16-5.95-.92-2.23-.56-7.14-.04-9.95l34.34-34.35c-1.93-1.38-3.9-3.01-4.31-4.49-.48-1.71,1.89-4.22,3.28-5.76l5.67-6.3,12.37-.4c1.9-1.5,5.37-5.07,6.91-7.06,2.85-8.98-1.24-25.78,7.93-26.11,2.63-.09,5.25,2.04,6.56,4.74,5.27,10.85,7.72.2,15.44,7.96,2.77,2.79,2.9,6.56,2.25,10.98,1.78,3.6,10.38,3.92,9.87,10.23-.74,9.26-16.09,4.76-26.29,7.9-2.11,1.8-5.59,5.21-7.33,7.15l-.03,11.97-6.45,5.69c-1.54,1.36-3.66,3.56-5.86,3.21-1.55-.25-3.19-2.37-4.53-4.32ZM70.78,76.92l-2.67-7.57c-.2-.56,2.05-1.94,2.3-1.39l1.22,2.61,1.4,3.01c.32.69,2.34.63,2.76.02s1.29-2.85,1.23-3.65l-.69-9.06,9.68-9.63,21.32-1.79c.65-.05,2.33-.91,2.78-1.24.34-.25-.09-1.07-.38-1.74l-10.91-6.6,1.01-5.2c.46-2.35.6-3.78-1.28-5.65-1.68-1.67-5.51-.67-10.33.31l-6.57-10.53c-.25-.41-1.6-1.06-1.84-.72s-1.1,1.8-1.15,2.33l-1.88,21.73-10.02,9.64-10.6-.79c-.93-.07-3.1,3.01-2.66,3.22,2.66,1.6,5,2.76,7.12,4.81-3.84,1.02-6.62-.76-8.98-1.7-.45-.07-1.79-.11-2.21-.11s-.76,1.29-.41,1.51l6.61,4.26-37.33,37.25c-2.03,2.03-.47,6.96,1.19,8.36,1.86,1.56,6.33,2.28,8.41.22l37-36.6,4.5,6.85c-.04.68,1.63-1.42,1.37-2.15Z"
     id="path1" />
  <path
     style="fill:#30a64a;stroke-width:0.158612"
     d="m 80.106257,17.813197 c -0.985646,0.204002 -1.100728,1.508995 -1.638165,2.194238 -0.722155,7.312075 -1.208329,14.692318 -1.989776,21.979553 -3.153965,3.14503 -6.299223,6.312873 -9.656444,9.244114 -0.757675,0.577653 -1.803195,0.02746 -2.673157,0.118116 -2.749523,-0.118531 -5.496918,-0.572787 -8.249397,-0.47685 -1.089425,0.301697 -1.68049,1.451953 -2.317224,2.302973 -0.383989,0.445033 -0.504567,1.168831 0.154276,1.429987 2.122617,1.432583 4.436623,2.603352 6.367099,4.30855 -2.588997,0.389846 -5.143475,-0.234148 -7.447306,-1.425498 -1.094197,-0.495485 -2.427114,-0.629852 -3.570041,-0.269979 -0.722447,0.51982 -0.4457,1.572589 0.281908,1.950435 1.855132,1.388034 3.881386,2.528925 5.758054,3.887545 -12.098129,12.386557 -24.594988,24.385783 -36.653655,36.813817 -0.906939,0.730732 -1.352327,1.831012 -1.322668,2.982782 -0.118411,2.1536 0.704724,4.38772 2.194725,5.93915 1.985062,1.56134 4.756166,1.79791 7.129492,1.15645 2.182636,-1.09031 3.661612,-3.16283 5.457122,-4.75472 10.988678,-10.837547 21.946603,-21.708238 32.94963,-32.529981 1.528029,2.211448 2.849709,4.602553 4.553595,6.67441 0.725696,-0.0096 1.121984,-0.920851 1.431227,-1.491016 0.255797,-1.577367 -0.700214,-3.055388 -1.090405,-4.540652 -0.43663,-1.371831 -1.035662,-2.753146 -1.289397,-4.151417 0.409931,-0.39494 1.031177,-1.015903 1.60223,-0.960657 1.253532,1.868512 1.804648,4.182035 3.204462,5.94269 0.846555,0.217157 1.978624,0.246009 2.672552,-0.357187 0.989646,-1.636378 1.468525,-3.593815 1.165427,-5.499381 -0.144139,-2.451416 -0.339835,-4.89945 -0.51456,-7.348823 3.159322,-3.204653 6.369415,-6.352657 9.640955,-9.442688 7.188502,-0.612966 14.385714,-1.176004 21.568774,-1.820324 0.8195,-0.530727 2.11453,-0.692135 2.58302,-1.625463 0.12043,-1.623784 -1.54493,-2.342337 -2.67627,-3.072633 -2.85624,-1.753479 -5.76027,-3.456198 -8.594484,-5.227863 0.356966,-2.875631 1.480674,-5.756946 0.984204,-8.67689 -0.528808,-1.988554 -2.581451,-3.40612 -4.637859,-3.157373 -2.42416,0.08861 -4.787841,0.772241 -7.161711,1.083024 -2.238082,-3.645097 -4.524295,-7.273209 -6.991016,-10.766109 -0.350099,-0.251765 -0.788727,-0.424957 -1.225217,-0.41233 z"
     id="path2" />
</svg>
