<?xml version="1.0" encoding="UTF-8" standalone="no"?>
<svg
   id="katman_1"
   data-name="katman 1"
   viewBox="0 0 128 128"
   version="1.1"
   sodipodi:docname="map_infantiair.svg"
   inkscape:version="1.4.2 (f4327f4, 2025-05-13)"
   xmlns:inkscape="http://www.inkscape.org/namespaces/inkscape"
   xmlns:sodipodi="http://sodipodi.sourceforge.net/DTD/sodipodi-0.dtd"
   xmlns="http://www.w3.org/2000/svg"
   xmlns:svg="http://www.w3.org/2000/svg">
  <sodipodi:namedview
     id="namedview1"
     pagecolor="#dc322e"
     bordercolor="#000000"
     borderopacity="0.25"
     inkscape:showpageshadow="2"
     inkscape:pageopacity="0.0"
     inkscape:pagecheckerboard="0"
     inkscape:deskcolor="#d1d1d1"
     inkscape:zoom="6.3046875"
     inkscape:cx="63.920694"
     inkscape:cy="64"
     inkscape:window-width="2560"
     inkscape:window-height="1009"
     inkscape:window-x="-8"
     inkscape:window-y="-8"
     inkscape:window-maximized="1"
     inkscape:current-layer="katman_1" />
  <defs
     id="defs1">
    <style
       id="style1">
      .cls-1 {
        fill: #1d1d1d;
      }
    </style>
  </defs>
  <path
     class="cls-1"
     d="M33.69,102.34l-8.41-8.35c-2.56-2.55-.21-6.46.39-9.32.49-2.31-.47-7.05,2.67-8.13,2.91-1,6.03-1.74,8.58-2.34-1.03-1.45-3.11-4.5-3.17-6.41-.09-3.13,3.53-7.53,6.52-8.27l14.96-3.7c2.52-4.54,7.73-4.96,10.73-7.61l24.2-21.39c3.65-3.22,8.58-3.26,11.63-.06,3.35,3.52,2.41,8.2-.78,11.76l-21.12,23.5c-2.69,3-3.2,8.15-7.71,10.68l-3.78,15.06c-.56,2.22-4.46,5.51-6.89,6.08-2.73.64-5.45-1.39-7.94-3.14l-1.17,5.83c-.28,1.39-1.74,4.15-3.02,4.65-1.46.56-4.63.5-6.47.78-2.63.39-6.28,3.31-9.23.39ZM37.97,99.18l2.76-6.73,6.23,4.99,1.63-7.74c.6-2.83,2.31-5.4,4.72-7.16l6.54,6.21c7.15-1.24,4.77-15.09,8.55-18.77,3.74-3.64,4.82-8.09,7.76-11.39l22.05-24.83c.98-1.1,1.08-3.85.08-4.66-.83-.67-3.35-.14-4.24.64l-24.89,21.78c-3.33,2.91-7.79,4.22-11.48,7.68-4.19,3.94-17.34,1.46-18.98,8.45l6.23,6.63c-1.89,2.78-4.77,4.27-8.13,4.93l-6.82,1.33,4.92,6.15-6.66,2.86,9.74,9.61Z"
     id="path1" />
  <path
     style="fill:#dc322e;stroke-width:0.158612"
     d="m 96.96995,28.549257 c -1.38189,0.07031 -2.732315,0.580019 -3.674411,1.624845 -8.605127,7.283093 -16.945682,14.88534 -25.576517,22.129802 -3.418036,2.312659 -7.232652,4.037905 -10.349024,6.785561 -2.17305,1.730214 -5.063883,1.951957 -7.681603,2.502192 -3.220036,0.688604 -6.821397,0.934373 -9.462559,3.113423 -0.869696,0.780892 -1.518262,1.860717 -1.79337,2.973359 1.974694,2.258802 4.21934,4.372921 6.086121,6.673792 -2.050043,2.942301 -5.510093,4.294365 -8.936959,4.829657 -1.830387,0.387775 -3.685464,0.70055 -5.513474,1.116439 -0.560719,0.543978 0.51,1.121017 0.717811,1.628175 1.210586,1.558346 2.467173,3.080593 3.664779,4.649086 -2.019762,0.958362 -4.166356,1.732251 -6.174412,2.745044 -0.335883,0.643871 0.693363,1.046768 0.971065,1.539787 2.791197,2.851981 5.664773,5.621741 8.501674,8.427995 0.915947,0.08541 0.848544,-1.537368 1.333413,-2.152621 0.591014,-1.375732 1.129975,-2.875058 1.820242,-4.153451 2.04066,1.450413 3.878932,3.21277 5.976146,4.561029 0.687397,-0.348849 0.452267,-1.447598 0.747412,-2.09831 0.808524,-3.127261 0.998746,-6.513606 2.725947,-9.325483 0.793587,-1.20077 1.778051,-2.289728 2.898078,-3.192378 2.26384,1.911468 4.22621,4.194341 6.639716,5.916977 1.176045,0.168 2.227915,-0.788779 3.009603,-1.578067 2.220393,-2.53641 2.478277,-6.094236 3.137856,-9.256507 0.488587,-2.318844 0.699208,-4.78014 1.835812,-6.894051 1.457017,-1.850638 3.113318,-3.560656 4.233363,-5.658861 1.486467,-2.467217 2.708075,-5.12385 4.773573,-7.184033 7.161546,-8.320936 14.645908,-16.363188 21.690195,-24.783856 0.841997,-1.058997 0.69996,-2.610955 0.378147,-3.84537 -0.298289,-0.800118 -1.171022,-1.163129 -1.978624,-1.094175 z"
     id="path2" />
</svg>
