<?xml version="1.0" encoding="UTF-8"?>
<svg id="katman_1" data-name="katman 1" xmlns="http://www.w3.org/2000/svg" viewBox="0 0 128 128">
  <defs>
    <style>
      .cls-1 {
        fill: #dc322e;
      }

      .cls-2 {
        fill: #1d1d1d;
      }
    </style>
  </defs>
  <path class="cls-2" d="M100.27,74.57l-47.68.04-6.42,6.2-23.53-.19c-1.33-.01-3.55-2.94-3.32-4.1,1.24-6.27,10.4-8.41,7.09-15.06-2.37-4.75-6.69-6-7.06-10.53-.1-1.16,2.04-3.67,3.27-3.68l23.46-.08,6.7,6.42,46.92-.31,6.94,6.19c.95.84,2.24,3.92,2.03,5.17-.24,1.47-1.85,3.53-3.21,4.85l-5.2,5.06ZM50.66,70.78l26.28-.13-.02-13.29-26.38-.07-6.25-6.2-20.64.14,6.47,8.26c1.35,1.73.84,7.42.09,9.32l-6.71,7.97,20.76.25,6.38-6.25ZM104.96,63.99l-6.37-6.53-14.45-.14.08,13.44,14.42-.08,6.32-6.68Z"/>
  <path class="cls-1" d="M50.66,70.78l-6.38,6.25-20.76-.25,6.71-7.97c.75-1.9,1.26-7.6-.09-9.32l-6.47-8.26,20.64-.14,6.25,6.2,26.38.07.02,13.29-26.28.13Z"/>
  <polygon class="cls-1" points="104.96 63.99 98.65 70.67 84.22 70.75 84.14 57.31 98.59 57.45 104.96 63.99"/>
</svg>